<mxfile host="app.diagrams.net" agent="Mozilla/5.0 (Windows NT 10.0; Win64; x64) AppleWebKit/537.36 (KHTML, like Gecko) Chrome/128.0.0.0 Safari/537.36" version="24.7.13">
  <diagram name="Page-1" id="HHiTO1PfC1XZQQPMPbJI">
    <mxGraphModel dx="1896" dy="1684" grid="1" gridSize="10" guides="1" tooltips="1" connect="1" arrows="1" fold="1" page="1" pageScale="1" pageWidth="827" pageHeight="1169" math="0" shadow="0">
      <root>
        <mxCell id="0" />
        <mxCell id="1" parent="0" />
        <mxCell id="sBmEp7bvWE8VAt0zwp9F-3" value="" style="shape=image;verticalLabelPosition=bottom;labelBackgroundColor=default;verticalAlign=top;aspect=fixed;imageAspect=0;image=data:image/png,iVBORw0KGgoAAAANSUhEUgAAAnAAAAJQCAYAAAAOv1mVAAAAAXNSR0IArs4c6QAAAARnQU1BAACxjwv8YQUAAAAJcEhZcwAADsMAAA7DAcdvqGQAAP+lSURBVHhe7N0FuBzV+cfxaem/QmlxJ7i7a3EI7u7ubsEhSIDirqFAcHd39+Du7sWKFdr57+ewJ10u9yY3yZXdve/3eeaZ2dnZ2Zkzs3t+89r5zSQnf1IWQRAEQRAEQcPwm+te+b5cZvI/VF8GQRAEQVBvlGVZ/Oc//yn++9//pikvw7L3W/LTTz9Vl37JCCOMUPzmN7+pvvofv/vd79Lce5bNbfvb3/42TUF9EQIuCIIgCDqRf//738VXX31V/Otf/0rzb7/9tvjuu++Kb775Ji1///33ae619ZZ95ocffkgiLM8JNdOPP/44SMARbl63FHB5fUtqxVkteT2hlpeJt//7v/9Lc9Mf/vCHtP5Pf/pTev3nP/+5GHHEEdPceyONNFJ6/cc//nHQe6ZRRhml+Otf/1r8/ve/r35b0BGEgAuCIAiCViCsvvzyyyS8vv766zQnsMyJLes+/fTT4p///GcSXYQW4UU4mZuyFYyoIXLMCZksfLLgyWKHOLKecLKeULKOcMqv7cc+bAOvra+FCGttPWHnHFoTfNaDOLTsPBy/dshC0nvO1Wtzk21zu2QxmtvD5D3rCU7HnY+9du6cRx111DSNPvrog9oji0LvjzzyyEkIao8gBFwQBEHQQyCoCAvCiwAjOL744ovi3XffLT744INkHfv888/Te4QbwUE4ERCsSMTFX/7ylyQkslWJ2BhttNGSuMpWK1Ys85bLeWpp/WpWiMJsNcxu35bLeSL0iGHX47PPPkvt7zqZW+fa2Iao1IaEnWvgWlgec8wxi/HGGy+9zkLYsrn3m7HNQ8AFQRAETQXhoNN/7bXXildeeaV4++23izfffDNZyogC6NyJMcJrggkmKMYYY4wkyExZpGVx4HXEgHU/BBzRnUVdFuBef/jhh2n65JNPBok9k+s39thjFxNNNFEx+eSTF5NNNlkxySSTJOHd6KIuBFwQBEHQUBBoOm+WM50269kzzzxTfPTRR8mCplPnPhxrrLFSp92rV69i0kknLSaeeOK0LlxwPQPWOveG+4SAf/3114s33ngjiTwuXW5Zwt00xRRTJAveOOOMkwQ9q2q9i/YQcEEQBEFdIs6KW02Hy4r24osvJosaoUbE6XhZVHS40003Xep0ibPszrQclrOgFvdNjk80sdJ5CHjuuefSPUbkceGyzrmvWO6mnnrqJO6If/ech4N6sN6FgAuCIAjqBh3qE088Udx5553Fs88+m8QbYcYyMu200yZLCZeY19YHQUdC4HGzE3Xvv/9+EnVPP/10suCx7LrnZplllmKeeeYp5phjjmTF6y5CwAVBEATdgs7y+eefLx544IEk2ljWZCVOOeWUxWyzzZYEG7dnzrYMgu5EsgV3rAeLp556KlntZNiKp5tpppmKRRddND1gsP52BSHggiAIgi5DjJo4pFtuuSV1hDrABRZYIFk1CDfuT4kE4foM6hkPHzKaJVBwuz7++OPFgw8+mB42uFyJOe7Xcccdt/qJjicEXBAEQdDpEG4XXHBBcdNNN6XyD3PPPfcgKxvB1hHoTHfZZZdkKWnJsssuW6yyyirVV/XPPffckyyTe+yxR3VN83HvvfcWZ511VhJDINqVatlyyy1T8klHQVydeOKJyUq2ww47dFr8GkH38ssvF4899lh6QHE/LrnkksXGG2+cMpo7HAIuCIIgCDqaipAqH3zwwXLzzTcvV1555fLMM88sP/jgg/K///1vdYuO56233ip79epVPvPMM9U1P6/r169f9dXgOfroo8v333+/+qrjOe6448qvv/66+qp1tM+qq65ajj/++OXTTz9dXTt0vPrqq+Wcc85ZfvTRR9U1XY92rwin6qvWOeecc8pZZpklLWuXs88+u5xooonK9957L60bFnyv/dRy4YUXlksssUS6J7uKzz77rDz33HPLyoNDud5665UVUV59p2MIG3UQBEHQ4bC4HXbYYcVpp51WLL/88sXpp59ebLjhhin5oCsz+JQbwRZbbJHmQ+KYY45JAeydxfHHHz+oFl1biK1iiVL+5Oqrr251SKwhoWzKVVddlTInu4uKkCpOOumk6qsho2YbS6k4s3zdhgXfO2DAgOqr7kPCwzrrrFP079+/qAi44oQTTigOOOCAFELQEYyw9vb79J1ytK4JuAuCIAiaHwJlp512SmU8dtttt2L22WdP1fG7QrhxW/3jH/9IHSfxcvvtt6fYpIUWWiiVJNGBcuUqC0GseY8r1+eOPvro4tZbb02lSu64445ivvnmK/r06VNceumlKfP18MMPT8vcYnfddVfqmAksHfX444+fhN+ee+6ZtiHAjj322OLhhx9O2YoyGGv3/9BDDxVLLLFE9aj/R1mWxXnnnZeOl9vt+uuvL1ZbbbU0+gARfPLJJ6dSFlyPRAqh4zzUO3vhhReSYCIAHdd1111XzDvvvOm4bSubkhvxxhtvTOvee++9Ys4550w19IiLSy65JH2/Qre+TyFkrseLL744jU4hocSwV7XYnrvXsflOWZkTTjhhEmGO69FHHy1eeumllM0511xzVT/1PyQDaAsCWxu5NgrxbrTRRumeUepDe5xxxhnpWtl3zj4We+YB4dxzz02lPxyf7z3iiCOKJ598Mp1v/l7xllyb7kHH6jummWaaTo+19H3iOpW7WXzxxdM5uG8sD3cGa7hQgyAIgo6i0uGWW2+9dXKX/vTTT9W1XQf3WUX4pGPo27dvWRFyZUWsVN8tk0uRi7UiFMqKoCt33HHHcttttx10rN4bOHBgWgZXrHVcchWRlz7HPWm/77zzTlkRDGXv3r3La6655hfbe/3555+n/R922GGD3MaVjnywLtpPPvkkHTv32xtvvFFWRGhZEXHVd8typZVWKrfccst07I6zIo6Se3DuuecuH3nkkfSdN998c/qOqaaaqqyIxbRu4YUXHnSMFaFUbrXVVsllWRFQ5QwzzFDeeeed6fzWX3/9cocddkjbVYRP+sy3335b7r333mVFeKT1tWiD7bbbblBbrLXWWoO+h8uwIpLScltwoY477rjpWu21117J1Wg5u5nXXnvtctddd03nWxF6yd1aEaDpuB3flVdeWVbEWHnooYeWyy23XPnDDz+k711kkUXS5zPaaNpppy0ff/zxtK9FF120rIjw6rtdy0033VRuuOGG1VfDTrhQgyAIgg6DJYglhQWMFac7kBRRESjF/vvvnyw7sltbstRSS6XyD6xjrDbqzw2OinBK+60IlOTarIiW9LmKmEuWRpamWljQJGvYPytQe92grGesaqxHLGoVEZYsYIoaZ5Zeeul07DlzFzIfZ5xxxvSdFUH5i7a3riLMioqwS4H2FYGVrg8LkKQS1kOWLqVcnBsLHStqttaxNq6wwgpFRSBV9/g/WDk32WSTQW3B2tSyLYYEt7prdfDBBxennnpqshxmayCr3rrrrpvOl7WQJYtr2HH7LtfRUGcrrrhiKkOj2HNbOE9JM/bFxeyYuwNZ16yfrL7DQwi4IAiCoMMgHIiEroxzGxzzzz9/Eh8tye4rZR8Mrm4aHLXDb3HHHXroocnNyo3nfA3NVEve3v5by4ptDYJF5inhpHAsQUIAcsMqaJwhXFrCtTm4ennEl2zMgQMHpim7M/NoBIrWis2S/dmvX7+0r6OOOqpYY401kpiUDSuzsiXagssyt0UepmpYcM9wmxJ0jlV7EL7W5fddN6VnHLPXueaaZe5Q59MW3s8u4KG5Lp2B+214fyMh4IIgCIIOQ92rWWedNVlUdLT1AHGy7777Vl8NHoH0RAirktiw1iBUDIzPqrXyyisPEhjtgXAQr7X77rsni1Utgu/Fmu28884p4cN04IEHJjF42223VbcaNlidWO6U0SDSCB8Cgrhl8VOAds0110yC6f7770/DRWVLn8+IExS/1xJtwZqU20J8XsZxE0na075tNzh8N7FoWmyxxZLgWnXVVVPMmvYmZL1nX47b/XXttdcma+GVV16ZvpsV0vcSSB9//HHa1mfrBecoHpEwH97yOZHEEARBEHQYRMEMM8yQ3G6C0xUz7aohrwig/fbbL1modPY33HBDcsGxDnExckceeeSRyUpDeDhWAfA6VYJG5y/5gIuOYPnb3/6Wtred8+EWtW8ilRixbxYon+HuJBwuu+yytL33iTXJBgSEz3Hf2YYLk/vT/mwLYoQLkeVNwoSAfG7TK664Igk9I1YQcdxuLGj255y4K88888wUlC9ZICdrOG77JF5nnnnmZLkiToka7mXL4AL1XVyW2osIkkAggYLAIIwkUow55pjF1ltvnQRdLdpCxrHEDW3hWhNZ3JoSKLS1NpFdygWazxfqwHEPwzXyPUSz77E9ay4LqnX2wT267bbbpnOUhOJ6crcScY5PDUDH7xidt+tjP9pRYos2cl7ayXe7B7iMjXnaFWh7STQEreSY4U1iiEK+QRAEQYfDqkMUGNNUJyxWSQxSZ2f9BUE9QTwSkzJ1CVQillWwI0ZoCAEXBEEQdBqsDkpDEHJcdywiBgJvLY4rCJoFlkelTC6//PKUmCLmcLPNNkvxfR1FCLggCIKgUxGPxM0mC1JdNq49bj2dGvcdF1Z3ZawGQUcg4ULSCbes0IH77rsvuXJZnhdccMHkshZX2JGEgAuCIAi6DJYJBWLFbonlUnKEO0lRVbFzYpt0dl1V+DcIhhZizUOIMAGxjmLqcrFicW1iHY31KzFkeOPcBkcIuCAIgqDbUIJD0Dsxpw6ZDE2Wiumnnz51hAL1dYS5XEQQdAcePN55552USCFZg1tU9qsEFveqzGuhAR1tZRscIeCCIAiCbidbNdT34oqSRWqYJQHgAsG5WSVByBSV6WhSoFZWYYi7oCNwD3qg4O6XOWxoNHFssptlB7MKy1plKTY8nGxh95/act1hLQ4BFwRBENQt2fLBVaUjZflQSoPQ0+GKM+J2JfAEiBN5OlqWEB2rZIkQeAGUi3E/mTwsEGuSbAg195e5e8sDg3tHGRVjryqFQ7iZlEepF0LABUEQBA2JzlbcEevIyy+/nKx1OuJcYV9iBCuJGDvCjsBTJ8xc3bAQds0JAZYtaFmg1Yo078P1VweP+De0lkH8DdVFuDVC/GUIuCAIgqDhYY0zGcaJdYWIE2Se3V+5E1dE1fsyY1lTxDDlibjToevAWe5Y8hTezVNY87oeYovFzHU1SkW+vqxnYtC424k0gk38pGK9JuLd9XM9WWhdWxnPrGnWs7CZXNdGvaYh4IIgCIIeQ461I+6IAHMTcWAEA4JAZiwRQCCYe48gUISYiCPwxD7l0QrMswj0OguE/BlzE6sOsWCd5fxeXm4Eq09rZPFMFBPOLZfNCTHL5l57X7trY5ZUcWfaWttb1uaWXSOfMWlXWZ3aWPyjOQsriyoxnrOXzU2uVaO2aXsIARcEQRAEg4F4IDJMRIY5cZHFR142ESWsRMRKWxAVYvQIDBagHKtXOxmGy3rCzraEnrnX1hOCtqndX0uxYpuW1qUshmpxrDmmEGLFiCzrzFnACC6vfdb75oSwdc43T7WvB9cGcO4EmSknpGSrKHFmOa/32nkH/yMEXBAEQRAMJ9nilK1LBE7tupbrWZYIIJam7BI0z+LHduYw93lCqlZAmcP+vNeSLLyydYv7MAvAltQKQMIwC8Q8ZQFp7vPWEZrWZRczIcYCZr3lbGHMk9fZAlm7Lq8Pho4QcEEQBEHQxFx00UUpycNA/0HzEKMKB0EQBEEQNBgh4IIgCIIgCBqMEHBBEARBEAQNRgi4IAiCIAiCBiMEXBAEQRAEQYMRAi4IgiAIgqDBCAEXBEEQBEHQYISAC4IgCIIgaDBCwAVBEARBEDQYIeCCIAiCIAgajBBwQRAEQRAEDUYIuCAIgiAIggYjBFwQBEEQBEGDEQIuCIIgCIKgwQgBFwRBEARB0GCEgAuCIAiCIGgwQsAFQRAEQRA0GCHggiAIgiAIGowQcEEQBEEQBA3Gb6575ftymcn/UH0ZBEEQBEGj88orrxQbbrhh8eOPPxZfffVV8d133xVjjz12MeKIIxb77LNPsdhii1W3DBqVsMAFQRAEQZPx17/+tfjpp5+Kxx57rHjppZeKt99+u3j00UeTsJtiiimqWwWNTAi4IAiCIGgyxhhjjGKJJZYofvOb31TXFGl5gQUWKCaaaKLqmqCRCQEXBEEQBE3GCCOMUKy66qrFmGOOWV1TFL///e+LDTbYoPoqaHRCwAVBEARBEzLNNNMUk0wySfVVUUw//fTFVFNNVX0VNDoh4IIgCIKgCfm///u/onfv3oPcqPPOO28x4YQTpuWg8QkBFwRBEARNimzTscYaK4m4lVdeOblWg+YgBFwQBEEQNCkzzDBDMd100xWTTz55cqkGzUPUgQuCIAiCbuTf//538fXXXxc//PBDmr7//vs0t/7bb79Nc5NabnkbU0atN+9n/vvf/6Z9ZO67777is88+K5ZaaqmUyIA//elPv8hQ/d3vflf84Q//0wK289r0xz/+8RfLJu/bR56rL2d90HWEgAuCIAiCdkIsEVIEl/k333xT/Otf/0rL5vn1p59+WnzxxReDxJjPqctGaFnOosu63/72t0kIEVHi1kx5OYsl4olIsmyqFUu2sy5DmHnffuF7Pv/881TIF2VZJmFYS0sRaNmxm2fhmJcdcz4HyybbEo6O27Hkc8jH6zX37V/+8pdi5JFHLkYZZZQ095oA/POf/5wm5zjSSCOlufXOO2idEHBBEARBj4Tw+M9//jNInFjOIuXjjz9OEyHGevXPf/4zTUY1yKKFQCI0TMQHMUI4KaKrfIe59URIrSirFTj5tWX7Myd0LHdUvBrBZsqCbnjRTsSauXawrN0sZ2GXxZ31ta8J3C+//HJQWxKS1uW5ybbOXdtoP2Jv9NFHT21qmRAdb7zx0nu2yyLRcq1wbXZCwAVBEARNDfFCiL3xxhvFBx98ULz11ltp+uijj9J67xNfWTAQXgrhjjPOOIOsRNblyTZEW1iHOocsook5Is/E4kn4mVwz15GF07a2Y/V0/Vwv4s408cQTp6xbk+vZUYK4XggBFwRBEDQsrD869Q8//LD45JNPktXMsFHvvvvuIDcmCxuxxYrDemMkAvXRdPI6d1adoPEh8t5555107U0E+3vvvZfuC4Iwu2pZ8twDBJ5lUxbrjSTyQsAFQRAEdQ3XmxgrE2uLTvqFF14oXnvtteL9999PFhoQaDpiokwHrXyGTpm1jBXNvKe414KfIfBZ57hozYl9op7INxH+4gPdW+4PAn+yySYrpp566mLSSSdNFlfin/Crt3snBFwQBEFQV+h0X3755eKZZ54pnn/++TTpdHWwrCWsZzrXXr16JdeYdaOOOmr100EwdHChE3est6x1Hgpef/314sUXX0yxeix77q8pppiimHbaaYvZZpstlWURr9idhIALgiAIug1uTp0la8jjjz9evPnmmym+iVtT/TJ1zGadddZkVavNvAyCroIF+NVXXy1eeuml9FDx3HPPJaHn4SFb69yfHiq45bvKDRsCLgiCIOh0WDnEIbF0EGgPPPBAEmw6QmUjdIQKzbJscIWOO+64SbDV1ioLgnrAfSwz2cSNz53PYuy1B4+ZZ565WGCBBZIbP5dE6Yz7OARcEARB0GlwQRFrd999d7JciCcyoPrss89eTDnllCmQXHxaCLWg0fFwInmCmHPPv/LKK0nssdAZh3ahhRZKVruOIgRcEARB0GEICB84cGDx9NNPp7kEAyItd2C5mGxHoIREdrtyW9k3Kx6rxw033JASHtZbb73hDj6XNHHHHXekGCjnMTiuueaa1AYZ3+3855hjji51AV977bVJPNcy/vjjF/PPP3+UP+lCJE8YCeOhhx5Kos7Divto8cUXT5a64YndDAEXBEEQDDMSDtRTExt0//33p7INo402Wgr2nn766VPCgU6qozP4iKS99torxR6JkSPmnnzyyeKWW24pbrzxxuKxxx4r1lprrRRbpz7Y8CC4fcCAAcWjjz5aXHzxxdW1rXPzzTcXhx12WBJKCy+8cHKrHXvsselYttlmm+pWQ8dTTz1VXHbZZcVBBx1UXTNkiOe+ffsml95GG22UrENXXHFFyso9+uijOyWjUmHfI488MrkP55lnnura+sKDhexk2cpdid+Je0H9QfF0zz77bHq48VuZaaaZ0m+F0B+aezUEXBAEQTDUiGnTEfXv3z+5ili/evfunZIOxLN1pkuUUCBCfD/BwKoBmarLLLNMcc8996TOkptWjNLwCjiwrJ1//vlDFHCE0tprr52mNddcM63bcccdiyeeeKK47bbbhulYWNJ0+IRReyFot99++yQK9thjj7SOCN1vv/2SNagzBAyRQuT6zo60tHYkK6ywQpo23njj6pruw4OBBx/WYoLbg4j7RpZrewgBFwRBELQbwogQue6661LtrNVWW61YdtllU6B2V6HjW2yxxYoTTjihWHDBBatrf4ltCDhijqhQx4tFTDFXqP/FpeUcxCixgnDDZhFCHDonnalyJVySWcA9/PDDqcQEWNYM45SpFXCrr756qjtmWYbiSSedlLbxWfGAhKhj9B4INftmXcxuVy64W2+9NQm/5ZdfPgljlptHHnkkJYCwJnHFseTUiua2BBwrnvNWesV+iDltJeDesWgfx8VSpXyLmC210MR12ReRLK7LNfcd2oVg/9vf/pasns6L9ZFAzG5srnPfo621hfO0rfMUB+n4ZXrm7bmpCV7WQqL1wQcfTMc499xzp+N0nrZ3nRTrJeBZ/Gzv3LjUZ5xxxhSPZlgu+3Aett9uu+1SdrN1hJzPcMM7P653bSCTtKvRptz0rhE8iCy99NKDjZmLioZBEATBEBEHduaZZxa77LJLKqewxRZbFP/4xz+SSOlK8QadsuMR0zUkuFMJkMsvv7w48cQTk+VQx77uuuumel/eO/XUU4tLLrkkbX/OOeckq6LOnJjjDlXmJGOdmCbu2gkmmKDNkhFcngcccEByY6oXts4666T1jvuII45I+yFCDjzwwOR6xvHHH586ceKKK5bVj3BTh4zljLCy7BrceeedyT3KwtivX7+0vjWcowQSQuuqq65Kok6WL/G20047FXfddVd6bb7//vunzxBBO+ywQxKm2uvggw8uzj333EEjWey2227J6uq8lIE55phj0ufcB9r59ttvT6+dI/F45ZVXpvZ0nsRbnz59kgC1P4JFe8A52N574vTcX9qHCHbNHS/RCt/pevpOYlv7mGs7+zz88MOTGHWc2267bToWYo3r2PcSgtDetiWAfY97vK227EwcK9Hm3tP2rpt7h+h3jR3/r2CBC4IgCILWqHSc5fXXX1/27t27POigg8pKh1h9p/uoCLByjDHGKJ9//vnqml/z0Ucflb169Sorgim9rgizcuWVVy6//fbbct999y1XWmmlsiJi0nsXXnhhWek8y++//z595tJLL03rURETZaVjL6+++upyhRVWKM8+++xy7733Lr/55pvqFr+k0vmXyy23XNonfJ92W2yxxcq33367/OKLL8pHH300vYdtttmmPPLII9PyKqusUlbEWVkRRek7X3zxxbT+mWeeKWedddZ0LR566KFy6qmnLj/++OP0nu+zzrHX8sMPP5QVkV2uueaaZUUIlRtvvHG5/PLLp3ZBRVSl/eTXFZFajjfeeOm8VltttfKQQw5J6yvCodx5553LTTfdNL2GNho4cGBarojMsiLi0zJ85+mnn56WHbdt33vvvfQavnfBBRdM7YB777130Pfm7fO5VYRjueOOO6bzxuSTTz7oelaEZPos/v3vf5dzzjlnWRFf6bVrWxFlafnll18u55hjjvKzzz5Lr7VB3g4XXHBBOc8886Tvdq5PPPFE+d1331Xf7T4cy1tvvVUeeuih5SKLLPKLY86EBS4IgiBoFZYnVg9WlbPOOqvYZ599Up227oblicuMpaYWbijWHm7HTI7FYuFg8WLFkmjBgsYatdFGGyVrl9g97k8JGSw0GW5MVjpw17HoSJTIlqAh4XuXWmqp5NZTL4xl5eSTTy422GCDYsMNN0yWL9YwVMRhSv5gMZI929p3ODfWqHyMLFtzzTVXm5mlXMPOsSKq0udYrcB9yS3JGuZ9li4xjFyk3OQ5Ro67knWqLSo6Ik2Dg1Us43sllrAy+V4WL9/L+pXJmZmydi3nEQ8ci+tncoziH+1j8803T+2WrxPyPlhITdy9rSFOkQWTFZYFjLWy1hXdXTgGCToskhWRmWIg119//XQPZULABUEQBL+Au0aHwaUmJohrrzvigtpCx04AiA0T10SYiJ3iJiQIhpQoIF5L1h8X1RlnnJEEgNIOhMoSSyyRhKH9EVaHHHJIEhwgXn1mjTXWSOJBRuGQIBrFWHFH9urVK4lFrr5DDz20OOWUU5IQzQJIOzs2Ymu++eZL7rSW2AdxxR0ppkzMGTdvrWhtDSKGYPT9PuNciFaZsdpAbJwYNwWUF1100dSuXIn2Kx6tFgKaG5ooEnz/ww8/VN8ZMr5XzJ/r53u5g33n0CRVOBfxcAQNQSrLV6wiwTMkuFFdWzF4HkwuvPDCdI24cbm8Zeq257p2JR5CiEwxkM6VK9w9M8La2+/Td8rRunc8ryAIgqB+EHC+8847pw6NoKkN0q8HxDERATrySy+9tLj66qtTUoX4Kh2d9YQWkUPcESZ77rlnEi7E3WabbZasaWKsxEARVBIciCNCwD4F1HuP0CMwtAWxIhmC0Pv73/+ehJl953gqsJgQlvbPmqOzZe3beuutU8IF8WO/3lMeRPB8FlRGqLj++utT3J7YMnFzLHhi0OyDlWrJJZdMsX+nnXZaEmPWC3bXHrWWI+1A0EqYIMhZEpV0ETsnGWPOOedMIpHl6aabbkpxbyx5AvyJWcdBzBA6hGJOooDXYuJ8N/Ej5s13aEdt55wkV4grdA1y+xLe4gZ93nvaWDylhBRWOg8MhKPr51wJWhYnbex4XGPrXRNtSehqgxw3SHgSZISZtvTwIVvZdWKxk7jgGBw7i6hjYsEkJF0zx2q/kjC6smZfe9D+rIyuoXsvJXNEFmoQBEGQ4bYjNkw6uCAQ5M91TOgE3Y8QgE022SRcqEEQBMH/uOiiiwaVWQgCMXGseKybapYF3Q8L7MorrxwCLgiCIPgfXGkCu7mxgkDSATG/3HLLJTEX1AfcxeFCDYIgCAahMK8aW2KVeiISFsSpiU+rrf8m7s4g/IrO1ltMYHtxbmLgMmLmZGsqtJtHs6g3uAvFHko8ECcoq1Y8mCLDYvWGlLDSrIiRDAtcEARBMAjB5wqH9jRk9Ql2l6xALMjQlIlrFACB7cSCRAilVOoZIzkoh9IaymwoyaFkiHMyWgGLq2xOJUW6GwkKjr8WIyeAW99xG31DGREJB5JQXKueiN9oCLggCIJgEDIadYzdUY2+O5G1SKARDLJOWeFYpVT6lwWpbIXabGq4tVVTrLtR/kLmalvXzjnJtGW1ck6siWrhyQaVCdvdGL5LXbda9tprr5QJTVAbvkuGKaFnJA1ZqQR2T0RtuBBwQRAEwSAIOEViWTtYOnoKrG2EAVHTFrVxgQL7ldmQ9FHrahXsr7SFDpZ1K9dna209q5exVZX7kCBgX4oEZ6sSqyC3p++xHYGjbIeyHIb8yqUvzjvvvFTAWPkRteuIHKVV2oPvMKnlprSJ/dq//VmWlawUSy4/4juyhU/pEN/vnIhAbr2MsWYdt/e4QN1L3rdPY+k6FyU/lA1xTo6bGBNnZxvHAqVAsstaaRaCWtFi5VWUH1GmpSehWLX6gO6REHBBEATBIMRFqTuWa6kZOaAnQJC1VgiWZY6YIK5YJhW8zfXmcgFao1UQMiB8uWJnmWWWJC5Y7Fpbb1+KymrnrbbaKtXeM6g+AWckBskD6puxqNlG7bm99947iRtWNIJHAWI11aaZZppkfeMSJXCIHrFibUEEOCcizxiim266aTHrrLOmOmMKFLv+4v2IN3XaHB9B532135SwUFdtwIABaaxO1jFtoigv659j8SBAGBqsXhkSddycr/pqW265ZRK93vMZ50yUaU912bh3WQgzxCDX9T333JPaQC0+cGv3pMxYot/1UWj6uOOOCwEXBEEQ/BIigHjjKtTBsk41O6xvWRjUwtLB8qMtxMepjyeWzEgCRlGQAEBQ3XvvvWl7IxQQHGIJiQ7DaLW2fvHFF0+ihVBRaZ9LkPVPkWHCinhiaSHK7IO1aZVVVknFa4k2hWsVdVV8V/HhHXfcMZWXEOOmyGutAGqJc3FOrF2K8xrJwXHZJ/cq8UWs7brrrsVkk02WLHqG3CI+3Q/EKjHq84Sm8yA0N9544/R5o2H4fkNkEZMrrrhiOm4WO99BKGs3x60Asfsrt4XjN68tjkxEivliaSTuMsReT3H1s9YaNYOl1PVyr4aAC4IgCH4FS4mK76wtu+22W3HUUUc1tTWOgGgttk3moyGoBPorp2E71qaW45laB+OZEi15PFOjErS2vjZRhGDmEgRRIuOVu5GIy6KKZZTI4m7MooVr0WeHFpYwx+34CbjaMUSRxxEFa53vIzrFp22xxRZJfBJjRCzBabQDcWrcomhrrFn7guPOWa+ECEE6JIhbgrV2tAmu3UbNCG4v7itWTvef2m8spnls2hBwQRAEQZuw/Ihj0qmz8hByLCJDM/5lI8DSZCD79nDfffclixpLCMsSS1yGlc5rg/+zQBHBra03FFaG9U/ZEkLG0FVEG/ei2mtixN555530HrcnEVM72H4thB93K1cbcZXF4/BA3LG8rb322mnYLWNxErHclxIMlJuRGWrynpg958cdnMeaJRQlUBCOg4NQdQ6snix+3NdwbQwF1hIPFN5rNohj1467lGWWyOWudj/UCtYYCzUIgiAYLKxDOnFjZxpSyQDiBAchUU+D3A8PhIMgfdYxQsKyTpNVibUsu0JBiMiAZHkz0LvOVnsQLdyK3hPzRYBwLRq7k0Wqdr0B8W1PhEhi0EnnAH/WLhYrIs53E9A+y0JorFXxbwShY/N546OCdcr14YIlrHT4XJIZbl6D6Iv3IwpZtbL1jWXP93OXGn+UUOTKZIkVD2fgfccuLk9GrokFTCwfC5s4Nt/HSsntKw7Oe7bnriUAsfvuuyf3qzZ2PoSscyTElAqR8CAhwvGz9BGk4r0cV95Hxv7dl62Ju0bF9STcJHgQvdqrrTp9Ucg3CIIgGCp0vALKCQUdNdcgEWFOCDUirB4SFYgLlqOuKmzL4ibWjBgM2g9BKyNWMgmh06i47whmvyX3noeDVVddNcX6tRaTWUsIuCAIgmCYYIFhMWB9Yd3h5mOl4ypkUeF2bSRBp9QFKxOLmeD6zoYlTUaqGCeWKBY5Fq9gyFxyySXJMiUusJGQmasMiwcfySDc8WIDWS5ZHCVvtDeuMQRcEARBMNyIW1IMVqdEzOmUuLYUX+Xm4jILfonMQvXVtJVM1IUXXjgEXJPC0sbNTrBzp4NoY7X2OxmWZJQQcEEQBEGHw7rEJSQGyriVrHUC39UbM1mujc8KgmaBlU0xZILNb0BcovhEVt155503lX5RP3B4CQEXBEEQdBo6M2UoZFoKUDcRdLLp1ANjnRMszwKlPEK9DqoeBK0hG1vJF9ZU2dmsa9yj4kQlosw555wpqUMikPi2jnxoCQEXBEEQdCk6PZmbLBMyIlXl1wFys8q8ZKFjqZDhWlv3KwjqAYKNdc3DiMH3PaAQZ7J1FUBmXTY6xpCSEIaXEHBBEARBt8NSp7YaQcdCJ55OEVPrWeVY67igBPpb5oJq1IzXoL5xzxkqzAOGEigeMLhE8xiwsl6JNSKNBdm9qNxJVxMCLgiCIKgrdKCsdNxQkiMU2FVqgWuKm8rwTTpMtcK4Xg0hpW6ZmmYsITpYoi9i7ILWkG3svlKzj2tfvCaR5gFCfTz3m7p4sqgJNQ8M3KFc/JINWNaEAHS3dTgEXBAEQdAwEHc6XMM1mbizCDvFYK1nJdH5jjHGGMlixyXLFasTNhlFIOg5KG3jPiHOjBLhPnnzzTfTfSMz1NBlhJmHgWzZNXkoqPcyOCHggiAIgqaCdUV9Oh02i4oxRY1+wLLCqpch5gg9As+oEiavdegmr6P8SX0hm5nVzDXlYufqNHnt+pqItmwdc/1YadWLM+/Vq1cSawQaK20jx1iGgAuCIAiaHlY54s2ce9Yk+Dxb8j788MPkUiMKTLbjauMy09Fn96x5FnesN+q2EYJcajINzb22nngwRazez7Ce5vZ3LcyJrZbLrgNRRqi5Fuaulck4r9zn2pmr3Lix5gQaUZaFmXbP18Uyd3qzJcSEgAuCIAiCGgg3rtgsHLhmayfrTcQEQcIqRJyY+ywIh9opCz1zr4k9r02WCUVCo/Yz3iM6CMDW5rWCpOVrtCUcuQ5rceymTH6dt3NOeZ1J4eF83kSXuXWWsxCrXc5zsYuWnZftHS9h5TjNs9gVY0YoE2I5ntHrvC6L6e5IHKgnQsAFQRAEQQdC3OR4PEKFS5fYM+XlvN48v8f6lCcD1RNL4vgIHctouZxpa13t60zL9YRardjLr2u3q90/AUZwZWFqmQAlRIkvy7Wv81yNNAPm77nnnsWiiy6aPh8MOyHggiAIgqAbIY6Ipjx/8MEHi6OPPro45JBD0tiYte+33LYW62pp+X6GCKsVcLXLGdatvB0xlwVeXs7vZStY3n5wOD5104466qhi6aWXLtZYY40k9IJhIwRcEARBENQBBI5yKfvuu2+x+eabF7179x6iKGpE1FYjULlD+/Tpk9yhzXienU1EVgZBEARBHUDYHHTQQcXOO+/ctOINavYdf/zxqWzHlltuWTzzzDPVd4KhIQRcEARBEHQzypwccMABxSqrrJKGEWt2i5Tz22STTYqVV145xcRde+21KcEhaD8h4IIgCIKgG1EqY//99y/mmmuuYvnll+8x7kRZp6uttlqK9bvooouK888/P2X9Bu0jYuCCIAiCoJtQjoTlzQDom222Wcro7Imo/bbPPvsk8XrEEUek7NZg8IQFLgiCIAi6ASVEjj322FQUmDuxp4o3qPd22GGHpWGsdttttzQ8WjB4QsAFQRAEQRej1tuhhx6aLE+77LJL1ESrYGQL8XAzzzxzsfvuuxePPPJI9Z2gNULABUEQBEEXYuSCs88+O43beeCBB4a7sAY15lgj11133VRO5bnnnvtVfbvgZ0LABUEQBEEXobjuZZddVjz66KPJAqcWWvBrll122eRS3WOPPVJh4zxEWfA/QsAFQRAEQRdx6aWXFldddVWyvBkUP2ibWWaZpejXr19x3HHHFeedd16bI0v0VELABUEQBEEXMHDgwOLcc89Nlrdxxx23ujYYHDPOOGMScUTv9ddfH5a4GkLABUEQBEEnYwxQ2ZXEmwHqg/Yz+eSTF2eccUbRv3//4uabb04JIEEIuCAIgiDoVJ588sk0dNR+++1XzDDDDNW1wdAwxhhjFCeddFJx8cUXF6eddlpY4iqEgAuCIAiCTsDQUBdccEGx0UYbFZ999tmgmDdB+Yr3nnDCCcU333yT1gVDZoIJJkju1Hvvvbe45pprenxMXAi4IAiCIOgEiLZzzjknFewV8zbWWGOl9RNNNFEqIbLEEksUf/7zn9O6oH0QcSxwyrDcfvvtPdoSFwIuCIIgCDoY4u3vf/97sdRSSxWnnnpq8dBDDxX3339/qmlmeZFFFimmnHLK6tbB0DDqqKMWRx99dIqJ41LtqXXiRlh7+336Tjlazx2+IwiCIAg6Eq697bffvph66qmLbbfdNiUtGBrqrLPOKhZccMHihhtuKDbeeOM0+sIHH3yQRIjg/K+++qro1atXGuTdAPcGd7eeGLQ+Rmv4H9zR4glPPvnkYuKJJy7GG2+8NI5qTyIscEEQBEHQQRBeRhAgLrbYYotB45vuvPPOqWiv+RprrJGGjXr11VeL7bbbrhhhhBFS4drrrrsuxXihb9++afuVV165eOqpp9J7wS8hkA2Az9KpREtPIwRcEARBEHQAkhbUeRPfRrzVDpFlkPYVV1wxZVNOO+20aZ26Zi+++GIxzzzzFH/961+LpZdeurjxxhuLr7/+OlnxHnjggeLbb78tNtxww+RyDX7NdNNNl9qaiHv66aera3sGIeCCIAiCoAM45ZRTihdeeCGJiT/96U/VtT/Dvcfqlt2g4ra4TCU4XHTRRSkonxVp7bXXToH5hpGab7750ggE3LEyV4Nfw8LZu3fvZME89thje1RWbwi4IAiCIBgOFJYlwljT9t9//2L00UevvtM2BN2iiy5ajDnmmMnytueeexbzzz9/sriNPPLIxe67754scwcddFCxwAILFFdccUX1k0FrrLfeesVss82Wau0Rxj2BSGIIgiAIgmGEJe3WW29NRWbVdeMqbQ3JCLJRP/zww5S4IJlh/PHHT6VFrr322jRUlEQHFrixxx47JS5Yd/XVVxcff/xxSoYQqB+0DkEsWURpES7smWaaKcUWNjO/ue6V78tlJv9D9WUQBEEQBO3lscceS0V5DZE1/fTTV9cG3QXxtvXWWxebbbZZseSSS1bXNifhQg2CIAiCYUDMGpedSTB90P2wXspMVUBZlm8zEwIuCIIgCIaSZ555JsWtKRkyxxxz9LgaZPUM9+laa62VrKJffPFFdW3zEQIuCIIgCIYCcWySFTbddNOUaBDUF7/97W+LxRdfPA1TduGFFzbtSA0h4IIgCIKgnXz66aepGO+qq66a6roF9YkyLnvvvXdKMGEtbUZCwAVBEARBO3j//feT5Y3LVLaoIa+C+kU83I477phGt1AcudkIARcEQRAEQ8AoC0cccUQaMYEoCBoDxZCnnHLK4owzzih++umn6trmIARcEARBEAwGHb/CuoruHnzwwZGw0ECoBbfbbrsVd911VxpTtpkIARcEQRAEVQxjVRv0/q9//avo379/8fnnn6fYt2YvDtuMGMJMwomhzn788cfq2sYnBFwQBEEQVGGlufzyy9Ng8rjgggtSdf8TTzzxF4PTB42DrFRjpcpKldTQLMRIDEEQBEFQZf311y8uueSSVMl/xhlnLO6///7iqKOOatf4pkF9Iwllo402Ks4777zkDm90QsAFQRAEQQXjj0488cTFN998U/zhD39Iwe+XXXZZMcUUU1S3CBoZVtXjjz8+xTBuv/32DR/LGC7UIAiCoMcj7u3MM89M4s3y999/Xzz//PNp3VdffVXdKmhkuFJXXnnl4qabbkrWuEYnBFwQBEHQ43nllVeK888//xcJDLJPjz322JR5GjQHvXr1SgWYCfNGH6EhBFwQBEHQ43n00UeL5557rvqqSO61SSaZpOjbt2/KPg2aA9d1lVVWKQYOHFi888471bWNSQi4IAiCoEejSO/FF1+cYqR08BNOOGFx0EEHFffdd1+xxx57FOOMM051y6AZGGOMMZIr1TVvZCKJIQiCIKgbiKiWtbrUZjPVwr3JBdZyOKvf/e53KdapFtu0XFfLnXfeWay77rpp2XyrrbZKyQxB8/LJJ5+kjOMBAwY0bEZqCLggCIJgEIQScURImWfxZLKOaMqvCS2Fbr/99ts0z8sSAEy2+fe//50sXPZl2dRy2fu2hf23jE1qax1aZhK2JtRsk7czV8+NqFOU1/IjjzyS3GmzzTZbMcsss6SB0GWhEoO///3v0zZqiI044oipKKzlv/zlL+k9+zDZr+/Or01ZTJp7HdQP7uW///3vxQQTTFCst9561bWNRQi4IAiCHsIXX3xRfPTRR8U///nPVDLD6AIyLL22bMBvExH23XffDRI7xAexki1ZedmckCFsiBrixvb5fcKldsrr7C8LqLwuCy/faV0WXMhiqBbb2yYLvwxRqXOuJQtREH5e2y6L0A8//DCdh89ZlwWm1963rD1kqOZJO1mf36/9nDkB67uIwSz+Rh555GK00UYrRh111DSmquU8GXh9lFFG+cV5B53LCy+8UOy7777FWWedla5/oxECLgiCoMEgEggvoov4svzll18mgfbpp58mkcYaxrJFbJgTFIQV4aCzIhoIBq/FBLW2zAoVDDv5OrlGro1rlJdNtcsEoWukzYm9bAXM12SsscZKAtC1IQDN83JLcRu0D+295ZZbFttss00xxxxzVNc2DiHggiAI6oRswcmCi9VHvar33nsvxeywFJnr8FnJWGtyp547c529mB6vsxhgFTMRBaaWFq6g+2Clc83z9TblZXPCjtAjyrPQ85p4B1HuWhspghXPNO644xbjjTdesvxli6gpBPkv0fZi4N58881i//33r65tHELABUEQdDE6Dp3xW2+9Vbz00ksp/uqNN95I4kwHnS0vLGXjjz9+6oy9rrWaWSbeQoj1XAg8Qo5lj0vcPWVO8L/77ruD1tnOPeNekpxhMsrERBNNlO6jnow2EgOnBqAHoEYiBFwQBEEnoNP84IMP0vTxxx8Xr7/+erKmZRenuC4dhlpjBJrOdKqppkrLrCZB0FF4YHDfeVjw0OCB4cUXX0z3JUsf652HhWmmmSYNG6ZsCiueeU+4F3fYYYdizTXXLOaZZ57qmsYgBFwQBMEwomMk1HL2JZGmY9RRsoJ4j0gjygi1ySabLLk4dZgsIlxcEb8UdAfc9eIja6137t9sCSbuPGS4V6eeeupi+umnLyaddNJk9c2u2Wax/l511VVp2LS99tqruqYxCAEXBEEwFBBrTz/9dCo98cwzzyShJs5MRzf55JMnK5rSBCwY4pFCoAWNCIFHxJnefvvt9FBiuDGWPL8B1jklVwT/zzjjjOmBpFEhWvv06VNccsklDSVKQ8AFQRC0Ausa68Rrr71WvPzyy0msiStiqWBFm2GGGYqZZ565mHXWWZNVIgh6Ctna/NBDD6UhqYg7cZsszHPOOWd6iLEsvq4RBJEkEi5UdeG4kBuFEHBBEAQVZH6KUZOR9uyzz6ZYIS4mriIWNZ2S4G+WNYkE3EtB0NNR/04ihVhPljoPO7KliTwZz8IHuF/zb4f7tR7p169fsqCvscYa1TX1Twi4IAh6NEoyXHfddcWtt96akgu4Peeff/7kFvKHzjVaL1YEx7rLLrukZUHnxx9/fFpmQdhiiy3S8gYbbFAstNBCaXlY4BI+7bTT0nzBBRcs1llnnSGKVS5lx5KL5Sqy26tXr2KjjTZKyRmNhsD+M888s3j88cdT+Y2NN964mGuuudL5Kfp6//33J+ur4PeWnHfeecXtt9+eLDpLLLFEde2vcc1OP/304oknnkjXbIEFFqi+0xy4Vz0MKZarvV599dVkqXZPrbTSSikjtp649tpriwceeCAJuVxUuu4h4IIgCHoK//rXv8qHHnqoPPzww8vVVlutXGGFFcrKn3Y5cODA8scff6xuVb88+eST5ayzzlrefffd1TU/c8UVV5QV8VB91T5++umncqeddirPP//86pqyXHnllcv+/fuXlQ64vOSSS9I27eHBBx8sp5pqqrIiglMbH3nkkeV0001XVoRgdYv64+abby4/+OCD6qtfs/rqq5d777139dXP/PDDD+X6669ffvvtt9U1v2bfffctjzrqqLRcEYNlRfyldmmNZZZZphwwYEBavuuuu1L7Z2644YbylVdeqb5qbCrit3zppZfKww47rFx66aXLZZddtjz00EPLRx55pPzmm2+qW3Ufb7zxRvo/+PLLL6tr6p8GkZlBEATDDncOK9Fxxx1X7LrrrslKwrIm60whT3MB2Y2QcMCVK06n0rlX1/wMq4+4vKGBpWGTTTYpFl100eqaIrnA5ptvvpQ9W+nQhslVzE1moHDB7s8991x1bf1xxhlnJAtYW7AUVYRyivfK3Hvvvckaxz3YHhRNPumkk9JICkOC1bcicKqviuLUU08t7rnnnuqrxsa9pvacZAG/uYMPPji5Vy+99NJijz32KI499tiUGMRy1x24noZOEzbRKIyw9vb79J1ytMiSCoKg+ZBJd9tttxWHHHJIcf311xfTTTddseqqqya3oIHLZdI1WnV6IlMnc8wxxxTbbbddEljKPjjPtdZaK3VCBMPZZ59dPPnkkyn+iLvuxBNPTIJFYLn5ueeemzIMZd7pvMQn2YY7WbahAHXvXX311Wk7yRo777xzccUVV6R2a+kCk+ChHAO3KQHHHa2j1t6O8ZRTTikuuOCCFGfoOjgPLknH4Xgefvjh5HYlHJ1D7XoB8a6TTt4+jbnKzXvTTTelhBLHDp3/CSeckLZxDuqaEZEHHHBA+m7ucfu46KKLUnKKe4JgveOOO5JLVGxjLUTXkUcemfZDHHsQ8HrbbbdNbXrZZZclN6jSMRNOOOGgTMw777wzxU5OO+206Vr4Hm552cqORzt7iDCOKtFCuPkux8ltu/jii6fjvfzyy9Px3XfffanNjdvpevhu+x7c9ahXhCNoB8c800wzpYcHZUrcFwTrjTfemK4p13tXujLLskzXiYu3YQr6hgs1CIJm4/PPPy8rnXS5xhprlJtvvnlymXLhNAsV8VFOOeWUyfVZETvl3//+97IiQsoPP/ywXGmllcr999+//OKLL8qKCCgrwiG1B2aZZZayT58+ZUXwlZdeemlyHx533HHJTWg/4AatiIa0XBFI5TzzzFO+88476XVFmJQV8ZGWW8KFWhFSZUWwlBWxVq644orlZpttllyH5hWxU3722WflDjvsUO6xxx7p+xy/62P9Y489lpYda8v1zimfw8QTT1xuscUWZUVUlhUxk463InCSq3appZYqzzzzzHTuJ598crnQQgsll6djqIjDdGyffvppefzxxyfXZkVcJjfl4OAu7d27d1p2LHvttVdado6WuYsrIi61U3Y317pQUduma6+9drnpppumtr/mmmvKijgd5EJ95plnyr/97W+DXPnLL798Op9Mvh65LVyPiy++OC03A+6JF154odxkk02Sm1W7upZdQQ4nuOeee6pr6p9woQZB0DSwTLGm7L777sk1Zi64nsurYQKT2wFry2KLLZasMSxN3MPcnlx9rFLcwaxvrDosOILJMyxiLBzmrCCDQ2A9qxTLGmsRy5LvbQtWNftmsaqIwmTtYs2oiLFUBFZ2L8uKoHbXyve7LgLIWeM23HDDZF1rud6+rAcLDteu8V6XXHLJZIliOakIyHSurKuC5VdYYYU04oB2yLBQcp2zXLZ3hIHVV189lZBRKkPJjHnnnTet1w6+wzoJJXmc2sFR6XPTsRpA3TlWBGc6j/aSr4eEm3w93NvNgmvLGsdCud9++6UyPlyu7nP15zoT9xtL7pCuYT0RAi4IgqZANXkdvT//bbbZJmWTETLNOIC3cyJUiFWdGxecbEmdOrextlCclIARU1XrGmzpJhwcXKsyJK+55priscceS+sGVyeLa0wGLDfU7LPPnl4bjYLb8cILL0xuS25Ox2laZJFFiu233z65WE8++eTkNiTsWq7nTs2xSTrafE2ds228l9/PcYy2sW1ejywChwYCSeyWY+DezMMtyUbVtoSddvZdXKyDg4CzTa4b6FiJv/aSrwfXcr4e3M7NBnGt3cWrbrXVVsmVz12sBmNnQTxysfvtNAoh4IIgaHiIlXXXXTc9vV988cVJ0OjYmxmWIHFXzjcnIUhwIDAIJ/WsWIlYsYan9pZ4LOKEJcQ+LQ8NOl1Cc5VVVkkWMGIoQwBJcmDlyvFfYularicgrQeBKk7KoP+2V3/MeYppZO3zXUSjuDHnPffcc6fPtQahwMrTv3//FDPYGiyKK6+8crLkOnYxhISYJBIiQ7KG+Lb2tIttiFNxa46flVj8XFsQ29rv5ptvTjGEcD1Yo4b1ejQaYhPFNLK6rr322ska2lm4tmIUG4VIYgiCoKHRAe65554psFyH3+zCrRadNwtOrtVGuLE6CoznptTZ6fgkAbBiELo6f0KHC4/bkcAjJliDJC4QRNldZfxWIkcSA+EkQaE1waCAK4HBiuGz3KU5oN/2XFNqbHFncol+/vnnyQJHeFnHFcgVudxyyyUByvVbu55r1ZBNjtH3LLzwwukcZWiuuOKKxbLLLpusJxI2ZInKHFXHjkVWp/yPf/wjCSHn75yyFVJ72Y9Omzu0reB1x09syVZ2Xs6TG9u95/POR/tI3GDBcQyEIQFpWZuqLacgNAulz5isYynU/o5FAol1rJQSPZyTJA6viUjH53oI+NcWbV2PZsM5ZvHMEur6dUZ9QW5wVuJGqckXhXyDIGhYZCsSbqwvymEEnQMLFeFTW26ku2Bl5b7MrsyeyEEHHZQssPVwPboaDxyspTKACemOhKgmog888MDqmvqm+aV7EARNC+uGGCfu06DjMbqD8SHFeLF6dSeGOrvllluSZYv7klWrJ8FKl6+HB5fuvh7dhcSPbD3uaNTsY0ltFMICFwRBwyJhQWcm4D3oeLhOufQE3Q9N8kNnwUXpeKATb28mabNQb9eju1D8l1s5Dx/XUcjmlkhTW0y5ngkBFwRBw6KYqw5txx13rK5pHMTbGB9SQDyXoHlLlJtopjIRQ4JFNbeFuD3lPnLGZr0j9o+r+a233krZrrJwuTglQdQjSs4omdGI99f555+fLLLGqO1IxIwqsMzK2QiECzUIgoZF7TOdfmeWF+gM1EPbZ5990lBCMhgF6T/11FNJvORJtqG6ZsOKZAGlF4zYMKzIlqzNypMcIJu0s8htwT2mdlxHizcdv0HmOxq13WRISlA4+uijUxkbSSO+qzVh3hEQG7mUyLAgMaM2u7VRkDCidI7ffk8nBFwQBA2LTD3ZaQrGympsFHbbbbeU9ShbszVY5wTpL7300tU1Q4+s1P333z8JoWFFqQqxVxkCi9u6UZGtOjyCtjVknQp658ZXskSttoknnjh9z+BKmAwvgvnVgxtWHKd7w3BdjfIAZAgxDzdq39WWo+mpRBmRIAgaFlloykuIidEJqf9W72UVBOErbCt+Jw9wzu1mBIUc02PQfSUTZFyqeWYsV4H7iuiy8HDzKDvhM9x22kGtLJ268+d+VDuNsGVBk0FKeOnw7ddcOQYCQ1yVfRptwbLxKbnWrFPxP4+Lqm2V0WAdy7XhnAsLjqxAVkUjMBDShKNYIu5D56KkiXNpT9FabeE8lMhwji+88EJx6KGHJisXt5lad2htveM1SLrSHESU79bhOyfHatB0VqvevXun89c+ynG4f2QfKvuRC+Pa/vDDD09WSMJB+7oWylfUukWd2+23354KztaWIWE9VPPNtfF510y7az/1+5ybNlbgmDWM4DZyyF133ZXa1/UTi6Xwr3IqthNk77zUulOXTpuz3PoOZU7sz/XWDmeeeWa6pqxVLG0EjxgvYvPRRx9N7l3n7viddyMIIuek9p8xYYemAHJ7cf9rI+3fEMRYqEEQNDoV0VBuuOGG5S677FJWBEB1bX1iPM3ZZ5/9F8d59913lxVRkM7BVBFL5b333lt9t0xjg84666zl+++/n8bxrB2/c6211iqXXXbZNLZmpXMrK0KprAig9J5xTtddd91B45y2HAu1IgDKVVZZJc2No2pb43Lm7Y3T6Tszz9SM1Zm3r4iGNDZnRSiVc801VxqT1Nijxv80Juinn36a5sYAzfsdHNrCZ+3DOWmrt99+O+1nnXXWSWNltrUexlCtiLi0DPsyVioqQiu140/VMUsrgjmNuWl/FQGXxlmtiK10DksuuWTaT+XBII03WhEM5Ztvvpk+V4sxdysPEalN28LYpxtvvHH6noq4KiuCctD1nXPOOQddT/eGsWszxuacZ555yueee658+OGH0/V444030nv9+vVL51qL7e3vxRdfTNMll1ySxgN2jfDdd9+l34h2g+thHFxj59Yzfiv77bdfakfXo7OoiLf0+2gUwoUaBEHDkwu8KuQq8F3hVsVO6xFlTwwB5ZhrYfnJ8W/ccSxlGcV4ubu4XVlhxFplWMK8LyuzIk6SdYm1pq1yCKr3syAZC9U4ogK2uUkNCcUKozgui9GQsD1rlkQLGZHLLLNMshax6GQcr7FH1SyrzSBtL87VMbGWKejLpTv55JO3uX5Y0F7ajoWQW5EVhtVRvF9FECVLWh57tTWyJaitCv6VfjZdD9fU97B8saReeeWV1S0Gj7ZzbM7PdRvSfa0IrbZhkXTc4vDE47GqGp3CdysoDJY792Jbx96daDf3JavlDjvskM6JFblRklq6ghBwQRA0BUpKGCeSa4lbSWFfw0wpM1JPcFcRSIM7LsdOXGUIFkMKyXQkhGpHm9DR1YpB7sPBCbBa15MsWBm86qupQK/D9Fn7HBK2IRIdGwjJlmIgj8bg+Gw/tNeC+DvhhBNSrCNhucsuuyTh2NZ6ECW13zMkMcqVCZ/TrpI/LDs355Pfa8s1zz3rnGV11mIoMC5cgp1bufZ78j2A2nbx3S2Ft/vaZ0zasS1hnsnjxGa4cV0HbmmjOih6bV/w3Y5jWMaI7Uy0A9f1euutl1zlhlOTJNLy3Ho6IeCCIGgadExilHScntzffPPNlAggZoalpj3CpLNhGfnqq69SjNXg0OEayB2OXbwbi5dO+KSTThp0LubipYg78Tu33XZbGlKspYWvNQTgi29TCJm1RgxXbRsRZ7YRm0Xs1cIqNMMMMxTnnHNOOh+xW8SF4bGGhMD5559/vvqqbQzRJSuVxZFIk7WrWn5b68FSox0ct9i0YQnQZ+1i+dL+RK3YN5a51jCk1n777ZfiGsWkicdjwTOMl/eII9bO008/PdUuc/0cn4SK/Hlijwh07YY0IH6GhdY9JCZM7GRb1k3izWgl4gV9hweBjGM1xmxnJlu0F/eddhH3x3KrTY444ogU1yf+MovO4H9EEkMQBE2JjksnzGX1wQcfJGucRIBsweD2q7VkdRWsOsb5JLB0psqgCM5mhRGcLujcRJCo0cXidtRRR6UOjjjyHquEDlutMeLN+Kc+K0Cei5RgEJSfx9bU+dmOCBHsLqmBO0/wPNeg8hpEomUixPYsS1yKef+Ep8xKYo1AcSy+n3DjDmRlIlrsU8fL8sTdZ5+sosSDc+DmlUzAEiSYv5bcFq4Ll18emF8CgPMjrDbddNNkRWQRa7lem0qkUGLDtSbmHK/XrHYEmc85Lpm+xI/xTG3HzZjPbcEFF0wV/4lmIlDigLZl4W3Nhcd1zxroHpMQ4fskYSyxxBKpLWXvWmf4J99HUPkOxysTWdKB/Tt2o14Ys5U44/J07xoT1fG5ft6fc8450/Ugvj2kEODOxXiztifMaoUasec6+l7nktEOAwYMSCVt2iP4Oxr3PDHuuvfr1y8la2hHWdpLLrlkl9fQa7QkhijkGwRBj4AlhQWLAOLuIjRWWmmlJPKyq6+r0Jn37ds3CZ22Som0F6KCNYcFrREgTFlZTj311EFZuPUGMSqLlguP4CM+s1glfBsN1kj3m4mQBWFvTFXxcFtvvXVa11VoT/cBsUtwOgaC2W+xNpO3q/G7bKRCviHggiDoceigPWnrkFnDvv/+++QS1IGwbrBYdLbLxtP+e++9l6xbwwqLjk6YNUacEAtOPcPiooSFhA1uz3pFDJZRPrLljvuYSBaH1VYsXD3CqkqMEMrckrXubdY3Ll3Ww86GNZG1kJWQcGNhZeFlZWOR7Q7rX2uEgAuCIGggWCK407irBMRzWbIIiLuRSMBSx+rSGXWnhpfazE7H2NPGBu1MuNq5cQX5c3tzYzaSeANXKgsXweQ+7gqhxHUuHpOrl4D0oOQYZL96OOIW94AkkaNehFsmBFwQBEGDwkLEMiYOSiarQGoxOoL5xeaIZTKETz2KuSDoLljYJKWIYWPR5rJlYRWHx9LGMux1vScihIALgiBoIgTesyCwJBB1/uRZvVhlWOq4L3VQAuHbqhUWBI2O34GMXkkYkmi4lcWS5hIpQhCEA7Bcy6ytd7HWGiHggiAImhhuKQkR4odYHXRkOjWDbKtTJSnBpJwJV5GsRYHZsl4bsVMLehbKmLCouZ+zNdr9bYgz7mTxdNyhYueINve3hxnlUhrNxdySEHBBEAQ9DNYJJSi4W3V05i+//HKKrdMREm5KdyjhoPPjWlJCo95igIKehftWvBq3Z34Qcf+KYyPMPIB4GGFdZlWTfCKWrlkfRELABUEQBIPQSXK5smQomsrtpKNk3eB+YrUQY6fmlc5SMgLXrMmyYO8gGFpyco57TrazrFOhAAQbS5p4T/cmkebhwv3GasyqxmLcE63FIeCCIAiCwaIDleWok+WSVRdLQVaWOx1uLvHgPQIuu2DNiToB4VxWJu+LQTJXeLc7ihMHnQ/B5X4xsZC5Zyy7T2Qju28sc+8Tae4drk1lUAgzrk9CjRVNEg53vwcH90weDq2nEwIuCIIgGG50wDpknbHgcS5ary0rb6EDZ8Gznc5dZ61TJuoIOsWJTZZ14lkA2o7I4741sQDWLjd6HFO94hqZCHfXjfXLsknduXwtudxdc7UJxaK53oSa9YSb9bYnvFxLpWNY0Qj7LPRNrrkpj6UaDJkQcEEQBEGXokMn7nTyOnwCwDIBoKRDXk/0tQYxkC16Yp/MWWkIQHPWPRMxYFui0NzrnhrHp80JK4IqCysJAHkiuFnDtLnrYJ6XCTWft6wt8yDtlokwE1GWl/NEkJn31DbvbELABUEQBHUDSw+xYOK6Nc9WoLyesCDyiI48t44AsUygECU5dspnzO2bNY+Qyy45yyxD2aqXLX4m79suW45ql1mJvO91LT5Xa0GybF0tjsexZPI51+LYs+WL2PLanJiyPq/LVrLcVuZee9+Ut/Vetlg6HnPnQ4QRu1kAE8PmhHHOSPa+/RrU3zigRnlYfvnlk0DTBi3POegaQsAFQRAETQlx01L0WM5TFjiWsxjy2pSXsyDK+zCxGN54441p8PeWAs7nasmvs8DJwq2l67fla6LIvn3OPIvLvJwFqM95bTnPTVmYmrL4zOssm1oKyyHh2JWiOf/885MFddVVV02jFRB8QdcTAi4IgiAIhgID20viOPDAA5Mg6mkQpU888URx8sknJ4G52267pdIdYYXrWhpNwEW0ahAEQdBtKKly1113Fdtss02PFG9g9ZttttmKk046KQ04v8ceexSnn356skwGQVuEgAuCIAi6BZanAQMGFMsss0wqb9HT4ZJdY401imOPPTbVCdx9992LW2+9Nbmdg6AlIeCCIAiCbuGhhx5KSRIrrrhidU3Abapu27777lvsuOOOyaW3/fbbF++88051iyD4mRBwQRAEQZcjw/WEE04o1l133ZSpGfyaGWaYIcXFSWwQF3fRRRelLOEgQAi4IAiCoEvhOr3gggvS6ABESgTrt42SIxtttFGx1157Fffcc0+yzIkbbJmdG/Q8QsAFQRAEXYoxOa+//vpi1113TQIlGDwE7owzzpiSHJZeeunUbueee24qxRL0XELABUEQBF2G2mdcgWuuuWYaQD1oP4QcAXfccccVDz74YHHwwQcXb731VvXdoKcRAi4IgiDoMgiPRx55JAmRcJ0OG5NNNllxzDHHFDPPPHOKjbv66qtTceSgZxECLgiCIOgScuLCZpttlgZcD4YdY9GussoqKSbOSA7a1ZBnQc8hBFwQBEHQ6XCdXnrppWmQ9gUXXLC6NhheJIGcccYZxWeffVb06dOneOONNyLBoYcQAi4IgiDodMRqGe9UAL6xRYOOwyD5slS5pbfddtvimmuuGTRGbNC8hIALgiAIOp1LLrmk6N27dzHJJJNU1wQdyYgjjpgE3BFHHFFceOGFaXzZ//znP9V3g2YkBFwQBEHQqRgk/NFHHy2WXXbZ6pqgM5AUMu200xaHHHJI8dRTTxV9+/ZNJVuC5iQEXBAEQdBpCKwnJJ544ok0YP1tt92W1ueYuBVWWKHYaaed0rqW3H///cWqq65aHH300em1z7QlSC6++OJkgbr22mura3ouslSJuFFHHTWVGnn99der7wTNRAi4IAiCoNNQsHeMMcZI450SYIsuumhaz1pEvLEYyaRsjfnmm69YbLHFinfffTe9/vHHH5MV7+mnn06vazEI/KSTTlp88cUX1TU9G8kiO++8czHbbLOlOStoxMU1FyHggiAIgk5BRuR1112XEhfWXnvtZIV78sknq+8WxV133VVMMcUUyVLUHiQ/2B8LU9A+1llnnWKXXXYpDjrooGT9DBHXPISAC4IgCDocQuGGG24o5p9//iTSpppqqiS8uDiVuVB49o477ijmmWee4ssvv0x1zHbYYYdi++23T67TlrC+CczfYIMNihdeeCGt+/DDD1PQ/iabbFIcf/zxYX1rhT/84Q/FvPPOm7JUJTfIUI0yI81BCLggCIKgwyGybr311mKllVZKr415uuSSSyYB8fnnnxcfffRR8d133xW9evUq7rvvvmStO+CAA1LMG5dfdptmWN+22mqr4tNPP02fx957753cqX//+9+Lueeee5CwC37JCCOMkEZt2HrrrVPNOFbMoPEJARcEQRB0KCxqRx55ZLHWWmsVo48+enVtkcSZJAQZqcQd0TXSSCOlWDexcSx2L774YhqxYUhjfLLwGVOVa1aM3eyzz15MP/301XeD1hAPx9J5+eWXF1deeWWUGWlwQsAFQRAEHQZhxcr2u9/9LiUu1I53SmhJSjjppJOKhx9+ONWFg3E9zzrrrOTum2iiiZK17ocffkjvDY7f/va3xb///e+07HsivmvwaKOJJ5646NevXzFgwICUuRvu1MYlBFwQBEHQYRjSiYVHPBtBVstf/vKXYvnll08xbsQc6xzR9dJLLxVjjjlmsfjiixfjjz9+u8b0JEZknl522WXJrfr444+nTMtg8Gi3CSaYIJUXIeBuueWW6jtBozHC2tvv03fK0X5XfRkEQRAEw84555xTTDPNNMUSSyzxC+tbRszbV199Vay++urFuOOOm7YRZP/OO+8UDz30UIqLs56rVaybzFWwyBFo3n///feTCFlmmWWKb7/9trjzzjuTEJQoIQ5u7LHHTvsI2oZgnnPOOZOrW3tNOOGErV6vnsTHH3+cYio9SDQCv7nule/LZSb/5VNSEARBEAwtzz//fLH//vunOKtxxhmnujaoV7hPWT+Vedl9992LBRZYoPpOz8QDwnnnnZeSYhqBcKEGQRAEww3LmFIeq622Woi3BkEMIWspd7fRLl577bXqO0EjEAIuCIIgGG7uvvvuZNGJ8U4bj0UWWaTYYostUlkWGcRBYxACLgiCIBguFNQ9//zzU52xEUccsbo2aBRkDC+88MJJyBmxoT0ZwEH3EwIuCIIgGC4UhpU9qlhs0Jj88Y9/TCNafPLJJ8WZZ55ZXRvUMyHggiAIgmFG4gIBZ5SEoLExYoNYuHvvvTeNUxvUNyHggiAIgmHC+KSnnHJKintThiJofNTmk5Fq3Nl//etf1bVBPRICLgiCIBgmjKagiK6Cuj29hlgzMeOMMxZzzTVXccghhxTff/99dW1Qb4SAC4IgCNrFs88+W2y66abFwIEDi/feey/VzNpvv/3SCAtB86C8yE477VR89NFHKTklqE9CwAVBEATtQodOtK2yyiqpdpiO3ugHQXOyzTbbFDfddFMaJSOoP0LABUEQBO3iqaeeSoPHv/nmm8WVV16Zhrm67bbbip9++qm6RdBMzDrrrMVyyy0XWal1Sgi4IAiCoF088MAD1aWfh2ESA2c80uOOOy6NRRo0H8asffLJJ9O1DuqLEHBBEATBEGF5EwNXK9R+//vfpwr+G264YSQxNCl/+MMfiu2226446qijiq+//rq6NqgHQsAFQRAEQ+TVV18tvvjii+qrohhppJHSIOjqhik9ETQnhPmiiy6aElVuvvnm6tqgHggBFwRBEAwR8W4sMDr0ySabrLjggguKgw8+OFnhguZH0kr//v3DCldHhIALgiAIBgu36csvv5zcqFNOOWUxYMCAFNwe9BymmWaaYrHFFgsrXB3xm+te+b5cZvI/VF8GQRAE9YhRDwiob7/9Ns29/u6779KyCYqu/uc//0nLGdvXImM0D1auDIgYJ/OM4ZSsq8U+Dz300OKbb74p9tprr1Q6xDYmFjjjaJobFD1oXt54441il112Ka644orqmubimWeeSWVy/v73v1fX1Dch4IIgCIYD1ilCirgxJ5jysrnXhJW5yfBE3FCWCSmTjM4sxIgl4szcenOii7AikAgly6YsmrJwyu/X8qc//ekXCQZZoBFt9u84axMTfLeplnzshJpjyZPtzPMx2l8+ttrJ95k7tv/7v/9LxzniiCOm6a9//Wuai6mz/z//+c9pbp3lvJ3JuXgv6B5c56233rpYYYUViqWXXrq6tnkIARcEQdBgEDBZjNQKExNR9c9//jMVsRXEb+gor7/66qs0EWRZeJmIFMIjiw+iI0/WESqmLFQImixq8jxPRJYpLxNBba3vTLJAc27mhJqpteXcDnmdKbendsrrssAlZs1NxCyhaJnozevtL59vbt+RRx65GHXUUdNcEsXYY49djDbaaGmdbbRJbdvmKRg+7rzzzlQXztTSUtvohIALgiCoY4iuDz/8sHj33XfTZEiot956KwkzAo24ILaILB2+7LsxxhgjTUQCi5F1WaDlKb8mNIKOhfBrad207Fp6TUR/8sknxWeffZYEoYkA9Lkvv/wyXRPCzjUcZ5xxivHHH7/o1atXmo833nhJBAbtw8PO8ssvX/Tt27eYbbbZqmubgxBwQRAE3YBOnAjTiX/88cdpmTB7++23B3X8OnZWAx32uOOOmzrv2s7cumazKvR0CA7XnlA3JBTx7p6wTPQR7ax0rjvRzornfjCNOeaYSbSz8JlY9oKiOOuss4pXXnklDXbfTISAC4Ig6GB0wtxrXHHEGLGmE37ppZeSa1NnzK3pfZ0wYcbiMskkk6SOmNWMhax2CndazybfU+4lAi/fVyx27i3WWQLPg4D3iDcWvAkmmCBNsnGJfvcSi633e8o99fzzz6dkFgPdO/9mIQRcEARBB0CY+UN97bXXiueeey51qjpaFpKxxhordaJTTDFFEmosJdZ5L4RZ0NFw2bLsEnQmFl4PDx988EESeCy7LHRE3bTTTpvq5E0//fRNJW5qEd+42267FSuvvHIx33zzVdc2PiHggiAI2omOgFB7/fXXi/fffz91igSbztJ7LByTTz556hRnnHHGZFnr7ID9IBhaJFl4wCAAXnzxxeRe5L4XezfKKKMUs88+ezH11FOn+5lVmAu/0Yceu+mmm4qnnnqq2H333atrGp8QcEEQBK3AXUWksV4YU5Pbk1Dj9tTJsZ4RaxNNNFFaZlXjDg2CRoOg+/zzzwclVngoce9z87Mis8y5vyeddNJi4oknTtZjDyeNZD0mUPfdd99U1LlZCAEXBEFQhWgbOHBg8fDDDxf33XdfiiWSwTnXXHOlyu46MDFqYohiMPSgJ0DQSahgdWbBEh7gdyFZYs4550wTa3O9W5rFC6622mrFJZdckn7TzUAIuCAIeiSCwlnXdEhPP/108eijj6bXLAwE28ILL5ysaxGjFgS/JD/o3H///cVjjz2WMmO5W//2t78VM8wwQ3K/1ps12u991113LRZccMFUVqQZCAEXBEGPQa0t7iGdjtgfLiOWBEHcM800U7KudVZiARfVpZdemmLoWO/Ub5MluPjii6c/4iuvvDIFWa+yyirVTwwbao2dffbZqYDpCSeckJInhoT4PZ2AQr3bb7/9cFtTdOhcVtq0szjuuOOKRx55JLmzufRcMwkiiyyySBo6a3AWUp25rE2lOJzz0LZX5thjjy3uuOOOQSU81HHjYt9xxx2ToBkcl112WXHVVVcV6623XjHLLLMUF110UXH33XcXl19+eXWL9iMT1X0966yzVtd0HSxbfkdvvvlmehgyfJV7W/06Ys618FCk9El3w/r2+OOPF4cddlhTWNAbTcAVBFwQBMHQ8PXXX5ennXZaucYaa5RLL710WfkDL2+99dayIqqqW3Qu77//frnOOuuUJ598cvnpp5+WFSFZDhw4sKwInPLMM89M26y00krlGWeckZaHl/fee6+cYoopynfeeae6ZvB88MEH6VjmnnvusiIwq2uHnUqnUq6++urVV8OGfdxwww3VV7/GNV1uueXKCy+8sKwIhvLDDz8s+/btWy6wwALlU089Vd2qdWzfp0+f9B0Y2vbKfPbZZ+X888+fjuE///lPWRGt5RJLLFHut99+ZUUUV7dqmw033LCsiIq07BgmnXTStDwkdt5553RPZe65555yvvnmq77qXpx3RRyXV199dVkRsuXCCy9cbrHFFuVtt91WVgRudavuoSIuyxVWWKH85ptvqmsam6effjrdx41ClAwPgqBdKKVw4403pvIBrFrKJ1T+7IrrrrsuZaIttthiyXrTFbCqvPzyy8VWW22Vyjew/LC6nHrqqck60d3cfvvtxUYbbZSyarnFhpeKWC0uvvji6qthoyJKkpuuPbAYsqRWhFOy/Bx99NHVd1rH9qwWjrOjkMGpsDL3oQxPiQGdBUuuAr+ZiohMMZv1AMsW6yM35THHHFPcfPPNRUXMp2M2HulBBx2UritLZVfjt8ZK6r8g6HrChRoEwWDRed56663JTaogrs5NkDU3V3e5TZZaaqnkpj3xxBOra34N96k6cTo/9bosb7zxxsndx1WiA3T8hr/q3bt3OieuT8VJlYHIpR4M3C1Ie6GFFkruPa7bfv36JdfgpptumgRGLQLSd9ppp+KAAw5IwpYLlnuPyCGCTzvttOT29XkZiRI81l133WKJJZZI58NdplN0vM6B+1THzZVGxOnAuXnmmGOOtE8B8dpis802S9/Ndfzqq6+m97hA119//fQde+yxRzqnBRZYoFhxxRV/5Y7lult77bXTtOaaa1bXFum7nK82E3jvGLSLtpp77rlT2z344INpOy5Hbay9tddtt92WxKy29p6YqSeeeKI499xzk2vWedciS9Ox+ayJG/PCCy8sDj300HS8vvvqq69OYpFwNxKAOMucCUk0EzWC62V9ulftAwT/P/7xj+TidfzawT5dGw8la621VhKM3LWnn356cdddd6XvEsvp3LiUlbOxX/swqHt3DsHlHnGdHR83pvAB5yNuTthCV/02XUPt1/J+akQazYUaFrggCFrFEz0xs8UWWyTrBIHgj23ZZZctJpxwwi7rIFqDQNCBDwkZfzr1JZdcMv0x6/TEkulwxBMRNWKKtt122yRgdPDnnHNOscEGGyTrHoH1wAMPVPdWJHH10EMPpU5SCYWW4g3EkoKuLFcrrbRS6hQIQhBvBBYhs+qqq6ZyKjpb2xEYRNrmm2+eRBDRJhmEqHD8xBPxSbwSlESTeC+CxXURCP/CCy8Uhx9+eDofk2Ml8FhHjVtJNO2///5D1dmyxGkH4pMVT2ya9rO/k046Kd0n88wzTxL0jr8WVjTnRuwRmSy0hLLjJ9RaQxuLAXOdxKIRSa4NK6vr4kHCa+0mgJ6IGRK232STTdIxENfEofaxf+3tO9zn2sayNnbdtLdzc49oS9dhhx12SILRMXYnRn4gKLXJEUcckc7pmmuuSfcOUefYuwIPQNox6HpCwAVB8CtuueWW1BHoLAWD77333t0S0N0WrFe1Lq+2UECVWLC9oG/WM8HhLBYsYyxDBA7hY7riiiuSZYYAY21kRSMAwYV38sknJ4sQV2Fb1hfWSlZLQpD1h9Bl5dGh3nDDDUl0EJ+EkeWMyv2sGdpeAoDPKTPRFj5LELEwsgjljF/nTFxydxOorYnMoUH7+B61y4gxpV8Erzs3ApmYHhw+y1KpPbS5+8mxt5VVydLlfe1O6G655ZbJKua6DSvEFgEGiQ72xQrq/m4vxF9OytHOQzrvroS4dd/2798/uVQlpGg316izhZzCxPXUFj2JEHBBEAxCVik3ng6axY3rqjvdRG2xxhprpPEYWVYyLEEsESxcmZz9mq2FOjOdHVFH+ChrQjgdfPDBqXPmcmRtyvFE3GUsQSDgWI8IJMKuNQuMz3IDsorZNyuVeCWWEVYobcnNmbF9hrWzb9++yaKRixkPLq4pZyE6N5Nzc746blYZVhFCjssVrGEw7JOM4fbgXMQbciP7vP0RvayCLIyEI4vZkOBm5dIVL8nSuOiii1bfGTKEHjdybivHkePhtOXg2iijfezHMWtbk8xJ1xO5bYhVorQ1HH++j2zfVRauocHxOacjjzwyieADDzywuP7669vVRsMKi6zrE3Q9IeCCIEjoIPfZZ5/k1hO07oleB12PiHHiMiKkWOIIuVNOOSW5HLm8Bsd0002XOjdWMgKLELr33nvTubI6sn5pAxYa7aGUA7isfCcXHGvdtdde+6tOXOC7sSHFs9nWtOGGGyb3J/cilycLnVEorBMjliGqHIvjF/82LFYNbj/uVCNaOAYCzHmAeLFPgo5YHBw6fK5JJVBYC8V7Odfs0nWOLHLtDV5nzRRXpz1ZNwnoIeH7WBUdq+K2LJZQ4oT7mEB1Lu0RkEQG0aiNuY+9NhRUvn7OhVjfc88903c2Oq6RmD6W8zPOOCPF8nUWHkpqH0SCrmOEtbffp++Uo0VhzSDo6Xhq1xmaGxmhnmFpEs/FKsI1x7JDtOiAWdHOOuusJFx0xlxfxB1xROAoKEzcqHnGHUoIEBY6ddtKDmCBFMTO0idQn1WSCOHS1DmKaSMACTFFisF6c/zxxycLjmMhfFg0HR9rmtg4lijCWLYsyx5XHPG5zDLLpLg6n+XGtV9ZtY6XtYnVi4AhLJ0TIWIbliSCkEWIuBK0T/yJ5eMy5PKUlMAyY39chr5DvJfzqUVnD243VhsWTiJgu+22S9vah3ZzTFzCRI+2EBfnPGXbsu45Pm5g10F2JMFEsGkP8YQyW322NVwH955jIDoIa4KbhTRbgglc147QXm655ZJ4ePLJJ9P5E6iujfbQjr5T0oR4R+5p20iE0Pa+i/sPrLAEnWutnWqvmX05H3Mi3nkSrjKMxYJmYVlvuF7O3zlJ9nCt3G/ZithRcEdrd/dvo+PedY+oJdkIRBZqEATJrSXTkPWGpSboHFjziB9CU1LALrvskpJC2grobwYIRg8GBCGR2zLzNOh8PHiwVnuQ6WjByQrqwSA/ADQyHk4iCzUIgoaCtYlbMcRb58KqQ8TIgBSrxhLFqtXM6ODFAbKozTvvvNW1QVfCIsyKmt3pHQlreHvc2EHHEwIuCHo44oDE/3CxBJ2LNlZjzMR9K1uw3t3VwwsXriGtDJMlgzXoetxjMrE7I1uUS7aj3bJB+wgBFwQ9HH++YqmMZdkyKL+eUdNNbFq2Kohbk4QgaUDQvTpqYqk6A/FnQ6o/5n213toai5XLWjKARAclMyQ4OP5c7mJwcMOy3MlaHR7EcrGOGbtUHJ54M8ei+K/4P3FkXL2diXuOe3VYkgdkPw6u1MrwIOlEEodsbDGDYufE+rFWy8y13CioEShWTaZ10DyEgAuCIBV6ZSWRtdgICOwXaM51o84YIaIshM5W1p0hvgTiK2ja0SgHojMf0iDp3FaEUFsFX3MxYaMtSDpQY05ShppnQ3JJEYaSJ9RVGx4IUcJJ2RGCTYkVCSBnnnlmKnC7zTbbDJOwyhCYQ7L6OFdB9pIxBodkE9e1FtfYZzsD9eIUymUlVdR55513Tuei3bmFJU40CgLzlVwJK3tzEQIuCIL0ZK5Qr8y84RUFXQGLjUxOcWREh5IcyoAoUSHbVLadgqadYXGQjajArGGyOgpWUJmast+URemqsSVlc8qKbekC04bKbsjwbG/NuNZQTHhIBZd9l8DxIY2jytrGIlhLR4wR2xbKxbi/1OWbeeaZ0/3lPuOOVJhYzcHamn71igSlo446KolfmcFB8xACLgiCBDeRsgrcRiwz9exOVRpCQkCuU6cMhFEWWLWMdqBMBEHKRcmVKfNRcV0uV0MqOUclLVh/uGJPOOGEtA3Xq5IV2WrksyxiPiPxgKtRSQn7kkGqjXTistZ09tyPLIPD4nZ0HMpWKAOio2X5EfSvlAbLKMHY1mgYLJIsj9zHxEWt5UvygONiUbNe+RM4diUxWiuqa38yZgW+E8UgBLQba532YP3immOhk4FoHUuVkicyT5Wj4baTcev7XRPnwE3L2qg9XR/DV3Ej294x2achuogzw1YZTYIlVXv4LvuSUen8uH+JXsfrs+rqsXpyRbs+3NHEcP5eNeWURbGN0TjABe/asd4SbURirQXUA43POS73GVwj59NZ7tuOwvk7J9cll7sJmghlRIIgCPDNN9+Up59+elkRKOWDDz5YXVt/7LPPPuVaa61VffUzjrciwsoJJ5ywnHnmmcv99tuvrHTO6b2KACgnn3zy8q677krneO6555azzTZbWRFGZUVwlAsssED5wgsvlB9++GG5xhprlP369Su//vrrcsUVVywPPPDAstKJlxVRW1YEQ5pfeOGFZUUQlRXhUL700ktlRcCUn3zySVkRFWXv3r3LSseZvrcinsr5558/LbekIgjKimguZ5999rIiispVVlmlrIiv8pFHHqluUZbLL798WRGkafm9994rJ5poorSMfffdt6x0zmn59ttvT+fjex13pcNO54A55pijfPrpp8vvv/8+rasI0LTeeSy33HJlReCk1xXhWY4xxhhlRQSmdlxiiSXK6667Lh2nfa6wwgplRTiVX3zxRWrPGWaYoawIwPLMM88s11tvvbRNRbCVq622WlkR02mfc845Zzlw4MC0DNdjqqmmKo899tjyyy+/TJ/Xbs5DG/73v/8tTznllHLBBRcsK+I5beM63nzzzWnfk002WXVPP+O8K6K2/PHHH8tnn322rAjCtG1FVJc33XRTOcsss6Rl39urV6/yyiuvTPusiMKyItrKilBLbVIR6en4X3zxxXSN8/GjIgbTNbz22mvT9nDdp5lmmvKqq65Kr+uNygNEeeqpp6Z78Y477hh03J2Ba+C+aAb8Tvr06VN9Vf+EBS4IgkFwF7FEGBB9wIAByQrC+lFrkagHBJArqlqLgqUVYZasPiw4rDHOI5PHHnWOivkKUmdV4uar/BemMTq5ZbkNDX3lfdY8WZR5PFXuOvNaZFayJIkdM1g969PQxEdJXhADx9JX6Qx/MTxYe3DsLERGT3C83GXcjc6BVVIxXkOisVopUsvaBdY+Fj3FXjNczs6DFZKrmAVSXJ44PhY3c9mkllmmWAdzAVeWHqNTSM4Qlzg4FDRm3WNhrIjG6tqf4wslaLhO2tU2jtv2Q0ItMu5a8ZzcnIY8Yx01akMmfy+XqMxrllLWVFZJVjrFgZ1f7fG7H5yXen3aAtqG27kzh6gaFvwutJ94RlZb97R7PR930FyEgAuC4FdwN+nIuOMMq8UNJslhaMVFZ6HT//rrr6uvihSb5HgJTR0rYaBjzhmq0Nlyg8Gc8FGHTYV/58uFyj1IvJgIPe/Xfo+s1pbuUeVAfDdXpM8LfB9awUsQEIESGsRW5QxHNba4VmHemmvW+RIcRgXI52C0A+dAeBJY9rnkkksm9y6RC65go1m0hqxk42gStISs4yN8tKn9m+yHIOLGti33NbhZiaNa1L6rXZfHqG2J7yEotXkWRz7n87WIy6u9LiDa7JfgArcqAVcrUMXbwfdkuOK51iVsED3asPZYCcn8uYxr4bvqZZxgrmWua8fudyqhh6COmLfmJgRcEAStwsLl6V28EnFhLpaGNSILoe7C8EzKnmQIJvFprDBEjqw7HZnjzshilFnIKqWzM76mAe2Vz7C9jp8QYsEwZBWLnRIgRIzPiCcSQ9ZSOLBEaSv7IiLERg0LhBhhxBrkPCDWSqKB7zRIP1HSGqx4PscCZaxQFjLnwPIiro/gYJFyTsQQ8WrIqamnnrq6h19je1mLF1xwQRLM2oJVk2AjrlgN7cf7LD32TSyKOcttpD2JaDGGjqc9iF9TqsN4sz4rscY+iSjtLPaNYGTprMV3s466fq6J4yK+pplmmuoWrUPsOC8CmAjXhvn4fRch3zIRg2AijnymO9EGxKfYRxZV8X0ssM45x4cGzUsMpRUEQbshdLgcJQCMN954ydWlHllXP+mzlOi0uOuU4iAkJDYYe1PnynJGvHERsrYQRMpAcKkauzMLEhYUnzWupTIWhKmxUH2WhYVQsd55GyvV2Js6zUsuuSQdB8vdCiuskEStfRAxRAY3roD3HOSuo99oo43SckbmZa5Tx2pngH7Yl/NgHZtxxhnTd7F8OibChlWNWHS+kEWaXcLG8yRUnbfPOwfJCFyD9jHVVFMlK5rOnjDlJrcNV6httIXz1LaEi+/glnWtWXcIHW3BGseiJ+nFfu+44450/kSDY8nB/lywkihkBUs2IPRycgWxar19SqYAix5XOAsbCyHB6h6bbbbZ0rLjdqwsrEQKVzmIVg8Xzp3QJe4d2/LLL59ErLb2va6P+9V5QztpP/c0Aey+4SplgYRrbX/aTBtkWDIJ9X333fdXGbydjTZ1nbUDXAcPIdqgO3Dt77vvvmT1bXQabSitEHBBEAwVOnkxVrL4WHqIFZmKLFoEDbGi8+9sWJB04DrRWjdZaxBwSn8QQEGRxBsRSJAGQwehrIP38DCk+64j8FuTFU4oEdQEM3FOeIpZJOhrXcJdTQi47iMEXBAEw4ygc9YOFiNWOfXZdCjzzDNPsgzkEhSdBUsNN9/gYpFYLLg+iTdxTmKDwr0UDCuspu7xzrR4sfxynbMMEm0snqyQrMMekmoTP7qbEHDdRwi4IAg6FIKJoPOnTtxxKRqVgLtK7BrXVndaDIKgnpCw4kGERZvLXYyi34f4RHF9RJsQha521baXEHDdRwi4IAg6BYkFYpIkABB0JnFS3KsEndg17lZZgOKuWBnqtZMKguFF6AH3p4QISRl+DxI7uEe5YsX0KbY72WSTpeSPkUYaqSEedELAdR8h4IIg6DJkiHJBEXI6MIHjSjaw0nENiaNjcRDbI7g+CBoZmc1iNdWiY10j1nLGsocX9zyLNNFmSLhGJARc9xECLgiCboVlQuaoorpi6EwyBsXX6ezEuOnglITQ6enwlOsIgnqAhdlDCXFGrElyYGFz/4q1lNHK2iwDmOWZpbmZCAHXfYSAC4KgruB6ZaljveCC1SGKqyPw1AUTM8TlJIhc3S+CjhtWnBC3k0knGXF2wfDiXlRTjuvTXEaoh4ss2Dx4uB9zTTgPGoSakiPuQw8aRFwzj4QQAq77CAEXBEHDoCCt4Zx0orlCv2Wdq47UxBUlhoioI/JMYuy81qF6X4fKupeXI/au58Diq6acmn/uJ8vuG8V7Wc48JKj/RpypN0i8ZWua+8e95cFhnHHGSdZhYs0DRU99YAgB132EgAuCoGnQObPcKbKaxZ25bFidcR5CCyr7K8cgHklnTOSZWFOyRY/ICxoP15gV1zUnylhyCbKcQGDi+rQd8W6e7wf3golIY1Uj0hT4DVonBFz3EQIuCIKmRufMFaa2FouLyWsWF+LOxKqng2d9MX5m3p7VJWcEcsuq/6WTN+nUsxWvtclnzcO6N/S4ZtqfZYzoNs/XLVvOCDTXKwsy7k3XlDWWiLet68NqxkLmmhHoxFkW7RJl8vViiTWP5JmhIwRc9xECLgiCoAbigYgjCAgByyw5lokDYs9ry4QE9xo3XO08C7gcA2VuIii8rhV+1iutYj1RmMVEdsnVLpubiMI85deoXV9L/nym9n3nW4vjr8X7tevya5Pl/LrlHNqDkCK2TNqSGLOs7WrFWRZr3ssizTpCThuYtBtLWW4HgloR5zzXfoS2ZW2a4yJbtkfQcYSA6z5CwAVBEHQgRAuxxxrEdSeGymQdQULEmLKoMablk08+mcbt9L6JCMoQH/l1Xm5rHWqXQfgQPRnvEYnmjpVQqoV4yvtG7fcgvybSnEcWSLXb1S4TWrUCNc+zqM3rbGPZVCvMbJO/O6g/QsB1HyHggiAIugGWJQOln3XWWWmcVlX3swUrW/Ism2otWlkcWZe3ye+jdhkEGStYxvtEIog7Yq4Wr1u6EWsteNn6JdD/uOOOS4PwzzLLLIPWE1tZuJlnC2KevA5B1jyEgOs+QsAFQRB0IQSXQsYDBgxIrtjdd9+9mHjiiRtS1Nx6662pwzvhhBOarr5Z0D5CwHUfPTPvOQiCoBtgQSN6dtxxx1Qv7KSTTkp17BrVIrXgggsm8XniiSemcwuCoOsIARcEQdAFsLb17du36N+/f3HaaacVa6+9dnInNjKSCohRA7ETpkEQdB0h4IIgCDoRLlPjYPbp0ycF6HM3Gl6pNrGgkZHpKYbvqquuSpm7QRB0DSHggiAIOglZmqeeemqx1157FVtvvXWKdxt77LGr7zYPc801VzHzzDMXxx9/fErOCIKg8wkBFwRB0Am8/fbbxcYbb5yKzZ5++unFrLPO2rTZl7JLV1xxxWRpHDhwYHVtEASdSQi4IAiCDkS9t0svvTRZ3Lbccstizz33TJX/mx2WxV122aU45phjUg28IAg6lxBwQRAEHYTxNSUq3HjjjcXRRx9dLLTQQr+qs9assC7OO++8xYwzzlhcfPHF1bVBEHQWIeCCIAiGE8VxjajA4iZBQR2pKaecsvpuz2KjjTYqbrjhhuLVV1+trgmCoDMIARcEQTAccBeecsopqabbzjvvXGy77bZp0PSeyrjjjpti/w4//PDkTg6CoHMIARcEQTCMvPzyy8VWW22VBrg/+eSTUzZmUBQLL7xwGmP1rrvuqq4JgqCjCQEXBEEwlBAnl112WbHPPvsUK620UpqPNtpo1XcD9e522GGHFAsXteGCoHMIARcEQdBOxLq99dZbqZ6bkQe4CVdZZZVfDf4eFKkunMlg/UEQdDwh4IIgCNrJAw88UGy33XbF5JNPXhx77LFpHNCgdWSlrrnmmsmN+u6771bXBkHQUYSAC4IgGALvvPNOccABBxQXXXRRGhKLu7Rfv37FQQcdVOy3334pccGIC10B163yJDfffHN6rWCwsiX1yHjjjZcslGrDGZUiCIKOIwRcEARBG3CZPvPMM8Uee+yR3KRqvBltQKFe5TKsJ+jmnHPOlMRg+85m1VVXTaVKvvrqq/Ra7bl//OMfaXl4MCi9UigdzRJLLJFE5rPPPltdEwRBRxACLgiCoBUkKpx//vkp3m399dcv9t577+I///lPcc455xTrrbdeMdlkk6UB6UcaaaQkqrzfHUNlzTTTTElQDi8PPvhg8a9//av6quMwQsMGG2xQnHHGGalNgyDoGEZYe/t9+k45WgTgBkEQZFiLDjvssGTlYmWbffbZ03ifzz//fHKj7rTTTr/IOiXkpp9++iTgXnvttVTI94477ihuuumm4pFHHknviQUzvJY4uldeeSUF9z/xxBMpKeKaa65JteRs95e//CVZ1DbffPPi448/TtsTkiyBc8wxR7IEXnXVValQ8AQTTJCOc5tttknb//DDD8XZZ5+d3KySLK644opi6qmnLv74xz8WF1xwQbHpppsWZVmmY/H9I4wwQtrPueeem7ZV0873SD7wmY5ikkkmSfvnUu3Vq1d1bdAMvPHGG8nCuuCCC1bXNC5+b08//XSx+OKLV9fUN2GBC4IgqMJCJJ5MfNvf/va3Yt99900Ch9ABF+n3338/WHFz8MEHp+GzWOS4JZ988smif//+xVJLLVXMMMMMqZNQO857Brm3fwWACUJlN3yWGPvss8+KkUceOY0vqiSH47rzzjur3/Iz3mf9y2OP/vTTT8Vzzz1X7LbbbsX++++fBJ74sz/96U/JCub4CcDtt9++WHrppdP3Ox8WRduus8466XOjjDJK2l9HQeASmSeccEI6xiAIhp8QcEEQBBWIoEMOOSRZvwig1VZb7VdCjXVsxBFHLD799NPqml9CIN1///3JGsG1ShQZG/Tuu++ublEUU001Vdrv6KOPnoQV6566aSxTH3zwQXWrovj9739fzDbbbGk+zTTTJOsV69jg8J2bbbZZMWDAgOLII48sXnjhheL111//hetynnnmSft0bEZK6KrkgllmmSWdN8tkEATDTwi4IAh6ND/++GNxzz33FLvuumsSUWK1Zp111uq7v4S1jCC79tprfyGKuCS5J7/77rti1FFHTVY2cFdaJtYy2ZoHLtdcQ86y7TOOKxfBtSw+zb4Hx8MPP5wscix96667brHIIoukfdbulzUMXMK16/P3E33cYh0N0cjyyMUr8SIIguEjBFwQBD2Wf/7zn8V5551XHHfcccXKK6+c3IyDcx8SP1yMYuTOPPPMFBN3++23p+UVVlghWdI22WST4sILL0xJAdddd13x0ksvpYxVLlHWri+//DJZvt58883kTvzoo49S7BqrHsGWRRuBJYaO1U38GgG35JJLpu0JOsfOamgYL/thvXPsPkcgWec4fc5r3+9zPs9t+uGHH6b3zDHhhBOm2LzTTjutUwQcWB9ZHR999NHqmiAIhpVIYgiCoEeiuKyyIASMERVkcxI/Q8JA9YSUzxNpBNmGG25YzDvvvMmKZT/EEFcqgcTqZIxU1jGiiwtWvJsEBpms7733XhKGBF0eBF+hYEkN3KFi6Ag/cWvWE3Vctfb917/+NYk0LlbJEJIcFl100WLgwIEpsNxrMXUEI3E2zjjjpGPwvayIU0wxRRJ23LhcnMQmC+Niiy3WKaNLZNcxwSsmMFsDg8Ylkhi6j99c98r35TKT/6H6MgiCoLkhZogXmZ/LLLNMsdxyyyUhVG/IHpUpKmatmWAZ5G7OwjZobMQ03nfffamgdaPD2s0iL4u8EQgXahAEPQZP2CxbV155ZRpZQdZlvYk37lQjPLAGytrsLHdmd8Gyt/HGGydxWhuDFwTB0BECLgiCHgG3IpckJCpwH9YjXJ7Kl4ivE/umhlqzwV0r5k/CRBAEw0YIuCAImhoxX0pqiHM7+uijU7ZpPbpMexLKsag9Z/xYCRVBEAw9IeCCIGhKxFpxPyqYK8iaO1LwflAfSJxwfWTFBkEw9ISAC4Kg6RBbJVHBCAcrrbRSsrzlDM+gPpARK4lBJm8QBENPCLggCJqK999/P9Vdu+WWW4qTTjopCbjOKIkRDB8KGqu7Z5SKPBRYEATtJwRcEARNAZep2msGjDeOqTFADT8V1C+G8yLk1MQLgmDoCAEXBEHD85///Ce5SSUriHlTZ2xwA84H9YHCx9yorKVBEAwdIeCCIGgYJCM899xz1Vc/88ADDxRrr712GqLp4osvLhZaaKHqO0EjsPDCCycLXB7SKwiC9hECLgiChkDdMOOQ7rXXXmkYKeN6KgbL6rbaaqulyv4GTA8aC27u+eabL40pGwRB+wkBFwRBQ6CoLQvbjTfeWJx44omp2O1DDz1UHHvsscWqq64aiQoNihEnjN968803pzFfgyBoHyHggiCoewwEv/feexffffddsryxxBmx4LTTTksDxweNzbTTTpuurYH9gyBoHyHggiCoa1Tq32OPPdIg9Bki7qabbkqu1KDxEb8400wzFU899VR1TRAEQyIEXBAEdQvxZmD3u+666xcDn1t+7LHHiqOOOiqVDwkaG+7vJZdcMlla43oGQfsIARcEQd1y5ZVXFscff3z11c8dPXfbOuusU5x88snFNttsE7FvTcKss85afPbZZ8U777xTXRMEweD4zXWvfF8uM/kfqi+DIOhqWJNYHf773/+memYm6/Jry7Xr87KYIS5EViouxR9++KH497//nSbrbJvX2b9t8rL3fF4drozvs415LS23s0w0KcBay//93//9Skx5bb1AdRmiXpu4zKwTx+Z9k7pt3jO3rXPcYostihdeeCENfr700ksXiy22WDHddNMVk0wySdrGPhyHYzI35XVB49GnT59UBsa1DhqDO+64o7jvvvuK/fbbr7qmcXnmmWeK8847r/j73/9eXVPfhIALgk6AQJJR98UXXxT//Oc/01BB5l9++WUSXUpiWLb+q6++SoLL9gQXEZMFTxY/5l4TKpYJH0Lnz3/+cxJDeZ1t8udsazmLpixw8nvWmWfyOt9XS8t1zo3Qq8W6LEJrsZ33iDHv57n1tcvmWWzm+SuvvFKMNNJI6b08ZZHp/byc9+VctcGII46YPjfyyCMXf/3rX4tRRhklTV7nZetHHXXUtK62DYLuRZaxmnCHHXZYdU1Q74SA6z5CwAXBYCAUCK3PP/88Ca0suIgt64iyTz75JK3P4kOwvWViiZgwEVpZPLAmjTbaaIMEhmXzPLUUUEH70O6ujSmLZRMRnZddM9eKVdE1JJwJPyKYICYAXSvizuD3o48+ehKDrpn1rlkWfrYP8dexPPvssynb+NJLL03XJah/QsB1HyHggh5Fth5lK052P+rkDYJOjH300UfJQiYeR4dvO6JKJ27KHToxpoPX0XudBUCtGMhWMVasoD5grXNN8/WvnQg7k/vBveAeIPSycM8ua1ZMwtz1H2ussZIIH2eccVJRWveD62+bPHcPhNgbMtpaQeZdd921mGGGGaprg3omBFz3EQIuaFq43Igxwy9xx7377rtp2ZA9rDU6V5YUHTGrSq9evVJHnC1l3stz1pfogAMQcC0te5aJvQ8++CDdc4QeMUL0EfFjjDFGittzj6lbN/nkkyex573glxxzzDHp97b55ptX1wT1TAi47iMEXNCwEGGsJB9//HGynuk8BbzrNFnOdKJckjrPSSedtBh//PGLiSeeuJhsssmKscceO6xiQacjTs+9+NZbb6WHCPfpm2++mebWs8x5eGDVnWKKKdL96d5kzWPZc//2tAeHe++9t7jwwguTkAuBW/+EgOs+QsAFdQ0rBssGlyaB9sYbb6SOzzquLiIsW9CylcOyjo/lTMfIpRnWs6CecF97ADG5n1nxlM9gveOuZdEj/sRRsgK7p1nsWPDc5yZu+2bMtiV2d9lll+LUU09N5xnUNyHguo8QcEFdIR7tpZdeSploTz/9dPHyyy8nS5pObKKJJiqmn3761JGxULBU+IMXYxQEzUS23LEwe3Dh9me5e+2115LFWfzeBBNMkH4PRjAQL9YsYod43XjjjVP9P+cY1Dch4LqPEHBBt6CD0jFxK73++uvph2McRH/eXEdqfc0888xpItQiMzMI/offyXPPPVcMHDiweP7555O48yDDUjfLLLOk3484OwKo0R5wJJnstttuxYorrlgssMAC1bVBvRICrvsIARd0Ov6QuYi4Pwk2FrbsAmU1YFGbcsopU3C3rD6JBBGfFgTtI/++cgb1q6++mtyxSql48PF74noVXycO1CTsoJ458cQT03/BWmutVV0T1Csh4LqPEHBBp6EDueWWW9I4liwEOhKunmmmmSYlErAOsBh0FTq6u+++u7jqqquSBZBg7N27dxKPhmVi0VCDiuVieNB5HnrooSnu7qSTTqquHTzqx/3jH/9Iw0QtuOCC1bW/xLBS11xzTbHSSisVyy+/fHXtzxhDUsyQ4Yi222676tru4/bbb09/hCrqr7baatW1/2OzzTZLWcIg1rnHF1100WKeeeZJ64LhR/uychN0BonXObF2e2Cac845i+WWWy7FjNZjfOj111+ffo9GZgjqmxBw3Uf4pYIOg1vHD/mQQw4pVl999WL99ddPf8JrrrlmcdlllxUXXHBBseeeeybXCCHXleJNPNGOO+6YOoYDDjig6NevXxJwRMNDDz2U6k7p5FgJhxfWDjE8N910U3XNkBHrR4CZBLa3BuEmm1ZsYEvmmmuuYuGFF06CGWKkllhiifSHBOVTCOkMAXvkkUcWhx9+eHVNx6JdtcODDz5YXfNL/EESF+utt16ytjhWonfbbbdNMY+NCCvYFVdcUTfHTxi7Bu4L9/6ZZ55Z3HbbbeleZ5njplxhhRWKnXbaqbjhhhvS9VAnsR6Qkcua6KErCILWCQEXDDM5ju2ee+5JomiPPfYorr766iSM9tprr2LAgAHFgQcemMY2lA3anZx22mlJnPXt2zcJRxmqa6yxRurEJEh0N2KZCDRtSWwNLzrvgw8+OAk+KM1Q+1TJ6kJkb7DBBtU13YdSEXPMMUcSr9phaIRvPeEBhsVIFmm9ImtVjBwr7dlnn51E8yKLLFLcf//96X7xgEWEeqBQ7667YJ2XqatNgyBonRHW3n6fvlOOFvFGwdAhho0FhzBiETLIOEGw6qqrpqw4WaL1VL6DZWfZZZdNnVXGsf3tb38rxh133PTauUiaMB4jS0UuSQKuJwLj/PPPT9Y8LmA1vLipWPC0BfesGnRcsrIGWR132GGH4vLLLy+OOOKIJG5ZypR/qIW1rH///ql0Agsh8TXffPOl93Si1113XXHssccmi4RixAoQC+5mnbjzzjtTvSyWNvshUrkszzjjjOQq1llzZbO0sYa6Vo7RZ63zGeesLdTQO+GEE4qLLroofa9zFFe1/fbbp+8RN+U8ZELKfnT+XL9qdp1++unJjctyooQLfCZbAlsi/lG7OE/tDO3C1a7tiWtty53hXFh2xXBxw8P1sJ5VV/KL+831cSyuJ6Gy++67J6vj4osvnlzPxtf0vY7L51xb9/Fxxx1XPProo8WMM86Y2hbO8eijjy4uueSSJMimmmqqlP1J4Nx8882pLVwTQkdbuDYeDuxHnKd7wnnbDwujNiVInIN2qwcIZwlDzo3F1G/BNfAQwZ1P9BNS2rOrf8cSL9y/XOr18IAVtI3/HA+dbYV+NBJ+4/4j/Wc0BGLggqA9/Pjjj+Wtt95abr755uVSSy1VnnnmmeWXX35Zfbe+GXnkkctKp1R91ToVsZPO7dNPPy1POumksiJIy4rQKSsCoVxllVXS57/44otyjz32KNdee+30GesqIqSs/ImVFXFVrrzyymWlgy8rHXk56aSTps/feOON5UEHHVRWxEz6TEu8f+ihh6bliqgq55xzznQMOP7448sll1yyfP/998snn3yynHfeedO+UBF2ZUV0lI899lhZETRlRaCWvXv3Tu9hpZVWKm+55Za0XBFCaT+1VMROOl/H+NJLL5WVzrKsiMyyIvjKDTfcsFxvvfXSMd9+++3l5JNPXlZESFn5gytXWGGFsiJY0z6uvfbacq+99ir/9a9/lTfddFPah/sE++67b7nTTjul5ZZUhFNZEThp37VUhGDaxzfffFP26dOn3HjjjcsPPvigrAi4svJgUFbERboe2kHb+96KAEvbQdvdcMMNaVm7zD///GkZ2ti1qgjVtJ+JJpqo7NevX1kRX6kdnAdyW1REXzpO77nmqAjlQW3huHJb/Pe//y0r4rOsiN50rTJzzz13eemll6bz2XHHHcvKQ0L1nfomX3f3vcn5dvVvfeutty6ff/756qugXnGfHHDAAdVXjU1FvKX/nUYhXKjBEBHTwyoiVoZ7SwzbOeeck+K8srWl3mFFYG0ZEqwmst8kA7AAsVaJ42LxsY+KiEpZfKwwrFM5qSBn+LFQVTrttC8u5lNOOSVZkbbYYos2yzmwuhk/kwWPq1kShMDgyu8zuaGXWWaZ9N3iBlkk4D3H4EnRsUoCYAUd1pIRjsHxO3+WqYpATTGBAuDBmirhw3Fyd7KUYbbZZktxVFyfrFssj6yEw4rPu6dYqVgljYvJulYRbMkdzGrnerAIOUZDLrkP99lnn+oeBs/ss8+eLKQSVeyDVZYVynrWNGgL8WwsVCybLGwVoZrWIbeF48ptoX5ha7hmrHKup+8yNQLuI9bqs846K1lgFdcVbsDCOTzXd2hwDzRqPGQQdAUh4ILBIqCeG5DrkHATR7XUUkuljryRIEzE+bTkqKOOSuIjk92bOjAiiQjTBoK+xftxFxBZXKZcndxrtS4eIiOLWu5F7z377LNtxnXZfxaW9k0ccCkSzBADlEs+OAbvZ7jkat8b1vFanaeO0ueze8+y9TmhQnvktrFNFizczVyTSsNwIzoOxzUs+L5bb701XSv7cUxiFeG8tCv3tWNyPNofrkd2w+ZrBm7inOmasa192b995P1b5u7N58yVargr18R5c4/mUQ/aaovW4IaViat9JPcQco2E8+Su5973P8CVLQnCPd3ZaOd8/wVBV+FBeqONNkqJP/mhDRLErDcJh6kHQsAFbaIUhLg2go01RJxMow7dw3oIcW4EBuF16aWXJqGU46ragnWGEBMTxuojScOPWeevc2YVyhXzN9988xRDBGJrnXXWSW2n82bRIhBqkf3HKrPJJpsUG264YZrEWYnTIuyUenCM/khYAY1QASKEhcSfDQsQy5WYJSKkNRyL8yaAttlmmxTrkbEvookAs3+WNBYnVkUWpLZwLr5TXJ+MY8kqhNHQQmgROBIAiDQlRuxH24kjdK0IKTF8yqew+llHDInVcx133nnntC/XUiyfcyDMh1YA5LYgHlz3fL0JlyHVTvMZopLodj1ffPHFQkyodmTFEu934403VrduLPzulbhRFkdbm1iWPaR0FsR2JDEEXY1YPsldSkv5384PaKzu1iuDxetQD0QSQ9AqAuf9QcsidUMPS8dcTxBghCghoJwCccrKJHvWewL6iRpiiCBR04hI4M6UFCAxg7VJYLW24BIlFogJQubcc89N4oe7UxV8gfEsQYJ7dUS+lwWQkBI0jgceeCAJSuO8snJw2RFZ1hFikgL23XffJAwF3RNxRCMhyDJC+BEMrKO+h1AgGnSqjzzySKrQzy3IvSpAn+uLMHM+BKdj5iL2B5Wtqvbl2rMk6qQJGtYn5yxZgNiyD4kRXI+rrLJKsi5yO2ov7wsCdsxcnY6ZKJPcUMvWW2+dzpFLmhjWPtzDEg9cFxA82kAigbnMSS5jrkt/oo7Dsbp+m266aWpn7lGCNyc9uH727Ti4nB2XtnPMxKzXjsO1ze1LGE899dQpkN95gZvW9WR5dY20BXFIkGkLBam5Wh2Den0edlxTok8CA1e7+0UyDRd9I8PV7sFF+7jfXLfO+H+QCKL9BvcQEXQ/fl/NlsTgf8T/uodA/2ke5vwX6h/89v031QNRyDf4FTp3FhXuHx1lEARBSwh2ha+JuSWXXLK6tuOQ5Uv8E89B/dKMhXzd0x5AxQO7Dz3YijWW1e7hmLeAwPPQrhyPZQ+XLQusdzbhQg1+AWuMuLB11103xFsQBG3Ckskdr4QMa2ZHIw5xWOMpg6Aj8PAgSY3HgDW/FlZ1ln+eCoJOqIzfAjHXVYSAC36BP2JmY66xIAiCwWFYLm587ueOJieWBEF34R6UtCOkRI3MnBVNpBFr4uKEahjxRHycLG0hMV1FCLjgF/DzI2f4NSIC+pn0laDYqJo1lDsYJR388HJ2oiK43vfjbC/iJA466KBiyy23HGJJBUH+nuLycQjQ99nOsFi0hTix2mOonXI5kK6EO6L2GMQTKpfCJdeTkGiRhz5rVMS+mXLmbxA0G2JX/WeLmxXfmtGH5Kx9iGEWf9yVDx0h4IJf4GYVhF8vadJDi/IGaoKxDBjOS+aiAH3B6X5wzkuSgOB1EDbiHASXtxfB+5ILxEO0NKu3ZP7550/ZmRIP1NTKox8YaaCrRJxkB0G5RKxjyJNkCmJ3SAhQrh1HdXiRXarshz88x7H//vunbFxirjORxatGX87AFe/y2GOPpeXhhRAb2pplzl+msSGsBleKpJ5RakWn5X8jCJoVFQjEe6o4AIaOtdZaK1UcEDOea4KKnRt77LHTNl1BCLjgFygXoOSGrEdDAjUaeYBuJm/ZcrIvWcGggyXi/Nhkz0EnbptseexsiEX1tAT+1pby6GpcWwPJy64aEtqvdhzVjobYJmhl+LJKdRZEoydoAhyyWA3H1RF4Qh/a3wvLlTI9QhbyPdpIeCBgwSbIZQIHQTPgYVU8m8x3/0kZsXAetrhLIU5crTjJG6oZGLZQ/9OV3qsoIxL8CtYqPn5jS6o03yh/zjoUZR645HTSRBnRptMWbMrdqUaYtHBWMOUiWE5U5VdqQ9kNrlQlJQgJT10sDH6k6pRx8UnwsDznnHOmOkGKG7OeCGRl3WNVaVkyg/VNSQTHBVXtjWQhAJwVTravPwqCTrkSx61EBUuh7YhMxyJovK31Q4JLWfo7oQTtRNAQT48//nh6ulQHjrC1f9efCGa1UkrGOedxVIlg27Niak9jfWpj52/yObEjAn+VSnFOuTRIRv067ZlHJtA+/jj32GOPVJbAMXC12sZx+l6Bwmq+ecJlybSsLW3r+zx0uJ5KeriWxIXjlz1mP3lMUlZR79sHi63ro82VDhkc7hnt7vu0GasmF4osNRZE+yLMlVNwH8hQU+RYcWLXWVJQy3IbXmtX15KluFHQFv369UvLrNedUR9S+7Hu5dFHgvqk2cqI+K/x377mmmv+4j/BPe5/P5e18dv1vv8wljd9ZVeHHoUFLmgVN68nDuVEmIlzzFg9Y9gndbhqBY0BunXiOlDp3yxOarXp6MXt+IxCrTqLlVdeOb2veKMOmQuWFY+lSi0yRWMPPfTQJCByppF9EI7WGUarrU6Yq0znTyAKitX5ETVEibYmiNQvk8Ju3wqmEkhEho7fE57vb2t9eyAUuClNtbFXatkpXssaJSCXC5og9QRK3CpKy63O3el+yNurdedplPVJO+eB7Fk0zQmpLKZbg3DSJs6FNYwQ8geqvdV6Y/Uj6uzDvsQcqt/nWnkSJszEOWp/DxuEBPHovlUAlpvbvUtceihx7EoDqNvmOkvUEYTsvIZUmNODAEGqlp/z9bTtu91Xrich7d5QG80DT85QY812bQk7x94a2ty1aQTcm66ba6QDcx2I5yAIup4QcEGbcO/IqtHB6YRYU+pZyLFOsYjUPgXpTD01EQgEnKd5HT8LgiKyLG2sUIr76pQJE/E8OnsJDyw8IFTUuuICZTrXaenMWImYzVXaJzLagqDxhGpkBUJJ50/YECmsQyxcLDoEh2MjYFiJJCAYB5WoUlahrfXtgbByLU2sf8RuLUQaYWO/RMWQEhxY1oxR6piIPK40gb6exolMT6wEVVuo7K9NWAVZx3ze+SsdkcednXnmmdO1Yx3MaH+CTGHfHERsHFjt7ymYoCXSFSYW5/faa6+lbYYHmWWsd4rzan/XU3wly2ZL3Be1GWoK97IGtmWhYK0b2vi57kA7chexGAsD8PAwpNEpgiDoPELABYOFuDn++ONT588dxKrBFVePsGgRP7UZcdbp1Fm2dPo5ScMy0UbcEWNcNTrSLAgsE4JZsLI21GYcgetU++igudW4ZtvCd+jMTT5j36x/3LOsYTpHQs7xEwDZKseSxOpm/46xrfVDi+QN1rVaCMF8jo53cOcD29ZaXwg5AjC7MiVvDC62MLcJ93VuE+dP+BGAXDNGrnD/uR4Z61qShYTv8/m8veWOypB0vVnvHBdxSzy35XZ139TeL+7D2nOoxfVrjxu8u3DOLMcsoR5gPHQQ7to2CILuIwRcMER0Lqwj4rT8cRurk7uRKMoDsdcDrC3iF7jUMjoZwxpxX+UhrFieWEMMJSV+QafPrcg1x2Xn8yyPOufBWZB00PbNosW6x31GfLUXbSf2i0XJ8FY6x/x5mZncc8ZG1fZcuqw0ba1ntTrllFOGSlyzEonPGhKuP0sl9ya3ow69NQgUQ2ERltyWCy+8cPWd9sMVS4yxnhGr2oQYJLg7GmLetXbdiRPn6D5hRWwp+hyPa2R7Llrxk6xvWcQQv65nzk4mkLWtGErWO9ZC94jXLFe1Y3wS7x4k6gn3k7ZwHkrfEKB+/1zrhHoQBN1PJDEE7YbQIYK4GbkhdVBEkCw6YoYFxR99y0DtrsIxcLs5Dq63TA5qJ5Sym5PYcD6EKCaYYIIULC9N3JiZzlPHxToizocwNMC8pAWdL2ukzpylyOd02oLYJUoIks/ILpQUATFl3suWGG7CPP6oNrRsH46L+CFcrrjiiiSYWOrEmLH2tbaeuOLGNfh6S7HD3arz1SmLxcrJBhIQuIUdM2ukc3Rs3Lncx1yhXMesr7YhFrl+fS+xSvDYlqUtwy3s+LhFxcq1BoGnXWQDO+/aYZi4vJ2PMUZzUojYN9dUrJy20da+k2hyHOLHxDmKZRwwYEDaj/IoBJV71LGz2mkH58h6Jn7Q2KUEtM+6N3xefJv714NKLe4t1879xZUq6UDhTm7gbPEz8D5xQ+jZt7ZwfK678iWG2vHd4vUI4Wwx9p0EXs5u6y7c16zCMvBYPYUPCCXgHhd6kO/briKSGBqDZhwL1W+1EYixUINhhrWIxUcnqLNlXdBp68DEk+l0uxodq8HXJRQMznrWbBAFMiMlAhAG3YlkAjFSLbNx6x3iSmygNuyKY2flI+6JJpat7rhujkEtQ25vop2bWPwgwUmEdsdvOOOhwkOStgnql2YcC7UzyyZ1JCHggg6DRUYnwAXFusNaIv5srrnmSoKOO6wr8BRFWPrOnoBYNVYpnW53iTc10CRzsCJ5Emdhcv0bCQKORUwySVfg9yKj03XrKli0fCfrFusnKyWrtFAAFsZ6co+GgGsMQsB1HyHggg5HALe4LBY5matcSP6IuQi5Nlk3BK17zWXWaB198GsIA9fYnGu4Oy03wc/IxhUvyZ2cRRtrH8HmdyijlttYRm1Xu0fbQwi4xiAEXPcRAi7odLhaxYq9/PLL6QfCOsdio5NXioLbdb755ksdf4i5IBh2CB7xnurdsYaLM/S7YlWUfS220wNUbYZsvRICrjEIAdd9hIALug2uTpYB9bRM3DkCyHOHo6PR4XDLhUUnCH4mPxDJXpVEwqqW3b9c6H47HoxMknMatdxHCLjGIARc9xECLuh2dEg6HzFBsgRlNMn2MzeJ8ZJZKdtT9qDREZQCEVOnFAT3T1jugmZCcoG6gH4Psn5Z0jzkEG1CE7zv3peoY2gfDzp+D34LfhvdlQnekYSAawxCwHUfIeCCuoaoE8NDyMmW04GpqyXGLgs7MT2GshKArTCsjk2JiVyY1tQMHVrQHHhgESso4zM/uBAq7nGWNfc367SRRcD6rBYfS7SYNQ8wOYa0mR9cQsA1BiHguo8QcEHDIlkiV+wn7nSABB6rhU4S6n8Rdzo+HR73rI5Qja6WQ0kFQUcjkYAgYzVTj44wc8+6Xz2EuE9NXJ/uUVZmbk+jU5g8hPRUQsA1BiHguo8QcEHTkF2xJh2nSXFSHacYIZ0oV5QONccLcTuZZMOy4BF2rHpGA/C+eV6OOLzAPcZiRnyZs5IpkMzdSZgRaO4x9x3xYZ7dmoQZ65l7zOD3tZZiw4qZh6X4f4SAawxCwHUfIeCCHgf3lfIKOlqJEznOyLK5DjkLQW7a3LkSeUouEHTmOmViz3pzHbUO2PYmy0SfyXJ0zt0PAcZyK4bMteXGtJzdmdYRZ+4P4ssykeYesWwi1jwcuK6uszlLr/vASBkeCNwPBBqrr7kHgIjTHDpCwDUGIeC6jxBwQTAEdOTEHcuduU7FROzp6C3r4HX+tZ10do0ReiZxTCbrzK2zrLPP25kTi41Q5qFeIMgIKsK7VnCZE1umvJwFWN6OeINrBSKbQCfGsmU2izGvCTSizHIM5t65hIBrDELAdR8h4IJgGMmdPssNEdHaREgQgOZZ6BEa5rVig1UwW4XMsyWPVc+UkzGyuy2vZ/nJ6829Z13ehsiwL3PisjVrYN6mFtu1xHaOLZ93xjHXrrNcu672tXk+R3PCSzvVzvOytrHMOqZ9TNkyan1eti/nls9Tu4qHnH322ZOrMgvmLJ6zMPM6W9Dy3Odrl8Nq1n2EgGsMQsB1HyHggqAOIFKIEnFVeTlnKmax0tp6E7GT1+Vlc6+JJGThZbJM4NiOwLGupeUwi6JMFl8txV/+bMt1XufPm+flvD7Ps1giPs2Jzrwui9MsVq3Py7WitXYbnxGLduKJJyYX+TrrrJOG9vJe0FiEgGsMQsB1HyHggqCHwbK13XbbFSuvvHIauDyLq2bDSASnnHJKsrYZXF9WZ9A4hIBrDELAdR8RVR0EPYxrr702lVZZYoklmla8YY455iiOO+64Yvrppy/69OlTnHPOOcm9GgRB0AyEgAuCHoR4vDvvvLNYaaWVkkuy2RHntvHGGxcHHXRQGot37733Tk/Z3MdBEASNTAi4IOghiIs7/fTTi5lnnjlZp3oSxgc98MADk3Dt27dvcdRRR6VkkiAIgkYlBFwQ9BCef/754t577y1WW221pnadtoWsUgkNJ598ckoW2XzzzYuHH344JYgEQRA0GiHggqAHoPbZsccem9yJxo7tqRCu4v+4UrfddttkkTz44INTTb8gCIJGIgRcEPQArrvuulRuY7nllquu6dkoQTL33HMXRx99dBpVY5NNNinuv//+VAIlCIKgEQgBFwRNjszLK664IrkM1VcL/odRFpSpUGaEhVIJAWVWgiAI6p0QcEHQxLAo9e/fv5hvvvmKmWaaqbo2qEVR4YUWWqg46aSTinfffbfYZpttUrxgEARBPRMCLgiamFdeeaW4+eabi9VXXz0F8QdtM9ZYYxW77rprscIKKxS77bZbcfXVV4dLNQiCuiUEXBA0KYbSUi5j7bXXLsYbb7zq2mBwqI234oorpkrsl156aUpweO+996rvBkEQ1A8h4IKgSXnwwQfT2KCsb0H7kalq9IZjjjkmDXy/yy67FI888kgaHzYIgqBeCAEXBE2IOmfGAV1//fVjIPdhZMwxx0ylRkyKAF9++eWpGHIQBEE9EAIuCJoQ2ZQEyHTTTVddEwwrf/vb34ojjjgixcTJVP3qq6+q7wRBEHQfIeCCoMl44IEHksXoiSeeSDFcmY8//ji5U9daa63iySefrK79H95X4Hb55ZevrimSWGmtrIa4MCM6rLrqqtU1zc0000yTLJpq6W255ZbFG2+8UX0nCIK33nqr2HDDDYvevXunsjzvvPNO9Z2Owf+Q8Yz9N8kUz+va+m/aeuutizXXXLO6pnkJARcETYTEhUsuuSSN+fnRRx8lkZUxAsO8885bbLXVVmk81JbIwlRC48UXX0yvxXwZqcDUkvHHH7/YdNNNi7fffru6pvkxML72WWqppVIH8dBDD0WWahBUmGiiidJDo/8Oo7306tWr+k7HoNj2vvvuO+i/Cf6X9ttvv+qr/+G/aYsttijef//96prmJQRcEDQRd999dyoXcsghh6Q/1auuuqr6TlF89tlnxeuvv54C9NuD+mibbbZZKgAc/Iy2XXfddVNndc455xQXXXRREs1BEHQt/pv69OlTfdUzCQEXBE2CxAUjLnBrjjTSSCmB4bLLLhvkZnjqqaeKcccdN7137bXXplpnxJlsS59tydNPP53+JJXUYGlikRMHtt1226XMzJdeeqm6Zc9Cluocc8yRrHAyfY877rji22+/rb4bBAHLvHAN1jgeAf8zrGXCNB5++OHkalVvUXa3h0qeAr8nVjPr/Dex8Is9be2/yf79N3lQ9b9kuuOOO5LlzX/TvffeW/znP/+pbt28hIALgibAH9iFF16YMk6JCxh9If+xEWC33357sfTSS6c/UduK5erbt2/6w5T00NIdOOOMMxYrr7xyivfy3sCBA1OMnD/m/fffv3jmmWfSMF09lRlmmCG132uvvVYceeSRxddff119Jwh6NhNOOGH6f/EQKJnq8MMPL+65557illtuKeaaa67kBRhnnHGKOeecM9Wo5Pbcc8890/+X8Yl99tBDD03/Pa39N9m//yYPkfm/SRFuYz37b/r000+LL7/8srp18xICLgiaALEh11xzTYrRyuOdTjLJJElksMI99thjKQDfH6c/VE+q/vRuu+22NLA7Effvf/87fa41/Ena1nBc/nTFpBCDCt/2ZEYbbbQk3sTH7bjjjimYOwiCnxELR7CNMsooxRRTTDHo9yHhQbiHkWIef/zx5BmYYIIJUt1FQsx/04033pgE3ZD+m+C/yXcsvvji6b9pmWWWSTUwm50QcEHQ4Hz//ffFaaedlp4+J5988uran119/ig99YqFm2222VIMF1fqHnvskaxnnnwlL/iDbPmU2xL7s00WbWLkYnD8ovjzn/+c3DmLLbZYisnpqa7lIGiJ/4xch9IDZHZrTj311ElsyezmUl1kkUXStn476i7m/yYCsL3/TbXbDWn7ZiEEXBA0OM8991xyGSgP0pJZZ501WdzEauXMUyn+3AsLLrhgEnVi5NrzB0mgcIncf//9KYX/+uuvj9ivKuIKuZbXWGON5FZ9+eWXq+8EQdASYo63QHFsoi3/N/lfEpLgv4nl7ocffmiXGPPfJFaOJc5/00033dRqiZFmY4S1t9+n75SjxVN0EDQi/qQUl5WwMNlkk1XX/g9uBC4Ff5BKiLCaebIde+yxi7vuuqt49dVXU7bq559/nvbF1eozgok90d55553Jxeo9T8ncsj5HNBKHhJ2YullmmaX6jT0XbTvVVFOl9hO/o107upxCT0IdQx34PPPMU10T1CPi1CQNSEbwv+L/gFXfWMJ+E/47WN7EzFrmJuUuHX300ZPo8tDjNcTDsc7xGggL8fqTTz4pvvjii2SpY/33sEoA3nrrrWn/9sGap1ajB1Xf43fI2yDZYdppp213qIdj95Bqf43Ab6575ftymcljqJ0gaEQGDBiQ/rSOP/74Hh+PVi/orNSII+IEZE855ZTVd4Kh4cwzz0wWGYVhg/pFktR9993Xak22RoP4kzQh874RCBdqEDQorGTqkOngQrzVD578WTtlw3ETPfroo9V3giAIOo4QcEHQgHBvKiRruJjaxIWgPuBaVs5FHSsJI9w9QRAEHUkIuCBoQJ599tkUI6QWErEQ1CfKrig2qtiveMMgCIKOIgRcEDQYP/30U3HqqacOGnEhqF+Ia3Xz9tlnnzSCxfPPP199JwiCYPgIARcEDYQA+bPPPjvVXzNgfVD/EHFzzz13sddee6UaV7LcgiAIhpcQcEHQQCj3YTzSrbbaKhIXGgzlMMTDydaLYbeCIBheQsAFQYNgXFNZp4pcqnkUNBasposuumgauNuA28R4EATBsBICLgjqGOObXnLJJSnrVDkK4wJuv/32MYRVg6LEyDrrrJPGhTR2aljigiAYVkLABUEdc+211xY77bRTip0y3mnv3r1TFfKgsdl0001TtfiTTjqpx4zbGARBxxICLgjqFC5Tw8co2Nu/f/9kjXvrrbfScDRBY2M4IXGMTz31VBqaLERcEARDSwi4IKhTDOr80UcfpWUd/GeffZYC4Oebb77izTffTOuDxoWIUw7mqKOOSmNJBkEQDA0h4IKgTjGYs8G8axlxxBHT6AvjjjtudU3QyIw88shpuC2Ffj/88MPq2iAIgiETAi4I6hAWNwMr1wa5TzTRRKkG3O6771784Q9/qK4NGp0ll1yyWH/99YsDDzywuiYIgmDIhIALgjrk22+/TcNliYOTuWhcTQkNq6yySgyd1WS4nksvvXTx29/+tjjjjDPSNQ+CIBgSIeCCoA5RNuTll18u/vjHPxbzzjtvcd555xUzzDBD9d2g2VCUuU+fPsVVV11VPPjgg9W1QRAEbRMCLgiGEuJKJmjt9M9//rP45JNPfjG9++67KdmgtUlmacvt7SPvz/vPPfdcKjdx5ZVXFlNOOWX124NmZcIJJyx23XXXol+/fsUXX3xRXRsEQdA6v7nule/LZSaPeJqgcRAf9v333yehY87dmJe/++674scff0zB/yZiy/p//etfg7YTV2Ybk/ftzwDxXFcm442aWlvvtSK63Jq1eN2yuK513GKtYV8tXWWOJ69zjOLcfN62ed8sNdaZ7D9PeZ3tuOTUirNe0sOf//znQZPXrHom+zL3PSbLtvnTn/6UtjNZHy7bruXMM88s3nvvvZRx3JPRDl9++WWx8847V9cE9cgdd9xR3HfffU1xv4o75u34+9//Xl1T34SAC7oUoshEOBEsWRTlZWKLJerjjz9Oc8KLmPnqq68GiS/r8vYETxYqWZxkYULEmAiSWhFjytsRPLViKC8Pbl2e12KdqRbbtCV+HLt2qKV2HSHq+Hw+n2cWkfl17bI29Nm8zmuT/WThmkVsFrdZ4JrbLlsWtW0WqaaRRhoptdlf//rXNOXl0UYbrRhjjDGKMcccM7Wzz5hyu+bllu0SDB6lYxRultTQk4dMCwHXGISA6z5CwAWdAlGQ3YisCToly4SZP2VigtDIYovIypafLAqyWKi1COXtate1FFPB8EH4EXpEXRaAeV67TGCrTffpp58m4eeaZ4soMch65xoqlTHWWGMV448/fprGHnvsolevXuk6u/7BrzFk2kEHHVScc845SSj3RELANQYh4LqPEHBBu2HpEZtjEG6dt7pVRBqBRpwRZTp3VjIiQMet8xlvvPGKccYZp5hggglSR67j1onr3MM915ywBup8CXf3ygcffFC888476bXlbFUl8lj4WPD+8pe/pPp27hP3jvvE/TLKKKMUo48+eo8T6vvvv39ql7333ru6pmcRAq4xCAHXfYSACxI6XOJLZ6tjNc8WM4JNh8uykuOrWL50sjpf1jKdbXZPei8vs5SFCy2oxYNAttSZsvB337HmeTCwbL37zvaEnvvJ/ea+y/ec0QwIPA8D5s30QPDqq68Whx12WLH99tsXM844Y3VtzyEEXGMQAq77CAHXQ9GBEmgyHU1vv/32oErwOkuWD5YQFhHWDx2ldTpOlpIQZUFX4MGCkPMQkeMiWX2JG5Zf61iFPTQodDz11FMXk0wySTH99NOnrE5xeI3MbbfdVtxyyy3F4YcfXl3TcwgB1xiEgOs+QsA1MWLMlKPI7itja77yyivJjcXFSYhNOumkqdObbLLJUsA0l2e4NYNGgsgTi6fwsfs73+c6f1Y77nplWCaffPIk6jyYsN41wkOIB61VV121OPjgg4uZZ565urZnEAKuMQgB132EgGsCauON3njjjdR5saaxWkAnxnImcJyVwjI3FJcTd2gQNBtcsixzLHamt956K/0m/EYkW+QEC1ZlvwnCjqXZb6OehJ3f9o033pgK/B555JHpmHsKIeAagxBw3UcIuAaFde31118v7r///lS5nTuJG0lHNO200w6yNEgg6El/+kEwJIg7Fmm/Gb8hljtWO65arte55567mGeeeYqJJ564LqzRRBwr3FZbbVUstthi1bXNTwi4xiAEXPcRAq4BEMTNDfrCCy+keLXHH388vRaXxq2ywAILpI6HRS0IgmFD4sTDDz9cPPDAA8VTTz2VEig8BM0666zFbLPNllywLHTdIerEwp122mnFRRdd1GOycUPANQYh4LqPEHB1iCdugdqsA4899lhKMOAGEp82xRRTFDPNNFOyrInjUUOtM3j66adTh2HYpznnnDMVd9WhLbLIIkXv3r1TdikrBneUjq1e0HaEbi5BMSROOumkVOLkySefTJ03QezcnJdOe7nllivuvPPO9KNeeeWV02Dyw4tjfOKJJ4qpppoqubeHBsd1ySWXFDfffHOx3nrrFUsssUT1nZ9xr5xyyinp+v3tb38rtt566+Qurze0wUsvvZTu6fZcp65GXbvscjUmrd+BZddLvChRx8rt3ukKQee3p4NkiZtvvvmqa5ubEHCNQQi47iNSCesIblHWtZ122qnYYIMNihNOOCHF6hAOxx13XMpE22yzzZKgYhnoLPEGZQvmmmuuZOlTj2qfffYpFlxwwWLLLbccFFt38cUXJ7HQVShs6ngGh+SMQw45pLj11lurawbP1VdfnVxl2vXFF18s1l9//WLfffdN56oS/qOPPlostdRSKeGDiO4IiDDuMCJhaHE/EG7EBItRS4gKx8sluMkmm9SNeDv//PNTLFfGdfInSWjWI1mozTvvvMWGG26YfgNKeqy++urpYcbv0fq+ffsmMc5K3pm4//wPXHfdddU1QRD0dELAdTPicVRdJxrWWmut4uijjy4WWmih4oILLkidHmEhJmdoLTUdDbHIoqNOF2sADLx91FFHpeWuQDmFXOqkLVT29wS1zjrrVNe0jact2+uoa1F6goDTadqmo9GWrH31aHnqLO65555i4MCB1Vc/X6ezzjqrYWK6WNmIYQ9P6rLl3ydruOSClVZaaZDgJ9A7A9Zh9w2rVBAEQbhQuwnZonfffXfx0EMPJZcdkTbLLLMkC0pnWtaGhgEDBhSHHnpoceqpp6YAb247ndOJJ56YhJzSBhInWFK4xLgaxeo4fhMhyr3KTcm6RaCyVrA0shJZVuZE+RIdoH2p78Wyl8c6Fd/HCnLFFVekivRLL710qk230UYbFddff32ySKy44oop45AblJXi2muvLeaff/5kgTKkk46WO1oRWB0xKxvXF4umtjfuJHcwgXrDDTekJBD7YiVjzVt00UWT5VE5Cq5Zx0z0OYaTTz45WZacD7Ft+cILL0wW1DnmmCO1lZgl2b6OiWXzyiuvTG5QVhztw1rmtaK2jodF0Hk6hnvvvTdlRWqL1VZbbdDYmIsvvnix+eabp3UtIZa8Z668hmPQtr5b+xIijl0MJdfH7bffnr5DDCWXrGNwbKyd2ZrnQUPbEjDa9Nxzz033sOtMiK677rqDrt8//vGPtJ610Llwk+65557pe11P10sb1rqlHac2sN41sk/3C/el7Yhq18X79l1PrmFt8/zzz6dkCPe0hy3XyfWW4dpRsFqyQrv/t9hii26JxetKwoXaGIQLtRsh4IKu4+OPPy4roqisdMBlRRyUjz/+eFkRK9V364tzzjmn7NWrV3nWWWeVp5xySrnjjjuWlY6z/Oqrr9L7FaFSVjr8stKxlA8//HBZ6bDKihgov/nmm/KEE05I5/j999+XlR9FWREPZeWHXn799ddlRVyUa665ZlkRTeVjjz1WTj/99OVHH32U3lthhRXKAw44oKwIsvLRRx8tK6KqrIiv9H2WBw4cmJbhM1NNNVXZv3//svJHX95///1lRVyUO+20U1kRe2kbx73gggumdrdN5U+mrAjRstLplosttlj5yiuvpO3eeuutsiJAyopwKtdbb72yIlzKww47rKyIqvR+pcMsV1999fLzzz8vK6KqnGKKKdK5VUROOddcc6Vzw4cfflhus802ZUXolv369UttZh8VAZvW+1447oo4ScsVQVMeeOCBqV21ie/RLtttt136Lusdy8YbbzzoXnHsFcGTlltSeTBI+9c+cJ0qYrqsCIzUrhURla4TlltuufKWW25Jx3vUUUeltsTVV19dVh4myrvuuisdf0WUlbPNNlt6ryJa0z60qfPt3bt3WRHJ6fq5B+zDMVeEXzo35+SaVwR/+nxGm55++ulp+Ygjjkht7pjtsyLs0vb//e9/y4qYLCvCsXzzzTfLitArp5566kHXrd5w/7lv3X/uf78hv4eOoiKQ0zXLv8Fmxn3kngzqG/8l/rObgaeffrrs06dP9VX9Ey7ULkLc2Nlnn50sFZV2T9lkrBKCoeu5WjyLk1gfFqhjjjkmWRhY5FrCOpddjywxEh24WrMLkjuSlZEVTPyeZIw8uLlipawYEjdYwFhY1L2SccsyJitwcAjqViqFpa52cHTtzHLH6iN70DaVP5p0bL7LtrUJGOqAefJieXQcu+++e7JGZZwbKxULCIuaUQBY8lizWKwqnWqydrH8eX/hhRdOFiRucQH7FUGXzq0WsVOsdhVBm9pI27BAui98v7g7FjttKTljWOPwWAwVs2W10uZKaECco2N2TVnXWCczztM5awNtxorpnLWpttRGN910U7qml112WUqg4OKzD+eiSLRjd06Dw3XiHmeNY3lj6ZQ8wsLK8gvHr44hax6r3pBiIbsL99Tss8+erNMsiizPSy65ZPrtsyoPL9rB78t+gyDo2YSA6wJ0atxrOh2xMxWFnzqiRkRnnTv/WnTYOmJuQBBl3K22B3dPFleWib3sAspzbjz7mWGGGZJwMHHVEX61+H6utMzgBDA3YRYB8Dmf517k4h0aao/f5HxBsMhSlBDB5ZMr5hNK/fv3L5ZffvnkXuNW5SqsxX50yLUJDVyWxBr3pZg/ApWg45LkSh0WuHFz+QntnI+dC9YxamMuK3FcGdfPhHxdiTlimCjL14jrZIcddkjH51y4szPcwMR5Lo5LiLYmPrgd83VybLazv1xo2rHX3if5+OsZYl97elgzbB1Xvazy4YVLX+3HnoAHoLXXXjv9J3hgyHgg4mInliV7DS/uUSKba95/tbmQDSEMnY2Hyb322itlvbtP4MFVOEIQDI4QcJ2ITkahXRaYTTfdNFlUWHkasY4TQSZej1VM/FVLxGzpuFnOzFkfWGBaJggMDtY+8VDi6FiKWCzOOeecQZYL1ivZl/6wiZwhocPfeOONi7vuumtQGQjZtP4wrWNx6giImmWWWaY49thjk6DJQkPWonNh5dPptmY1sq1zZgFzfNpYZiMxI86QhY9FykgCrkFHwwqss9BBan8WtgwR5XqyHp9xxhmpvQhsFlnZo46dSPEeYew4lZmRmewz2liAv/04D+cvO1hMYi32Iy6OFc91UoON6GGVbPSRQjxcKPmjnVmI99hjj3SNhwcdvfu/EUTs8MJq7B4yugxBlR8eleA54ogjUsHl7bbbLq1rCyLMPgaHWFcPTb5DXCtB5eHJw01nt7MHIuLe7wSs8h2R4e9hkrGg9gE2aC5GWHv7ffpOOVpjD/hcr7DyeALnetT55Y69EfCnp/PWKbMscfMREf7ouCR1+v7cdOisS9xf3F4+d+mll6Y/WH+CLDgyVVniWF78OUl2IPJ0bvbrPa5ZbUTMZHezP22WHe5WGKRc0gJB5BgIB5Yb38mtRiRwf/oj9mfIyklQSCYgkIjpNdZYI21HLEhSIAr90TlW+2ct5TpkPcs4H8funAWlEyGsQESMY2PlI2S4i3fcccdBblKdi/2xumo7gs523K2sS7IyfSe3uuMlbIhLf7razzmyOvg+5yx5wHeyamlXLksCWQeQsY6QZCFTkkbbOn6WO23uOLSrJ33uSt/BDao9JAnoDFnRWDh8D/cfF6v7wLX3HmEu4UYH41ouu+yySYARWyussEIK6NcBOSdi1HWwPeuT8xOA795iYdCm3nfvGJPXPeUcuaFdK+3nmmtv+3cNCVvHJ+HHcTUCjp9llsXI9dXu7oVhwee4l+2vXhI5OgP/Ce5zRcrdt35n7gWlXPyXCllwP3h4HBwC7P2H+Z21ht+J37+ELb9nD9hCBPx+PTy6dzsbvxX/eaz0rimx37LG49DigdCDg4x8/9OdhWQm/zseXhsdD7D+f1ozUtQjkYXaSXh6U27AH0N2qQX1gexfnQNxOLyi2p8kZHISpDqXZuCaa65JVgsPIUHHQjAQ2SzJwyri1KUjMAjsZiVnobLEiincbbfdkhjxG+Pi1NmKWdWOHlAIIPer36GHNK5XVmuf83v3kCFsgkiqxUOGh0APHazQLWGB89Dju2QCs7gTjdqftU5MqAcfHb//g4022ig98LnOspFlhHt48j3Ws2A7Hg+fzs2Dq3NxbDI6PdTINma59ZDKvXv66aenzxK0wh2Ebdin/oW45Wlw7sTnLrvskh4QGQ48EIlfZWF3z3QGkYXafYQLtZPwY2JFCfFWf3hSZCnrCIsoV7E/ZLX8GuWpbUiwjCn9ImmBVSLoWLhAxRQOT4wTyy1LZ0+ClZ0VmOtUvb1aiCVWdsKOhZul3wMa4cKaS/SoO9hSvIEQYlkmelqDQBICkwWbGDn7dg2JIqKJdZyFnQXPb4aFledBEg/LMwu6/xz7ckxEJ+HmIT+7TjO+h0BjJScezXkViFj7Zi0nFnkKiDWCz7IHLgKPEGWBd4ys7L6rs8Rb0L2EgOskxPLkml1B8+LJmxuYRYWLpxnQ2cgq1nFwwQQdj06c62lY8fmOSIhoJDxwsVJxwcuK9x8LIsf9KgSAi1rYAJc8L0jeZnAQhkQUS1dr2AdXPvHHakaAC6UQPpDxUEgEemg3V+CZeBLeUJu4xHqXt5Wl7iFpSPG8wiRY8WRqO0/7ECeayRn45r7f77YjMp6D+icEXCchWcGPs1Hxp8X8zjXhadCfFrcB90CeiBd/fJ4Aa4Pf6xVP5bWjAXQ23B6exP1h5z97cWUySsWCQYkUf+TZJdQaOijHPaShtyQJuC4sgcOarVqLsicyYHWaeQgn2Y/uBw8nnupZL9rCcRMZQzpuMW3bbLNNMd1007W742H55PZqVPw31MYuDi0+K1ZUG/c0DDWoSHIu8EvYifFifeLihGVtQyghtxPh471auGTdx+IqM/4ruGQlnsk+t598r9uX5Zxhj5xs41jEO+ZEtZZWfpa6/P153rK0UEvE0HIDixH1X8La1vJ3kjPk28rQ5n5taekLGp8QcJ0Ek73OrmXZiEbAn4xsLMG7/oiMWOAPw9BZ3BB58udEKIi1aO/Yo90Ji4fEhfZAHIiFGB48NRNwrCVEGrjNxFlkIenJ2QgQ2tsTe2vk4x6SEMouFbXiWvsTH9qsNJ2GY5egIlEB3DvcPo5FTb3BxXDpoFhLhmRhEHfk/AbXwTiv2uPmfuLmba2kTb1DvBOt3KDDinbXWRNxPQ1iTTZvrTjycOnhSCyq+18yk9+V34S2yg+aYsta/o7Emrmnjz/++EFlb8SAeoAVcyeJQjIU96n29jDj99WyvFF7yZndkovcx7UJU60hWcPx2471TcJAeyDqCEsZ4pLpGrEvCgZPCLhOgjlfRiXR02g/HIGzMqFYilrDH6SYL394/hyVSWnP2KPdDVcEV0h78CepMxheWAqINR02CDiB5xIpsrVAZzC4uoCyPh13WwKvvbAaCLjuqidxlgWxSYbwGl50drXHze1l+DUirpHcRYLciVHieHiG2SJifL7WldaMsEp7uCGqxIBlZCCfdtpp6QEIyo1cfvnl6X7j9ifoxIR5APXwJG5N7Jx9tPZbkwQgvo5wEzsm5ozly73rv1CGuM+xyLEqy9xmBfUfyF3qPrTef0aOO5OEYVkpIRYwcMEKtTD2tQcc+3WMtmXtdswyz7lKiU/7dews1JIgiEr3vSQI8XWs/I7RQ7ZjEhdpv45DhrY4PKWYVl111fSbCZqLyELtRHQsfmBiEgS6i0+odzztEWOyo7IoE0viT9CfCIuM8/GnxArnD0/wsCdUgb4CiLm3BOwqL+Kz4lV8nmDxh0VE+AM2+XMhdFmGlAQQoOsPyB8f14bq+yx8nnr9ybJG+fPy9EtEinmB4/YZf/YEk4Bif5Tccv48ZaPZlz85T9mso7bh6vaEzX3iD89xcG/pYGWeGWydC9EfoPP1WU+2RJXzGlJ6vrZSkJfIVc5EppZSG9yPnsQdN+sla51jsJ3zF4Qsa47o1BloU6UQxKfptP0xOw6uTGKQkOZSsk65BCKBFVHnYHlYstJYYlkmdDqKEWd8v44mWwK0r6wtFhEWAh0My4Lvc62NjcoFL4BbJyn4m3XX9fYwoFPVSep0BWk7H23gu90j9uO+0o7ifOwPLAuOS4c3vOK2K9BuzpWLW6fc0r02tLAIuUZ+a81Is42FSuApjdOeGpaNRGShdh9hgetEdKZcSDoh4sdTkdiKeoaVg4untfgccXEEVG3wtQ6URYl1RyfMFcatqgPmriC0BPgTbwqYemr2h+wHwvJkW64438nMTzCpL2aIJ0/CrDgEiO2IlJyF5imbC8qfISunffjxEQzcluK0WLu4/nR0xJbtcmyYbRy3Su+2IUgIKuKQ2JC55liINsHLRArLpOM2yQJrj/uO24OQJPzs29MyqwFxqHMSG5fFjU49nz9h6vy5yXKbai/XJ9eJ066Es2Px2VyviouIW4jw8bnhzUpzbfJ1N+VYIHBr+m7n5PuIbt/D6uw7CMjs5uP2YsUg+Ik114coZ3nIEIv24zdDbHKvuuaEtuPO4g3OhUDO17RecXwsKs5f+7i3hle8QRvV65BiwS9xr/u9sih6SOmMotxBzyMEXCejJpEOWOfPWsUSJ5sou8/qDZ0NyyHxWYvXOl3HL+BeRzQ4CAvWEhYwgoKlyZMaQcatKCiYJUKHDcKA24III9CIPcu1gcU+lzOudOzEjTgXIolAUfiSlSpnk0np58oWbOx4iImWsGgRQ4QFF0Nbosx7BB9rByFBmAsqHhI6ajFk3DsSFhwvKxWxxdrIWmjZ+bMK5vNnnbJsqoUrlujLY6dyc7c8Dm1EFGlb5ze8WWnEpOueJ/dBRofkuAlQHZTRF7ShJ/Ja3FfaIF9zx5wFZy2sg95nIWRhG9xx+22xQNWrgHPsRpRgdfGb55IzdFlr9+Gw4J50bev1vyT4H36HLDsewDx8DilxIQjaQwi4LoK1SJzCeuutl37I3I3cebkQbL1AWBEArENtQexwZw2OLABrs6IIKRbIHERMaOUOmqjhwlR8k8XL0DI6P398GfuqxX5ZgHIH5s+RqMkdJPHU8jMt8X7epvZYa+H6IhKIF0/P3KesKQR5e+BO5JblTmYZg2QA55eHVnP+2r3l+YvtqcUxukY5oN9xtZaUQNxAG7R2Th2VlebYHTeR4rhNhGmOTco4bhbUfKz52rUk3zctLVT5GhGHOabU51k36224LccnZk9bEOI6bFbEji4z48GFNTSPUxsEQc8iBFwXIg6JBYIbkZDzRO5P3ut6+RPWyRCbLCodDQsZi821116bYp8IoCzgWMrEqCmATNRwbZ577rmtio9axHlx7RIk9idWrSM6dGKD0MyZayyCAo8JLW5hAim7Eh2Da9iWe5ylhOjzGZ8HUSeGLAeyO39Wwnz+hIrzb2mtIZ65fH0fQagGnXl7II5aZqWxeqrmPqz3H0uo4/YwwoWuzbhIW1rOCDJWQ+LOPcBSx+rYXljluAuJIZ+H686SVy/WDK5m7nouUvcEwc8dzEXeVpHY4cE9KlQhPxAFQdCziLFQuwEdqQ5dsLdBzsVxCUrnYtIp6aT9OWerQ1fiOwk4nbDj0+HrhATLExxeE1oZ7jMD3BMaRIAsKFYm2+rQdexECtef+C6WOxYtk32KDdPh6eDE0zl/Qf3aSL0ngkcAPxHEnWiubUCw6Ry5ZwUIb7TRRskFx9rFXasdxYcRXCyK9qPdJVcQFPZnG/EozoHA0hmybMgscwxcgWK6uCp9tzEonSNXGNco0SZTjBVQskNrEB9EmUQO+4YMMzFcRK12cv6SFsTKOH/7Eyvo/LmFtbnzcvyEkGMW7O9aaUv3kXZxjlmA+6z2ZZV03bS39iIufJdz5I71fWIGW1q9LrzwwiTEfJe5hArtJKHECCNEM+HpeIhIiS2us1hD9wBLsyGNiHXnne8n8WBiLIljLnbnpF25vAl3lloCTxtxkVrPJWz/2pB1z3quZtfAeXQHrlHOVmRd144EpQQYiTnaqzN/w64XS5/fVUdb9+oBMaMEKmt1UL94EPN/r0Zdo+PhUJ/B0NIIRBZqHcDKRITk7E5uF52YOKAc46Uj7CpB53hkz3JpElUd9b3EkSw8gojYGDBgQOqwJRAMCwSbNurOLDU/9n322SclOxBpnQ2XqUxVf5ZiyCRDcMdry1p3c3uwL/GZBBgrWmdDELLYEbqsgITOsI4VzIprOCVW0ex27Wy0F4HqnpUB7XdKOLkOhDhRSoy3FMKdiQcJFuL2xGM2Gs2WhdqsRBZq9xECrg4R28PSIcCdhYSrjhWCdUkgP6tRZ8O6wFIla7KjBBwrjlpGXE2sOmK5iDmWoaFFhiLLIOuWEhPd9ZQuw5KFibWlK2DxY9Uk2Jw74S+pgEs+x721F9dDkog4O5axzoYbWqIDi6B7nJBjfR3a4wbrH6ukNuhsXF/WTh0VCynRxiKoLAwLYlccQ1uImRSP2RG19uqNEHCNQQi47iMEXAPANUnMcVcSVTptFixP3awXJu64rnzyD4JmgzjmCvIb80fuIYrVmFWNWDOx+OY4xnqAFZoVVUxlsxECrjEIAdd9hIBrILg2xf74UxPQLe5LZyPeSQyVWCJP4iwqrATcVawDIeyC4H/4HcmAFu8ikYMbmkWPa5RVUriC3xGrrgcj4QxEWz3+jhSAJuKaMU4sBFxjEAKu+wgB1wRw4xFxOiBB1QLKdURig3RAkggE4JtzXxF1OqSuiqkLgu5AALzfASsaISBBxuT3IctXTBtxJnaNG9/vQ6iCsiiNggLVRkwRWtFshIBrDELAdR8h4JoYNeZYFwg7c0kSLHiEG2Gn+K1q7ix34okkLYS1LmhUWNNk6kqQkNltmaWaiGOhFqcoZk2yB6HGQt3oiCFdbrnlUiZqsxECrjEIAdd9hIDrIbA21FojpH7r5MxZ77iUdHJEHIuEUhTEXS7sy1JhYsELgq4mhw5IfjARa+5bDyYEm9eQCexhxEMJoaYUSXaBmoYlYaKeURdPpvoyyyxTXdM8hIBrDELAdR8h4IIUE+SPUnYo1xLLnc6R9ULHKYmC+BPMLbZOJ2ki9HSQEipkMRKA6sFZNlkOi17QGu45DxWynd1jJsvcnmLTTO5HZTuIM/eghwz3FCHm/spizX0obs3k/uxJoQEKMrMqqjvXbISAawxCwHUfIeCCdiFDT6xdjiHKA5xn64fOOIs1lfF1qqx52aKns+W2zUWKu6p2V9C9EGbK4LhHiDKCzL1jst5r24Cog3vEvUKQcfNzdZp7WGg5MkVPRwFwv7F11123uqZ5CAHXGISA6z5CwAXDTM6KZZ1jOWFBscxSwnpH3OmgWfR03uppeT8POcW1RdixqHDV6rSJPR2219nSwrKXrXp5mQCMzrxzcZ2ydczkGufEAHPXWT0/Y6q61q4vSxkXJ7Fv2cRt6VpxvxNlWcwbrUGRauu9X3ttzcN6O2ROOeWU1Fbq6TUbIeAagxBw3UcIuKDL0PHr3HX4JvF45uraWWaR0fF7bdvsYjM3ERS1Yi7HNWWxlycCgBXQcp6bfIZQ4GIjDixnEZjXmfJydsXVvq5dn8mf6wiyuM3k1+YEs6l2Ob9uuZ15brM8EV0EV3ZH5tfEmbl1Ju+7Ht7Pws11QBZjJu1sEiPJakaI5Ummc23spOXc1kHHcfbZZ6drtc0221TXNA8h4BqDEHDdRwi4oGEgSAhAHRaRlwPa87L1plqRUitMiEJwAdtOoDuIL6Kn5TKIPqKFcDTP1qFaMeIzLQdUzwJncBBGtd8Fx1u7zjnbzrHneLG83Noxtzx+rzOO23ESvFnYElrOzTrCKwsu8Y7ey+LL+y2Fa9D9XHzxxcn6adzgZiMEXGMQAq77CAEXNCVETLZGZQse0WMA/NNOO63Ye++9i9lnnz2tR7ZS2b72swSVz5lnV6Ll/DkQVNbX4rV9DA4Cr6VVirCqXZfFo+ncc89N+9xxxx3TdsRZtgrm5Syy7MM6c+tqX+fl/NmgcbnqqqtSmaA+ffpU1zQPIeAagxBw3UcIuKBHoCYYAfTOO+8Uu+66azHVVFM1nHhhaZR1qGjr8ssvH+IrSOPiPv744+mBpNkIAdcYhIDrPsInEjQ1LFYPPPBAqlgvcP7kk09OY8g2ovjhytx+++2L008/PQ0MHwRc2y2tv0EQ9AxCwAVNiwSJI444Ik3HH398sfHGG6c4sEZGceXdd989CVGDrQc9GwKOSz8Igp5HCLig6RC7ZkzY9dZbL8Wq9e/fP1ndxJE1A1yoK620UhKlkjeCngurrAQd93wQBD2LEHBBU8GddOGFF6ZAf7EzrFXqjjUT3L/Gv5x22mlTrIYs1aBnInM4ZycHQdCzCAEXNA2KBRvce+DAgcVJJ51ULLDAAinjshmRwbrOOusUb7/9dnH99dcPMeM1aE6UemF9k+ASBEHPIgRc0PCIAbrtttuKzTffvFhsscVSpqaBzJsdI1YcdthhxaWXXlrceeed1bVBT0KdPmI+D+YfBEHPIQRc0NAQb0cffXSq7bb//vunQb0FdvcUjA+6xx57pHg41rigZ6GWnzg4w5gFQdCzCAEXNCTcRrIwDSFExB1zzDHFLLPMUn23ZzHTTDMVq666arHvvvumMWiDngU3qjGHgyDoWYSACxoOgs0QQgQL4XLAAQcUE0wwQfXdngnL43TTTVcceeSRKag96DmMOuqoxUcffVR9FQRBTyEEXNBQ6Ki4DO+///7kNlxqqaViRIIK3MYyb4m3888/v7o26Al4eHnttdeqr4Ig6CmEgAsaAlmW9957bxpRQYKC8hk93erWEkWKlU2RlXr33Xf/YrzWoHkRB2lA+yAIehYh4IK6R3zP4YcfnkqDSFQQ99aTEhWGhvHGG6/Ya6+9Uns9++yz1bVBMyMb+fPPP49ivkHQwwgBF9Q1Tz/9dKrtps6VTNOZZ545XKZDQFLDdtttV/Tr1y+yE3sAYuCIt08++aS6JgiCnkAIuKAuyYLNOKabbrppsdlmm6VB3A866KCUtNCnT59i2223TQPVdzRcj9dcc03xzTffVNc0FgTu4osvnobc0laGWmqLo446qphtttmKDTbYoHjmmWeqa7sX5VBuvPHG6qtgSCgjMuWUUxaPPfZYdc3PDz5rrrlmMccccxRnnHFGh4/W8c4776QHK8kzEOLwyCOPFK+//np6XYtsccPaCX8IgqDjCAEX1B1vvvlmsc8++6RO6NBDD00Cg1vwd7/7Xeo09t5772KrrbZKAfs33XRTh7uOfvzxxyQehxQYLiZPLF5HIAHB/joKI1AQvqOMMko6l7YyUzfaaKNUhkIyyAwzzFBd270oSvuPf/yj+qptDOjfEULvyy+/TKNaNHIJFpZpAioz44wzFksvvXR6GPHw09HjAPfq1SuJstoCwrfcckv6zbZEdrQHivfee6+6JgiCjiAEXFA36GzuueeeJGaIiWOPPTYlKgjKz4PTszYQcpNMMkmywi288MId7lL94x//mL5TJzg4WIpefPHF6qvh48EHH+zwgen/9Kc/JSulhAZTo6Cen9ElhsRTTz3VIaLriy++KB5++OHqq8ZkoYUWKp588skOv4fai4LCHrpWXHHF6pogCDqbEdbefp++U472u+rLIOgePvzwwzSiwn333Vdsv/32xZJLLpmyKiEgf+yxx04134i3jNgfQo7w0+GfcsopxUMPPZRqxBnce/zxxy9OOOGElPTAykSUccOOOeaYxUQTTZREoaQIrqcbbrihePfdd4upppqquOCCC5L1iuVPUsA555xTXH755clCxuIz4YQTpk7fvp9//vlU2oQVZ4oppijuuuuu4pBDDknH4ZjUrGOtuOiii4oNN9wwiU3bOFZWEa6vc889t7jiiiuKr7/+OrkxWVOIyI7Aec8666xF//79U1uNNdZY1Xd+hnvVsXG1Oc7BtRfLpGvEvUxwXnvttWkoJ9cmrycUza2DrFjn6rPa8MILL0wxeiyDPu+47Ouqq65KgtM13W+//ZKINzSa4PzjjjuuuPnmm4tbb701zR2rMjLaTfblyy+/nD43+uijp2t19tlnJ9f61Vdfnc7XfdS3b9/kfmeZ1NYDBgwoJp100vSdlu3btXJPzD33/7d3H1CylGXewPs7fnt2v93jrqvumkCJEgQERQkSlnzJ4ZIlR8kgWUBAJAhcBCTcS1iQKBcEJIkEyUgGlywrYWUPHAXh4Kocdt36+vc4LzbD3Lkzc3tmqnqe/zl1uru6urrqrarn/b//J7xLxrE3CQY206dPby2zzDLRFoDgug933nnnaON99tkntjFnsGtx1VVXtZZeeum49zfbbLNwiy600EKtBx98MLZFjhdccMFof1PVuR/MM2yddtP2VDf3tf0bLFDZllpqqfhOm/sNVY4b1TND6RwqHn300XD92l+ivnjhhRdiMLv88sv3rWkuPBvuV4pxI3Ddc29XicR44X//93+r9gNTtY1/1SZq1Wuvvdb3zV+wwQYbVG1CVbU72L4170Xb0FeLLbZY1e5kYpt2513NM888Vbvzr9rkqmqTsuq2226rfv/731fTpk2r2h1O1SYU1dFHH13tsssuVZt8Ve3OK47Bb8D+2p16vF9kkUWq6667rmqTneriiy+u2sQs1l900UWxr4LnnnuuWnjhhas2GanaBDKOq93ZVW1iGN87jjZhqdqdUhzHOuusE/uEL3/5y1W7I433o4E2aanaBDjaoxOvv/56teyyy1ZtYhWfB2sv7eE426Q1zu+KK66oTj/99Dhf69uddPWHP/yhanf4VZsYVP/1X/9V3XrrrbF/39nftttuG/uEHXfcsZo6dWpcszbxi31Bm8RWbTIZ//HYY49Fm7YJflyn/fbbL9oZ2gSvOvfcc+M9lONrE5DYZ5s4Rhu7x+zTftqEJr478sgjqzZRrNrkv3rxxRerueeeu2qTjr49NRNt4h3PQEGbzMZ9XOC6tMlQ1e6koi3bA5S4LrDJJpvE99rqpZdeqtoELtrpl7/8ZXXAAQfEtfRsTJ48uWoT5PiNdm532vEejj322OqQQw6JfWjbNdZYo2qTwOo3v/lNPGftTrFvy6HBszJlypS+T4m6wjPueeoF6Ivc701BulAT4waqDBWl3SnHJPRf//rXQ0XpD8qRDDvbDwRKg6QHbqSialF4qAUF7Y49So/MMccckZnZ7pwiRoh6tv/++7faBC3i7PyuPygMbbIWk+RTN/xuIFAwKHIUDCocBYgi0RnYTU2gCDkOSRJtwtP3zehi3XXXjfbh5hrKfw7UXlStBRZYoDX//PPHBOoC2MUiUtyst1Bm/JaaqD3ANVW7z/7ULNPmQGWlfGl3as9A6gwXuvg89wglz3nY10BwfEbQjsck/xQcyo91QKWi/rlHPv7xj8f6Xpq1guuZgjgYPEuuh7agrJYYtq222ipUOcqZ17XWWivaidpMjdD2lDhKuRjVwdDuV0IhXXzxxUOJVeaEClwU9UQi0R0kgUuMORh4CQKmwtLJC7LXMXNvDQQZki+99NJ7kgqQOckMAtm5++yTuw2QDS5NnXQBwgFidQrEC5nNwcwOXLOy9nRg/cFlxLUovueKK66IenQF/hfao9Bwe37wgx8MYuOYLY4PoSzoPI7yW+Ba9VkHzCXRbfg/bmEuYQkCMyMuA7WXjl+bcU+DthJ3hZR1rkfe/I57FZxbubblPAE51D4IMtc5V19/ILmInWQW18G1QjDAPu0LSeYGRxTsc/PNN4+233XXXcNt+uEPfzi299/FBd/Z/tYXcJN3BuY3Cdyf3MkyQmcE513Ot7MNVlpppbh/ubiFEiDhYIBlnuHlllsu2tQ1GGz/YP9c155Hz6n/cE8IdUgkEt1DErjEmAK5Mjrfd999I0ZNrI1OdzCILaOSnXvuuaHYIDnnnXdedDTrr79+xP1QCZAxxWttJ/Nt7rnnDrUAWaEcAPVHZ1KUGh0URUonbzsxYUXtQ1B8p5SJ2C6qBdJQynIgLooMU34cj/i5LbbYItQ6BPK5556LOCMdI1Jg//5fG3hFespxUTpsj8yOBoEDior2pkohojpWbQjO2bkO1l4IrFcE0D6ojI5Zcon12h2h87rmmmuG+mK/Yp/sx6uYJvtDzMSeia3SPq4VaHe/cQxUOeof8mb/CDnSUcil3yAsYgp/+tOfxiCAguoe0caO5dlnnw1CUfZZjqOcl+NA6lx/JND90O2SG2MFCigSLR7J/ef+Kufs/tMG1mubci1cZ23g3lDmw/2HvBXyra3d47bxW/em/VpX7mn7sO+yf/eRzFfxd2IbJYi4zghdU8lxIlFHZBJDYszAsHPFCCKnvq2zzjpDcqvoYGWlCrLnFrNwrQmaprrobNQ809nrNASnc7np7AVZ+4yMUZBuu+22IIw6r+222y46Ii5PHd/BBx8c+3V8lCpkwrbUCdmmCIEAd4qQDg+B4xYU9Crw32+4gnVwSjr4D8dBIRSwb9+OEfFAMhBTHRpXE/cXsiHz1T46kzW6CWQJWZThS7FBTJ0HUko95I6eUXstvfTSEaisE7cdkoY4U1vKem1hPVKn0xcg7/faBBmwjWvuv/yWqqqDdwxKxFBptBVXJ9XVfrUX0u/zRhtt9K4L2z3h966zIHwEj5uYquuaGiAg1K6jYHrn7Xpzg0sWcX5IrP+yL/eVY9cuTYR7EgnVzs5LCAFS51oaeGh796h7FgG3vWskQUWbaD/XRbJQeS793m+0jTAF94DfIIH24beIm+cHkbNv18N14zZ1n7j2rpnv2AD7HAr8p/sukxjqDfdVJjGMD/6PJIY15+lujaBEohNcLjppMwMgWrJMxUolxg8IDFWTatnp4k00GwYsVC+u6aaDkkvRExubqC+o30IgZI83HewiD0q36nuONtKFmhhVGKnrUCQAIG5qtyV5G38gbVQrZTyoIoneAFWXW5xrM5FI9DaSwCVGDWJv1AHjRqP0rLrqqu8JGE+MH7jPuDmpo6eddtq7weyJZoPbWFiBumyJRKK3kQQu0XUY/UsQEKMmlkAxWMpAol4Qq8TtIYZl6tSpESuWaDbErontlFSTKlwi0dtIApfoGkq5ADMnyOaTFCAoHFFI1BMya8UYmVO2cy7NRHMhKUYGr/ixRCLRu8ieNdE1KOlgCiQxVWeffXZkoaXLtP6gjqqpR4XLCcebD5nGyuj8+7//e9+aRCLRi0gCl5hlcL2JcVPbTbHPb3/72wPOaJCoL9T+opbuscceUeok0WyYSUENwoxtTCR6F0ngEiOGzkH8lEmr1eNC4pQJSTQTOn0V901Mnx1/s6GeoILX6nMlEoneRBK4xIihCKzK/uKopkyZEgVg02XaXCiIvP3220enr55YkrjmwswSnkeFfROJRG8iCVxiUKi63r9OmMru3KSyS80RqlTIaM0ckBhbqMSvCKzraraIRHNhRgVTpiUSid5EErjEDGF6JSTN3JfUGItpRsyoIMNN/TDTWyV6C5Q4mamufQbCNxeKNRt8meoqkUj0HpLAJWYIbjQzKBx++OExXcqll14ac5hOnjw5phrhpkn0JlZcccXWrrvuGlnFWU+smfinf/qniGm8+OKL+9YkEoleQhK4xIBQR0p8G6VNVuK6664bE4IjcTr3rO3W+zAx/AYbbBD1/Ewqnmgettpqq9Ytt9wSE8onEoneQvbCifeBq1RSwosvvvhuILsO3BymKr0nJgaQdPOlvvHGG1EjzrRbiWaBCveRj3wkprVLJBK9hSRwifcAYVM/ShB7IW/AjSYWLmtLTSwg7RJW7r777tZ1113XtzbRJEyaNCmvXSLRg0gCl3gP7rvvvtYBBxzQeuedd/rWtFp/9Vd/1Vp44YVbG2+8cQS4pxIzsfDxj388FFlJKy+99FKso+hMmzYtXasNwPLLL9+69dZbW6+//nrfmkQi0Qv4P9c993a15jx/3fcxMSMgLZY//elPAy7lu7Kd5e23345MTq/93/sezGLQGSTe/3MnPvCBDwSZKrXWfO50aZpC5+/+7u9iHeXEZ4v3ynxwifmt3/nc+d53SJs6YFQ2CQrcLwrzrr/++q355puvNdtss6ULdYLCPamsyEUXXRSzNVDlnnvuudaPfvSj1vzzz9+3VaKOYGt22mmn1tprrx2xrE3BueeeGzG4MqIT9YUENwr9N7/5zb41zcXjjz8eNk6SXhOQBK4PSNWvf/3r1muvvRZB+95Lvzdq9SoI2DbqoiE6CA8yhdB4Le8RokK0OklUWf72b/82vitJAGU/BT7PqKZaIYsFOtXymVvTcSkbUEiipZDGQgxt7z3lxHu/8T0yZ9sHH3ww3i+22GKRwUZ9sSBz//iP/9j62Mc+Fu+dS2LiAcGfPn16PAdw8sknt/bcc894n6gvkG/XzRzFTUESuGYgCdz4oWcJHDKCjAnAfuutt+L1zTffDGL2q1/9KtbZRkfkFXGiXilkah7Pf/7nf2599KMfjQBg7//hH/4hZhzwaptO0tULQO4YS+2CrGorxBWZffXVV4PIlrb0PfKHjCKpFoodoveJT3wiiJ42tHjvO9smmgvXXAykzGSDBQuiv/jii7d+9rOfxaAlUV94diWknHPOOaGkNwFJ4JqBJHDjh8YROB0Hl0BRmhAP719++eXImvT6n//5n0E6fEfNQroQMcQLwfj0pz8dxAKpQNqoSUjIX//1X8f7oo4l3ouB3MLaHgn+3e9+F+RYbFRRLJFAC7Kr7al3SN6cc84ZRUYRO6qlxXXIdq8vxFBts8028Xx1wvVUL1CMZKK+YDfFMcJ+++0Xr3VHErhmIAnc+KERBA4JMFn6E0880XrqqaeCqBlRUsSQLi498/4VVx/lrCy9ppQ1DVy0RfmkiFLyTMX1/PPPxzrkz4LgzTvvvK0FFligteCCC8ardYl6gOL685//vLXbbruFm7247pHuU045pbX77rvH50R94dnbdNNNW1dffXUMmOqOJHDNQBK48UNtCBy1zOi+KGnPPvtsZLzp9HUSFDSdOuVGB6+zT7dNb8C1N4E6cm5x7d0Hri8SzoW9yCKLhHJnoeQlMR8fiJ28/PLLW0cddVQkMVB2uFGRukT9sddee7W222671uc///m+NfVFErhmIAnc+GHMCRyDT3FR6R9RM9ciRYbbDVGjqlHSKGpiNbg6uUDFU6WLbWKAukO1Y7wReEodxc5767hyS4wiQvfJT34y7hmf8x4ZfUiC8dyeeOKJMTuHOMn7778/El8S9YZ6cDoppYLqPgBOAtcMJIEbP4wZgWPk77333tZtt9327gTZOl9qWiFrn/rUp9JtlhgUFCCEX5wjUvfwww+HEkTFcy+tssoqrS9/+cvhSk90H2IbJbJYxDveeOON0dGadmuNNdaImEiLOElE24BNrGRxuVrnfaeCKu60ZF57z70nNEJcqjhV7w3sDOJ8VwZ1SdaHD7Gq3KgKdbO7dUYSuGYgCdz4YVQIHKOtc9UYSBu3GGPL/cnQf+ELXwjVJJHoFsREyoY07+PTTz8dhOBzn/tca4kllojXeeaZJzv8DlDRdOYGVmKjdJTasCieFmQZEUPISukZxKuUx1HU2YALwbJdydYuBKyQMu+L2uMayF4thA4QPMQOCvnzX96XpBnHijyWzxb7tG9LyYZG8pB3bnZJMshe5+K4JzoOO+ywGDDvvPPOfWvqiSRwzUASuPFD1wicrM9nnnmm9eSTT0bsmgePIf3Sl74UhT4Zd8aV8U4kRguIAPcrl7xYOuqc+DqdvU5d7M9CCy0U2ch1dyHNChAu7YCgIWaeT6plIWrIUQEiZkG8SukXMaclM9v6Uu8QAfJaPhcgZIWcjRb8h6QYC4JXSCUyV4gdZbCcd0mQQf5s63qXrHSKnvvBfeA9W+XctUOv2yizrZhFQ0mROj8DSeCagSRw44dZJnCPPvpoVO5/4IEHWnPMMUdrySWXjJICOknGP5EYb+jwqcCUuTvvvDNc+Isuumhryy23jOSIXgDiiqhyKTNCiCsSg4QhLErneD6RFmTFgqghLxNhUIXoaY+SCS0GV3vxFCB41iOnkqO44sXzsWGIaq8B0d16662jw3WOdUUSuGYgCdz4YdgEjntUZ+ii3XPPPbFupZVWam2wwQYxaq8DGOb999+/9ZOf/KS1ySabtA499NDW7LPP3vdtc7HVVltF0Di3oI5Yp0TZ5Aqhco6kI9bx33HHHeFmtK8ZQZtSV1dfffW+Nc0FVcY5n3/++aFEyaJ0/+rMmuBmpTYhHkjav/3bvwUhRU6oS6Y8Q0oNopCRdBkODZ4DpI4BV65Iu1IskVzuxi9+8YvRnqV+YdNxww03hC1RAqa4uuuGJHDNQBK48cOQCRy3C/XChfJeoDj3qNIelLa6jeIRjlVXXTWOeTBi0iTopNdbb73WEUccEdNcUQ3MRXnFFVfE3JSI3XAh+J+B3GGHHQZVox577LGoxH/qqaf2rWk+KC9IkA7b+enIdNTmf61TjCbChqQZODlW191AivsPYSulVWThcncmZh1crtzw2hqR0/5mcDFoolpqe4Sfqin5qmnueIMY06LJJK7rzAxJ4JqBJHDjh5kSOB08JUvnzVCZ2BxxEytSZ/Q6gVtxxRX71rZaa665ZrjJLrnkkr41ieFCxywMACEWO4fQUhvHy4VWEoGEJ0jOAMk/XL9UoM985jM96d6rOxAK94eixmankIkrrpLSzy7WVc0aCDop9xKbXkckgWsGksCNH2ZI4LgUlPz4/ve/H8HK3JBG+k1BfwJ3wgknhFvEuRgtH3zwwZFGX9ZznekQrTfy3nXXXcO1dtppp7XOO++81tFHHx0E6Stf+Uq4ji+99NKIJUGquDAnTZoUBt178TPaSswV0utmkK33yCOPxIhXXBLF0gj+a1/7WqgqFDSuGZl2G220UWvy5Mnv6wxmROCoYt/97ndDTaIUTJ06NbZFvnUqzsW+LrzwwiDjVBrB3v4DcZGV5vruuOOOrWuuuab1wx/+MLanQnDbcq+asJzbhUF17FyQZ5xxRqivjnnzzTdvrbbaauGScSzO5xe/+EWcm9867qaA0uKaScbZaaedojzGWCksZhxxf2lf15DS6t6idCfqBzbAtfLMuN/Zh7XXXrsRZI59+ta3vhVEqY5zFSeBawaSwI0jELhOtIlb1SYC1R577FHtsssu1ZNPPlm98847fd82B+3Ot5pvvvmq9gg5PrdJVXXXXXdVf/jDH6oLLrigapO2Qde3CVvV7rzjPayyyipV+yaN99dff3312GOPVX/605+qhx56qGob7apNYuK7ffbZp2qTmer3v/999fLLL1dt8lO1b4qqTQrjv6666qpoT99/73vfq5566qlq0UUXre67775Y73jbo+Lq4Ycfjv114vXXX6+WXXbZqk0U+9b8Gaeffnr16U9/unr77berJZZYIj7b169//etqpZVWqtqkrLr33nurtdZaq2p3MnHcbWJVtclp/L49Aq/OOuusd99b3yZ4cb5t0hrrncPss89etUldtNG8885bPfroo7GvNtGo5phjjurBBx+M49fu06dPj23bD0P8r/NtEhz7M888U7VJbbXbbrtV7c6u75vuQ9u4Pp65Nnmv2gOGqk3k4nommgHPm+fglltuiftl6623ri6++OJ4HtjUOsKzu+WWW4Y9qyPOOeecasqUKX2fEnWF/ujII4/s+9Rs6NsOOOCAvk/1x/sittVt23vvvSO25thjj42MrM5yAU0Fl9hxxx0XihcFStB/53pzOXauHwyUMxXNqW0UNTGBVLsC7i3B4yUDULwJxYsaJc5Mexrx+k8KFtZP6aP2HHjggVGolotmqOBqk2VoxC8L8bLLLot9qbZuX5Q/JV6oBaUeGlXNvJb94XdcdtQ4I3SFcftDXJBZNJyLfQn0ltUojqxAGzke6mep59UkOHbPgIKnXGRtYh6zDXQb7ot99903rj8X6dlnnx2TxlOHM4u7OfBMew4kdJ100kmhenuGPU8333xz31b1gmeX+5Synkgkmod3CRyXKfJ2zDHHtA455JDo3JGPXgGXBvcgV+iZZ57ZOvnkk9+z/hvf+MZ71nOnci8CVyJ3VoHyE9ydOt3jjz8+DLf2K2AYuRnL0ibKQeb8RgmDghLbhPxwg3LVWrg5ZUUOBVym5qZEJrn5uGxl4JZ9cZtuu+22cYxIlMB9QOy4l/sD4fI754YMco32h/sC2S3n4tyRWIH0BcV95PybDCQKmSWpI8Q6Y9dzVuFaXHDBBVEVf+WVV45QBcRtpM8cV9NXv/rVmFKMC94199mzjGx345gL7MtgxMBjuEBu3KPCExxjWYQ7dD4bTQbbIcnLPcOt5HnaZZddIl6ubuCiF3phUJZIJJqFD2y+56FHfPbD/zfIBHJDcVCCoMkdr85MXIqR5dJLLx3lTaiKVDFFPnU+OhDKCsNqvRICDFlZL34MsdOBq3XHz0/lUkoA0aWq+e6uu+6KmCXKHcMtI5TSJQ5OsPPVV18d32lTBO72228PYii+UOydWDbH53eIItLkuJdaaqn3TSsmxg65kzXmHKmAp59+eig466yzTvw/AuY/kTmKmP+TWekYKAJKgTi+K6+8MrLpEDEdjAzGueeeO+Lh7NsxUvaQMlmZzlGA/worrBCBz4qqOhavynE4JkTH/qdPnx4ZsY7lxz/+cdxbgu+bFEPZH9pBUoNnRIaqe2GkQN7cj9pYDJLOflZj7NzD4q9cV88wZVnsHuXVNTUDyszK/CCT7v2ZbYfAuX8NBoaiWHfCc+B+oPxQ+MVGWrSF/56Z6kihpgyPJON6KBDz6dmnUHcDslWdnwENpR95rVNJI54Abc8WUYANPusCdtexsYWJ+uKFF16ImPPll1++b01zYQYaz8JAnqc6Igjc7P/vv2OkuMUWW0Qh3jo9xCOBhx5J02m988474TZcZpllYoSPwK211lqhejCqCJv1tpPNWdYjJNzHlCWuQiQGqWWAGWRt5DtkhoFBvnR8snMRFUoIkif4XOfKaDsGJI67FSHYcMMNo/o7cuN3jgOhokhQ5fpDBXWdPaJm3/aho7Zf68Ax61Q9UP5XADx3nPfaQ+dETWSs3aTF/eq47I96w+XpGHWoOjQkzXZ+7z0S6719OmZt4DiojAK5tSlVTnt4ILQPZanJBA5cI+0kmYWrbCShBe4z6qbrRdHTRt0aLEkmobhKTnEtHZ9rI8AeMZoZ6ZGA4ryQjsHgeLnIh0vewPk7HvdkOR4DCFmcQ5kH2UDHfUY5Gg0YjLhPDcC6BbbCM+OaC7kwCDJ4qgucLw8A+zczAj2WSALXDCSBGz9EFurH3nw8yoRQc5ru8kokRhPUJyoQYtyZCTxUcFsjSlTKbme2mi6LKxLBRLAA4T7ooIPCfSerT6eIRFBeED5KmAGJ8IEpU6bEYABRRarUnePyBITe4GaPPfYIA+cV8TcdE8WPu5ACS12k+jGA4gb7o2QsG7ggi0DpZnsMeriVKYbUToTOf1HtHDPih/Raj2BxOTtGypZ9CROQDSfEwXuquQGLY9IG2sTx2t71c54Ges7Zf9o/RR7pRbiopAYx3YTsdeVqZGrXCQaNrh+PRV2QWajNQGahjh9CauM6LApTIpGYMTwjOnWJISMBVzSFbKzKklB/KMoUYnFOYiU322yzSJZQBkYnydW/3377hVItFhR5A2o1InXWWWeFanjxxRfHOoo0ogNUPr+lMHMtiwlVNoYRpOTOCBJ9jNgtVOcCii+XP5WNixXZ4hb2v9oNiaQSO0a/dRy2p/DaFkEW+yc55Mgjj4ztEFTHpQ3K9kIGGGm/ueWWW4JY2j+1Z7vttovfdZu8geOnVtQNSLVYWmQ3kUg0A0HgjHI6jWgikZgxPCslGWS4QETG0n3GBaWuHdc/QmWEyU1YMp6pZTPKeKZYUfWQHsrXyy+/PGggPgKILCJHiN1gZECIgFkMLJQfalgnZADbl7aiFiJkg4E7139yAVLfqGrqISKs3MoSOTr3gUCW/QsFQODGAo6xjiEq2osrTAxrIpFoBsKSiEcZTtmKsQSXD/cuVwgIypdlKeaKC8WomatjLDLYqCdG6GLXQJyXYG7xaGMFLjxB4DPKAKSyyCBGMigOMwPFg+tKwLv2VIxXLIyCsjMDt5YO2Mh9JJAJixjowAXQO27ruOsUApZYUkcgAxI+RgLuOe6GsYK4SfftxhtvHEQIcdK2FCbLtdde+27Gc1HgJQm4DkruUBplZiNDAvu5ZGeEoiraz3DUfOo/L0DnczSjfVnvGTC91UMPPdS39s9KY4HvuZLFeXLNco8iadYXlO37H6f1Zf+UyW4Dma4jKJ5sgBjDRGI4YBOG87zXGXjGWHlHuoGwYuJJEDiV5+sEo30ZlhIrjJYRl1Ina9q0aeH+EdPi2KmIow1ZfltvvfW7F9iNa6qjsSwPUAhcJ8ESt6IDBOoHxWRmmYQFOmfZotxgOnRxQDo7nfzMCKDfiBUaKSg0yrhw5VFJuJa46sRHOSdEfSyI+XCAXCrdMtKAXVX6JXqoKTcYGRoJkDWJNQ8++GDrpptuillGuD9dY+3sOh9++OHh3hR3JlauTOgPyLjfCWj3vFHgnC+3pPvCcctspsSJPfPMiVFDdKhb3lMYnZtr21kXsIDCg5izNTLFy+LeE0CMOFrcC7Yr+0YkETykzL3ufvHc+75sj1gXUOQ8I9yjztXAxmCwc3vHWvbvWO1fkhBiaP8Sd7oJ9zK3sGSxOsLATTuMhS1N9A6QHvaiF6BCQ0kIbAKCwOn0jb4oKlwudQHljcGmWoDOSJwNJQCJsnCX6KC8jjW4Q3R2FMyxAoVAUK+4ngIdajdcQEZRXFmC05HSztp2owHtJp5JO1oQN52c/3XdZcsiS3WC4HOkdaRlRJAowb5UIUpXt6DTRUSOOuqouI6uHxIj9mvdddeNdZ4XyrXEBfcLlVaduJJ1qqQJZZEa6jgVmlaQFonjckS0gYrk2lHuXCPEyVRs3LRA6dtrr70GVKbZF0qrxAQuu7JQ4fwnokX5cxxIoO3FshW7JFbL/8rupip2bo+QgXNlO6xzDJ4V5wlle9najLX9crMWEksNloBh/9yK3YL9S+oQf4co1RHuAwMnJD6RGCpkljdJtRoM7EGTCNy7U2m1jWVMh9E2xFW7M4h14wnT0rQNaXX55Zf3ramqj33sYzHN0IzQNsjvTgF24IEHVm0DH1NdtUfc1eTJk2Naq9NOOy22aXdq1dSpU6tjjjmm2nDDDas2eY193HzzzTFdVZvQVu3OsGp3YtU666wT0yrBmWeeGftt37RxbG1DX7UNXnxnm0022aTad999Ywom02ppy3YHF58POuigqk2+Yqod59eJ9mi/2myzzWJ/d955Z/xutdVWi2mw2sa/andA1corr1xdd9111aRJk6r2KL5qd07VtGnTqr//+7+v2p1QdcQRR8S+Hu+b9spUXW2yUK244ooznC6nTZiqdmca06G0iVP81nRc2umNN96INjJNljZ89dVXY1osbVfgmKZPnx7vnf8222wT59/u+KOdnUebAMR5O//9998/2rTz/Ntkorrwwgvj3LU//Pd//3f85jvf+U58Hm+0yUF18MEHx/G3iVLf2pHjiSeeiHtl7733rtqkom9totfAJnk+Vl999eraa6+N+7rOcJ+3CXK8jjdyKq1mwJRxp5xySt+nZkM/WbhAE/Bu4IjgXy4rTNpomvug2y6e4UCQOHeQulsFjmcwps/twQVgNgkuQPXVuCzEd4hbk6mmBhzXEoWCcuWcjcjLdDKyxIxC1YGjdMlUo/op/dBur9gGKEb22VkLi9rB3es/FXwVp6ZsANcSl43/4cKiXhRFoUAtJhPpk6LF2VGeuJS4rqhuXKL2b/QuMxC4OgWjOy8qgn13opRHoEA4DiOlgUC5oXJwTVNO/AclgiJmv6XN1RbjApzRNXB8YqycvzamCvlfCgu3l/OnEMli7Dx/yqpYLO5x9eVAOygXMZbu6RmBK087ekaoVEOpVzYzUJGV7hD4r63FHtUthCExcnjWuLRltHLJeh48V3V3NbElvBkDub8TiYEg0Wk8PGCjAX0hvtAU/CXytw0HjtCQ+XXcZhzoJC1jDf/dGRzJJYLUDATbMpg6REaIoVQGABEtwfA6XmRMR8xtjEjZDjnqjPdCmOyHK8iisxVvM1hWHXIplkdMXJmHVCC02B2FbRUtlWxxxBFHBMmTONAfSjFYj/jZl/g/54TMWRCf4aBk8iFebswZETiZeMifmEIuTTFSw82yLOcv/sn5c5OJxXL+XI7IpPPXLtyPnefvv3wnxrCzg3MdRtuNOxj8t/PhdnQOng2kuVtg9LQT4i5WC8FVqoNrL9FciBlEyg1kuHyVZmFDOm1ZnWFWFwOvkjiWSAwGIRadQkuTgV806VzeQ+BAXIxAfTEk06dPj4DbUhBzLIFsacjOIHadP1LZuU7nTzETYC0IW4xLIWOClRGwzoB+pABKTNBA0HG7kM4ZMTHCsI/BfOP2RUVT4LRk+F1wwQXRlo5JpXn1rMQXISumweoPxNP3SB7VSr0uRFIGIDI6o+O1HoFFAjoDuQsZGmrHYXtFUBFMKmy55tqgEKnSLv1Rzl98Ujl/94/zRx4F/Tt/ioSYxc7z913/6YX8BwVvZrMCjBZMkbb99tsHqVWoVjyYe2k0IMHANUbeGEPPnHbTidY1EzfxFxjYsZHKslD4qfmIuSntfPZcNwmUQnbVM5BIzAyEioFmDmoa9HPOheDRFLw7F2p/MDoCiylViIjq4Tp4nxGZ0R5NUgMpUTo0U8/4PwQBKTMHpw7evKE6V0ZS2QCjXMSA0sQdJctOJ8yVijxQ0WSZMU4mDxc0LZiZUmTU7DtuQ+9lrCFtDPP1118f6gulynygstuQHGSGWqVNJFo4Pp2uG8GxOxZtSAWU7afdEDOEUNIINbATztGDoCOggFLcnAtXm0rybqzilkQKHTslS2kV21H/BKw7dp2H//af3JOO2fn1V/7Mr8p9R62zf/9P6aQeOCdEWjsLBhck7py4trWpa+PeELwuKF2gOxLJPSq7T5tT3gTMc4+6f7iSqYnl/F0L1f4FeUtcKKBCyTBGCLXrWEBH7F7gJlXqw71j0S6jfb+De55Sy0WuTd2H7i8qoEELkm4AkjUbxxeeNYkcbKJn031qAGl2ByqqMAMDkrG4Z0YD7jHPMNvnnMYL7JjjyKm06g22XZhOp1DSRHiuL7vssuASuEETEFNprTnP4PPf6YBvvvnmIEQ6EeRCrJI4sNGEIqNGsghLaVDkyPQ3MvgcC4WKy7coa2KmymTzSAVShxwgE4BkcKEyuGBORW4+54jcOC9xWjpJyh6yJSPNfhAx+wbuV/+PkCFJ3H9cg8oriHmzjmrm+NwY1iM1jtP+ylRHA0Hcm45cHB6i5vgcl30ipmrPAWJDvXJcttFpIFYIHeUGCfeZaxMc34r9pn9CwIq6huAhhaC9tJspihAb+0fAtB9yimAg0Qg1qB+n/cr5U+QQMudfCK3zB21Zzp+B1qaOtZPAIdtcT4g2gjyacHzaiCFyTmIbkSiEfbyBJOvIkDlE2jOH2LuO2suAIzH6cI+wRwY87leDGAMcz73n3KDH89krYPe23XbbsPnjFd+UU2nVH/oGLncDzaaQnhnBvVY8RP09QnXFkAhcgY6ekvODH/wgOhMdK+bNiI3WQ24UiKwZ2c7IhdhtKDlgNJGGY3yAtFA2uHNHS31D2KmF3F1IP6LLZS3Wbazus5FA2Q7PnkVNNQMVyp1kGuTbq8FFkwJx6wREzeDHAM+gw4DEIIqaZvBisGigo43LoLFXwWtAIRc+MB5qYhK4+oMN5flRTqvOdnMo4D41DaD7rikD42ERuAIxZjoOxIr7jQol/gyZo/JQZ7qlziGN/kt9srEwIkYSbkig/vVXrBJjA3Fz3VTA3EeIGrWSG1xWrHuV+x3x4SYtMYNNATezDpYrX6YjhdP5eT4ZIOdHAaXkcoVTOa3Xrr2kFg0HVHOqAQJPRXOfUbWpa+JHkTf3gTZD6t0b2lH8o3Zr2j0yK6DAm1fWYKp/6MVYIAlc/SHcxKDX4LfpEPMpDlkx+aY85yMicJ3QMYoHkS0p1konSX5E5sRg9Up6caKZQHC4R5E2ZWPE+InroaRwgTU1TmlGoCBxf3FtIyMUJGSVqom0OF/kxIDLK1XJq0EXgtJL7YGosUcIGhulTRBcbeG+cL7sk2SpEgOKrLFfvdYWI4VsWgWTFTceaySBqzcMFCXnKbWFxDUdEsnYSNUfmvLszzKB6w8XlTLH9ckFYZTLKIp7EitiVDtRR/+J0YX4NfeeGDwxexQpyhOypr4f92I3y4A0DdQnqgoyw12A3CB7Xql4lG7bFOPFRYjICCfwqi0t4kMp4tZx1WpTi9jSzmW4KrzBINJlETdqoTKWV6TLMXot73XwbIzX/uVX/D/CjpiVBVG1CP/odRdoNyBRw+wjajW69mOJJHD1BpuB4BscNx1sjzAtivNIp0kcD3SdwBXoCHSosucEpMukE7NDITD6F8TOPcGQMrJjbRwSzYZOXmwS8uH+EhOGjCAUBgruL4MFn7kOU02ZMTyrkkksnk+DMIvPYu60q1fkr5An77kfvdrW7xhB+/Jq6QQy1f8a2NZvC3xGqiy29SquxuI6IozIo8U1La+Cp5FMpJLrw/YGiRb/a11e/5GBDVfgW3kj4QZjiSRw9YaEHtn6/QvINxFsnBJgyqc1iYuMGoEbCEbS3Bli5qhz3Bk6CaN1MRZcOWJ2EDyNyAAz3Gl8JyZ06FQVC6Lg3hGnVCY6t969I9GBC4yMLxuwW/GXiaEBWeskfV51/J3krPN9J5CtooR5de0K+UK8ymti/FCSfaZMmTKmtjgJXH3hmd9vv/0iA7XMntNkCAFTIssMTk3CmBK4gaCTJsWWMhsWLh7rBQ7rnMXpeNU5qx2WHXRvQqcvTgnBR+69ImwUH65RGdBc8WJyxF64J0rnn0gkRgeeP7UpZaOWMkNjgSRw9QX77LpI+qN8Nx2yaMW+rr/++n1rmoFxJ3D9oRMXSEitE2wsO0xKP9WFO5arhsuEYofYiWeRWUexQ/i4VLzPjr1+4PYsLjjuN7FLAuw7Y7KQcySdEit2Us0819f1VAD4nnvuiftB/JNZGmy32GKLxXu/m8gxbonEaOHyyy+P+VHNCTxWz1gSuPrCTDsG22p1Nt1Dxjtg+kdTGkpsaxJqR+AGAwKA1Ons3TxIHfWuxOIgfUiczDIkT2ydzl+WGcLnOy4bbjeumRIrky7akYFKqs2Raq8lhgq5Ep9mETuFqJXMP9dQe4tf0hEILHetLMg4EoaAD3ZNyPcySpE/ypxXhl6MFELHlSphwX1Q4qISicTIwebuuuuuMfONgdVYIAlcPcH+mu5vl112iUoTTYfC3O61008/vXECQKMI3MyAUCAKOndBiZQdJAKBQPSQjEIMvOrcEQdkQjJFUfKoeMifVwuSNxFRYtCQMOonomw6Le/La2lfxMz22pWKpj2RM4QMeUbOxDhajzh3G4wKQi+WQRYqtY6a638lNZjZwugKeU8kEsOD5wt5M1CmVIwFksDVE2b6MUPOGWecETHqTQb1TXiAGZmUPmsaeorAzQhFIXKxLN4jJkXNQ0IYCguygpwUNQkp0ekjeRQ8ZM5N6731VJ9OFy7yUjLhLAO95w70vpNMWl/g+/4uYMfheArKsRUgK4ys9d53vpb35TMXNTJmcc4lUQAJY6C9lnWO01KyOamZztd5y/zjukR2tYulBKH7jffj4crWLs7RteSCl6VqOirnj0yax5ZSh1w6fseaSCQGh8QhcXDHHXfcmNT9SgJXP7ChivYiPYsvvnjf2uaCyCP7VJkcYk7TMCEI3HCBACB5XIFIDjKA0CE3hegUglPqUnn12W8LkSrvLeW91/K+ELiyvgDpQejs0zaIof3ZrsD6Qo781vuyrryWpfOz98gYQkqBLK5M/2E9Ulre+w4xtSBlfttUuH6UWfFzCB3irn0pglxCyo7IZHXuzjtJXSLxfqi875nhTh1tJIGrH0pdQDMW6E+aDP2mzGr99kEHHRSCQ9OQBK6GQB4RNtOUMWDbb799EDokKtE9UGMpdFyupqIyGtPuXK3mu5QcIdO1ycQ1kegmDICUWqBYjHa8UBK4eoFwsd66SvgAACWQSURBVM8++4QCx+XYdPC86Vu5goXaNBEf2HzPQ4/47IdTbagTkDWjAQH6SAaXX6eLNdEdaFNxeossskjM1LDaaqvF3LcIm5HmpZdeGtPDUeyorEZqRp06rqaPPhOJkUAIxRNPPBHq9WhPRSfsgXK+1FJL9a1JjCd+/OMfR2wx0tMLHoqf/OQn4V1i95s6SM9eKJFog0GStcqdOnny5Jjf75JLLgm1YdVVV40SJxSBHXbYISrTk96VNJEcg9x1usATiV6Fjs6MDAY31LHExIDwIZO8b7nllj2RCCY++oc//GFr7bXXbrSHJQlcIjEDiAPkQl1mmWVizj9ZeDougdxi5WRimT8PqUP0jFDF1iUSvQyxosI51IVL9D6ElZxyyikx48KXvvSlvrXNhfNRx8593LS6b/2RBC6RGAYkOChJogaS6t3mzjvyyCNj+jdTsey2224xSqXg3XjjjTH/r6zmVOgSvQLPwOabb9666qqrwpWa6G2wYXfeeWdrr7326gnXKTewUijbbrtto9U3yCSGGuMHP/hBuCl23nnnvjWJOgNJ06GVItMMnyniuFmVWjF6tShloiQLhS+RaCLE5oqF2nDDDWM+zNFAJjGMP9T61P5mKvjKV77St7a5UFHC+UjCUIy46UgFLpHoEozmlGYhy0uKMGKdNm1a65xzzgljoeCxFHzqHVLuvUBaMXSJRJMgyYrSfNNNN/WtSfQihI2YI3TppZfuW9Ns3HXXXZGAZi7tXkASuERilKHgsRHf/vvvH4Tu7LPPjnR8hmT69OlB7tTVQujuvvvukPiT1CXqDtmhBi2y5RO9h9tuuy1KLFHfmu5qBIloJt9XuLeJNd8GQrpQa4x0ofY+uF0pc9yuCg3/7Gc/a7300kuR9fWZz3wmCgyrSadKOLer0ie9YEwTvQFxn+KJjjnmmK7XqUwX6vhBvT/JWZK2mlojrRPsqQH0AgssEHHKvWJDU4FLJMYRDInaWojapEmTIiFCYgQ1TvbrCy+8EBmu4o1kv06dOrX14IMPhkFKJMYbVDjFsA06Er0BMbtszmGHHdYT5M0MRrJOYbvttuupAXAW8q0xFMxUyLIX5pxLDB0MjLlm559//tbyyy/fWn311SOmztyt3KtUj8svv7x1//33R8dp5g5GSmmTLPicGEtIxOHul7BDKe5mgess5Dv2YEsonl/84hdbG220UU8ULL/33ntbN9xwQ0wDp9ZnLyFdqDVGulATA0EdI9PAqDmH0Ok8uTysV4hYwDEDzFhJqshZIxKjCTZKcetDDjmkq4PNdKGOLWQWn3zyyUHIzQ1qQNh0PPvss0Hc9ttvv5gasdeQBK7GSAKXGCr+53/+p/Xiiy+GasHFyvVKlRNHZ6ow5UvmnXfenE83MSowN6ogcW63biEJ3NgBeZMtb3aZ888/vyfqvb366quR8b/VVlu11l9//b61vYUkcDVGErjESIC4qXdkJE2hE6P03HPPRWwL1+zcc8/d+tznPteaa665QrFLUpeYVfzmN78JonXiiSfG/MLdQBK4sQHlXuFxNSz33nvvqFnZdPBOmD1i0UUXbW266aY964XIGLga4/HHH2/96le/iir/DNmHPvShWM9YcqGJV1AVPZHohBg68xUia+4dbq1ll122teSSS7bmmWeeIHbiQpQwMf2XYsOMOCLnt1Ls6x7oK3O3zEPrPMvxlvWeF/GAvTBvYxMgFk7bKztB7e3G/ZMxcKMPz/2FF17YeuCBB8IF3i3yPZ546623YpYc/aUpEHs5LjiDY2oMD9cVV1zR+sIXvhBp+kDqNgkvSTiLaCaGCh0stU3nWibjp/CqR/eJT3yideWVV0Z9JFla3GA/+tGPWs8//3yoeXWEQYxM3QUXXLB1zTXX9K3983rnpgTCrbfe2rc2MdqgcKyyyioRLI5AJ+oPfYmM9+uvvz6y29mBpgN5O/DAA2Pgxp71git4MKQLtcbQwaoNJkgdmTN5ulgnHZfCsN3O+kpMXDDmVCuuVy5XGdAIHAVE/TluVzNMIEwMfR3uO3F+a6+9diiGZ555ZiiM8Mtf/jIGOQcccEB8TowNkP1jjz027g8DgVlFulBHD2+//Xbr8MMPD6KjLlovKG9qaZ5++ukxVaGyS72QhDEzpAu1xtCJKvRq4ujjjz8+Ok+f77vvvgjM1ImqByZY08ijuM5so+N95ZVXIq4B+fubv/mbvr0mEu8HNwODx+3AzSqTdYUVVnh37tbf/va3UbDVoML0XxImjG6Le2I83K5vvvlmhBF88IMfDHeweTm5gbnyzA5Q5m4sz4jtIZ+F0YHrL2mG+2q11Vab5bl+04U6OvAciFXUtorb9kLMmwSak046KQab6mVOlHmmk8DVGKUOHNeESYXJ3VQR0rDir25a78XKIXVUB3XDdFiHHnpoGEC1wi677LKIgcp4ucRwgJQhdCWObs0112ytscYa8Zmr8tprrw0Xvzg6qpeOwfZjdZ/5P2UCzDnL5Yuk6ewNZgqBc5yUODF/jzzySOuSSy6J5A019RLdh+vPRlHOJMrMCpLAdR+C+xULN/iXuNALKtV//Md/hA1QJoSaOJHiXtP/1gBQOXRCYktMLDznnHPG+uOOOy7UEQ+iBU444YRwu1JLNt5449ZRRx0Vo2EqXCIxqzDC5aqUnn/aaadFhXMdAtXOQEL8HPfFvvvuG+UITA1GERtNqBavBIJpf8TDUaALHJ8BjRhSzwhFUV2oosYluo/NNtssAuMR6UQ9wL392GOPRX03M7wUEtd0mK+V215cr2oNEy1pKQlcQ8BNROo2JyZXhU5KxpfsIZMNW5SKoEIgdaRxganbbrttuFF7rQJ1YnzhHuSmoLiIjZs8eXJ0DgYQyBulzr1o4v6tt946lGIKMlXZQISy0k0Y1PhfRO3uu++OdZ4R8XzIpePk8hWGIFZGeEFidFCSZTqTSxLjB8+aRAVema9+9asxw0LTwwgQUmET3/ve90Ko4B3o9YSFgZAErqHQgeq01llnnVAZLBQPNW/EBem0FNeUGn7RRRdF7FIiMZpwTyrpgSSttNJKQegEorsPJRsgdGI5jZQpeGKl7rzzzq4pNUbhknvM4wiOh6sUWfNMIHTIm1H6Rz7ykdgm0X3wGMiSN91bKp3jC8lJSI7QAQo0b0zTic4f//jHUNyFDDknsbqe9YmIjIGrMUoM3MILLxxxRm5YD6SyIhQ1FfYvuOCCcJna1ihLxwncq4yn2CTxcxSSXkgTTzQLDKvpvGSxikkzUhbTieSJk3r44YdbV199deuqq66KeE0xa9z94ugGc4e4r/3GrBNi8rhRuYSWWGKJ1s9//vNQof2f/y0xemKq7rjjjnDxiumbqEZ/LCBG13VgrxZYYIG+tcNDxsCNHAYrvDPCBQyqTCVlUN/0e54bGGljI44++uiemGx/VpBlRGqMMhMDZYExFMsDn//854PAeUgFpZrQXOdFkdNxubkVAKY2gJtcdlgiUTe4hxWl5laV2SrRwLyuRtniPZXKQbY++tGPRkdUsl79xqAFqGzcuAXuffvlyiv7NyMFGMQgfInRhxAPaijvwEgSW7KMyMiA9Bq0GNzzyMjObnq8m/JGbIMQDTGWJeN8oiMJXI1RCFxOpZWYSDAAMfhgsKlypR7dbLPNFpmNJuo3iEkDXn+IxeUVmDRpUt+aoSMJ3PCh3I9C1ioUKGhr/uOmw+BO7VPxrM5NFnniz0gCV2MkgUsk/gxKGqWZW+inP/1pKGpKIAgnoNBRn3Oy/vpBsWXza8oQHm7JiiRwQwdXtRAbcYfCZQT2Nz3WTfKd2VTE8G255ZZRD3UiJioMhiRwNUYSuETi/TAbiVG5pAilS4zMxbhxr4p543al0il5Itsujf74AbE44ogjgmgjFsNBEriZQzamOmjTpk2LEATlpqjTTXaZGqxR3SXfmYVIHN/888/f922iE0ngaowkcInE0IDUKd4r8B2p0wEAQofMLbroovE+ydzYQ6KK8i7KyCDVQ0USuMGBvF133XVRqoeLWsmophfmFfuqKLe4SfF7m2yySU8UGx4tJIGrMZLAJRIjh1g6MzVwwygoLMPVnI+yt6kUXK4SJcw4kRg9UOGUM6LC6ZSHiiRwA0N7Kr+jzqf72ZymTZ8OyzmZok/JIc+mmnUTrSjvSJAErsZIApdIdAeSICRGCO4uk/UrfK1AtjI9peSITFcFinuhSn2dIIte2YfhZKQmgXs/3MNXXnllzECgOoG6bk2O+/RcehbVdVP2ypRYYlpTKR8aksDVGEngEonRA3fNU089FW7Xhx56KOLqqHHibbhcuV6VIkl0B+Kz/uVf/iVm6RgKksD9BW+//Xb0B5IUFK7dcccdh+WOriMkJZ1xxhkRv1oSL0qZoMTQkASuZpAGLtMO7rrrruhkVl111fjMBWEqrUQiMTrQUSoWajouble1F7mpFAhWwoTbVa3FLAI8fJSM1Isvvjjei9+iInUWGOfmvu+++8L9fcstt7R+97vfxawO2tscnhNtBg39wU033RQzKSy99NIxJd1IaurVBRIUlAeiuClAT3FbccUVU/EeIZLA1QxuaqN/BkxgNpCTjUzc+KkIJBJjA8VDEQpZflyACtOa1URRYYMp830qkK1DzUDrmQM51mEjJRJNkDOzacgaLtDOlBgFytlAxE3nbmYH6hMiPRFg4GAgISZMJrUyGs69qa5FQoSQBSqi58icrNy/rmti5EgCV0OIxzH6N1opWH755Vu3335736dEIjEeUJtKRyQ5glLO/YOYmBrMc2uh2KVC914gvqecckrrwgsvjHIXYIo1makmVy8QzI7AmV6tE2uttVbr+9//fs93+AbtbL8ZB8wYIrPUgL6p95M5iJ2PWm4f+tCHWuutt15r5ZVXbvxk+nVBErgaQnbR7rvvHiNQMOo688wzWzvssEN8TiQS9YE4reJypSCJoxPqsOSSS4bb1RyUpr6bqCjK2/nnnx8degFl7dhjj43YuE5Q5UyVpEwGIC9cbtttt1187kW4hyQmKMbr/jnooIPCXd9E4ua6vfLKKzGdlzAg3qN99903Bjk5sOkuksDVEFylG2ywQQR5gmBVcSFZzDCRqC90XNyuXK6yBdU/U5uOq1C5Etl1XK9i6DzTE6V8CU+C7F8Tqot/64QEBZOTd7oGKXTLLbdczGkLsiyFljS9VMZAcG88+OCDQVApkojrsssuG5nQTYJrTD10zcyUQkFFQKmpkoFyhpTRQRK4GsKDsMUWW7Quu+yyGLF4oD0UmaGTSDQLOjblEUz9RZ0T+4WgUNcXWmihCEw3V2iTA9OHCnFdu+22WyhxBdynPnfGEFLsEDueCO2nfSQ09BLcE1dccUWUBEHsZWGqT9hEhUpYgfhEpM19LMtYfJtY0cToIglcTXHDDTdE3AeYJkXaeCKR6A1QKpQvEddKpdNxczFxu372s58N9aJpKsxQgJwpPCsmynsJDNdff/37skvZP4Hugt+PO+64yF5tOsT3iZ9EdsRPImxcyxTZpgFpozC7Tvfff38kWGy99datBRZYoG+LxFggCVxNwcCrmeShN7XIYost1vdNIpHoFXC7ynRVg+4Xv/hFdIpFoVNYWFV62a6C97nYeqHA6VtvvdU68sgjWyeddFKQFzX4PvWpT/V9+2eICUMKJD+IDaNW1hlivrgJ+xNRCqK4P8VqzTRwzz33tNZee+0oDSWDuUleFeEBr732WpQ1ufnmm+N8V1999XB3f/KTn+yJe7NpSAJXQ6hOzd1g+hnG/fTTT4+YmZxaJJHofSB1YuioNdQ5MbHi6rinKFZciojdcOyBsAxJA3Wpt4XUmB/129/+dhRTpjoWID3sH3VK7JzSE3WeHUN8MtfwTjvt9J6i69ykYv7UuxMDyU0qHKZJJWdcC/MKUw0lJEjGQT6Rttlmmy1J2zgjCdwIwSAaSVqMFo1OBKR67/WNN9549zNjZHvEjKLGQPvsfan3VjJOwUNhZEam9gAZeZftChgz21kEQ5fP3vutNG1Gz1RB0rc9eEigTsB0Qd7br/e+z/i6RKK+8PxT5alRd9xxR7ynyikxQZ2fa665QrGbUWLEqaeeGh3wUUcd1ZpvvvlGJdaKfWP3LJQzttF7dd8oNwgNl6gFgWPPJGo5ZraIPQTHZh37R+Wx2HdBsY+28Z33yGxZxF5Z2DxtVOyfVwpZtwbCjo935Gtf+1rY+qWWWirm3UXoKFTUVOu4grnEmwJ9mVptMqudj36E0iZeMeu21QtJ4PoBYUKwiqFhVBggBlMm1KuvvhrGyasYDobViAoRQo4QIwtjYbHe9wwNg2NhcIoBKu8tBd4jZP6fMUPG/I/jKvC5kLpCAC2O18LgWRhRhtPCyBTS6b0H1f84NgZP6QM1rMjhahD57BgLGbRtE4NsE4leAvKDEFHpuF0lR6hH51lF4tSiQ+zYHmQF4ZHdqESF9Uo6rLvuujG4Gw7YxkK+kBc2UHKGWRW4gNlINof9KuTJMbAjiBN76D8dE5vjuMAr+1I+szH2wT7ZzvZsnP+HYvMsjqXYPcfGJrPXbDSb5xWJZPN8b3+OjX2jiiG+iqOz3RZtyM7NDI7NNFAURO8dm31zjxbCo3Znf9dwHaHttJXrJ1lEORznYOYLi/Zx7RL1QxK4NjyADKHK12IVjAo98IV8meqlEJrOkZz3Ro6d5KtJQAgZYgavjJzLaJlsrho6o0dF1BaMkTII3DdqW1mXSCTGH8iMDhiRE1NG/UGqkBRuu29961tB+ADRMH3RlClTInFiMOjc2UT7E6wu1gthUtJjzjnnjEUcmwGgV3bRgK+OAz3kkm0rA3ALNzU7p618zy3ITU05E5A/kFrHHkoqk3WpfQoQP4ROXbu69wkIp/uEoiuhwvVCZsUdirk0iG9qvzaRMKEIHFcmA+ShRdjEXjBqHlzGR9FNwbLiMRC2MiKc6NA5UB9L56DdGD/GjeHmkjGyZ8x1GEZviURifMGuIV+IxsknnxwD1U4YgCF2ShYhXoiZmDOlTgxmn3zyyXjOkTUZk5Q99rFX1RiDWed87733RoawvoF9W3jhhWPQiuyygQceeGC0T6dHpIDydumll4YXpk5w7Sml1FpkXP9HIeV+V/Yja4w2Ez1N4JA1CzXJ1DceyDJ6lAEkLoG6VuT9HHEMDQidUajRrCQL5A4ppt4Z2VElKXSIsFEdI5hkOJEYH6gnufnmm7+PcFCMDMKoTTpx9pHngafBs4uwUGJKKMVEQnFT6z+4ifUhbJyEEgNYipW+A1ErLl+vXMQI3HiWBuE1oShSFh2742anKa+8KArrEij0gRPtuvYaeo7AIRcl+JI0LKYLiVAwU3yImzbJxOhAB8GN88wzz8QozytDYgQ7adKkiAnJtk8kxhYUoxNPPPFdAmeAZRBb4sUo6FtttVUQOUqb7xPvB4JLgUPglARBkLSZKb4Q3eI2RuKQpbEEtdWMDtRDr9RE15hyWEJeeEeGEt+XaA56gsBxjaqvY7YCxEEcgwlzBeoKTE2MH0j3rotinepbiStZc801o2DpcIOoE4nE8IFsUMYNZikxiq/ySHCJbrPNNmEvE8MHdU5iiDk/Bfqb/lDtzqGoWjxB3JkUvU033XTIpFnMXSGSSstw+fKAiOsTwiJ+zUCZWJFkrffRWAJnNMmPjxyIV+ACFYBJHjbSSKWnXiDrM3iMlrgc78VdrLDCCkHq8nolEqMDnf6dd94Z9cgoNaY50tFzARbVKDFyIFS8PcqHsHPc0fqigWIFEWmk7ZJLLomptMQLSyRwLTphPyWLVlwiNyjCZh0vkwQ6qp8wIP2dMBUEPUnbxEIjCZw4DVW81aohYVPaSMR58zYDRp+MkZHrVVddFVlfinaKtUkkEt0DW/nNb34zXik9FKKxdu9NFBAV1No75ZRTwrtw/PHHB6kq4HI977zzWmeddVa8tz0CJ9REQgE1TQKJz2LuEDWJJsiZQS6FTewaxbRJxYATo4dGETgxGypCG72st956MfealPVZBXcCQrHKKqv0rWkWHLtR3EBwTkZqdYVr6npedNFFEYez8cYbp3FKJLoAxWSRiU022aS12WabjUjlvuCCC0I1AoH6Er7EtI6V21WylGK55Rg6QX0S21w3GKDyDJ1wwgmtgw46KI7ThP0ygZVq6n8uXNkIHxWOV0I1BFn9nXF1icRAaAyBkxEk5d2NLqNKhlS3bu79998/1KAbb7yxkfEg6tY5diO+c889t29tK5I5GA8GfDAwkkZ9ZP/xAIMmMFi5A+6CXXbZJSdFTiRmAVdeeWWo26Z3Uox1pLbSPr7xjW9ErJwakCXuSrKD4sCjnfDANiFD6q4hRFSosh5BPe200+LzYBDYPx7JGf7XRPzsszajuPUnb66LKcVMwUVty0oIiWEBgas7Xn755WrjjTeupk6dWr311lt9a7uDV199tWoTnGrFFVeszj777L61zcMdd9xRLbbYYn2f/oy24aiefvrpvk8zxp133lm1CVPfp/HD22+/XbVHqtU666xT/fa3v+1bm0gkhoM2WahWX3316vnnn+9bM3K88sor1cILL1zdeuutfWuq6r777qvmmGOOsBtjAccw++yzV48//njfmqp688034ziGAr995JFH+j6NHf74xz9WDzzwQDVp0qRqvfXWqyZPnlzNNddcGFzVJmpVm7zFcuihh/b9IpEYHj6w+Z6HHvHZD9c3gNyoxSiL73+PPfYYsDL2rMBkw+RqcQYyJU2FYlRk1GdKEQHAKpALvBeUapQkTdv3agVRjnwmm9uH2IVrr702sr0UwRQ8TD2UpSRbSHkTsXvOSyDqNddcEwGwRmnOUQzETTfdFGngfmMfRpoSNRyLOLGBYv2KClcmUz766KNj/0bN/p/r2WvJCuW6FJ/hM+Xr9ttvj+M3sjVStb1zMOWW6VX8vwQEi7gNrhTuFcG1jqkb2b5cPK6F2A8TWAu2HqlykEhMRHhmTZV15JFHdkXFZh8uvPDCKANU1C92gh1g90zQ7nllI8V/yTRnG2Ri8gCYt5XN9J4KpbQFG84tyu5R3Hk9JFjYB/SvoeYY2oPrmFOUreEtETIi61MFAvtyLP6X7WQL7ZONlXHLlrFPShypb1e2Zx9l6KpcUGwb+8cOs4mOx3mMNDaXPVN3jR3zn+ecc064VM2dKhZR3LZj0CZmxkgkhovaR/17GBGPHXbYoW9Nd4GYeXiUtvBQy2xlYNTOMdfdd77znTBcsoK4bpEvdZMUx9xvv/1iWzFbu+22WxA3deYEDHtQkSRGVIwdEsQAMQgCVg855JAgKfYlIYORA3EQjJmHGuGT0YQoMjxcpI5pRkAet91221gYrgLFJsUKIsC2sS9uEcbO8ftPpE36OeNVtud+0R7lHFwL51hcEVLZnWO3Y9a4fAX5IseJRGLoePrpp+P5NBAaLbAZBpfIGnKFLE6bNi3CNWSX77nnnmEDhbkoasuNaHv2Q800YDPE57GF9ofoyOJkPweCbExTVLFtfsfuAHvKPgmvMRhmTw0s2UrJGsJC7J9ts5Tt2WdZoGLOuDqtN5hnh6uqis/sD3s4q2DLnV+xZwgqu37EEUdEP6JOXyIxEtSewDESCEUhON2EgFLGzv6N2GRDTp8+Pb6jTjEA6skxhsiXUZyRmTg8hkdsiQBU5M92souoYx5YRqKUNRHTJYhVHIbRmG2NXNUQ8j9iSahsxWgY7TKGyBID4mFffPHFI3FDjJtSAANBwWJZTha/KbBfx+R7Iz/HhKAir4yb/zBa9Fqqc9secXUsthensfvuuweBpQRSxrTfqquu2vVae9odyaTuJRKJoUPhbDXARlO5pmwZVLITCgFTxwywlSZBsAzsqFpsCKJmgMzerLXWWuFRoHJZx77wcoBXtoQiNRCoa0gZ2yZjvSSvFVvlVTUCNpbNYqeKl4Ftoxqyb53bS+xwXMjn+uuvH/tkc7SdwTNvTLdsG7XNILg/HEfWw0yMFLUncB4gbjyjom6DMWBsSNr77LNPGCaqFNIIAkoLcfQe0eOi4C5F1Hy23sJAOM5Crhx3Uabs1++K4WAgyPLcpJQ9AcIkdm5KblzZmOA35twzomUYyf0mpvabmYHCh2B2AlkrxoKxKqPYGQGR6jRgSKtRrHajViJZI3UvDAbtZcStfROJxNBhQGpgNZpQi4x70eCV+9SzaqYHNopqT3nzDBcgX1BsZSF/7K6BLbLHDiN4Q4H5RnkT+qOU7GCzHBc7PRjY4wJhIRtttFFkilIKnZNi491CCU1JJLqJ2hM4KdVkevEV3YTii2IelLAoqpVYDwSMuxMYATFpiI74Ce5HD7URHQPl90a8DFrJdBpoIndkz2gO6bEf+xMbQr5n3Kh/jCG3ZokfQfKssw0yZpSrbIo4vKESG3FtVLyZwf85RsSQm4IbZEbgAkEyuY/VlRqNkT7Sqo3GKys2kWgquBCFPSAg3QZCxN5xYRqcGlga4BpUCi8Rq4wAKSzLgzAz8CpwJx522GHhmWCHhgr2m+t2KEDo2DZ2lM2eEVZaaaV4pfDxOrDz3YB+xOC8jiVPEs1G7ZMYqEAebEaDND4QQRoukAOlQx566KGoaURaR8iQHYkAgm25Eo0yPfwSD7g7ESqjTMdEMaMKGj2KubAOAROUy7CQ8F944YU4ZiChG2WKe/M/RqFf//rXw4AhQc5LLTRFN8tIkiE0GhSbgVTaH6nf+k4gt8cee2yUAhED49gsgn1tK/5EnIXzLSNgbgOSPncLkqw6uLg5sRpcxgcffHCcm/1x3RaIl+NGVqNoiy226FvbPVAPuGuNho3kE4nE0IFQcf+JJ6PAD5TwNBxIikI+DDzZQYNC6r34LbaC3WJDBejzEEiQYk+RFfFv7CYbgqyJ9WVTkMvlllsuvAFskf1T7gYamFKuECrbmJidHSz2zcAe6XIsplI0+PbfbBcbrt9wHGyoRAbfC12R4GV7+1tsscXenTGBQoagGkBSB7vhAdBH+G+vQm26RQoTCWhEHTjkiuojxswoijIzGspPfyiCy7AgE/2ByDFcSNhEg3pMrgEj3C24xjodSSNG4+IGx+IaJxK9BkrZ9ttvH/ZLfK3QiboCIUOwHG8dIKkAMezG8VDeDNinT58eZLYzHCWR6AZqr8CBjly8leW73/1ujK64HY2QZnWEOSNQ0ChrRpmIWgmaBcUsPZBAvRpozrteA7cqZZHCaIQvqaNbo0mj+1NPPTVKDRhtC0ZO8pZIjAxsosHVv/7rv4Zixq3KRtXpmZKMxSPgmReWMd7xYWL4uFe1F5FgVmwbtY1yeOihh0Y2PcVPjHQi0W00gsAB48NtZ1TJVeiB86DIrOwkV90AqR1JRNwEuiJxnZlCCJxYNeuRyP4TEfcijOKNKCllRvUzyhYbDiR9cOW6lq6jRBKdTZK3RGLWwLUp291gS3iFjE+hFHV5thyfJC2Zp5790RqIDweSysT1lhCWkUIinHAaISBq8o1GolciAY2czB6kr1NtxH+J9ZAkgHDV2V2Q+HP8ocQQ8XkKeSrdwl3amRGWSCS6B8lXVCXlf5T7kEnejVjixF+goLDYualTp0Y7I27i/hKJ0URjCVwBqZoUL5tU8UgPjawoSQg5GfD4g0qKbKuvZFYKcW4SK9SpE0CsNEkG9iYSowvquaB9blW12EoNS0lM3fZgTBRoU9mwZoWQmEa5M2erygHZpomxQOMJXIHAXa5V2UUkbIGoyByJHlHIYoljC+4ImWMyW7mjZenKGHNNlFvxOZFIjC3YSQq4bHvEQ3a8umrDLeMxkSGMROye5AR9jtJSpdh62rXEWKJnCFx/qPvDvSptXbkM8VYUOaMj1be9ZmBpd6CtzSCBqCFt1DaubETNKJ+bdDRm0kgkEiMHMqc2JTtZSgxJylpqqaWiDlo3ymj0ArhH9SHEAQtxQKklpM1c0xm2kxgv9CyB64S4K248BEN2qRGo4rsC8QX3Cpzn1hOHZR3DlaPR94K7gOESeKwtZY6aikttO20pUFcMIrXTqF5WmbT5dI8mEvWGMAfhJ5KzhDiY1kpoiiQtgfgLLbRQ2EYDYM91r4alaAeDUbXgylzMMlPZOklrSK34QbU7hX7UIfEiMbExIQhcf5DAERFTZiEgCuR6SD24lDpkhLEyGlVRHMHzAE+keDouUBXdxc0wZAKhlRJhtMR6WIxCEV8kmLHPeMNEovlgH8V2cQ969g14DdoU3fWss4meffYRkWkyqGvsv0LmyBrvARLHrsmOdZ68NWKqczCaqBsmJIEbDB5oqfeKS3pF7LzvnI+1zH2K6CF2jJiFeldexdzVJR5CVpQRtlE1Q6wSuhkPLIis2m7WU9kKHL+yA4gZo63uniXn80skJh7YPnbDgM6C6CA+7CWwiQZ1xZPhfXllD6nxYznAMwBl3wzK2TfHXmpYekVGQbIBcqbGKM+BxTEnEk1AEriZgOHysJdFjTgjNIZANhcC9Nprr71LjrgZxZYYxRqxMRDmDbSIlbBwz1q8972UfgbQUuIpGLuSycQFXMij/7d/i+PwnXVIWnm1nmH1nVfErOzbcTCoCChXMQKKqHEL+K4cm/9GQFNVSyQS/cEeFdtT7A2PBjcsgsQ2Ik3Ws5vsiDhYA0D2zsIesTHeW19sjwV873f+B9i2srCz5f+9+g+DVMTNd47PfuyXrSuEEllDMg1Q2Tg2GrlMd2iiiUgC12UwKIwIw1VIVCeh6k8Gy/cIH8NkfYHfAANXiBSjxOgxOIX8MXRlvVfrGSXfec+IlXVeE4lEYizAthncIlWFXHktts8rO2edgabPxRPge3bRwBIMQtkvpKtzUMzuWY+UWeeVrWP3LDkITfQmWq3/DzVXyRSGnB/XAAAAAElFTkSuQmCC;" vertex="1" parent="1">
          <mxGeometry x="399" y="-340" width="347.84" height="330" as="geometry" />
        </mxCell>
        <mxCell id="sBmEp7bvWE8VAt0zwp9F-6" value="" style="edgeStyle=orthogonalEdgeStyle;rounded=0;orthogonalLoop=1;jettySize=auto;html=1;" edge="1" parent="1" source="sBmEp7bvWE8VAt0zwp9F-4" target="sBmEp7bvWE8VAt0zwp9F-5">
          <mxGeometry relative="1" as="geometry" />
        </mxCell>
        <mxCell id="sBmEp7bvWE8VAt0zwp9F-4" value="Start game" style="ellipse;whiteSpace=wrap;html=1;" vertex="1" parent="1">
          <mxGeometry x="90" y="20" width="120" height="80" as="geometry" />
        </mxCell>
        <mxCell id="sBmEp7bvWE8VAt0zwp9F-8" value="" style="edgeStyle=orthogonalEdgeStyle;rounded=0;orthogonalLoop=1;jettySize=auto;html=1;" edge="1" parent="1" source="sBmEp7bvWE8VAt0zwp9F-5" target="sBmEp7bvWE8VAt0zwp9F-7">
          <mxGeometry relative="1" as="geometry" />
        </mxCell>
        <mxCell id="sBmEp7bvWE8VAt0zwp9F-5" value="Watch News game Intro" style="whiteSpace=wrap;html=1;" vertex="1" parent="1">
          <mxGeometry x="90" y="120" width="120" height="60" as="geometry" />
        </mxCell>
        <mxCell id="sBmEp7bvWE8VAt0zwp9F-12" value="" style="edgeStyle=orthogonalEdgeStyle;rounded=0;orthogonalLoop=1;jettySize=auto;html=1;" edge="1" parent="1" source="sBmEp7bvWE8VAt0zwp9F-7" target="sBmEp7bvWE8VAt0zwp9F-11">
          <mxGeometry relative="1" as="geometry" />
        </mxCell>
        <mxCell id="sBmEp7bvWE8VAt0zwp9F-14" style="edgeStyle=orthogonalEdgeStyle;rounded=0;orthogonalLoop=1;jettySize=auto;html=1;" edge="1" parent="1" source="sBmEp7bvWE8VAt0zwp9F-7" target="sBmEp7bvWE8VAt0zwp9F-13">
          <mxGeometry relative="1" as="geometry" />
        </mxCell>
        <mxCell id="sBmEp7bvWE8VAt0zwp9F-16" style="edgeStyle=orthogonalEdgeStyle;rounded=0;orthogonalLoop=1;jettySize=auto;html=1;exitX=0;exitY=0.5;exitDx=0;exitDy=0;" edge="1" parent="1" source="sBmEp7bvWE8VAt0zwp9F-7" target="sBmEp7bvWE8VAt0zwp9F-15">
          <mxGeometry relative="1" as="geometry" />
        </mxCell>
        <mxCell id="sBmEp7bvWE8VAt0zwp9F-7" value="Device" style="rhombus;whiteSpace=wrap;html=1;" vertex="1" parent="1">
          <mxGeometry x="110" y="200" width="80" height="80" as="geometry" />
        </mxCell>
        <mxCell id="sBmEp7bvWE8VAt0zwp9F-9" value="" style="shape=image;verticalLabelPosition=bottom;labelBackgroundColor=default;verticalAlign=top;aspect=fixed;imageAspect=0;image=data:image/png,iVBORw0KGgoAAAANSUhEUgAAAU0AAAFDCAYAAAC++ly0AAAAAXNSR0IArs4c6QAAAARnQU1BAACxjwv8YQUAAAAJcEhZcwAADsMAAA7DAcdvqGQAAF8OSURBVHhe7Z0FeBRJE4br8IMfdyc4BHcLlgR3d3d3dwnOoYe7uwZ3d3c93N0PuPn7K2ZgWSK7SUh2s/Xy7EO2Z3akZ/rrqu7q7j+cnZ219OnT06JFi0gQLOHNmzc0zGMIrVu7lh49ekT//fcfRYgQgUKHCq3vYRt8+fqFPnz4wNcXPXp0yp0nDw0eOoTixImj7yEI1iOiKVjFzu07qHPHjvTwwQMq5OpKlatUoTTOaVmUwoUNq+9lG3z+/JlevnxJly9dpvXr1tLaNWspVOjQ1LtPb6pTrx798ccf+p6CYDkimoLFbN60ierUrEVOSZ1o2IgRVKBgQX2LfXDt2jVq1bw5nTx+krr17EHtO3bQtwiC5YTQ/xcEHzlx/DjVqFqN4idISJu2bLU7wQTJkyenTVu3klsRdxrq4UEL5y/QtwiC5YhoCr4CN7dtqzYULVo02rlnF0WJGkXfYp/MmjuHsmXLRoMGDOB7EwRrENEUfGXp4iV09cplGjl6NEWOHFlPtV/ChAlDAz0G0/Pnz6lb5y56qiBYhoim4CvLli6hlKlSUdny5fSUgGP37t2kaZr+zXc+ffpEmzdvpq9fv+opfiNL1qxUtHhxWrFiOb1980ZPFQTfEdEUfAQhOxcvXKQChfzfhgnL7vTp03T79m368uULd8xUqVKFrl+/Tq9evaJ///2Xzp07RxcuXKCPHz/yPrdu3aKbN2/SP//8w4K5b98+KleuHF29epXevn2rH9lv1KpVkz5++EhPnz7VUwTBd0Q0BR+5psTpxYsXlCVLVj3FbyBW0tnZmQYOHEhDhw6lx48fU4kSJTgkCP97enrSsWPHqFevXlSxYkXq0KED3bt3j5ycnMjV1ZXSpElDu3btokaNGrF4li5dmq1U/5A4SRJu0zyvhFoQLEVEU/CRRw8fkaYEL1bsWHqK34EbDusQwhcvXjy6cuUKJU6cmP+vUaMGZc6cmZIoIUPwOazLkCFDUsSIEdk6XbduHaVNm5a2bNlC4cKFo/Pnz1PJkiX1I/uN8OEj0B/q3+NHT/QUQfAdEU3BR8L/LwKhxRFuun9AIDnED+IIy9Jox4RLbtC0aVNKkSIFu+xG4Dn+h3i6ublRwoQJOQ3AcvUvGDEEwv1pW0H5gm0join4SKJEidiyu3H9up7iNyByderUoQULFvwkipkyZSIXFxdas2YNFS9enKZPn0579+5ltzxUqFCULl26n0buwArNnTs3FS1alHbs2KGn+o2XL17QHyH+oKTJkukpguA7MiJI8JUcWbJSqjSpaZ4SvODExPHjadCAgXT2wnmKETOmnioIPiOWpuAr+fK70OGDh7gDJriAe5k6eQrFjx+fokSNqqcKgu+IaAq+0rhJE57ZqGG9+lbFVNoyU6dMoSdPntDIv0ZzM4AgWIqIpuAradKmpZatW9POHdtp8UL7b8bZt2cvjRk5ivLkyUMFCxXSUwXBMkQ0BYto274dZcyUmdq1aUNzZs22S1cdnVG7du6iBvXqUazYsWni5Mn6FkGwHBFNwSIQL7l81UqOlezSqRPVql6DR/TYg3gigP3e3bvUqX0HqlapEv3vf/+jhUsWU+w4sfU9BMFypPdcsAqM+R4/diwNGzKUQvzxB0WPEYPyubhQGmdnimJjk3m8e/eOrl69Qvv37ac7t27Rv0o8q1WvTsNGDKfwESLoewmCdYhoCn7irrLcNm3YQMuXLuMRPe/evqX/AqCTKGSIkBQyVMifgt79CuI7//wzPCVxSkIlSpagChUrUvIUKX6K+xQEaxHRFPwFetMxNh0zBX38+EkJkr7Bj1y4eJGOHDlC9erVw8H1VL8ROnRo5YpHpGjRo1GIENISJQQMIpqCTXHo0CHas2cPdeki81wKtolUv4IgCFYgoikIgmAFIpqCIAhWIKIpCIJgBSKagiAIViCiKdgM69ev5/hMxFFOmzZNTxUE20JEU7AZ3N3dafTo0bR06VKeqFgQbBGJ0/SFs2fO0PFjx/Vvwu8GQejv3r+jP8P9qacIQcl/2n88o37cePH0FEFE0wcwK07ZUqVYNDG8TwgEjBFFwWPaTvtFfw6YR/XcxQuUwGR9JkdHRNMH7ty+TdkyZaZadepQ525dpSALDsPX/75SxXLl6PO/n+nQsaM8JFX4hoimD3iuW0+NGzakg0eP8FKzguAonDl9mgrlL0CDh3hQsxYt9FQBSEeQD6xauZIiR45McePG1VMEwTHYt3cvz6FaBxOnCD8houkNz58/p907d1HefPnENREcjo0bNvI68+HDh9dTBAMRTW+AYL5+/ZoaNGoo8y8KDsWtW7fo1MmT5F60qJ4imCKi6Q2bN22iePHjUZ68efUUQXAM1q1ZS1+/fKHqNWvoKYIpIppegIl1Dx86RFmzZdNTBMFxgMGQKnVqSpEihZ4imCKi6QU7tu/g5RxKlS6tpwQ9iBndpF7mzZs308aNG+no0aP6lh9gBnU3NzcORn758iWntWjRgooqNwuzoVtKz549+TdnzpzRUwKHyZMn04kTJ/RvlnPw4EHOH+/A4m87duzQvxENGTKE81H4FayrdOnSJSrkWlhPEcwR0fSCxQsXUowYMcjVzVVPCXqwoNnOnTupSZMmNHXq1O/icuHCBdq/fz+LBno7x40bR6dPn/6+SmSnTp14PPe9e/f4uzlv376lf/75hw4cOMBtWaBp06YUM2ZMevr0KX9///49z6aO8+M8N27coGfPnvE27PP48WO2znEdFy9e5HR0pCF937599OTJE04z59GjR7Rly5bv4nz+/HlO27VrF18XwHG2bt3KFQIwjn/79m169eoVfy9Xrhzf8/Xr13mbKcgHVDKoPE6dOsXB2sePH2dhMO4H4D5wHqOy8QrMKo98wnXidzgnKjLc58ePH/n8xvaHDx/yb86dO8d58EW5u/bAqhUr6SUqX3d3PUX4BcRpVqtWTb3zgkGGtM5ao/oN9G+2hbu7u6ZEgP8+fPiwlidPHk5r3749p4GECRNqSnz0b5pWunRpbeXKlfq3n9m+fbsWIUIETVmWWtSoUTUloJzesmVL3gaUmGh16tTRSpYsqTVo0EDz8PDQGjVqpCkh13LmzKkpMdGUKPF5MmfOrClx0qZNm6bFjx9fy5cvn5YxY0Y+jjkdO3bUlEBrTk5O2po1a7S2bdtqSZMm5XuqWrUqX0u0aNE0ZTlradOm1ZSw8TWC8uXLa3PnztWaN2+uhQ8fnvfp27cvbzNFVRZa/vz5tUiRIvH1nzx5UqtXr56WLFkyLXv27HwfSvC0HDly8D3iPF4xf/58rWzZsnxtuOfXr19zualfv76GMqTEUQsXLpymKhs+Vu3atTUlylrWrFn5+fTv318/ku2C51nUzV3LnjmLpipaPVUwRyxNM/65eZOeKMuhRKmSeoptAQvHsI6aNWtGf/75J4/XhjXjF0KGDEkpU6Zki0mJFylR0bf8QAkFB/cb1i6sV1iIN1VeYe1zJYq0atUqPlbYsGFpwoQJFCpUKFLCQUp4SYmZfqSfadeuHVuC+N3Zs2c5bdKkSbR7925uToDlh6aGDRs2kBJgdrFxvyBMmDD8/99//81xtJ6entSvXz9OMyVevHhsmSdPnpxnUcqUKRNbzp07d6axY8eyBY17gYUJ1/TOnTtsjZqjKiiqXLky5c2blz+qoqEyZcrwvg8ePGBLEiE66dKlo1GjRrHlOWXKFIodOzaH7Sxbtkw/ku3y8cNHtsBLlCwpYXY+IKJpxmj1wmO0pLIWviXYMCi4ylojZQXRtm3b9FT1UJWIQrQMIErKCtK//YyqOHk7hBjubpQoUTgdhcaI0YO7riw1Gjx4MAsntqHtVFlmpCxPPjbSRowYwcIEMcJx8YG4KauQj2MKzpUqVSpS1iUVLFhQTyU+59WrV+l///sfKauSmw5wHLjnECCcH9cKVxj3iW2fP3/Wf+01EDSjogHGPeN/hJPhnjEqDm2qOB/ObQ6aC9B8gbZeZWlz88igQYNYtNEsYoSl4ZiGK4503N/06dO56QJAYJEfXglzUIOK4b2qOIoWL6anCF4homkCCsba1WtIuXMUT1k2tgiEBgIGMIXa8OHD2eLBlGpoR8P0anHixKFKlSrR/fv3qVSpUvz/0KFDad68efw7UyA8aBeE9VSrVi22KpXLyZZe165dafXq1XwM/BYWW4YMGfh3WGIXbXd9+vTh7+hcqVGjBlWoUIGtlejRo1OCBAl4m1dA8GG5tWzZkkUmVqxYlCZNGhYZnB/3A2GGhZklSxYqUaIEXxusU+VWU+bMmVnsIFbdunUj5QZzB5ZXwMpMnTo15cqVi8VOueZ8fbgGnBP3DmtVue/cZuxVXC7aeFEhIL9RUSRJkoQrpubNm/O5UXEoN517nCG6iRIl4vyDla3cepo1axYfBxYt2jk/fPjA320FiP3fykOIoK49Tdq0eqrgJdKm+QMlHlrMqNG0NatX6yn2gbKi9L+sB+2WaIe05hjKTdaUOP7Ujgr8cx0+YclxA2ofr1CWrKYqAE253dqYMWO4LTS4oSpcLXb0GFrbVq30FME7xNI0AVamKlhsOdgTXllGlgLLEVadNceAZVi3bl3+nSn+uQ6fsOS4AbWPV8CihPVsNHOgrTW4cRlRCcrarKesaMFnZJYjHbSL5ciSldvgDhw5zAVEEByFVs1bkPKw6PzlS9+bfwSvEUtTB+1M6Dlt276dCKbgUKBTbsvmzZQrd27uvBJ8RkRTZ+/u3fzClPWip1cQgjNHDh/mDqqWrVr9tiaW4ISIpkLTNPJc70kJE8lUWILjsXXzFo4OyF+wgJ4i+ISIpuLK5ct05tQpKlmqlNS0gkOBuNddO3dSuvTpOfxM8B3JJcWmjRspdJgw1LhpUz1FEBwDzOaFgQJlypbVUwTfkN5zRcnixen61WuUOUsWdtUFwVG4d/cuT6hy5MRx6TW3EIcXzbdv3lD5suV+GWonBD5oGMGY7Q/qEzVKFFn8MxBAcxRidcdNnKCnCL4hlqZgUxw7down7MCYekGwRaRNU7ApYPGjc0IQbBURTUEQBCsQ0RQEQbACEU1BEAQrENEUBEGwAhFNwWbAAmhYBA5hMAsXLtRTBcG2ENEUbIbChQvz+joIfyttQ8snC4IpEqep6Ne7D71+81r/JgQVf6h/n798oY8f3lPEiJFIk/D2IAfLcngMGUJRo0XTUwQRTUWOrNno1cuXXi6oJQiOyqd//6UH9+/TmfPnKL4P6z05GiKailzZslPOXDlp7AQZSiYIBp7r11PdmrXo9IXzvMCd8A1p09T57z9xBQXBFGMpYuFnRDQFQRCsQERTEATBCkQ0BUEQrEBEUxAEwQpENAVBEKxARFMQBMEKRDQFQRCsQETTGxCjduDAAVqwYAEdPXpUT/09dOvWjWbNmqV/+5m3b99S8+bN9W+2AfKmbdu2+rfAoVWrVv5ew6l79+706NEj/ZvXvHnzhnbu3Kl/+318/vyZDh48SM+fP9dT/A6O49378+nTJ9q/fz+vvQTwPm3YsIE2b95s9Qz5hw8fpmvXrunfHBcZEaTAiKDsOXLQ+L8n6infCtiqVauoQoUKdPz4cVq/fj09fvyYX744ceJQmDBh6PXr198DgKNGjUqhQ4eme/fu8frRcePG5dl6TEGhf/bsGa94iRcW+6CQXr58mWLEiEFJkiTh/d6/f0/379/n1QFDhQrFC1/d1VcNjBgxIqeh8KNAJEqUiL+bg8KIT5QoUSh69Oi/XAvOj3O/e/eO/vzzT4oWLRo9ffqUXr58yfeC3+B8ODb2wT2HDBmSj4l8KFeuHF+3ca34Pc6F7dgf14lz4limIA9evHjxPd9ixYrF58QQVlwTPtiGMc/hwoXjPE6YMCGlSJGCCz/yDteC/3FegHwE2BeiECFChF/OC3KoZ4zZk/DsjGeI54HfxYsXj4+5ZcsWfvbbtm3j+8HzNo6F/MF94nrxSZAgAR8D1/rw4UPeH/vi/nDv2AfPx3w9cZwnS5YsdPHiRVq5ciWVKFFC3/ID5BOOabxvYcOG5bxF/uB4yDf8jfcA7+mVK1do7Nix+q+/geeASVDOnDnD58L7Va9ePU7HcytQoAB16dJF3/tX1qxeTQ3r1uMRQVjmt1OnTtSuXTueicqREdFUmIsmXmoU1HPnzvHLixcWhQsz8EAY8ZKuXbuWypQpw4UjduzYlC1bNi6st27d4sLi5uZG7du35+MZ4AVPliwZ5cqVi65evUqzZ8/mtMGDB1PDhg35hYRQpUyZkkqWLEmRI0emQYMGUaZMmbiWh3ieP3+eJkyYQPv27aNChQpR3bp1+VrN6dGjB8WMGZP69OnD1gGu0ZQbN27w8XLnzs0F6s6dO9SiRQs+N+7zyJEjlDlzZhYziGr9+vWpWLFilDNnTmrcuDGtW7eOTpw4wfeDa920aROtWLGC/06XLh2fA/kIoTMF9+vk5ERZs2blyujs2bN83gEDBnDBR/7hXo1KInz48LR3716+VpwLQo3fzZs3j3+LigPX1KxZMxaFPHnycB7dvn37l4rCxcWFLly4wGJXsGBBatKkCeXPn59atmzJC7r17duX8+3UqVP8/JCONMPyTJUqFc2ZM4fvv3z58vweYF8IE57FuHHjWFwqV67M+YmKp0qVKvxczcE7AgHDdSNfzcG9Dx06lIUR7+G0adMoTZo05OrqyvmO54/3x9PTk58trm3MmDH6r7+B/Md5KlWqRDNmzGABx/PF71Hp4dohzBB+rzAVTTw3vM/9+vX7XuE5LBDNatWqqfx1XHJmzaa1at5C/6ZpynLQVMHSVM2uqZdLUy+bpmp8TVkgmrIKNGVNaKrwaSNGjNCUcGrKPdJq167N+7m7u2tKiDRVePWj/UC9eJqy3Pi4OJZycTl92LBh2ujRo/lvVRA1JaqaEmv+rsRaUxaXpqwp7dKlS5z2999/a0ooNVUYtVevXnGaOcqi0ipWrKipgqspodFTf6BEU8ubNy+fZ+vWrZymBEFTBZ7vHfekLCft6NGjfH1KQDRVwDVlGWnK0tBUIdVUwdXix4+vqUKkKeHj+8mYMaM2d+5c7dChQ1q+fPn4uKYgD5ImTaopMdCU1aadPHmS80yJtLZgwQLNw8NDK1q0qLZ8+XJNCYSmxFpT1rumBJGfy/Dhw7WRI0dqSkA1JWx8D8qC1JT1pCnrjY+7Y8cOviZzlLhqSoA0VUnw85k4caKG91+JiqYqB01ZnHzfOB5Q1piWPXt2rWfPnpqqqDhdWWZ873juyvLWlHDzfeAYylrVlCBpSkQ1ValoqhLRatWqxcfyilKlSmkbN27Uv/0Mzt2mTRs+j7KytZs3b2qqEuX7VOKvqcpIU96Jptx8fibY1ztUBcG/R/7hGpEPeM/wXuE83rFa7RM9UmRNVWD8HfeK4zg60qbpBXAL4S4rMWFLD+4XXJ9//vnn+9KyKu/YTYIlig++wwpt2rQpW1xwu7wD1gOsP1hGcJXggsFigssEyw61P1w8/A9gsbRu3ZotQNTyNWrU4GvDUrczZ87kfUyBGwdXauDAgWyt4tq8AhY0rDFYVWhjQ7thr1692FVFumFlG+BYsOBgPeIekE+4dlgzSDcsXlwjfu/deY3mBGM79sX9bt++/SfrEH8bVo2R17AyYVXhumCdK3GlNWvW8HUgDfvB6kNTgjnG/eAYsMLhGcCahoUICxR5j2tCswWeOZ4ngFU9ZMgQvj/8Bl7F1KlT2VuASw5XWYk5t33Dykbe4Dz439w1N8C7hGtGUwfeAXNg0cLaNG07Rn4Y+Yr/kY9oMkBTgldgP5wH75bpu9S/f3+24GGV4xnCau3duzdv9wncm9GE5MiIaHqDskJIWZKkrDVSlg8pa4jdJKTBXUahQMFLnDgxv4B4GSFgEFm4qEuXLtWP9CtwsfB7uH9weVDoly1bxi6qss74A7cZAo2CgZcVbU9ow4Or+Ndff1GDBg244BQvXlw/6g9QkFGwsQ/a8XAucyAIyuLTvxGLDApRo0aNeEYb/CZt2rTfKxC0q0G40eGA88NdVlYlu374HfIATQVwIXF+fIcbbg7uB/vg2vE/jg9X12jKQJsh2i/RJor/cS34DQormjUgBMpCY3cVQoX2QHTWYR+vzmcK8gTPExUg3G48JzRT4Hhdu3bla0ITAK4d+Q83Hy59zZo1+ZnBpcczg1DBpUZeIV/ggpctW5Y/EEC4wBBX5AMqIHNwD3DxUVFAsNH8YA7eAbRF4lqRz3he+B8ijOMj35RVztcEUfRqFiKIsvIiuQ0SFeLp06dZ/NHxCDcbTXK4Z1Tgv7uzMzghbZoKrzqCfgdoF4K1gsKCQiUItoxpm6ZMDfcDsTQDEVijcA3RsSIIgn0iohmIwIWEVe9dO5cgCLaPlF5BEAQrENEUBEGwAhFNQRAEKxDRFARBsAIJOVIg5Mg5XTrq2ac3x9AJgqODIQa7du2iLh06SsiRGSKaiqyZMtOjBw/oy9evIppBDCIL8DFGAglBA4LeQ6jPu48f6PzFizxeX/iGiKZi4YIF9OHde/2bEJTcuXuHrl+/QQULFNBThKDk38//Uu26dXmIqfANEU3Bpjh06BDt2bPHxynLBCEokY4gQRAEKxDRFARBsAIRTUEQBCsQ0RQEQbACEU3BZkC4lxFyJAi2irydgs2ASXenTJlCGzdupMWLF+upgmBbSMiRlbx5/Zo+S+D1bwMz2N++dYs6duqkpwi2BmbXd2RENK0AywoUyJuP127BejNCwINlN/Bx9GVibQ2MEMJzwQTap86ddegmFBFNKzh44ACVK12GihQtysPKZMCl4Ch8/PiBVq9cRYXdXGnm7Nl6qmMiomkFA/sPoLnqhblw5fL3lQoFwRHAekGN6jegpSuWU6HChfVUx0Q6gqxg5/btlDpNGhFMweHY6LmB4ivvyiV/fj3FcRHRtJCLFy/SpUuXqGixYnqKIDgGWL/9yKHDvBw01rlydEQ0LWTFsmXcEF6mXFk9RRAcgwP799Pde3epaHExGICIpoVs3byFF+tPlCiRniIIjsHc2XMoUqRI5Oburqc4NiKaFvDmzRu6desWFS9VUk8RBMcArvmhgwepQMGCFDlyZD3VsRHRtIDZs2bR+/fvycUleDSCI8Z069attHnzZnrx4oWeGngcPXqU9iuXzzswn+bnz5/1b0HH3bt36dy5c/o3x+TOnTv07NkzKl2mtJ4iiGj6Agrv/DlzKXXq1JTWOa2eal/s2LGDMmTIQDlz5qShQ4fyGO+dO3dSgwYN6NSpU/pe38TUt+U+vArqtzbQ/+TJk7R9+3b92zdMz1utWjW27oFpul+uzRxrrnXVqlU0bNgw/dsPvLoO367NXpk4bjznWZZs2fQUQUTTF148f063b9+mSlWq2G3PIazkkiVL0rZt22jkyJHscnl4eHBFYIzs2LRpEwtrlixZ2BLs1KkTHT9+nLd17NiRrb+1a9dS2rRpqX79+vThwweaPXs2DRo0iJImTUpLly7lfU3BeWvVqkVVq1alzJkzs8UyceJEWrhwIUWPHp33gdhMmjSJj+Hm5sbXhmtCZVVF5fn58+fp6tWrlDdvXkqXLh0Lrjn4TfXq1cnZ2ZkqVKjA5zUHFQdmg0+RIgWNGTOGnqvnin1x/kqVKnHlUbduXcqmxKFXr17UokULChMmDF24cIFSpUpFXbt2ZfFYsmQJnwf3hXWMxo4dS61ataLkyZPT1KlT9bMFD96+fUvL1HPNlTu3tOWbIKLpC3v37uUC7ObupqfYJxCJw4cPsxAYcaam1pGrqyudOHGCatasyUIAwapRowYPHV29ejU5OTlRkyZNOD/gtmJCjYcPH9LZs2d5oo0ZM2boR/oBRAZiDKGGlQthxTFwbPwOHDlyhMUX4gRRRoQCrg8Cht9AKCFKEF0IJoTdHPxm5syZfH8fP37kc5rz8uVLWr9+PV/r8OHDWWhxvwD/v379mq+hc+fOXDFs2LCBjxsxYkTat28fjR49mv755x/q06cP5wEqDZzv/v37LC6wSrGPLTQrBBT37t2jd+/eUYOGDfQUAYho+gAK/fQpU9kqSpwkiZ5qn6CAwyWHW4xxxIBXHFRWHcQTYglLDFYd7jtNmjR048YN6tevH29D2ycEAcJTu3ZtypcvH/8O/6Nn1dPTk49pTpQoUShhwoRsSb569YoF0TgvuHLlCqVMmZLHNIcPH57TcFwU2CR6ni9YsICPAcHELEjm4NogrrNmzeLKwbg/UyCSsKwjRIjw/dzG/wYQSPwWVhW24Tf4G/cHcGxYl7jXsmXL8jZ8x/Xj2lAR4P7wO3gn9s76det4RcrsqvISfiCi6QN31It/QrmoVatV48Jmr0AE3d3dafDgwSyGmAyjQ4cOdPnyZbYCIaj4G6IIEYNoQUC6devGbXqwDJMlS8auLYQBLjP2wXGNpXa9a7pA22TPnj25LRVCA9GDe757924+dvHixbk5oGnTptSmTRsWHFzH3Llz2SXGgAJYojhXzJgx2ZI0B/dz8+ZNtvrwwb7m4HoNKxD/Y3VFXDPccIihkY79cA24L1iasELbt2/PzRZwy+PFi8fNFqhcUJka1wsMC37cuHFsJWObvYI8Xbp4CTmp5x4jRgw9VQAy9twHVq1cSa2aNaeDR49QosSJ9VT7AxYe3E9YawCiYrim+BtWIEQSLqmLiwvvC+tqpbp/tIMa7ZUoSNgH+6KNERYehCVWrFi83Ry4rbDuICKwSLEfRBnXA2BZQoiePn3KLnBilceZMmViYYaL/ODBA3aDYfVBqHCd2bNn59+aA3FFswHaHyGIUaNG1bd8A9cKcYT4w0WHZQiBRQWAygACiPNBmCF+EGGcD6tjQqhLlCjBVijaS9E+Gi5cOCpcuDAfA3kQN25c/UzELi1cfe+u1R44eeIkFXF1paHDh1HDxo31VAGIaPpA3Vq16eiRIzwVFtoCHYnKlSuzcMCd92t8HgQGnSwQWsG+GD92HI1WXsiVG9e/W9DCN8Q994anT57QHuVCFihUyOEEE6AShdvsn4BmWJJoAxXsjw2e69kzEcH8FRFNb0CnyYf3H6hBw4Z6imOB9j6vOlSsxbyzRbB9rl+7RmdOnabiJUvoKYIp8kZ7w5ZNmyl+gviUPYf9tksJgl9Yv3YdV3ZVq1fXUwRTRDS9AB0ehw8dopy5JNRCcDy2btlCKVOn5o4w4VdENL1gx7btdP/ePSpZqpSeIgiOAaIVEIng6mbfgzl+JyKaXrB40SKKHTcOFXZ11VMEwTFYuGABj55yLyLTwHmHhBx5QYa0zso1SUZt2rdFVLSeKgjBG7zpg/oP4KGzu/fvk55zbxDRNOPc2bNUvEhRFku8PEIg8scf3GOPoXtfMapHKqzAReV7mNBhqFmL5tSrbx89UTBHRNMMHo537z4XXCHwuXj5Ep05fZqqVq0mohkEfP3vKzmnS/fLiCrhByKagk2BYYuYhg6ThwiCLSIdQYIgCFYgoikIgmAFIpqCIAhWIKIpCIJgBSKagiAIViCiKdgMWNYXywpjkbPp06frqYJgW4hoCjZD7ty5eSZ5RMjWqVPnW6Ig2BgimoJNgLV5Tp04SRvXradTx0/Qpo0bOU0QbA0RTSHIwcJk06dOpSJubrx+ENbfadygIXVo206Gsgo2h4imEKS8f/eOKpUvT3169aY8efPS4ePHaN+hg1S3fn1aMG8+5cyajR49fKjvLQhBj4imEGRs27qV8uXOwysf9unXl1auWc3rpGMN9CHDhtKsuXOU5fma8ubKTTOmTdN/JQhBi4imEOhgaV+PQYOoZrXq9Gf48LR0xQpq3rLlT2unY1nckqVL0e59eyiNc1rq2a0HNW/alJ48fqzvIQhBg4imEKjcvn2bqlWuQhPGjSf3IkVo09YtlCt3Ln3rr2C9+XWentSkWVPasN6T2z0vXbwonURCkCGiKQQa6BHPp1xtTP02asxfNH/RQooYMaK+1WcGDB5Ey1euoBfPX5BLnrw0dfJkDk8ShMBGRFP47Xz88JF7wxvXb0BOSZ1o1769VL1GDX2r5WTPmZOOnjhO+QsWoP59+1GFsuXo6dOn+lZBCBxENIXfCqzKYsoNX71yJdVr0IDWKlfbP6scxowVi5atWMEdRydPnKCirm60WVmwghBYiGgKv41ZM2ZQ+dJl6LmyBqfNnMkuduTIkfWtfgdrcjdr0YKWLl9O4SNEoPp165HHwEG8kqIg/G5ENIUA58WLF1S/Th3q0a07r5+9bddOKlehPK//E5DkzJ2LNmzeREWLFaO/J0ygsqVK0z83b+pbBeH3IKIpBChXr1yhdKnT0Pp166l9xw4sarFix9a3BjzoSJo1ZzZNmjaNF8VD3KenOrcg/C5ENIUAY/jQYeRe2JWD0xFK1KlLlwC3Lr1EnaN0mdJ08OgRSpkyJTVt3JiaNmpMX79+1XcQhIBDRFPwNw/u3+fYy9EjR1KBggVp/+FDlDVbNm57DEwSJ05Mq9auofoNGtCaVauoUP4CdPrUaX2rIAQMIpqCn0Gc5K6dO1mcjhw5Qj1796I58+dR7N/ojvtG5ChRaKDHYJo6YwY9e/qUypQsSXNmzaYvX77oewiC/xDRFPzExw8faKiHB1UqX4GHP27YtIlat22rbw16ypQrS8dOnaQUKVJQ186dqWG9+vT69Wt9qyD4HRFNwWow/ruIqxuNHzuO2xKPnDhOqdOk1rfaDty2um0rdejUiTZ6elKWjJnoypUr+lZB8BsimoLFYLz34oWLqEA+F7p77x6NnTCeZs6ZQ+HDh9f3sD1gBXfu2oVWrl1DYUKHpiKFXbnDSoZgCn7lD2dnZy19+vS0aNEiPUkQfuXli5c0oH9/WjBvHmXJkoVGjRlDaZ3T6lvtgydPnlDHdu1oy+YtVKhwYRo6Yjh3HgU3MLT0wf0HCCoQ/AkMhdRp0lBoVeEaiGgKvnLmzBlq1bw53bxxk6pUq0oDBw+2aevSN8aNGas+YyhMmDA0Zfo0ypsvX6D39P9OevXoQZMnTSL6T2aC8g/wUrCKwNmLFylipB8Ty3gpmv/++6/+l+BfUBhN54m0J+DCLpg7j7p17UoRwkegSVMnk6u7u77Vvrlw4QJVq1SZHj16RC1bt6ZuPbqziAYHypUuQ9evXaO+yjMIGSqknipYhapvRgwbRmGVaO7cs1tP/MYvovn+/XvKmzMXffz4kb8L/qNs+XI0dPhw/Zv98O7tW6petRodO3qUsmTNSnPmzaXoMWLoW4MHb968oS4dO9KaVaspRaqUNHfBArt312HwZMuUmRI7JeF5SAW/gXWrkI9497GCgCm/iOb9+/cpa4aMlClLFg7XkMle/QYqHcwf2W/AAGrYuJGeah/s27uX2rVuQ7f++Yd69+urrr8xRYgQQd8avIA1vXrlKurSqRNbmr379qXqNa2fts5WwMJ0qZOnoFp1atOIUaP0VMFaEFKXNlVqfvcRf/wTEM1q1aopbfzG2TNntOiRImtbNm/WUwS/cOXyZS1qxEiaEiA9xfZRtas2cvhwLWHceJqqZbXdO3fqW4I/58+d14oXKarFiR5DUxWGpsRH32Jf3Lt3j9+7WdNn6CmCX1BeiBY/dhxt8cJFesoPfmn9fv78ObfBpUyRUk8R/MKDBw8oxB9/ULx48fUU2wZDIbEq5KgRI7ljZOfePZS/YEF9a/AHkQBY2K12vbq0fNkyci9UmOcCtTfevX3H4/1TpE6lpwh+ASugfv73X0qQMIGe8oNfRPPO7TsUSrkpMWPF1FMEv3Dp4iVCzIet9zKripOOHjlKGdI608H9B2jwEA9atHQJ/e9//9P3cBzQUzp85EgWz4ePHlKRwm40e+Ysu2qiunv3Dh4qxYkdR08R/MLFixfp63//UdSo0fSUH/wimteuXaNwSjRD2mmPr61w8cJ5Chs2LP0Z/k89xTbp1rkLlS9ThuLEjUu79+/j2dUdnew5ctCxkyd5vs7uXbsqC7yi3QTDX7l8BR2/FCGC/YaE2QInj5+g0EoDo0WzQDSvX7vKkx5gCVXB71xWLy+WZsBQPlsEwwmLFylKc+fMocpVqvDMRAjiNZ3KDUKB6dXwsUY0Pn369N06u3HjBh0+fJj/9g+rVq2ixYsXc493YBAzZky2uBGKdPDAfu5J3bN7j77VdkFljXcOM9r7BiaLNsIL0Vv88uVL/ttWwFLPHTp08HaylX379tGpU6f0b9/AvrgvU+bOnUtXr17Vv1nG2bNnKFr06EoLf11p4BfRvPXPLYqrrA4RTb+Dnjf0PGNuR9ORBLYAXir0Fhd3L8KznI8cPYr+GjeWIkWKpO/xgyZNmvA9ZM6cmSYhWFoHYWneieizZ88oefLk3yfH2Lx5M40aNYqXojB1cy0JaTONF7516xZ17tyZozsMIM4o7MD8eozv5ucFlobToWmlbfv2tHjZMv5evXJlGjP6L5teVuPSpUs86bMllfWmTZv4GYPGjRvT/v37+W+IJ54xQP7inUF+epdv2Pb48WN69+4df0cli9+gf8T0+SAm1vw5GeA3hnAbzwvP17ySxPsFMcW1rFy5kg4cOPBdJPH7CRMm0JgxY356Rnj/zp49q3/zHbx3sNidnJy4yeYXTHvP1YuupUjipLVt3Zq/+4S6ee5tNVCZxGmCpt29e1eLHT2G5jFwkJ5iG6BHGD3DMaNG0/LmyqUpYde3eE/16tW1mTNn8t94P/Lnz6+lSpVKGzTo13tTBUdLmzatFiJECC1dunTa9OnTtVmzZmmZMmXS4sWLpw0YMID3Uy82H6N48eKaKgCcZsqMGTP4nUyUKJHWtGlTTRUoTi9YsKB2+fJl/nv27Nl8rtSpU2vK4tBcXV01ZdHyO1ilShXeb8SIEXyeqlWraqqQaePHj9daq3cb14K/rQHHrVS+vBYnRkytTMmSmhIAfYvtoERLS5MipVa1UiU9xXeQP2vXrkXYId+jEhzO92TJkmknT57UevfurS1ZskQ7ePCgVlLdt1fguaqKlfNViZi2e/duLXv27FqKFCm0EiVKaEr8tLp16/I5SpcurSlB03/5A+VJaBkyZNASJEig5c6dW1PCpWXNmpWPYTB48GB+r6JHj87X0rNnT/5N7Nixta5du2rz58/XlDutRY0ald8NPHOAa/P09OS/LeH5s2da3JixtM4dOuopP/OTpYkeo5evXlFaZ2c9xXug5Cpzv9f8+fLlCzTXydZ5rGpU1LRZsmXTUyzn3r177JKg5gZDhw7lGhrARS1VqtRPVp+l3Lh+nVxy56HFixZRvQb1adfevZTIgkBuVZB+crVRs2/ZsoW6d+/OaabApd25cyfXznv27KH69evz76NEiUL/KMt79OjRpCoUmjhxIm3cuJEjDAzrxhRYEsi/06dPkxJHti6AcR2gdu3atFfdAyyl/v37kxJIUkLOzQ5wxdCRhWtEnsECWqasRVgxiMU8dOgQKRHQj2QZaLZYumIFDRk2jA4dPERZM2TiwH+/ACu8U6dO/Fzx6dKlC+ctLGk8+379+vF+58+fp0qVKlGbNm0sso5fKMsOeYWAbEvBOcuVK0dKHLlM49zIG+Rpy5Yt+b5hwcES9O4aevTowdZcjhw5+N3AvrhHjLpSQkrbtm3jJhocE/OuHvUi3/CbOHHikKrs2NPFO4B9kW6AWPLt27fz9Q4fPpzfkYoVK9K6dev4fapRowb17duXunXrxpYl+hQAvGZrPL5X6tph5abPkF5P+ZmfRPPWrdv8Yjo7p9NTvAeuy7hx4/jFHDt2LKkan9NwwaqWIVWT84mVpcI35+HhQbt27dJ//QNkTrFixfg3eOlRyFSNQqr2opw5c/LLBFcBGaKsHP5uDjIXhQJgsgJVq3EajgcxR2HFcfFC4DwoYDgmMh/7lilThgsUJnQoXLgwf5S18tMDswYcB2Fb6dJ9q3wgGF5dt1egEP311198DXATlNXFx8NL3bFjR2rUqBHNmzePlJWm/8JncN8T1bPAVG6f1PHmL1rIPcSWDu1EoTHaOVUtz4VCWX/8snoH3iG8qBhCivMr64G/42MIIIQNFQIm/zAHv0mYMCELHI5liCV+b6QpS4OfI46He0ETAkQWz7xs2bKcdyg0yHcUfmWl8u+wH469YMECPqY1IB9Q4WzZsZ3ixotLFcqU5bk68Z5bA9Y12rp1K4sAPqg4IEyoTLC8MUYl4T2GCLm7u5Oyprwd4ol3FHMDgMePn/D3LFksF028/3g+eJ7IH+Q9BMYQGZRdVILeGUS4d5R9CCrKP/IIx0FzD57LtGnTeBuOgfOsX7+en4FX4Pf4rFCVk7IWf3r3QIwYMbhSwfmUhcznQRr+N/bFuXAPpnMJQNTx7lrK61ev+Vhp0no9Ic1PJefevbt8cylTWRajCbFp3749KXOcawBYGRs2bOBCDdFxcXHhGgA3hdoLmWYOHg4EFdYACgIeImoljEZq0aIFWwp37twhZZLz9ly5crE1ZlpzIIPnzJnDDzBJkiRsSUAQV69ezTXSkCFD+LeokSBCderUITc3N1JuCSmTngsQ/r558ybX+mhchkXk10kc7t25y21K6JFG6IJyI6hZs2Z8TO/A/aCSAHhxIOJ4wQyRQB4hb4sWLcqFrnLlyt9fFoB2HRQe05dM7UAz1f1u5Vl9CtEglQ/IH0uBhQOLEbU/zoVKy3ih8d0rMHIIM7e3a9eOKlSowNeDlxjgf7SRwpJApw5E0KuXGfkOUbl9+zYVKVKEzweL8ty5c6Tca66QIQ5ov8N9G+FR5cuXp1mzZn23NFG4lGvJ4umsvCdcs3Et/iFjxoy0ffcu6turN0+Vd/7sOerQuROFMnknvQOCgec3ZcoUatiwIT93vOOGKKEyx3bkAa4XFQHuGd9xz3i3zSvzv//+my3SyEqocLx06S0XCDwDlHkcH+8snhnyEeIzUlWuEE2UCXgL2M8c/A4eBsoVPAcIPNIgmMb7WahQITawcDyUczwj85A2/Ma0TKMyhDcBgwHeFSoXWMLwwKAPaCvHteN3OIdRqcBIQqWOdwXXhGePc+N/vHeW8PDhAz62dzHWPw2jHNh/AC1auJDOX7r4c+HzAZjleHlRo6ARFgI3TLkwsIRQw9eqVYtvHDUZhBTfTcFvYY3iZcI1QGTatm1Lffr0oay6m1GiRAl+ALAQ8OBwTtMMxksEEUQBQuMtbrhq1ap04sQJFkyADITrhmurWbMmv2S4HggwxAE1Ol5WuL6wUmDpurq68rEhprAA8IAsAbPMrFqxks5fvsQvytSpU78XWu/AS4SXCW4F7mWheg6w4nF+9P7BIoP1nE25/KiAYJ1DWI3nhHvFNZsSSuXD5QsXuUEe06BVrVbNW4vFKyBayAtcN4QL1sOxY8e4QOB6vLNWUeDggqVVNTWeE152CCnyEaKNYx4/fpwrB4im+XFgaaNgwIXF/QKEwgGIHpqF8IxxLSikeO7IJ3QAIB15bgCRgRjgHUd+4XrwnP0LruOwOnaDuvU4fzKq9/fTZ98nukEljooDoEKApYRnjQoPXlA19YxgaeJZIo/wP/ICzxyuboMGDb53uBigzOH9civsSn169aIbt29Z/K4CHM90mCyOh/Xpjc5BvAdwnZHHXnUwQVixD8oIDBc8T/yP52uAffD8Yfx4FcaD7bC2jeMjf437xDuO64PRBVd/x44dXJ6RJ7hPfEzPBysd76BhpOE77sdUM3xi4vgJ5DFwIJ1TOhjVi2v9qSOoQb16Wt6cufhvS1EWnqbcRv5bFRRNFUpNCSg36KqXWVPqzh0CqjbSlEXH+5mydOlSbsxFhwF+qzKWG4vVi6LvoWn9+/fXlJBoyjXkRmmvQCM09lOZzh0NypLRVKHTt2qacpE19RJokydP5n3RaaEervbw4UPuKFDCpinTnz+4TqPDQb3Mmnpo2vnz5/m7JdRU+Zk7ew79m6Ypt0tTFoP+zWdUQdHUA9aUxaEpSx0qy+dGozgav9EBoSxwTVk7+i98Bh0t+fPk1WJFi67Vq12HO3NsHWXN8jO0FFWYufNAVYbfG/9/Jx8/fNAGDxyoxYoaTcuoyo+q6PQt1qG8Ba1Vq1b8N94PJeb8nqIjUYmApgwI7f79+5oSI015TbyfOeiMVcYJd8T26NZNS5sypb4l+IGymydPHk0ZXlw+fhetVX46JUzEHWte8ZNoFnMropUrXYb/thRlRvN4V6BqB03VONwThnQAcULvHB6+kWYKHvb+/fs1ZSnxy4eX5caNGz9dMPbBNgjsrVu39NSfwQsGgVCuGY8bhWAb12WAa1uzZg1fB46p3HB+6SDUSFPWG6dBMJVlxfvgejZu3Mh/WwpEqkLZcvq3b/mCjyUot0LDM0EPo7KkNGWZ8fUgPyCays3gCsSasdG4x6GDPbTY0WKoQpVKu6TyKrgB4QwMIGguufNw72rDevW1t+pd8yvNmzfX+vbty3/j/cWzVhadpixRLjcwOJR1pLVv397H+zPerRpVVWWdIyf/LfgdzEGQM2u2n6KDTPlJNLNkyKi1btGS/3ZEEG6BkBp8xo0bp6daB8QtZdJk3oYr+AYKgOnDMhdr1LCWCrA5e3bv1jKkddaSJEioDRsylMM6BMtZqDwQVDqwQlYsW+ZvocbvjWPgmeJZGx+A9wCVp6VAzE0ra8F64EU4p0rN3qJ3fG/4wJRSaPtKmiypnuJ4oC0VHVpoM0Hju1+4f+8eh1uk0NutrAXtN6ZtfGijMwVtPpa2N5vjkj8/9/y65HehkcOHU52atTho3F5BhxDaSw1Kly7NHWToBAhI3r55y1PldWjTjsO01m3wpAqVKlnVbugVRnscwDPFszY+AO+BV50vXoEolIcPH1Ky5Mn0FMEvPHn6lHXQOb3X4Ubg+1PH6BD03CVO4qSnOCZ4Uc2FyhoQXvTl82dKkzaNnmJboENm9rx51KtPbzp65AiVLFqMdqiKIqBQVhKH0KChHp0DypLi7+jkMqIH0KGFThz0oKPBHvF86ABDTKYRn4oOHERhGHHAqNTXrFnDnYXKKuMOAcT9eXp6fg+5QRQEOoZatWrF3wOC06dOU1F3N575qHa9OrRi9SpytiJ8JbBAPqGyTpXK9lYFtScePnjIHZWZMmbSU37lu2hevnSJlI9ATk6Wh6QIv4IeQkyRnyx5cj3F9oB106ZdO1q/YQOFDh2Kalarzj3+eFn8C4QO1h4sJ/TCLl26lEO8II7oTYdFhAgK9Iwjbhbih/hExFbC6kVUAELYEO8Lqxq96+gZRXgbwofQUw5hRpQFxBMREQh1Afgb4hsrViz+7h8g9vPmzKFibu68SNmS5cs4vtW0R9iWwLBdXHNqG62s7QVMkYhedu8C2xmjTXNg//5a4vgJvOysESynR9du3CZitFXZOug0a9W8Bfeu58mZS7vtTUebpaA9+Pr16/o3TWvUqBFHRqDNDr3A6PAzhrihMwttwI0bN9bGjh3LbXlKALmDJH78+NwhhiF92A9D5dApZwo6TkyjARDF4eHh4e8edDw7tA1iyGTJYsV4WJ2tM23KFC1BnLjao4e2N7zTnvh74kQtaaLEv/QlmMJxmupDEZR1dPbMWTp8/Ji/22ocmVrVa7CFtXvfXj3F9oHl5rl+PbVr05bb0Hr36UM1atXUt1oHYl6VEH63FOFyI2YTwfkIjkdcLv5HXKkRk4fJIvAOIiAeIE4TMXhos0SMLyzUNGnSUK9evTiwHPuiCQVxgRjAgLg/xORhoAJiC2GV+pX9+/ZR6xYt2d3tpqzvJk2bWDRjUFDTs1t3Wqas+vYdO5AP4cCCL6Cp6trVq3TqnPcTfLBoJkuWjD68fadcjz9p9bp1+ibBL7gWLEQxY8SgxcqdszfQttixXXs6dfIkVatRnQYpobN2bSDlqfB4ZjSmY8gb3GuMB0Z7JjraMJwR4ofBC0agPYQVooegfvD582caOHAgt1ViQAOC1tHGCRGF64Rgf7j/06dP51FTGO0F4YXYYnSK+QAKS0ATwKQJE2nkiBHs3o8eO4YKFiqkb7V96tSoyRVNQDSx/G7QrGKrhhn6NJI4OdH2XTv1lF9h0cTwohdPn1GmzJmpe88e+ibBL2A8ctHixWn4yBF6in0Bq7OHsloWLVjAozfmL15k1bhdewRtoi2bNaeDBw5wZMHCJUt+imCwBzDa6b+vfpsrITD5Q4klRvihA88WTWJcESYfjhT513k0DVg0MYTv+eMn7Fa9NxuiZXPooRlfVeG2RcIpl7N33z7UIgB7cIOCQ8pqKVuyFP2nXuxRyoKrXbcOW3fBDTQTlC5egjtRBg8ZYncrh9ojefPm9XJ2K3uBRRPjgdsp10mzg8aQt2/fKfdsDrVq2ZILtK2Bwoewl3jx7WNBNZ9A+A/GVh8/dowKFChAcxcusGrsui0Di7pX9x60YP58iqFc+rnqfx97TIUAw95F86cRQfbAq9evtCZNmujfhN8NeqJHjRihJYgdh5f13bN7j77Ffrlw4cL35Xox4farly/1LUJggPHj9ozddZN//fLVLizi4AKm1OrQqRMtWLKY8x3L/I4bM+b7cgj2BLyAlStWUJkSpXgwx6gxf9GYceN8bL8SBHMktkiwiPzKPd9zYD/lzpOHhg72oJpVq3E4kL3w+vUbat+2HbVo2ozix49H6zduoBp+6GUXBBFNwWIwGmbV2jXkMWwoz/GYM0s2jmu0dTCJct6cuWjZkiXUsHFjnkA4aTIZoy34DRFNwSrQg4610Tdt3cJLPlSvUpU6d+z408QZtsSEceN5fP3nz//S0hXLaeDgQf6aW0AQRDQFP5EhY0by3LyJKlWuTHNmz6aKZctxcLytgCB7jM4a1L8/Zc+RXYn8Vp7lSUa7Cf5F3iDBz2DdGO5MGTuWZ3dCXOeyJUv1rUHH3j17qHD+Avx/+86daN7ChZREJqIRAggRTcFfwF1Hhwrm6URsaptWrahpo8b0NgiWc8YQwlEjRlKl8hV4KOYGZQl37dbN7kb3CLaNiKYQIGDs+FYlnC1atuSwnhxZs/GqkIEFwomKurrR8KFDyc3dnY6dOmmT814K9o+IphBgYLRQj969uIf9ixIxzEU5Ydw4fevvY/26dZQudRol0ldo5KhRNGvuHJud91Kwf0Q0hQAFPdP5XFxo284dlD1HDho0YCDVrV2bnj19qu8RcGCm8t49e1LjBg0peowYtH7jRqpdr26wGeop2CYimsJvAWuTL16G+R070u6duyhPjpw8CUhAjea6cf06VShbjmbNmElly5WjfQcP8CxdgvC7EdEUfitdu3fjDpmPnz5RqeIluKMGk2X4FczFuMHTk/Lmys3LW4z/+2+aPG2qvlUQfj8imsJvJ62zM527eIGKl4BojqCSxYrz/I/WgvHujerXpyYNG1Hq1Klp74H9VL5CeX2rIAQOIppCoBAxUiSaM38eeQwdyov4ueTOQ2vXrNW3+s7Rw0eoqKs7bdq4iZq1aE4btmymxIkT61sFIfAQ0RQCDYzGqd+wAa1ev45ixIhBjerV446cVz5YnQglmvz3JKpcsSK9e/eWZsyeRb369Pm+vpAgBDYimkKgkylTJtqoLMWy5b915FQoV45u3rihb/3B40ePqHaNmtS/b1/u5MFv4OILQlAioikECVgWZNrMmTRl+jS6euUqueTJS6tWrNC3Eh0/dpxyZMlGO7dvp559etPqdWspdpw4+lZBCDpENIUgpWSpUhwulC59emrVoiU1qt+AF3YrX7YsRYkamXbs3UMt7Xy9JSF4IaIpBDmJEiem5atWUsvWrXj99RnTpvGyvJuVlYn1zoPjgm6C/SKiKdgEWBG1R69eNHPObBo6Yjj9PWUyxY4dW98qCLaDiKZgU6Cjp36DBmJdCjaLiKYgCIIViGgKgiBYgV2KpqzxIgj2i703vfzh7OyspU+fnhYtWqQn2TavXr0iV1dXKlSoEE/e4B/w8PwyBjo48ubNG5t4mTELUlBex8ePH3nWd0cHI7E+ffoU4M8Co8IwYcuuXbv0FPvD7kQT3Llzhx9oQCCT1X4jQoQINiGax44do3379lH79u0DbBo5S8H5woYNS6FDh9ZTHBeImy28D7aIXYqmEHw5dOgQ7dmzh7p06aKnCIJtIR1BgiAIViCiKQiCYAUimoIgCFYgoikIgmAFIpqCIAhWIKIp2BQIc5FQF8GWEdEUbAaEGh08eJBXmZw3b56eKgi2hYimYDO4uLjQjRs36NGjR1SrVi09VRBsCxFNwWZ4/vw5bd2wic6dPEWHlMUpCLaIiKZgE0ybMoWyZcpMX75+ochRolCVipWoW2cZFSTYHiKaQpDy9OlTXheoT6/evOLk9l07advOHVSxUkWaNXMmFXNzp5s3bup7C0LQI6IpBAmYHOPokSMsitu2buX1gVatXcPrBUWPEYPGjB9PI0eP5jZO14IFaeXyFTzzjiAENSKaQqCDGaqmTJpMxYsUpffv39OiZUupV58++tYf1K5bh/YdOkixYsak5k2bUucOHent27f6VkEIGkQ0hUDl1ctXVL50aRrQrx/lyZOHDh49Qrlz59a3/kqsWLFo3+FDVKduXVowbz7lzZmLHj9+rG8VhMBHRFMINDZ6elL+vHnp3LnzNHiIB61ev44iR46sb/WeUKFC0fBRI2nOgnn04cMHyp09B1uqgT3fpiAAEU3htwMXvHevntSoQUOKGjUarVyzhuo3bMgT3VoKRgkVK16ctu7cQRkyZKA+vXpR00aN6eGDB/oeghA4iGgKvxWM7qlQthxNnzKNSpcpo6zLtZQtezZ9q/UkTpyYVqxZTS1bt6atmzdTqRIl6OiRo/pWQfj9iGgKvwWs37R29RpyK1iIrly+TBMmT6LJ06ZSlChR9D38DizUPv360uLly+jD+w9UpmRJmjBuHH2RtX2EQEBEUwhwEBrUsF59at6kKSVxcuLOnooVK+pbA46cuXLR/kMHeZE9j0GDqUSx4vTkyRN9qyD8HkQ0hQDlzJkzlC9nLlq/bh01a9mc1m/YQLFjx9a3BjxRokal2fPn0fCRI+jihQts2XquW69vFYSAR0RTCBDgjk+dPJnKlSxFr9+8oVlz51Dvvn0pUuRI+h6/jzBhwlCtOnU4OD5atGjUpFEj6t2zlyzFK/wWRDQFfwOXuGHd+jwU0jl9enaZS5UurW8NPLJlz07rNm6gMmXL0szp08m9sCt3RAlCQCKiKfgZxEleu3aNJ9rYtGkjdejUkdZt8GSXOaj43//+R5OmTqGpM6bT5UuXyCV3Hm4q0JQlLAgBgYim4GeGegyhwvkLsHu8bsMG6ty1q74l6ClZqhSdOnuWUqdOTU0bNuIYUUEICEQ0Bau5fesWVSpfgcb+9Re5ubvTgSOHOfbS1papiB0nNq1XFnCT5s1pw3pPcsmVm06fOqVvFQS/IaIpWAw6ezAjUYmixejUyZPUt39/mjlnNsWMGVPfw/aIGDGius5+NG3mDHr56hWVLFacZs2YQf/++6++hyBYh4imYBHv3r2jwQMGUI2q1ShChAg8brx5yxb6VtunVJnSbBE7OztTty5dqUnDhvTs2TN9qyBYjoim4CsP7t/ntsvJkyZzz/TegwcoXbp0+lb7AVbn5u3bqFOXLrRxwybKmTUbXbksveuCdYhoCj4yf+5cKuiSn8OKMAwSbi46fuyZzl270BplKYcPH56KuLrSIGVBf/nyRd8qCD4joil4CSb7bd6kCXXu2IlSpkpFGzZv5gk3gsua5Lly56Jtu3aSm7sbjR8zjqpVrkI3b8qyGoLviGgKv3D82DEq6upG69auo4aNG9OS5csodZrU+tbgAyY4njpjBvUfOIDOnD5NpYuXoM0bN+lbBcFrRDSF72DY4czpM1g8nj1/TguXLKZBHoPZjQ2uYMakZi1b0Op1azkwvl6dOtSze3ee7FgQvEJEU2AQTlS+TFnq0a0bZc6alU6dOU35CxTQtwZ/0jo7054D+6lK1apcceTLlZvu3L6jbxWEH4hoCrRv717K6JyOV4fEPJXLV62kcH/+qW91HNDBNWrMXzR77lx6/uw5uRUqRHPnzNG3CsI3RDQdGKwKiaGQ1atUpTBhw9KK1auoRatW9KcDCqYB1iMqWrwYbdq2hVKlTkVdO3WmFs2a0ft37/Q9BEdHRNNBuX3rNvcYYyhkQWVRHTp6hPK5uOhbhVSpU6tKZDU1bNSI1q9dR/ly56ETx4/rWwVHRkTTwUDb5aGDByl3zpx07OhRGjxkCM1buIBChw6t7yEYIE8GDfGgJcuW0dOnT6mYexGaNX2GxHQ6OCKaDgSWoejUvgNPthEzRgzavmsXNWgks//4Ru68eejcpYuUI0cO6tG9O1WuUJG+fvmqbxUcDRFNB+HC+fNsKS1asJCq1ahOGAqZMlVKfat13Lt3j7p06UKdOnWi/fv3c1qzZs0oY8aMtGLFCv4emCxZsoRy5crl7TroGzZsoCxZslDPnj39bCVGihSJV8Hs2bs3HTl8mLKr4+3ZvVvfah1Y0rhXr1704MED/vTp04fu3LnD14d8HTRoEO+3d+9eqlu3Lucz2p8F20BEM5gD6xJCWbZUGR5DPnbieBo5ejSPw/YrEM2tW7dSkiRJqEyZMvTw4UOaNGkS5cmTh0cSgUePHtGECRP4g/0PHjxIN27c4G2nT5+ms2fP8t+mYAKN8ePH08SJE/k3EEGc56+//qKFCxfyiJ0jR47Q8OHDaf78+RxLiWO+evWKhQWjlXBe/Gbq1Km0Y8cOPq6rqyvNnTuXZs2aRRcvXuQ0vxA2bFhq1aY1LV2+nEKHCUNVKlaiEcOG8WQm1oCOtnXr1tFydRx8tm/fzvcyatQo3h4yZEjOi6JFi1KCBAkocuTI3EEl2AZ/ODs7a+nTp6dFixbpSUJwAQWvX+8+tEIVTFiBf0+ZTE5Jk+pb/c7Ro0epf//+LGSZM2emLVu2ULJkyah58+Zs8cE6OnnyJM/qDpGDYA5T4gILClZfgQIFWBxxTaZcvXqVzp07R/v27WPR7K2susKFC9OcOXOoZs2afKzjx49TjBgxqHXr1myZZcqUicaMGUOnTp3i7RCgsmXLUocOHWjIkCF0X1UUEB0IJo6H64ofP75+Rr8Da7FR/Qa0d88eXmZj4OBB9J83lq4pyZMn58ECuMeWLVuy0EM4cbzcuXPTjBkzKHr06JyvTk5O1LZtW2rSpAklSpSI26Mh+qgIhaBDRDMYs2bVKmrcsBHHH85Vllkh18IBMnb82LFjlDNnTrZ+ihcvzi45rCNT0YRglihRgl6+fEnx4sVjsUqYMCEtXryYOnfuzEJqzj///MOCCqsrW7ZsLKwQD7iynp6etGvXLhbQjh07srs6WlnMEJQDBw7wMdFUsHPnThZoCBGGSUKIIbKYwR3XhOsMKO4qlxpNHq9fv6akqtJ4++G9vsVrYDnD4sX0dKBYsWI8F+m8efN4FU/cM/ITwgqrE5Z1pUqVWCix1hHuA78xrHkhiIBoVqtWTT1PIThy69YtLU/OXFq8WLG1xg0aap8/f9a3+J3Dhw9rShC1Fy9e6CmadufOHU1Zg5pynbXnz59rWbNm1WbOnKmNHDlSy5AhA+/TtGlTTRV8TYkdfzenZMmS2rJly7TBgwdrSjw0Jaxa2rRptZUrV2pKfDXlhmuRIkXiv5XAaJMmTeJrwG+UuGq3b9/WlEuuubm5aW/evNHChQun3b17V1Mio3Xt2lX78uWLfib/oSw9bfDAgVqiePE151SptcOHDmnKCtS3Wk7lypW1Nm3a8N+nT5/WIkaMqCmR11TloalKQVNWN9+zsjK1NWvW8H5C0COWph+AVYAPan804CMcBe6Vyk99D9sCbt2jhw95erew4cKxxeef8eSY9RzWFSwfA7RropMFeWC0wT1+/JgnLMb5sfb5x48f6fLlyzwXp1cWHyxMHMdob1WiR0oIeVleJcR83ca50TGD7XBV0aYJCxrHxL7GtcHFjxs3Lh8LbjraB/1raf+rLNw7d++ytRdF3Wd8dUy/tjfi+nDNceLEYcvZaPPFeHg0d8BKRp5GiRIlQK7dHBwP7wHyCnmbMmVKUhUcfwTvEdG0ELzgcBG3bdvGImmPvHr5iu7dv8cFMX68+BQterQAL4jegfZVdNJAPNFmZwkQQ/QuR40ald38xIkTs1AGFa/V9SjLVVUCGq8/ZMvLfPgHiKiy1klZ/gHS/hvcENH0BVg4aIdau3atnmLfQDBvKovmvbLqIkeKTAkS+t1Ssgac17AGrQGWJGZfQs91YAm8ObCUHz54qCrLJzzcFOLtKENNER1Rp04dtuCFb4ho+gB6ehFKY21IiT0Adx2WXwglYsmSJqM/wzvueHOfgGBfU24y/o8SJSolTJQwyMQ7qEATCzr50LEnEIWMFStWP7hM6KUTfoAwFoSpoLAERzB35P8iRqQ3r1/TU+U6/6csOqQ5miD4xHOVL+jRR94kcXKimLFiOmT+oAwgQuHFixccHeHoSHC7F2CERnBxx30CFkTyFCm4UwWdNuiIkKVtv7njWNsd7ZfhwoajFClTch45eoWCMoGy4eiIaJqBlwKBx44CJqVA4HS8+PHpw/sP3GOLDhhHBVEQVy5f5jxAh0iy5MmCtPPJ1kDZcHThFNE0AS65IwmmASwo9ASnSJmCQoYIQbeUS3rv7j22uBwFhEo9e/qUrl75FuaD0TioSKS54ldQRlBWHBURTR10+jiCS+4T6KHGPJJRo0XjsKpLFy/Sl8+OMQ3ajevXOawsfITwvPQF2nsF70FZQZlxREQ0FQgrQi+58M3qRCB1EqckyuL6SpcuX+IYy+AKgtQvXrjAERJx4sblIYwILhd8B2UGZcfRkLdDgTjM4BhW5FcgnBjVg+Ue0BFy7+5dHpkTnCaK4NjLhw/ZwsT9Yuw4xqrjb8EyUGZQdhwNhxdNuGS/wy3HsLRly5bxB5abPQJ3PXmK5BQ9Rgx69fIlDxsNDkvbIkIAk2E8fvSIh2ymTJWKw60E60HZQRlyJBxeNDE0MiDImzcvpU2blv+Ge+fh4cHDBfHBlGiGy4fp0DDvpD2BoXSYUg7tm+hZhrtuq+PsfQPu+OVLl3mhNHT04L7EHfcfAVWG7AWHf1swlty/YO7GNm3afJ/gFpPHmo7ZRUgPxvKCCxcuUPfu3XmeRHsClliatGkofIQI7K5jKKY99a5D5O/cvs3XHTp0KI69NJ1wRPA7AVGG7AmHFk3MVOTfyTcwn2OpUqVoz549360vfDcHkx8AjK44fPgwT5Rbr149TrOG+vXr0+bNm3mmcu/AHJRYAmLmzJl6SsCAMeroKEGHCdqzYLG9efOGr2nBggV83oBk5MiRbMW4u7vrKX7j44ePHH/6/PkLHkMNwTSPvcQ5cC6c0zssuR48F8wY79PzCW6gDKEsOQoOL5r+ASNqqlSpwh0kxlo5AJalOZiI1wDLMcBKq1WrFrcb2hPoKEGHCdzaP0L8wZYbZhwPjEk//AKaEq5dv8aVVaLEiXgqN79ORAwhROWH5yf8jIimg4CODf8AawtuNywPLLdgULp0aV6mwfRTuXJlfSuxpYnf4WOvC2bBXU+RIgVFjBiJK42vX75wULitgGvCUEg0JaBiSpE8BU8xJ/we/FuW7AmHnuUIbuUtVbDsCVxztWrV+CXFpLHGeuWYWKJBgwb8N9zkbt26sagbaQDuJVZlNDD9jYHpPrDOsB5Q9uzZ2boyd12N85jOK7lmzRoaO3asl9sQDG1+DFhvprPnmF4T9k2TJg0vlWHaeXbixInv7i/+R6WF6ytUqND3Kdsw2XFe9RucP65u5ft0/zhGu3btuF3a9Ni4NkQMYAQM2qpxPfjbsDbN8wvPRZWp7/fqVT54le/mGNdj3I9xDcZ5fctf4z3B88O+xnFwbiwjYvpbTE49dOhQzme/gunyMMGNI+DQlqZ/2jNTpUrFa+HgA1ExME03/8AyM8Aa2l6lWwoKJgoQrFgsIIaZqnxqw8Q2VI5Yj8b0N2j7RKHyah+s54N7M4TZHBSyqlWrckHEhB9VlDXdqGFDFhFjGVqs54NjoUBDgAxBAijgSMM27+4DhR35Y3ocHN/0OLg+CCZEJZ3KF6xUieewcdOm74Jpyf2bYggm7s07l9yr/EJFZmAIGzCu3zivIW5eAcHD+TF1H36DD/6GiEJM8fEuf82Pi+eH9ZKMfbCCKNYfgpga1wOvAQvV+Qd7nZjbLzi0aGJyBr+CHnBD9Eythtq1a39PN/+gDdMABcNI79q1q55qObC2jAKCAo0FxdBjj+OagzRsw36GNWD8BtYGlrg19sHSusY++N+rpXa9Am2dCOGJFi06T1yLdsP169d/t15wrRAgiJtR8GG1eXUfEBVsB7DeNinxM46D5X9hdWGJCFPQ+TJlyhQOWN+oxAEiblhSlty/KaaC6Z1F6F1+4bgG6J2HIGFJFOP6sR0ibCr65ri4uPBM9bAIDQxPECFrsHjB9OnTf8lf5KmRd8D0+oy8w36meQ5BRvu8V5WHpfinLNkbDi2a/ok1NA1Yx9o3Bj7N6G26Lo/pFGwIhLcWiIMpKBBoU4QFao6xvIT5cEhTATL2OX/+PP9vYH4en4BQlipdiq08nGvd2nU/nRPhVugwQt7hg7/Nj4/CbGrZ4Z4wRZs5pjOJQ1jhjqM5Ira6F/Tum47sseT+DbCmEEQHLqupaJnjXX7hHLgeYAgSLGNLowAgXBAw3IshiMAQW+QP7h3xpubWnWn+Gljz/PyDvcbt+gWHFk17HTIHITEXAJ8wt8q8wrt9TEXAUhAsDvFZuWolCxOsQHxgvRlAdLxz+y0FEQgQPaPAIhwKVqqBYT1Zcv8GuG5cFyxQrLXuHd4dEwJv2iEGSxVuMSpTeCfIB58E1LBOvcMQVVvDkYafOrRo+mdFRrh/BlhX3MDU6jTHdJtpqBGsGmuANWFYOpZgibXh3T5+FTe4gGgzg7sYXVlGMZUY5MuXj11Lw130L4i9/KC7hRA576x8a6wtNBfgunH9aK/0qrkDeHdMw4I2BdYhjokP2j+x3WiftBZYn7BCbQ3/lCV7w6FF0z8jQgYPHkxz5szhj6kIrF69+nu6+cd0jDs6EYx0o1HfGswtHbR1oTCau4vAsErNXXf8BkIDAfBuH2usNIBCjTY8o10SllsyZQEqU4SGeHhwOyfSvXKNAUTKt+B9WJYI1cJyuhGUVeablWPJ/ZuDNkRYjGhf9ArvjulbJYN3Be2M5m60gXdtjPjbGLCAmYWwrG+mTJn0rd/AMF7vmjN+N440usqhRdMvbYkGECdD9I4dO6anEvdKGunmH2wzOHLkyPf0S5cu6amWY2oF4X8IESZO8MqKQxq2mf4G+6NTBlbu9u3bvdwH/+M73HNDJLwChRgupVFwIHqgUaNGXNixDdZWzly5OK+mTp3KLivCe0x7wrFvsWLFuBME12QOYi9fPH/BbjmEEkt1WDI4wJL7NwfihetDb7NXAm6In1fHNMB3uOKm0QC4R7x3uEfT2F5T9u7dy6Jo2qONpgKkYRvyF+KIvDKEFdeIa8U1G+3BgYl/ypK94dCiaRoeYm8gHhBxeGgjQ489CrBPsX/Yhn2wL36D9jUUMIQMGR0O5vsYcX6mbXQQCBRao/cVoAKB5YRjIh2FtlevXrwN4S04FqIEMEYZqxqiE+Oquv7mzZp9D5XBPtgXrqfpNRmgaeP69ev09t1bFkw0ifjU6WaOJfdvDoaGQlQhfoYwmgKhMj8m1lky7QhCGBSsbmw37hGYxkVCVE3bOSHIyEfT36GZA2nY5lX+4rdw/X2y0H8n9lyWrMWhg9sx9AttS34F7TiGy40CY1iSiBM0HTYJYKkZo4IQown3HoUfPaK2PCoIhdCIgQwoCwZuOcTlixIXuOexlDj45GJjFcS7yuX/I0QIdmlhcQm2Bd6PDBky6N+CNw5taeIh+6ctBrFpCGhGb7FhJQCv2pSuXbum/0WUP39+Ds9ZuHChzQimVxYk7gmCiTa2gHT5YCGmSZ2aIkWKzMc21uUxB244xBVtpGHDheNQJhFM2wNlyFEEEzi0aAJjyja/ggBjdG5gPWijAwDukjlGuxksKuyL4YambV1BjeH2oY3RcAkNF9Ynt9+vhFCVhlNSJ0qQMCF9+vcTz9MJi9IAbjrS3rx+Q7FjxeZwIv+GKAm/B/+WIXvDod1zgA4CtEn5l4IFC3KHCFx+WJGzZ8/mESMAS0VAeGA5obcVS0lg8X3hG3DX4X7jf8wSj/ZRhHSFUvmYIEFCihhJFjmzZdCWarzrjkDIWLFi9UODc6VKlfQkxyJSpEhs4WBEiX9AXB9cTYCQmOPHj3O4CiwmjD821hJHxwLcTeEHsCAxA9Fn5aK/UBXP27fvuMc9adKkVnX2CIEPhswWKVJE/+YYOLylCWAhonfXFoOGHQ1UPP99/fp9og3BdkEsKULmTIe0OgIO36YJ8NARCiMEPXDNw9jZxMyOCsqMowkmENHUQawgXA1BEHwHZcV0LgFHQkTTBMRsYny0EHQ40mw59grKiH/im+0dEU0zBgwYIMIZhGCkj4QW2S4oGygjjoyIphfgpRBXPWhANAM+gu2BMuHogglENL0B7geGENri3IWCEJigDKAsOLJLboqIpg+goRshFWJ1/l4Q8nX//n3+GzPaG1O14W8MDMBQSiPOVQhc8O6jDDhqp49XOHxwu28guBrDHjFUDNOQoUA70noogQFiMxH0j7ZMjONHHiOUBQMOkOewdCCeeBbhwoXTfyX8LjCWHGKJtasQuC4DDH5Ggtv9AIZK4oPp2TC6B2u1QEil59dvYDQVJuzA4AKsPIlllVGRG3NgAkwLB0F1cnLi74L/wTwImKkLIon5MDG9GybecKTJN/yCiKYQ5GA0FsYu79mzhwssJmhu0aIFDR8+/PsEzdWrV2dhXbZsGX8XhKBC2jQFmwCTmRgz2cMCwvR5aMvEd0xyjOV2pV1NsAVENIUgJ126dDw5B1zvpk2bUtasWXkqOEyfN3fuXGrYsCH17t2b6tSpo/9CEIIOcc8FQRCsQCxNwaaAm46PINgqIpqCTYGOnuXLl+vfBMH2ENEUbAqEbkkcrGDLiGgKgiBYgYimIAiCFYhoCoIgWIGIpiAIghWIaAqCIFiBiKYgCIIViGgKgiBYgYimYFNgej1M2CEItoqIpmAzYEYjzNaOeTTnz5+vpwqCbSGiKdgMVatWpY0bN/JUcKVLl9ZTBcG2kFmOBD+DSYExo/rNGzfU5yZ9/PhR3+J3/vvvK/8fIkRI/t+/hAsXlpI4OfFUc8lTpBDXX/A3IpqC1UAsjx09SgP69acjhw5RmLBheS2fkCFDkq0t+PHf168s5rjmrNmy0ZBhwyh9hvQUKlQofQ9BsA4RTcFqalatRtu3b2ehbNK0KdVrUJ9ixoyp3ibbs+LQsfTk8ROaP3cuTRg/nr4qEXUvUoRmzp5NoUKLcArWI6IpWMzbt2+pqKsbXbt2jdq2a0tNmzen6DFi6FttHywVPGniRPp7wkRKp975latXU4T/ybr2gnVIR5BgER8+fKD6devSjevXafzfE6lH7952JZgAywL3VNc96q+/6NLFi1Rfls8Q/ICIpmARK5Yto3179tKAQYOoStWqeqp9Uq1GderavTvt3buX5syapacKgmWIey74yvt37ylH1qwUJWpU2r1vL3f4BDa/I+i9eJGidP7cObpw+RL9L2JEPVUQfEYsTcFXNnh60uPHj8lj6JAgEcybN2/SqFGj9G8BR+++fejTp0906tQpPUUQfEdEU/CVPXt2U/z48Smfi4ueEnAcOnSI1wXCYmoPHz7kz+LFi7nTCRw9epQWLFjA8aABTarUqTn0aNGChXqKIPiOiKbgK9euXKVEiRNTiBAB+7rAwhs2bBjt3r2bWrVqRbt27SI3NzdatWoVDR8+nDZv3kwdO3bk8/6OoPSoUaNSypQp6cTx4xyKJAiWIKIp+MrrN28oRozo+reAY+rUqez23759m9ssEffZp08fatasGb1+/Zp27NhBI0aMoHLlyvH2gAZinDBRIg5FgpsuCJYgoin4CsTl8+cv+reAo0iRIpRYWbDjxo2jdu3a0bt373jCDozewSdVqlQsrG3btg1wK9cAo4XgogdFW61gn0jvueArlcpXoJcvXtC2XTv1lIADYT9or8ybNy9FjhyZLcowYcKwBZokSRJavXo1ZcuWjd1nuNIBCQQ6R5asFCduHNq4ZYuMSxcsQixNwVcyZcpEt27d+t45E5C4uLhQvXr1KEWKFBQrViyKHTs2tzXCyoS7jpmPkiVLFuCCCR48eMDT0BV2dRPBFCxGRFPwFfeiRejVq1c8BDE4sXXzZgqtXPNKlSvpKYLgOyKagq/kzJWL8hfIT1MnTWY3PThw//59GjZkCCVVViw6gwTBUkQ0BYvo3bcfPXv2nMqWLkOfP3/WU+2XNi1bcefW8tWrKHTo0HqqIPiOiKZgERkyZqC/p0yiK5cvU81q1TkkyF6pXL4C7du7l7r37EFx4sTRUwXBEoj+D3VGHvJYrncVAAAAAElFTkSuQmCC;" vertex="1" parent="1">
          <mxGeometry x="406.42" y="23" width="333" height="323" as="geometry" />
        </mxCell>
        <mxCell id="sBmEp7bvWE8VAt0zwp9F-10" value="" style="shape=image;verticalLabelPosition=bottom;labelBackgroundColor=default;verticalAlign=top;aspect=fixed;imageAspect=0;image=data:image/png,iVBORw0KGgoAAAANSUhEUgAAAaUAAAEzCAIAAAAej4unAAAgAElEQVR4AeydB1wbR9rwZ4WT9/3e3HvJXS7lvkty6bk4sROnuca9Fxz3hrtx7zbuxt00G1PVKAYMuIOpphcJAep0TLNxNx0Job6z37cro2CMMQIJJFh++4PZ2ZlnZp9n9s/0ATJZM0r+WJoGFAp5Rtr1iPAv5HIERQGKAq3WHC8ib0hdHeWS7y93K/I1Go2laZrMb5/SAFAoFBj5Y1Ea0Gq1+XnJHNZghRzBMGD+F4RA3jwgPnLqvXt3LErTZGb7mgZI3lmeRRvq62KjN1VVUcyfdPocQgjKSv83/raDWq22PI2TOe4rGiB5Z3mWfPL07sWgb1HUMip3euRJGkFqypwHDx5YnsbJHPcVDZC8szBLQggfPy4MC3sPQgvjHYoCVvrowoICC9M4md0+pAGSdxZmTBSFDx7mRUb83eJ4ByFgp/9O8s7CClzfyi7JOwuzJ8k7CzMYmV1z0gDJO3OyRifyQvKuE0oig5AaaF8DJO/a14vZ+pK8M1vTkBkzfw2QvDN/G72QQ5J3L6iDvCE1YIgGSN4Zoi0zCEvyzgyMQGbBUjVA8s7CLNcu76oqwfqFyHeDrYYN/e/hP70xbyciKgfXvN70CrGSq/EFGBDil24qnN6hnxmnd7QOpoul/91GSOUd4HacUqd5QSZEgTgFrJk3YOwYZOoC5FYK0KB/Lv8gx2ctrKj1xeySvLMwq76Kd2fskRQevpAWRUEI02qLA7ju/Sb9ppVCA2oeARYLpLHBw2dA2wySuDj7NM2gshxIm57zSKMC5SVIaipgc0FzM8AgqK8GHDYQFwJxGqVJC+TNIF8MkpOBWIRotaBZipTnUxTNCD8HKS5EklNAcQVQy4G3IyUqCw+QFkPZspFSJX+Bs+R8FAsrbX0uuyTvLMykr+LdaXskmfe8Hned9sb6E4iOd00NlJ1rETcfcPoYcuI8qHoEFswZUKMAdwsQmg9y9wnBOwgK+ZTDBxEqA+zcjjgHgqZ6wHCnHHcCXk5WEwZbFUpBchjl8HHA8AXrbayScpF7RYiTndXjSqvFS62OuiPeXmCPHcivAM+qEJUaZy7DCTntSmkiapf6eiWb9XthQb6Fadw8sgvN5sc89NHFXJC866LieisaisKyMu7Nm39pPd+4qhJsXoIMHYZMnYxMn4Js2E5hFePtWfpNK5kMSU4Cdx+BG76I9TKk5D7w2Gx1iQVuh4MLnkCmes67mieIQAjKyoHDNsrPK0FZPmK7jlLwGDypoIx8H8mRgsoSRFwACvMR2wWU3ZcoZblg7yqksnzA3GUUbhGoeQqO70VCUp7X5hgnkNWHQOXTPxuzuubwzetfOzg4XLt6JSUl5dHjxyiKtlYjhK3vSPdzDTQ1NaXevu2/z46+ciV9xYpevGg2NoEH98fHxWst1jgk7yzJdBBiUqn0jzljr19/q3U3XFUlsD+IXI8HVVWgugpIpECjfc47yVOrpZORMSOs5s9CRs1Diu6CesGAObZIqDflyu0WHkGQxwEzf6dMn4LMn0EZvAwU8pE12ylSFOeX9UdAJAFhIZSxQwfMX4ZMGA02+1HKcsDuFaCyfMCSDZSaeiCXggunkIuJeHhUBt57CyloeM6+1p2DaakjBHx+c3NzXmGh/0X/48ePnz512tnR8crVa0KRqLamRqNWQwhRFK/MoMQfSzKPsfMKIZRImxjz5hX89a+yN99ssrLq9Uv25pslb//VfdmSqqoqS/z/RPLO2IXUZPJQFK2svPfDD4MHD/44JvrDNrw7fhRJ4LbwixiguOb1Ju2GVZwXMn4tqKsDCVeRaYuQ4nt4Y9N2yn8dPGyV11L/UjUDb3vg6APqagH12BvfLwb37yA7Vluxi0G5GPnqHyDzMWK//s0baeDJE7BhptUGX7x+t2clzrvFrXmXgDMOysHJE2/KWoZHWvNO338HIaZvn6EoWlNdFRkZ6ezk6OTkdPzECTqDERcXx+VyHz16VF9f39jY2NzcLJPJNBqchiZTsHkJhhA2NDTQhv2mBAAzpwsCUDNgQPSyJdVPnlqcNUjemVcpf1VuNBoNj8cbMWKEFYJMnTosKenz1u3ZuqeAwQDcghd4l3JzwM1ESt39AYsWInv2IEcPU9bbUSoe4LzzP/XGpqNA07J3HkRBdtKAtWuR3TsRx7MU63VALgGBHpT1m5E9dshP/0ByGsENP2TLWsquvZSzByj7/cCjCuDtjDx9ZLX/DKVBAhTNINgfuZ2N805TRdm3D1Fo/8zMn/13r1g/q6vN6Sp0KAplsubc3NyoqKhrV65Qqd5BQYFRkZExMTECgSA/P7+oqKjy3r379+9LJBKtFq8Kvkppr/VXKeXV1U/VGnNsn6nUau/t2yQAQHOCnZ68xX95K/38OYvbPZPk3Ws/it4PoFar09LSRo8ePWDAAASAA/vXx8b8qzXvtFogkQFly+wQHV8UzUCuAhADcjlecVOrQUMDUKlAvghxOfpGLO8FHqEokEiAVILT8MljUPMU8XSxCg0HEdfAsOGgVgO0atBQC2QyXE5tLdBoQL0E31G5oQ6PAiH+SKUkZGrwNrW+Wqd3dH4+CoSYjn26OqBGo6mtqSkpKc3KyoqIuBUbG5OWlpqQmJjc8pOVlSkWix8+fKhUKg2yVmVpzuG9u3n5FTpmPioQFN6rMkiCiQJDCEvu3Qv75CPULGGHAaBAQMzUyQ/v3jWRBkwkluSdiRRrTLGPHz9etmzpgAEDAABWCBIS7Bke9m5r3umZ8iqHvvELIQi88MYFX4pE0RZJrcM0N4GbocjBo+CEA4hmPQ/ZOoA+Ib2n3qf1lL02nvr2rKHaaVOJ02g0Uqm0srIyJydHJBIVFhbk5OQmJMSHhoSEhARfv3olPj4uJye3qqpKqVLpG846x59JQ1SUemXgp1+d8Lrc2IzvQnr53F7fKH6btP4M37Ou29GRpe+8bba8wwCI/uyzuyJRz2qlu6mRvOuuBnsgvkqlysnJWTB//v/5rzffGDBALEqMuNX1/aDqq5FGWVvYtQaTzq1UgmfPQE09QF/qiXs5cGd8Ol+/64JKtVqtVCp99uzZ06dPnz19+uTJ48zMTDqN5uZ2wdX1vLc3Lf72bbFY/OTJY7VaRZzIAFGtOvma16yFa7fYnS6qeIJhmP26MZFZ98yBdxDCiJDAx//7v+bMu9j33r/H5XbBWL0YheRdLyq/s0lDCO/evZuUmJTBZk+cOJHc/+61ioMQarWoRqNFUajVajUaTXlZ6eXQy+5ubgcO7N+3fx+DTgu/cePsgW1O9FAXu63+4RyNVrl46M+CR2YxJAIhjAw2d97dfu+9e9nZr7WFWQUgeWdW5mg/M2q1Oj09PScnB0XxuRqWy7uoyEE3b9yora1t/z1N5qsbD9FqcfzpegbrGxrFIr7t0hk2W+z3b1k1YtTUoECvX34cySsqqay8//Dho2fPntXX1xnaIWisNyB5ZyxNtpFD8q6NQszuFkL44MGDmJjoxkYJhmEWzbuIW9+NGzNm43rbyMiI6ureHBmAECrk0t3LJ6fk1mqba3YuWXj81O6BE2zj4uJCQkJuhoUlJCQmJSamp6dlZWby+fy83NyKiora2lqVUtm6wUv0CRq/zJC8M75OCYkk70ykWKOJ1Wg06ax0oVCo+8xQFD56VBAR/g+Dxis6079m6jC6/rsTJ45/8P57H37w/srlNtevX6+vrzeapgwUpJQ/PbTBtqJRCyEsTAv6/J9/W3DQuzXL6urqxOKctLRUNjuDz+Px+fyYmJhrV69GRkZGRkSwWKySkpInT57I5XJdh6AR50iTvDPQmJ0NTvKus5rqrXBNTdKAgItyuVyfgSdPyoJCPrY43ilVID19kkgknD59GgVBBlhZffyvf61cseLevXv6V+tJB4oqKivuqYnZe6hKwnTcd4VVgGHtz+aDEFMqVU+ePCktLS0vLy8rKystLU1KSgq8GBB48aKHh0dQUGB6WipfIKiuqdZo1LqJgV1eItJN3kEA0Bcv/bw5vUM3ra87k/vI/rueLK79Ja3goKDKysrW9Y6a6ifh1yer1RZ2PtndCkp83G65XJ6QkGCFIACAd955m+rtrTJw0pyJDK9SKtTaF9bzdpyQVosqlcpmmUwul8tkMkljY35eXkTELW9v7312dieOHwsMCLh27eqdO8VKpVKrxWuRunVy7YqVSCStT+btDu9kAFCtwOg3EN01/g2EbtV2hUYuAgIpoAYAPqXr85lJ3rVrStKz6xqoqqry9n6hkYVhmEqlyub4ifjvoK12lzN1a7Sb8jUaRMj7NisjSdfoGzdu3D/+/veNGzaIxWKt1hyXNxhqM9176Zb86txNEklZacnNmzdPnjpz/MRJBo0eGno5IyPj4cOHukVyTU1NCoVCo9E0NTUtWrR47ty5OWJxU1OTbp5gl8dnJQhwfRMEWYEGAGoBqANAAYASADUxdVkGgAYAFQDNBOxmU4C8q1OaSd4ZWkjI8B1pQKlUeXl5Njc3vxyorq4uM+t4acl7SgWi26TTnH/LpIhQ/FFSoptWjaMNQsjhZJw9c6auro7FYhUWFvYN5LUxU9vpzRjW3CzLzs4OCgry9fEJDQ6OjYlJSUnhZGbGJ8T//vvvusnkW7ZsSk5Oqauru3XpYtfm30kQcJ7gXTMBtWaCbukISEDAfQQcQkA1AkoBiEOAEwX8iCCxXa3ikbxrY3HytusagBDy+fzk5ORXiaipqcnK9Ei8PTI+5sP09HeNdSUm/q+xRKWnv5ua+m5S7McJibPS0y8pFH8u9kJRVMe4xsZGNpstFotf9Zp91R9CqFar7t27l5KS4u7u/s0331AA/jOAQvn8s8/27t1rv3f7g7f+pwvzjSUIOP0GWEUBHghwRwCVoFsOAnZaARsK2EnU5tIBOEtBqAOQsRSkiKzf9dVCZkHvJZVKb968UVfX0fClXC4vLswVCeILC28b66JSD+TkRBhLWkHB7VxBUml5eQeal0qlbDY7KyurgzB99ZGu5RsTE/3TkB+/+27guHFjd2zb5u7udvPmTfezJx7+5a2u8c75DWCPgGTiSkPAU6Ixe5wCfqQg1a14F/cGmEfBRzb0gxgGOcj6XV8tlr3wXiwWSygUajq3dYduFhixyRLWvd/wUlCQTNbc0g/VTWm66O2PeLbWqUKh5BA/rT37j7u+vr6iouLBgwdPnjxpbJQoFAqtVtvN/rvLrcYoIAC1CNiNgCEIkk7yrv8ULEt50/r6+oSE+IcPH/ZYhp+PHUJ4KSiwSdasfXHn4R7IhlqtZrFZAoGgzabHPZC0OSTRZlOr7ozPShHg8AZYjwAGeH5FAeCDAGcEZFDAQCsgAYAFgCMFYVmB36xAJNl/Zw4loN/mAUVRgUCYzmL3mAa0GlWRmHX30VMU511Q9cPi1Axek6bH0n+eUFNTE5vNLiws1Gh6PO2eftfXpNcd3qkByKIg3hSE1nJdpSCZFHAXwdutVxFQiCBPECSHgigQEGWFhFkhBjVj9YHJ9uxrrEg+7owGpBJJdFTU06dPOxPYKGHUSpmfq93uE+ef1jdfDg0+u2H6luPejarXt0ONknprIbrhi/z8/n6mT3d4hxFbhLaZbwxb9g1FWxy6mca6YHqEGeQgede66JLurmgAQsjjcdlsVlcidyPO03tFdts2X4lm0x0Pjp2x4X7tn8s5uiG1K1ElEgmLzcrOzm7TxOuKLIuN003eGYStLgcmeWex5ctsMo6iKNXLu/XqsZ7JGqpVp4b5b9m0dej33wsqe3MlP4bPU2tmsVmZmZmtV5X0jB7MJBWSdyYyBLl+1kSK7YpYFEWDAoPKyiu6Erm7caBGXnfMdsm4uRubZbLuCut2fLVanZGRwePx+ifySN51uwS1L4DkXft66XlfCGF1dc258+d66QuHKKY6dcR28aZ9TbJ2VnT0vEJkMllGRkZ+fkGfXH3RsT5J3nWsny4/JXnXZdUZOaJGowkNDX30+FEv8u7k4XWLNtqZCe8wDJNIJLoRW60hK/mNbJjeEEfyzkRaJ3lnIsUaLLakpDQmJqYXp2JATJOWFHn0zDnz4R2GYY2NjSw2SyTqXwvOIISxkWElb/+1y4sfujwK0fmIsR9/fE8gMLig92oEkne9qv6WxDUadUxMzN27d3upcvc8HxBil4KCzIp3GIZJm6QsFiuby+1d5bTYqif+QgjFxYXR7//DbHmHAhD1++/3Skt7Qh3GS4PknfF02Q1Jubl5mRxO6x3QuiGs61Fhy/qKroswTUyFQpGRweH2J+SpNBqnOdb66XKdr3b1TMiSAVYpR4/IzGBoy6ASR/LOIHWZJLBSqWSz2cXFxSaRbohQs+UdhmEKhYLFYolEon6y4AxCWHz37vV/faBGkO7sQmwK/DVREM7YMSUFljctnOSdITwwQVgIYWlJSWJ8vAlkGyzSnHmHN2yJnVT66n55L1sLQpjDzQ4fPeruW29VI0gdsXln7/6uAaD87b+mTpok5GRYYvcCybuXi1mP+iiVypjoqPv37/doqu0lplQqGxoafHyYT54+bWho6PXGdXt5xIcvdCO27T7te54ohHfvVUQ7nOVs2JC1Zk2vX9kbNoZdcL334IGFqprkXW8aDkXRosLC2NgYc/hXyWaz19uuGzli+MIFCzZu3FhUVGgOuXrZPATyMgQCgXlm7+UMG8VHqVLJ5IrevuSd3KDMKK9sCiEk70yh1c7KRFHUxcW5qampsxFMGY7D4Qz58UcEAASAH374oaGh3myBIpPJ2Gx2tqUdbm9K65GyO6UBknedUpMpAkEI2Wx2QkKCOWAFQtjYKFm0aBFCnBy2b98+c8hVB2pXqzUsNotYcNZBKPIRqYEXNEDy7gV19ORNc3PzhQtu5rNYCkLo6ur6t7ffRhCEk2EBvdG6bQUKCvrjgrOeLKh9KS2Sd71mzbi4uLzcXPOpRkEIBQLBF59//s033/SaUgxMuLGxMSODU1RUbD7/Ngx8AzJ4j2qA5F2Pqluf2P379+Pibrd71qI+TBuH7nw/k/6WyWRTpkxxdnY2aSp64W1esGu3DQ0NGRkZOTk5XYtOxupXGiB51wvm1mg0iYlJBQWdHQDVda6VlpYWmPonv+DQwYMpycmmTqewoKC8vFxGnC3dfQNIpdJ0Vn/fIrT7auwPEkje9YKVS0tLEhLiO7mpp1qj9rrs+e99n3zA+OD9wPdNfb3t/7apk9DJ/6fXhz8d+vFyTIhKpeq+DZRKpW6NbfdFkRL6sAZI3vW0cVUqdVZWVif3K1er1aucVoHbAIgBELRcfAC4xMUDgN/iqX/Ke8lH/8hQB789+YYK6SC8GLzh/1+MOB+VSt19MxDIY+fm5vW3zaO6r7r+I4HkXU/b+unTp2Hh4Z2p3EEIGTcYOOxaQ40HQAJx0J4/AIEAXAQgrRXgcgDwfzG8DjdcAFIByG4VsgMM6R6JAIgEINGQKK+V+XIAMXiP8Y+cIuP0vkkkUg6HU1xMDl/0dKm2lPRI3vWopVAUxsfdLiws6MywrEaj/unYTyD3ReJkA8QdgNEAHAJgP0DWAMQWAUKAX2IACgA4QnBNCICI8BER0eMAOANAcitRQsKtCyMgootafosJRx5AdiGIKwC8FuE6UTpmiQn5ejLqUtdJaPNIJ+1l0ul9+ODEuRPGOp0HH77g4LsiG0tgj5YPMjETa4DknYkV/KL4Z9XVAYFBKKp90budOwihVCr9wvFzkNMKUgKcZQgdIFsBKAQ4CvnA6msKiAXgLACbAbgCKLYIyCTqfUcAWA2QAwge5RACBgLkNMAf8QGIBsAN4JK9CD7mAhAFgDsAcQBsB+APgATi6KTspiAeCB4+BICFABwDIIPAXDgAKwCyFwHxuBBkGwKCAWKDABeA+AGwFCAnELz1nQYQewTMI2qjrVmpJx3hoJRRtu3Z1pl/AO2oqT2vRkkji8Xi8fjtPST9+rUGSN71qPndLlyoq2/oTJIQwob6hn87fdIO72gA2QRAHlF9CwHI9wiIAGA6AA44GQd8bAXSATgMkPkIuAooEynACYAgAJYBENbS1L0NkNU4yJAFgPIpQTQaAFsAsAWADsAtgKxAwGVA2UNB3BG8SfszAL4AWQvABYDEIOAHAC4BxAVBNiEgFVh9R0HWAxAAwCQA1gNwHVCGU3CeHgLgKAARAFmGIDQilRdJp+uRpJQbmXfECWfy9PR0LpdH1vI6U9j6TxiSdz1n67LS0qtXLncyvY545wbAXwD4J3ENIbrYbhG0igDgDhjwCcG70wCcJmpwhwFYhyMMx1lSS1UxCSD7EMAgEDYWhxfeNN6GINYI2ATAToDMBcgOQDlAQTwRHFs7nrdwwR28AjjA3gpvLKcBZBUCboEB3xEpsoi6oTeR6FYCndYArCGk2RA4LmhJ/UXqmYJ3GIap1Zr09HShUNhJhZPB+oMGSN71kJUVCoW/r0/nj6foiHd0gOwC4CEA94lWrQCvQ1G2Ikg08gLvzhIN3nZ5xyNqagsR5DBAtiNgLVEFcwfIIoBcwNukiBvRNLYjeHcUgI1EMzaRGPTYBaz2UvDuwlScd0gEwbtsgFcqdwBAJRLdhkMWWYBQTiG4NE+i4dx6iLkV8kzEOwzDmpqa2BnswsKizqu9h0oDmUwvaYDkXU8oHkKYwcng8/md76V6De90ANJTIwIgLbyz+icFH7E9RfTo5eINW7x+F020Z2kAZBGVLCHewkV+Q4A7QOIA+IqojiUBZBUABwFwJLoC/QBlL9F/FwGQsQCcA2AlAE4AuYaAccTtHoKDqWDAQCt85Lc177YSEvYRzVsHwu3QanxDn23CYTreYRjWgC84yygsLOonuyL3RGm25DRI3vWE9aqqqqKiIqurqzuf2Ct5xwP46EQg0cDUgyMdIJcQhIXgnXqHCajdJHrrRABcI3rW2AC4EuMGmS2NyjRiyOI2gaFjRINXhLMMH2HYT4xd8AESiuDjGCIAaAAcAMAFgBSi05BGYNGeSEIMKA5E31w2AMEAxBDhgwEIJUY/TuItZXwshduSrj7PLQ6T8g5HXgO+RWguvlS58+onQ/ZNDZC8M7ldURTNyspis9kGtapeyTv93JEWXuC9/rrZJ7opJrr5H7oZKgKCPrqxUf3UE13El6Po5IiJDjh9FJ1MIeGpb5Dqb/Up6mTq5qPoE9VNUskh8tA6ty+6Tc073UbwaWlpRP3a5OYmEzBnDZC8M7l1qqtrYmNjnz57ZlBKHfHuRV78ue7CMv17gHcYhimVyrS0NIGlnZdqUJkhA79WAyTvXquibgWAEBYVFcXFxXW+506XHsm7bum9vchyOX7CGbHg7PXzH9sTQPpZvAZI3pnWhHK5/FJwSFOTzNBkSN4ZqrHOhJdIJGx2BrngrDO66pNhSN6Z1qxJSUlda0N1l3e6Jbe6/rU27Vxd157+kb6nTxeszVO9p96h79Fr7aOXpvM05HfPtGf1Ztbtl1dQQC4406ukHzlI3pnQ2BKJxMvTw9CWrC5D3eIdlxiK3QrABnwaChKCgMWEOxwADkBsAViFzw1GYvFhU2QHsexsI74uAn+6E7/FF1rcINbhEovSwApi8QYfn5QHVhGT9Y4C4E0sbrMnJhWvACD8xSHjTiOvh3lHjNg2kFORTVjuzVg0yTtTGQc/u/rSpeoqw4Yp9LnpFu+yiVkpa4gFFbMBZRoF3ylgNzGxbgOwcqIANkDOI5RjCHIOgFnE/JVwfNIy8ABgEYG5SGKGSiixZCKR2ChlDkBuEqtoffFZKchMYq2YIwDHiZl314n5fZyW9Wqdhh0QgJ7nHYZhMllzWno6j8cnJ6noi1x/cJC8M4mVIYR3794LDwvvWuUOw7Du8u40sSFKPgDbCNLlAMpZYm7dFwC8BZB38d9gIkAuEZON/wcgh3A4UqIQZDB+ICOyl9hMpQAgKQg+/XgqAP8ByGkEn7qcQFTrzhMT61YA8N8A+Qd+gUHEurTWW1d1jnq9wjsMwzQaTVpamkgk7rKNTFJ0SKGm1ADJO5NoV6lUXrtypa62tsvfkhF45wBAG94dQ5BhxHrbIqIilk7MH04G4DagzEPAEmKXlDT8FszFd0kB9gCMBZRDFHwi8WyAeAFgQyzV4BI7oBzE16Ih3gi+U0sewUfDYddb9Tud1ZuaZBkZ7KIicsGZSb4CMxRK8s74RoEQ5ufnsdLTlUpll6VDiDXLZF+c+rLt/iidqTRlE0saXAje7QZgHz5bGHEk6neOAN8U4Byxt91JYuGENbH04iBAiC45ZClxexgg+wHijCDriKVjhwGYQOyJshMAOyLATKLJfBFQliP4/iv2xKKx1juPdiafRBikBNluZ8z9oAzSeX19A5vNLi4u7vJ/JoOSIwP3rgZI3hlf/zKZLCEhvqKiopuiIYTTj818YSf3TkKER9TUYom1X+HESIKIqJeF49U6vEbmgg9oIOnECIMfsVDMCyCJRKUvkLj1AEgCAtjE9lAuxHZSl4ldCZwRxIXYa2AbACfx6MglBJwnlqYldmm8gg9APKAH0XqxH62+vj4jI4NccNbN4moR0UneGd9MxHE8Cd2p3OnyhB8IWyB4y+1/uoI8UcsqLjFBPd0aL92CMCGxhUnrxWG6rfR0MBUSjVP9JqM5xK1uZZgA4LtFjQPINACscU49X8qWS6w261JjFgjBCK8Rj6seG98MhkiUNjURC84EZC3PELVZXliSd0a2mUwmi4uLq6ysNIpcCOG121f/7vI3fJNh3crWHAIuvfVb2GoEtpt5EOO7JQ88/y23gGsOm5eo1fjwhUAg6MWaplHKDCmkAw2QvOtAOV159ODBg5s3bnQl5qvjlJdXrN+3Yfqe6VP3TjX1NfiPwZPsJpk6lal7p87aM+uEy6l7RvrH8GrlGfBELsd3RS4sLNRqyQVnBujNgoKSvDOmsdRqta+vT319vTGFEnNTUBSFPfJzOTRUpVL1SFJQ907G1VU3pfRq4YAAACAASURBVDU04Pvl3blzR6MhkddNXZpjdJJ3RrMKhDA7O/s2vjWA0WT2sCB8jnRQYJOsuYfTNavk6urqORwOueDMrIxirMyQvDOWJvEdhzzcLshkBm8NYLQcdFsQyTudChsbJSwWSygUkcMX3S5T5iWA5J1x7AEhvBURWXKn2By63rv8SiTv9KqTy+XJyckikchya+v6dyEdeg2QvNOrolsOqUQSEhLc/Tko3cpEtyOTvGutQrVanZycnJeXR9byWqvFot0k74xgPhRFI27denD/vhFk9aoIkndt1C+VSlksfPWFQXvxtxFC3pqPBkjeGcEWDx88SElKkjQ2GkFWr4qAEAYFBcqa5WSNRm+HhoYGDodDLjjTK8SiHSTvums+hULBSk8vLMjvrqDejl9TU52Xm3vm9Gkej1uQn9fY2NDbOTKX9BsaGlgsVn5+PtmXZy4m6Wo+SN51VXMt8R49ehQVFaVQKFo8LPVvWlr6jKlTPvnoo8EDB06bMqW8vIKs5eltKZFIklOSRWKR3od0WKIGSN51y2oqlSo2NraoqLhbUswjcll5+cQJ4xGA/4wdO4FcY9DGLCqVKikpiRixtdgJlm1eqf/dkrzrls1raqr9/Py7JcJsIqtV6k2bt77xxhsAAD8/P7Lt9rJlmpvlLBaLXHD2smYsxYfkXdcthaJoQGBAWVlZ32j3oSgMDg55/733/vv//M+jR4+6rpc+HVMikWRkZJSUlJD1X0u0M8m7rlutpKTkUnCwRU8wbv3yEGL3Kyt/GDRolvXs1v6ku40G6urqMjIyioqK2viTt+avAZJ3XbQRiqIMBr22tq5vVO50WtBoNKtXr06Ij++iUvpNtIaGhrS0NLGYPPvCwkxO8q6LBktOThL3udE6CGFmZpasqamLSulP0Zqb5eTwhcUZnORdV0ymUCiuhIQ0GHvfp65khYzTexrQaDRJSUl5efkoSo7Y9p4ZDEmZ5J0h2iLCoiianp6ek5uHkkOYBiuvr0XAF5yxWcR+eZq+9m598X1I3hls1ZqamqSkpCdPnhock4zQFzVQV1fH4eAjtn1m5KovWun5O5G8M8y4Go1WJBJxOBlk4TZMcX06dF1dPYvFIk44Ixu2Zm1pkneGmae+vuHq1atNZI++YWrr+6GbmpoSExPJ/fLM3NIk7wwwEIRQJMpJTk4hO+4M0Fq/CarRaBITE8lzbM3Z4CTvDLCOQqFwOXeu5yfcoSiqVCql0iZJH/qRSptUKnXPK9MAexseVCaTpaen3yFXXxiuup6JQfLOAD3fCg/r+f/eKpWKJ8qLTBNcicu8FMXqM1dIbEZ8hqjwTqlKpTLABmYftL6+XnfCGbngzAxtRfKuU0aBEJaXl4cEB3cqtPEC4RsOX492vMI5FXHXLV3ikdHskSHzYMsIR3Mnfr825GsDdCaVroRxZ0mPX8t3CE5ic8V9DA11dXVsNruwsNB4BYGUZBwNkLzrlB61Gk1gYEB1dXWnQhsvUGxc/IkrPKYQY/AhU6g5n/jwVHiZ0+1HDJGWwYdtLwH0Ean0nkwB6hL7yJun0ft4ZjS6pNTpbxl8rWP0IypP/dxHAC+kVLumy1oFeCmJlxPtgo8QukSVe2RqmQLoyZEepIY/efqsjzVsGxsbU1JSyBFb430KxpFE8u71eoQQcrlcFiu9h89ghhDa7nPwzUEZAsyHL1u18/CPExbPWLtrxLRFY9accsvWMAQ4B+k8SOdDhgBjZj0dNfswLUeN+wswf5Hsj4Ub7NOqaS0BnMI4G5hsJhGYzodMXv20BTsdk6tpfFwOQwy3nz1v457lJ9AyBBid/1yszo0nRETUCW/9u21IXdyWRImnGJ2H51AnilmIWv8xZfvNBh8hxhBAd1a9J5XR94aA5HJ5QkJibp7Fb3z9+i/EckKQvHu9rVQqVfit8MrKHj2OB0LY2FC/wyXULwej8zGXm+zpWw45JVR6chQX2M9W2p3e5s9nCjQe7Ge07GIq/ymVq/JO4Q6asZkmfIDXB3HeNU2bvvhgVAmDW+yd+YzG09K59Z5Z9UwBRs2WenHLqdl3xkxd6ZD4lMpTUTMf0sWV648esj7L9hNoqVmN1KwyL+5Db56KIcBo3ApqVjWVW+bFracLnpOLwa+n8avpfEgTVHtl32MIMTpPwuA10LKbaZkVdF45NUtC56M07iNqZhVdUMYUaqnZElp2OS23avz4XzZdqyN4h4WUanfttetj9TtdqVKpVMnJyYWFBeRszdd/Zj0SguTda9QMISwoKExnsZrl8tcENepjCGFtbe0O5xC/HIzBx7ySy2ct3WZznLrbL+bApWzPLMnFAugYEvfLNOuR1jZDZy1d4Rple9Dh3X99O9LmvK/oOe+mTls22nrb8JnLhkyYtclfdITqO2arq5+gedWGNYPHzx02fdXHX449k/TspH/g9yMmD5214udfhs48keyb+cR62epfpy/8ZZz1nJPXmLmasb9/89WoP36b/Md/xq86Hf8Er0sKsRMBUYv2uzukytbZLn3nX0NOZMj3ewUtPuS7cKfdd2PmDJ26aNT8HUejHqzavGrQiKVjlmw9HH1v2ZadP42f/evMNf/5/HM970LL+yzvMAyTSPCju8kFZ0b9OLoujOTda3TX1NSUlpZaUVHxmnDGfvwC7wQYUwQ9E0tWHnSdsXbXxEVrp+1wPxNfMWP29JGrj6w+4TV3464Rc9afjMweNHO3fyHRziXqd1OmWG8IKfXLUe509Zpx8PJxRuC4HUx/tvD73xe4i9SMlIKfxy44k/Fk4rjfbANKLxUqbLZtmn0m+YyX4weDpqw+5bV8z4F//zz/Aq9h0tQRq30LgvJrpsy22XW5AG//CjBqauX8nedPRohHDx832nqxzfnEdcepm4+e/WKEjXch5i9u2nTqwuJToau3244/cDWgEJ64nDB51d6zqQ1BeXWDvvq4n/AOwzDdfnl37tzpk3VYYxd808ojefca/T548CAhIaHnjx9tzTumCDt5lb3JI8EzU+WXC70SC2ev37PGOXTMxD8WnXDb6ua33d1nf0CsWxL/B+sddCHeAm1pzy46nPqMmqnc4cGYsS/oBB3nHfN25DdTdjNEKJNbPWbqKhfe02GDv9odqfLJhRuP2s9zSt97cMv3M5bt8PLb6um70+MSNVcxfdbQrVHPfEWNM6wXbg/M0fHOR6Red+T8LlfGwPFbz/j7/DBpw7IjtB3nvP4z+7BfLvTlKfc60uYfZyzfZrvQS8jko0eDomeuPuicgfoUoZPG/dR/eEcgD19wVlBYRCLvNd+biR+TvOtIwRqNJizspkQi6SiQaZ615h1DgDnfzBr1x6oNXtHMglr32+IZizds9c1cvXXLmHUel0qrTwffnL/T0TleNHDKDp/8Bsaf/Xft8C5I9OSnUWP23Cy0ZwZ+9v3YU6k1K22XT9hF82KJxs+YOv1YjHd07Je/znJOr/CITZq08pS3oGnarBE478SNM2cv0vOOIcTOXIr+dcTo4dsu0lml33z00dTN59xYFT/8On5dQCEjI2++7aYVF+LW7rBd6Mlj8lCHW4JJyzfvu8o9f/PW3/7+t37FOwzDpFJpQkICOWJrms+ls1JJ3nWkqaqqqutXLncUwmTP2vCOKUC94grHz5j74af/+ezniTsuVzKF0C9XabNp14efDvx+4qajt6v989SL16778KupHs/775qt56yxT6yiZin3ePv/cTj0MPPK9AN0JlfjEpE1aMigEUv2Dhu9+mRKFZPbuGj5ss+G/zFhyepFziw/geZQQNhXg7794rd5+67e8c3H5iycvjXssY9I+seKjduDnrdn8SHd7McTZyzcG/nAm1M/a8MOG5cEphjz5pSPHDn444HDF526xchBbffusbnAZXJRphieCUn8ZeS4IQsOTJ85eVNojY8AH3ru2/13rQuIVovGx8fn5eeRtbzWaulJN8m7V2pboVCcO3fulY9N/KAN73QzOfzysJBSGFhETB8hJqMwxFhQCXaxAB/DZfChLx4AH0zQNWkDCjDdGKhfDnYxD/PJwQLydY/gxULsYj7mX4AxCTj65MKAIsw/H/PLex4goAgLLMSYQnw09mIB5ivG/S8WQj8ivH4+SkAh5iPCGELMrwDzy8XD0PnQLx8LvvM8pH8e5p+jk4kxhPBiIfTPw/CMEQL7Fe8wDGtubk5LSyu+c6fne0hMXGAtQzzJu/bthKJoYmIin8vrrXlhL/NOj5g+5ug/9TtdUauvb8jI4JSWlvWxVSXtf0hm5kvyrh2DQAifPXsWEHCxt2CHYVjP8g5vV+ovOl9Dx6tpKEM/1a7VU30wYzn6G+8wDKutxU84K75zp53CR3qZUgMk79rRLoQwLOxmaWlpO896yqvHeOeTCzcdOHU85TnyfHPVf6w96JKlOBaauj8kTzf0YSy0tSunH/IOw7CGBnzBWV4e2ZfXU18UkQ7Ju3bUXVlZGRMT09jY2M6znvLqKd5B32J07Jhf7W4/593FO/KBb33gyIOebKkHu5nknekMrlQq4+Li8vJyyeEL0ym5jWSSd20Ugmm12sTExPz8Xl722F3e8VHvjKozEXn2V4SnY+7RBdoLCU+co4pOhuXaX83z5ioYAq1H6sOT13OcUu+OHDHE7jbKJBqtF+80f/vm3x152vPJT13iH52Juk/na+k8rWtC5bk0KZ0rdYzMs78icox/TOejdK7UIbrA/proVFQZjY+vuu3C1T/rd7pip1twVnznDrngrO13aJp7kndt9Xr3bkViYoJMJmv7oGfvu8k7Jvvpiu1Hfl+4dca63Z9/++3mkOIthx2+HjRijI3dqIljR63zcY/nT1685Pelu0fPXvzxJ1/sjX2Bdw6Z0vUutBXnr49fsN0xtc6L8/iPpZuORNxbvsd+3MLVszbuH289z9Yvd+tp158nz5u+ft/4eav2XHvYBdj1t/HZlwtRY6MkIyOjrKysh3ejeDkn/cGH5N0LVlYolGlpqUVFvb9zWTd5R+PUHvCNXHs6YPkx7+ETxi1yjtp+1NHmVIgbB/WOjfh61v69VH/rLadc2Eq/Etmvg79sl3fLzt22cz61zCvL4VLY5LXuzuHpw2ctXbrv1Krjbss3bh67xnmvR8DElXZL9jlso4a7ceUk714oTJ2+qa2t5XAyS0pLyYZtp3XWxYAk7/5UHISwuro6NPSyOcyN6ibvzkUXLNjusOpE8Bb3a7+NH7nYJXL7UdfVLtc9udAzNuLLmXv3eAfM3ezomoleLNEM/fm79nnnEuuTXTZ6+bk16xZtDi13uc4aPnvlWiefnd7Xd3mHHL3KoXIeHg6Itj0TtHTj1ukHrjP18+wMadj25/asvvDV1dWnp6cXFBSQyNPrxBQOknd/ahVCeOXq1fv37/fiNBR9biCEdXV1252C8f1RDMGHbvMSx6usUXN27vDlbbCz/9dnXy13jWrNu6+n2TmFZ42Zu3ojI3XN/v3vf/ivPTFaff/dN2+8c5YjtXWm2rjE+OSjS2xtPx+zzitPwxDUWS9dPWn9eU/Owz9Wr1nlnrrnrNuUTd4OcfcW2awYvfWSfgqxQRkmeaczelOTLC4uLj+fRJ7+IzC+g+Tdc52iKFpbV+/r42M+/2AhhKt3n/XLa9lvzhDqMYXwID3yl/HL1geJ3UMuTz94Y5dX+CYmx0uAURMFszY60sQoNSl3us26dZc4S9cst095nor/Hfm4oZOdM+X7GRE7fNkMEXQNjVjE5OvWfgUUw60Hjw8eP2fL5bKL+fBiAdzswPx5zNR555P9iwzmMrEYA2MKNcfOOJuP2o3/kXVaIorC6OjooqKiTscgAxqmAZJ3z/WlUqndPL2kMpn5fHgQwqBLIa5JD3SLugyqNOGbdPJQ7ywNjYvSeSiVi9K4KI1HTDrhQ2o2MZbKh95ZavxplgZfjtbCU69MfIdkOg+PqFsf9jwiEYDK1XplqvU+NC7qlamicp9PZ9EL6aSDxtPYMSMKi4oNK7Z9N3RTU1NqamppaZk5dKr0PTWTvMNtCiHG53FTUlLMB3b6oubCvHI2XMgQKJkCLVOI9qFL65lR7xqdEx6b2MeOKNPbrmuOujr8hLPS0hJywVnXFNhBLJJ3uHLkcnmAv69CoexAU731qFkuv5WQHhSfucfZb+sp6tZTNJNeK+wct5z0NmkSOuF7XfwvJ2VlCnOlUmlv6dZs09WdcHanpMQM/wGbrdI6kzGSd7iW0lJTxSKh2c75RLXaZ8+e5eTkCARCE1+CkydPsDM4AvzHtGnl5OTW19d1poz2zzCNjY0JiQlFReQWoca0P8k7rKamNjY2tqqqyph6tUxZ+HG3QYFNsmbLzH5fy7VCoYiOjiKQ19derbfep7/zDkVRTkZGVlZmbxnArNIleWdW5sAwTKlUJSUl37lD9uUZxzL9nXdPnjy5FXGrtpZsWOHlieSdcb4qo0ppbGxks9mlpaXkiG339dqveQchzMrKSk1NNYcJxt23ZfclkLzrvg5NIUG3X15ZWRk5fNFN9fZf3kGIqVQqHx+fXjmOp5tmM1F0kncmUmz3xdbW1qamptwhtwjtnirNlHda4gdFUWi6C8KoqCh89zFjJKHRaLRatHu26P3YJO963wavzkFTU1NsbCx5qOOrNfT6J2bHOwihVNrkfO78J59++cvwMT8P+91E1y/Dx3z28edDR40zivyvvx3kTWVIpFLLbXGgKFSrNYEBARJpk0ajsdwXeX2pt9gQEMLY2NjCokLSOl2zoRnxDkKsqUkWHpOwz+sWlSu7VIKfYhVQZLKrAD92K6DQGPIJIT452Mx1R5M5PEucQAshFh4ePmLkyI8/+tfAgQPHjh0rEonJbs2ufVQmjdXUJEtLSy8rKydXX3RBz2bEO7lCeS0mxeGmoGvbbHRywaapgzlG5V6LTa6vr++CMXo3ilAoHPrbb4D4GTZ0aENDA8m73rXIq1Kvra3NyGCXl5eb7Qz5V+W81/3NhXcQQhYn++SVjK6tjTc1xTovn8bVON7KiUvnarWaXreuQRloampavXr1m28MAAAcOnSIbDEZpL0eDlxTU6ObpEKaySDNmwXvIMRQFN1x3I0pasZPrW/ZqMNCHV4cmfuVpHv37hpkiV4PDCH08HB/5523AQAFBb18fEeva8P8M9DY2JiYmFhYVEwir/PGMgveYRgmEou20yNp+Jmnf25MZKFuXzE86BufLSqwrPYgiqK5uXmff/75oEGDyIZS5z+hXgypUqmjo6OLi4stq6T1osbMhXfXrl11TrhPt/zKHb69sAizvyKKZ/HUKlUvmrZrSVtbz6J5enQtrkGxyFqJQep6VWClUpmQkFBaWkoOX7xKRa39zYV3nl407yxFH2jM6rZTP3a9MDIpS6k0zgZTxBwdaV5uHjebx+PyTXrts9t3+3acSZPgcflcLr+gIE+lMo5+WhfofuhuaKhns1kVFRXkgrPXWp/knfGbz0whdtx4vIMQFpeU+d9IcA6OPkINOUINNel1wCv4gNclkyZxhBp6mBrieiX6ZkJmWVk5WdF77Vf62gA1NTX4FqHkgrPXaYrknbnzrrCo+PTFWIeoCt8cbQAxZ/CiSX/n49MSe+DyEWucY++eCwi///AR2f30uu/09c/r6+tTUlPv3LlDKrMDZZG8M2veqdXqtUe9vTJlFjp089psUznSM15Bzc3yDsoo+aiTGmhubo6IuEUMX8BORulvwUjemS/vIMTOOLv55ho/h6/FUI8FoPHQXX6xolwxipKfqBHgg6JoVFRUWSm5k0r7yiR5Z3yaGKv/TqvV4Ocx9mneMQQYNVvm4OpJtsLa/0AN95VKpampqWXl5eTwxcvKI3lnpryDEEokjdvO+nflvG2R1kesZQjbfzUfkZohfP2kbt1BaD1Q0Qsu0+7aa0eOWrz8cXbZp66uLoPDIRecvaxAC+YdnQ91Z6Tix6S+NHGvO1P5uhNXNx+l++OzEMLa2todziEG806IHXENXHjIyym9+WVaMXOwrfZHDqc0vayx1oHpXMWRK2n7Lue9CpqtA3fTHVpO8u7lD7O7PrW1tenp6eXlZMP2BU1aLO+EmFN47h6/7D1+2fsChQ4pdb7iP+ssPgKF/fVS5ksVHKYQ88vXdvyp0zKbz8U/8MpSdPkzNkp7tsu8872Djvtl0KgVRzfQs3xEuE7oAhhcpg0tR33F0CcPmzbxP+uiaplCbVCZ1j/3udJ8c2DgHTSwFA2t0PoIUGqmdL0LzcYlli5Eg+5or9zTBBahDCEaVILqdnPwy0UDC/B/M8wc9PI9TUgZSudDphj6F8Cgcm1QsQHrZEjevfBFGu+msbHx9u3Y0tISsq9Ar1RL5Z2PCLPdvX7wH3vn7HRbvNP9629/nueVy2w55Z6aVbvhfDJN3LZB55lWMWX2sgs8lP7qVWvuiVUHArNdWU2WyDs6H3rdvPjp+G27aIFz9npf4KIMIWbv5vm3v737zgefLDsTxsiF0yb+Z3Nkrf3FqCFTVh28UYG/phBzuMGZsXDeF0PGvPXXdyaeyWBk47xbdv62vU/wv/71yf/+7b2B45Y6xZaMm7N9f2QZjYvanXeaezLKXySZs2jhO+++994nw/dEVDqHJM6ba/uPDz4dvS/M59UabqNYknf6r9HoDrVaHR4eVkKeY9uiWYvlnRhbu3PNtD0htKxmrywNPSb6g1FbA4vk7pwyD045Q1jrmfmIKYKMrAceaWVemUVuKQ/oAvT87fSxY5e4ZtbqeOcrqvbKkjAFGm/ufc/sarzex62n8p5QudV0voouKL+QUOHNKXRjPfDKVLf5Sju47c36nUg9f9aoqTuu7PEMHf3HXvvwh3552KhfvrYLK3FnPzyb+ISeo54y4T8LnW6NnWpz7Op9H9Hzfwlnr3N+nTp3/4280JIHX7/9P/ujn653oS0/7Tl6waZz3NrAvMeLN22wtg/bderUsguptDyl9dJVR+Ikmw4embT1glt6icPllJHjZx0Oift11nrnzEe+L/2n6UBdJO9aPkaT/FUoFImJiWVlZeSCMwzDLJt3M+yvM7lK78zm/S7uX1sfo6dnf/rVT8Nm7bLzv/rJ6PXUfM0Sm0Xf/DZ5xMxFHw+a7MhuWGhj/f7//Wb52SgvHkYXYOcCQ0atcvdhV0z+Y96X0+1oWYqD506OWecyZ9ep41FlE0b/PHDMoqFT5w2euGwLU/By6/hV33Bv8Y7Oh9TkzA8/+n74zEXDps/9+tdxK84nMsRwx5nTP0+YOXzexnVuyd6C5jGjBn3y87iJq066pjUyW2phZ65zFuw6dCZFShXBpYsmzD0VtdmJZuN849j1xO0eN1ecDPh1zFTro2EeMZnD5tkHZImGzTzMzG+Yu2bjoOHjhk6bO2z63Gm2+/bQLs/ecv5cWt2rNNOuP8k7k3CuldCGhgY2m11RUUEiz5J5t9lmiPWuNcd9V5/wnbPpzM7gEno897cZS5yzIDOz4KtJm6j5mhUbNy93TQsuweYsmrsu5LFHfP7oSSvdBFBXv2PmNEyav26Pf+yc9Xs/GzL7gkhmPXveDr/0hbtPn4ypmDB25MZbEl+BdPUJ92WO4TTBn/2D7X63es/e4p2PCG7at2P0/qjQciy4BDtCCxi+/KxXZu26A45n06t2nXP/atSK04mVkycMWnWJt2b/qeVnrntmP3+pM9c54xatOhRZ4Z9XPeL7zzcG5m90pi2xO/3jlKU2R84dvCaytlkz+8hNv3yl9bx1KzZvnuXI9suVr9h9cNmZq5crNaHFdXbUQPvQuNlbXEnetUKNuTh1++XdvWthe5QZXX2WzLttK4YvPbXfJ8XOj+OcVM8UQJ840ai5GzxFGJPznHdrtu6wpef4F2Lzli2wCXjqEZ8/aswKff8dTaDZetJh/Jr961zo0+fMtGWm/jB157lY0YJdJwnejbbjQDq3ac1xt6WnrlFfGgLWA66No3d4x4fUtNLBQ2cfT2lmElmlppYPHf/HlqCiDbv2Dp60aNiM+RO3ebllS6eM/XJ12DPH6xkTFtjuvlSgQ/+Z65wxM6b/Zr3ytykLJ++84J7RaHv2wpJjPpOWbP5t6pyRf6ydvPrItK0+VDF0DAp+95PfTqYrGAJ4LiJ78kLbYdPnjpi1etmpSycDb0/fePZ8Wm0bhXR8S9bvjP5Vtyuwrq4uOTmpn4/YWjLvdq6ZeeyGr0CDTx/hYwx+p3g3btIKRlHL3DQ+6hgY9sHXv6w+H3/I0fW9D7+ccjzZPVLwEu8uLD111dx5J8CYQqUv75l+BglTgNJ4T32EKiqn0Suzks6975UpZQigj+gBja+l81R0XhVTTAxDC7Ez1zlzt+49fruUmv3Aja1gCFC6qJEmknmwqxn8ex7shx6ZjQyBhMGDbqEXB8+/cFHXQ8fXuqc/Y/DvUbMfemQoGHw5Q9DAFGo7BlybpyTv2sWTKTxlsuawsJvEGtt+uprFYnknwjbsWDvt4GVfYcvUBz6kxwhGTd9yQYBR0/O+mryLmqdZunfPRj+hXwE2z2b5Sr973pz66dZ/jF973JXzfPzBJS5/1vL1+69W+GTmfvjxbyfZ0Ckid94eh5ORJeMmjdif1ETPlqw5dWGZQ5j5864NRwy4FWKOYVmL7E6cSeloVNpHhC3fsPHv735yjI3PfDRAfksvYbtRCN7tJecbmwJwL8tEUTQ6OrqsrLR/bulqqbzTbaupH158/iEJsedn/Qgx3RAhU4RPtsADizHdgANT1BKm5SPUh/HN+TMMQ4BL0EfBw7SEf62jd9qznc5eu/n3EWMXC7G2+nxJpn8BdqnkuVraldMFz5Ayre3GzdlZWTU1NVotCiFGzhd7mVNG9CEWnKXcvdsfhy8smHdd+LR6Joo58M5HDIPuQP104p558a6lElyqXbhkxdjfR21Yv97T0ysxMbFRIsEwjKzxGZFxbUTV1NRwOBn37t7thKh9igAAIABJREFUb7U8kncGVNw6+T33Pu+4qkOMiMkr1ttdy6d1epilk29n9GC6/rvkpMSPP/powIAB33z99ZIlS7Zt3lxUVNTmKyVvjaiBmpqatLS0sn62RSjJuz7IOyqrxmbHmUUngt04DXQB3kr1aVlaxxTibv2tDl46H6aQaKgKn7dqdSFbB9CT7nn4ltYu3kWgi9viow/ZGYeOdwql8pyrKwAAIQ7A/c83X0uIWp4Rv3BSVBsNSCSNUVFRpaWl/acqTfKuD/LO7uReK6sB73z9++GoQhc//zf++y9fT97okqmkJ2QPXe045ue/DZzvyBThAw50PvQTy4YO+fyznyZNXeW4/myk3akTw7b6++VjRwKjZ+0455zSFJhb/eWX/373sxHrmeXMHMyfd3/gl2//5d1/LzoS6SuGTM6dbwb+8/+8/cGcI3Fd27qqZXwWe3D/wYJ58xEAEAQpKbnTfz7CNhjqyVutVnvjxvX+M0mF5F0f5B2DV73lhOvBmwX25x0/m7TDr1xzgkkfPX+r8620T7/5fn+6+mIuZAoxOh/zzVMMHfrrQje2b7b4xxHjbJyijzo4/7rJxy8fOxwQMX2rk9Pt4k8/+s+O6/luUZmT566zC+bNnvWrjU8uQ1i29pjvofDyqbOtt1zi++c9tjngtufGs473Ymi3utfCOwghjI2N/eGHH3x9fS4FB3O52Y2NjT358ffPtORyeWJiwr179/rD6guSd32Qd15pz1bsdNh2STR/wQzbwIcMPnSLKVq688gh39Avx25glj6fH0fnYdTk7A9+WeUl1jJ4zasOXljTmneBkTO2Oe88ee6LsatWnLyy6vilSYuPbPLJ3Hby1K/W22dtOL6FkXg+tWbr0VO/L9o5fd3Rrcx4x8SGzq+607NPzzsMw7QabVpaamNjI4rCgvy88LCbDx8+Irc+NjWI6+rq2Kx+ccIZybs+ybuqFTsdtlwUrFizZL4z2z8Hc43P/WPrQfugsC8nbPW9o+cdpLOKvvh+uksuZGbX2uw8upLg3S+23gF58JDvlckbTx7wZH7488rTtx+cvlW82v7ibr+sDadDjt8qWX/swvilG1e6hG91izhzS7TmqOuMleuXuSQ9nw9kSEdea961/rBRFL17715cfII4J8dYVQ+IolJJY01VVU21xVwN9XWt1WIi97NnzxLi43Jzc6qePTVz5dTWVHdZCSTvTMK7Y9cLunn+bJf3v2MIMF39brOP2CM6/bufxv04Zubg8bPnHPShJ2V+MXazTwvv8BoWT7HD7sDXY2b+OGH+98PnbnCOdL8e9u4n3w0ZN3vI+FljbJ2d4ismzV08eMzMQSMnj1i052jE/VVrtg38feaPY6YOnbVmV5BoxQa7H8bM+HHstGHWS7dcKmV2Yudkfc1O53gV73Rluq6urqCgwMeH2eUirpva8v/P8N2976B/Ukl0qSK8QHqroMlCLmlEcTMtWuB8wbu2trY7Sng5rq6HlMfjbtl/6kZuY6jgWajgWXi+2SunqCnqjvKoCyMiIgLDDFsoYi68YzKZ7uzGLvT+tPl4zOGWKcSOXS+ISMrsznnb3eEdU6j1yZUwxWqmQHsh6fHFvPsMwWMPTrOPSOWXX//C3Gk+PHL1Dk18n5FVvGj30eXnI6k8hVvGA/+8B9Tsp75iqY8QeqTX0vn3/XPve2XV0/jQO72BxntwMe8+LbOGytV6sRqYwgcB+fdpWVXeLfsPGmSFjnmHYZhGo2loaDhw4IBc3tyFqcj4Ab7FRTucgr0zn3lnqXTD0Bb0myHEPDPkTH7dxsPORh/DWb/tQGBuw7nEahoftSCd0AXQPb3+xFWe75VYg8bxzYV3ySkpRy9ndnMjdYM+M9MF9hFhRy9lsHndaoVBiNXX1mx3umTwfu6dbkvig7O5qokTRn4zZd/8zUd/mbrq0PVHXeiA66YmQ8q0u+32vfZLbmxsDA0OLsjPN/QYmuqqqmOMGzSeqpv57PXol0q089bu7c4/0dZVPJVKdeC0m3/ea3b27/W37jgDznEVgTeiFApF61frwG0WvPv/bQ2ppHHlUc8Xqh6d/m471khvPNXa+8UJcgo60HtnHkGIrTvg0rVJHp18azofBt6BB4PzDoeIvHkK35Zpep2MbpRgVK7M4bzHa3mHYZhMJouPu52cnNz58q3Van0vh7sl3zNKVntfCF/jSe1W015X8BQKxaXrkW5JfUAt8MS1rJu3ojpTfsxov08IIS3wqkt8Zc/XL4xciIWYa+IjxtXbNTU1nYFaB2EghMcd3byyOlrDb5TM07gojYsfQGEUaQYJYQrhQf9knkDUgR5aP4IQpqWlcTgZ9+9XtvZ/lfvx48ce1xLc0uoNypXZBvbNwXae8FaplK963076FxTdcb6c6pUpN9s37XzG/PPRlftONjTUd+bdzaJ+R/QoYzW1tR4hsS6JDzv/quYWks6HNK70pE/E3cqHndH+a8OUlZVtcwzwzzP+oIqZqM415YlbULisufm1qmgdoLSsNDsrMz4+7rXLbHPEYtdrGVSuxicHC67AQsvxK6gYY7y4e2tAcds1J8/1Y+z/AT5iLKAI028rrbeCf9HzHS70Pu06mCLsoPvVurraLvRj6hUIIWRli06EcvpGc4rGQ49cy05NTtG/YAcOc+EdhmH4/IPK+6eZYc5J5XS+hsZD9cctmr+DxtXSeVrf3OYN+84+ftb18fKXTVVQXLrFOcA/X0vN1pi/HgzJocadVXU+9HZZxd1ONkZaK0cmk/H5vCtXLisUig4+fpFA4HqNQ83Snrt86Ysff/nyh1+//OHXL0b8se/mff2JQr55qtkLVh5KeKmyw9Oei8g9m2bMjj/n6IzJ60+6v0hbH7F86Y7D24OL22Vca0+cdx43qqurOnjl1lpq161Ra+LT+cevCl+7HU7rpM3XzYdUrpLG9O1MKTIj3un+V6tUKm8abcgkmxPhdz0zlB5sRfcvzwylW5qs+3I6kHDkSuGvs9b5+ftrtdrO6L3dgtiuJ4rCu3fv2mzYvepsmKnfwi292Yuj6uA1jfXIK1M5d8eFbbsPVVVVdVldKIrm5uYFh4RUVVe1qzoMw/S8c70e+NXc0+EN6lvVavrtuP/72xqffMw7S4NfXDSwXOOXg9F4qHc27kPN1jAEGFUgnTR38d5bUv2nTs3WULPxfzz4RAI+9OSo8LOiiL1m8ROd+NAzU03lojQe6pWppulGq/nQO0vjyVHRuPi0R58ceKlMy8TbAbgcT46KzsO7EQJKtH450DsLj+WNx/1zz1TvTDWeJTwhaBTeqVTq6BTu8WvivlG/Y/Ahna9xp9I7U5DMi3f6qVIoilY/e/Lo4f3uX08eP4wIv+ni4pSamlJRXvrokRFkvpyr+vpajUZjupUAKIpKGhseP3rwctLG8ikrLU5OTqbTaE+eGEfzHWXs0X2FQo6vIDNs+lRbrEEI6+sbmAxaeXl5u7Ja8S7o8xn2/nn4nggXBVXf/vibfbZ8yYpF1luOzj97bezvsw4ky8+GXB+2yG76yg3Dlp92Sqne73Dqb/94b/QaJ4c0An9iuNZ2vfUmh8mbXM/GP3UIift53O+/zj1+6PZDP/6zEcOWHb4cO2zK+Lk7zx3xDfl9xuwZ+/xpfOX56JzlO7f9+PvoJcdCvbhq59uZE5accIzMmLr5rM3eTd+NmLziAoeRJ1+4ase+G/nTZo1f6Ro1ZOKcmbv9L2TImSLoEi4cOXnZjI0OE5YfORZRwTBG/Y7kXdti1Ov3xKaPxOfQ7V8oCtVq9Yb1tm+++aazk1NKcrJcLkeJn27LfkGAqZVmRJ28kG8IURStq6uLj4vLzspSKpVtnprs1mgKgxBSqdTi4uL6+oY2Qlvz7v2f5m25cHnz+cvrjjkMnmlPy5FNnjFhzslY32LlxF9H709uPs7w/fT3JUdjy5fbrhm33cc3t376kuX7bzfpxtCoYjh//vTxm/y9+KrDVL+BYzc6ptTaM65NWrX1dFzekB+Gj9we4JVRMXb8sJFrXS4kVYz4adDii/m7nGmbfFmMzNIhv/60MvSBU1TGqBkHHW6l/Dhm8lp/MS1R/MvYmXZxDxYt2rD/eu6ECT//ZHPaOal4wswVm31YNMHDb38cvZUpsmcGf/7rtEPhpSTv9HXtPx0WXb9rU16NcgshzM/P//vf/44g4IvPPt2ze3daaqparTaKcEsXgneb3r0bExOdn5/fbhXJUl5QIBCwWOlFRUWt36I17z4YMnP1Gac1p51sDrvui6hi8GVzbRbuuPHUr0Ch493pi4EjN9IY+fDAeY9hqx0v5jVOXbx8f5RUN7xAFcNlKxas8crxzceWrF8/YqXrKvuApQe8J646vO9K6k8/zXHJUXmmVdnYHV5xIc23EFu8eoH1hWznm4nztx2cv8P5x59+WsIod44heBcWP2HDCfcsibdQMmuV7Y6rhYsXbzhwPXfyxMFrr933FcmWrt+x5lz8ubAbH/6+mynGGNlPJ68+eCS8jOTdn5jTz1cjeffyJwohtnnTRmJrNfDmgAE7tm+TSMi9N/A9hG9F3OJwMh4+fNjNpuXLOu9hHxRFnz19GhYWlpeXr0VRXeqtefel9YmgUjSgCPXLgwwBpPOb561YvCuiTs+7MwH+I7cwmUXQztVjxDqXi/mNUxctt4vADznCu/PE0GbFwvXUAkYeXLt373Abj5NXRAf9WDbHAg/cyB4yZIFrPs67FfsPr/ZI9y3CFq9eaO2ebD13/lqP2COhKb/8NGgJ/TnvnMPjpmw+7ZElxXm3YtXOa895N23St+tvPfYRNi2x3bb2XJxbQuL7X82nFkJGWvG4JVvJ+l07sBPgB3VZcP+d6T4SqVSKbyeJgGmTJ+fn5/e3nazbVewF1wuVlfdVKlW7Ty3OE0Iol8sTEhOjoqJ0mW/Nu8+n27derEIXvIZ3zNyGMSO/G7HomEOi7AXeCSCNU/j1599+9u3wL7/7ZezSQ96Zj4f8sPBl3k11T5k48bdPBv76ydc/f/vNT7PPFbgQ9TuCd06v4d352zSBYsnieR/8+4dPvh36zy8n2JPtWX2drrWD5N2rPtRDhw4NHz6MzmQIBHxNP27P6qpCl69eeVU3/6sUaBH+EMKHDx8d3n+gqalJyOe7XuPQeFqmSEvjq1+aza5iCCF+ohNfyRBhTKGGLtAw8L2aNQyhmsHH/HI0TKFKP1mPKVTpN0TwL0D9cuW+OUrfHEh4qvCGpwDShWqGACWawCqGUOubo/EVyf3y1L5iNZ2nYYq0DIGaIULpAt0JeZAhUDGEKF2gwndg5SsYInxrQjyMUMsUar0zn9H5Uhq7cOyqvUdulZPt2XaqeCTvXvVZSqXSzMxMCGEGmyUSCpQqdeu+nlfF6kv+EGIoCnk8XmxMTPWrp3FY+itDCBUKBZVGi4yIcAxOpfP/nN7RzgfTurJgoBufjEJE0TuMJZ/Oh/TsJ+PGTbU+HL58v9PMza7uLKmP2Ajz7wwdn8VHtIvwadIBRZh/Pt5+bP2OvvmvOtbuhWA+OZhvrmmmzZO86+Bz1fVSQQizs7LSWCy5HJ8V0UH4vvQIQuzZ/2PvLMDiyPJFP7tv79575+1OdsdndjJxT4DgLnEhRpwAgeASPAQI7u604y5BgrtrGxZCCIQIwSG4tFS9113Q6WDBQ2a6vvrg1Kmj/zrn1//jXV1lZWUpT1LWZJ4gmUzu6elZq83p1lzU79+/D8RgrAIyEdg1Oy2XuaqvuxkLoHDdys4JWsgCn4oxFA78LPPvYGVvVOw9FO3cFe3c5a19DOJeMc4/QdWA5iERj550oD6eQY3Ekjxy3njmv4eGehDVJKd0nHlyE+Mw+LUUHYt3S6k5AADU1dXl5OSM0ybo/ymQV43DFRYV1dTUQFNMliKlxd1QKBQvL6/KyspNK0A8FuseUwqvXi/9bi3r7byqJRaAV1MYp5t/Ft555ZYfPCKo4hmu7ROu5Yo6zHveuRRAYGnnASAJoG10uk16L6PJD+m5fgWdqjZwk5hGiIPwyjEtD9gVi2gUkab00VTXGb145vGDMkh/++Hx0xJm8W7xWsp4S6UCTU1N+Xl5f4a5KcXFxdk52UPDw2vIJgAAzM3N9uzdW1FRwZDqpjJA4xVrxTuv/KdXlZzcC1vOGyBdS95/uirOi7BVWH4W3nkXVPGK3vDGU9FEIKCGfEb8sLxvhZlj0MVb+udNguT1tNUi2qwCc29qOZ68rXDkogWmhvrI0/v7n387esnEJZu2UwO8alzLC3nFKhpVB/imFu7kFxBXcfQi0hrC7lGp+7hE2MQVnPOHUDgQQ+i7ePvaHq7z9xP7l7pXNot3S69yAAAQCfiy0uI/MPKmpqays7LS09PXkHSQhAEAQAVgvv766x9++KGiomLNw1/6d1zI5dryziO7Wuy0qheBEtQwCa8iwelKCrS7DMQ+/3KSXzlpeqcZLOBfPkV7pK8YWxM4fi7e8R+7gX5BjXpJjWrq3/5//1c7ovXU5dvXLML9a0auSUveRj575IXatk/MPAMrqyq974ozsrxNQdfWOIqIIdA0NYh3l6xiLREBP7Ld8KkfMHax5L2q6/ykfC+vLLymyzs5l/OioVfFK8Hj15QxlSE1rcInz6qi62Y3k+f9qWDxbqHSD4Lg+OhIc2N9zczV8rpzigIUF+UVzenLA0Cwt/NNZ/9H0/Te9/eQpqd2LRLJZnkFAMCbN2+CgkLq6tZlLjFtd6b8gm+3bPnqq68OHTqUl5e32aa2rAfv3Ct7tdClRvBQ67xhFI5sm1RrkfQcgQe8c+sNvBM14NlWGW/h1RSvglZtz3htnyc2iU2wCmg0drUd9p+Jd5W//euH3VyC+7gFdrOLXfbH+xW/vPPAQje0AdMIXrtz4TbymYlX2DllF+9q0DMh/ltBbe+8VzdVLPSDp4EF8e66XfT1mzdUAhrhWNAj/fkNFWM9RKLgWcmzmj6qsFyPvNemsASx2yb3bGOUXZJu3bc8bxSOrl1Cw5bFu0V4U19ZcPvSiVuy95SUlBTvKcrcM8K96HlGKLC1dyopLmb05QEAQAapwbZK1kFpTL1dE37Wxm+/kBGOkZGRxsZGNBo9MTGxTpMNqVRqU1PTD99+S5/Y+Jfjx4/RlzcsIv6NfrUevHMtbBCQtzV0sBXViISVdMia++oE4v0LmkXPiivbhep7+J2SN7ZOfXnypJCYkr+BX5iCFdw5e20av5+Jd9X8x6RRzaTIVlJYExVRDXgXvFJ4YKMb3vSBdz6RF9Q9fbF03glo++XPw7ur9pE3pG/d8S5H4QGPnOdX75too4qNIws1HYPFpe5IXFFWcQnjldJX8UjR889VtMXc9ShA1rB4t7oq8xRb6Oji/KKbtoR2cnICZXPfOzSrvQmfml9RVVWVnZXu5+kU/yQjNibl7cD7SJt7D90iAxHOMU/yRsZJubEeB37e6hGcPEza7OMbXZ2dhQUFpaVlExO09bCrk9mCvmkbUw8Pb9+27S9/+cuhQwcxaHT727XZ+G/BKJf5Yj1455JXJ6xg7pGP5z1zzy4Zf1PTySF/2NLN4xc24asaeleU1Q5xn9MKLNQ0Mec8JXdB1VDJ47Hnl63fVXELX3WvpDIGGbwKXskaWemGNWIaQSl6e9bEJ/KCxgfewYreSN1WllDx9SwcorVnK+n9d9YxNsFhXOfkzimanLx7/7yWq2My/thVZUnFh+cUdU5fvW/1uO6MrM6Ju7pn5I1Oy6lqhDTRZkfO24ZltmTpd4tUiqfYQlsH2/pXPcPDw88aq+6cO5VU0kjIDDN0gI9NTCpI8t5WUIO7WQrwi2Hb3oZbyAqcvBKZHKOhcC8+r/4Zsez4r4eycPWTlEVi+MyvoEknYWFh79rbN6BTkkqlSktLp6amPo6PqyEQ1o+tKxPr+vHOtbxfXUdT2jb4unkkkgjYePr/InTXJDTXAJmrC8t1zu3xzHlriskz8A+6eF/zfiB+TTZf+iz6HRw7YJtQDWOacQKvHnfPeeZVOowigs5plW6lw76F7c6ZrQgciKh4Z/64DomddEnGWycQYJUTNGBhKZ5Fr5zz21HYUbOwYrOItEcR+Y5ZnSg82Ta60iw83SwswzquGUkAXFIazcPTzSPTzaKrfZd4/BOLd4vUjbqqousXj1+5IX1S8MhONoGq5x2TJCo+I1Tfzv9tTQb3aRVcTW12eozyPQ1829sIawVDn0gSmRLiZuoeljdFHr2y7+irKeq6KUyLJHxJrygUSm1dvZ+f/8jIyJI8rIWjoSHamO+zZ8/S09PXIry1DGM9eOdW9FRE0dKpqNcvN/8Ap8SD1B4kDgjG9xzY8t3Je04Kxq58F2RtU16ePXtCUC5Y1TmK65ysbmjdnKUdK+nL+yy8owFrrp7FsIEWqNAUrmldbGYJCrTshJFN+joWul6Gwn/0av7HpR+lwuLdIjXmKbbQwcHm2Zv+KdKk7lUBfbvgSRJ5mneEVL5L6lMAFVddclL8fHXLq0ibe3bBWQAARHhZuIXmkCijV/ZxvN5MizLoCwmmTzMYHh6OiYkpLCz8LErW6OhYXl7eixcvFhH+xr9aW97By7sewFK9y/q1fIp8S8eRWJJhYAWcPgSJxAKhjZO6biH3PNLdykbReGpww6SWV5ycbYxNVjtqKf1QzG20BcyfjXcLpOfTjc0N8Mji3SL1isY7Z6eWnnEAAEc6G6+dOBGTV4Ol63cjPS9unToflZ6ZFoc8LSwcmlYQbSdnF5TBxLsJyV17UqsbxjbHVlIAANTW1cNgsPHx8Y6OjqioqFevXq3T0MQiIoVeAQBAwOOrq6s2oBH9ycQwHBDxeI/YNZxvTJv9S58iO71ggzETGKr58CoyzcHMiit4FRlWRYbPPK6eDjTe+a52P/flridbfbLXNwQW7xjFfa6h882LnLzc3hEaschUSmVWQkxqUdtTbFJ26SSZVJoYamJiYmVrc+b0LURcZqCLdlYlbSYHvig9H/ucQgUQNiaI4Mf9E+s1AjA3wYvYdHV1SZ6X/Mc//uHj7V1aUkLf0+lzJmx0dORJcvLqD2ZbJMvLfdXU1OQZW/zHOIiLth08ETRwCVllZwWLd8stRV+wewCg0peOTmcBoFJIJDKVQiFTyAC138RIKfxJdkKU/zUNw+au/ob6OtqcsslJCpkEbalGoZBJJNJm6L8DANDKwvzr//3fr776as+ePTk5OZ/9qwAA0NDQkJ+/pJOiNia1o6NjsOgMt5zO9VUxNqDVRo8ioB40c/BaZX8Fi3cbU/Y2eyxUKqmWkO8LgwWFBROaXpAoVACgLTjLzcsbp+9yvqkykJaWtnvXLmgH0//+r/+SlpZ++7b9s6eQTCYj4LDPngzmBBQWlbklV8Mq12bG7+fkJhZUdYt83vycOXcrMLN4twKh/TG9AAB1amqKRCJ/+AkFQCKBWFJWNrmZNsVsbW2VlDz/t7/97e9//zsfHx8Wi4XOnfjsXwUAwP7+Xm93t8+eEkYCaKdboIN8i1/7r9EkuM+CPEQ1+WFoUXra9D6mjNytwMDi3QqE9kfzQiaTX7a1Eee7CAQCBoVKSUmZ7+VnsMPjcVZWlj/88L2ZuXlxSTGRSGBORE1t3du3bz/vHk2ebi59vb2bp4gAAPA4MckC9QRW9NouodYmnripbuu4xdJjl1CLLG0384ksKildE5GyeLcmYvxSAyGRSISa+kJCk4kH5pyc7rz3WVmdk7c053218ZZnZXWO39Q4Ja11Tk6Pfn+U5guKxo7oqAJsTfOLls81VjvQ349Goj/oyJujaAwM9EdERukbGmnc191Mt86ps+f37D0gIyc/b6r0DR8mJCYODr5fK3myeLc5yuPnSMXk5GQJts42KM09+xWaQKbPmaQicV/0DaDwk86p9W6hyU+bXnwW5FEo1KTklJaWls/xSReL8/9vYAUdxbl5/lIolOzsbDFRUTlZ2cCAgInJSfpBxh8lcK1IB4mGTCZnFWGtY3BoAmMy8JdswAL+lRMwdNBSRhE33Xnbi5XWtX5HpVJxtQ224YX+FSOM2eGfpXdmzSNF4QG/0j4LeEJP3+wjWddaivOEBwDgy5cvU1OezPOOZTVHAsPDw0qKin//+99/+fHHc+fPx8TErC3gZkUIAEBucZVFWCGavvvmmpe9DQ4QXk21f1KfkZk1K5vzPv6peUcikfUdEQG1Uxv8hTYsOkzNhJ6Fy7wffr0tx8fHy8pKm5ub1zuiP0b4Obm5v23dCm0z8/XXX1tZW4+Pj69f1p42NvoklMAqJzesKK5fROga6j1z/4H+vqX8SPx5eQcAYHxiov2TOnj1l3m4wdLmfBkFlxQX5C2lKKyydr1rqVO/eWzX9t+//vvft27bcZCNW8HYraSqikwmrzLkP4N3AACkb93+y1/+8te//lVK6mp3T8+65ppCoYQ8znRNf/6lN2sQWKpbzsvAkDAqdUkz7f+8vANBUElLP6zpjww72oz8GsDG3nkDeAeCAJVKIVP7LrKzYYdACoUyOjIQHx2VnRyXmVfd/661/gVtq6jOd611za0AALzvaS/IzsjIKXzXN7iUnpd1rf+bIXAcDvevb/554cLF2NjYzs7OJVbglaUcAMA3b14jEvI8ctpnlvd/eV14tE6bonZXdPTYknXhPzPvABkdm8D6JWywtTRNav009tWEHFADKuvbbAjvQBAEKMDgBXZ2LH1PaCq595Guyo3TJ6ydQ7DxboauYQAApEV7aLmiKeQ+d0tTa0uLR4/MzDzDRiemtzxYWe39Y/gCAMDNza2ru/vdu3e5efldXd3rvQ9PS2traFqRHiwtoIaCIYIILBVR/WXcGCKIJIzZRFcFxKd39/QuvXj/mXlHvaVtH7CUDaO/cN7J61guvUCsjh2zeNdjoqd3U0Z7cGi0JsHxgWsIAACZkS7qHiEvy4J27jwkJyevLHNj916eirahjUrh6vJzxvLHAAAgAElEQVS3zr6hWZMAAHR1daWmpb8fXHexDAwMZBdVhKQUSKk9Er+hJnZN5Yu4L94zwTxOL8HW9fQuA3YgCLJ498fX7+R1rTaKJrN5Z2pgHhqeHB4SUpNgDfEuI9JF1SOEGGd1XN64ory8ory8tKSsb3RzbDizzjhbVvCDg4MoFGp8/TVfKpU6PDz8+m37y7ZXL9vaVnMXFRdzsLOnpKauJpCl+H39+u3Q0NAK5lqxeMfi3bKq4eKOp3lXPd2e7TE1sMgqJFjb2OWHOsgaOI2M9TvdvyVnDZvsKZPgO1vf1jvSWa94TRrXsZanRC6exC/o7dTUpJ+P78jo6Eb9XK1QNpOTU+3t7ZpaWl//z/+Ii4t/3rU9i+eBxTsW7xYvIct6C1CBAS2ZGzg67wDKe08Pv0JcY9ur176+Ptr3rp29dEPXwMAaHkOlULLjwq+cO3Fa8nJIcjGZsok3yF+WANba8fDw0OOEhJ7eJU22WOvIlxTe06eNdvb233/37V//8tXXX3/95MkTFu+WJLgNd/Sn6b/buPYs7RtOTU3MnFgJkMhkCn2lQGR4WPvb11OkKTJ5ikQhQ4O5JNLUFIlMWdpMgg0vHpsiQnpf3rvoqCAk4sMVm5TROTCx3ul73USMCAmAYkWiQysJzXNmfEzmpGaZ2zn8z3//91/pG/VcvHixq6trvRO2mvBZ+h1Lv1tN+VmSXwAAXr96lZiUtIIOlyVF8Md2BEzVEsp0dPT0ZE4cOH0JhULFJ2d2DqzvlrMAAGaEe6hq6frDESgUChUQVkVsBkBm4gEg0Cdz5npNZ/dVKan/+e///u677yIiIum7QzI721zfhsU7Fu82okROTEwWFhaxllusWNa9vX0+FrriBo60WT8gUIfPi4sJlZaWDoqtDPKxaekhAaSuB/oPXpOo42ODkSGuUlLXkY8LJkkr7CgAADAzyssjNHl4bIJEIpHJ0A5ppOpkuJSU1F1ljVzCSxDou3vpjnd4Ylos8sdv/rnzIF9RBZF2cDOpz1hf4ZacekYJgbLJplayeMfiHa0OAgBAIpEn1/Oqr69Pz8gkk9c3loVyMFNjVwycz+yRtug1yunnA4JTU5MUAKgqjBWUVKwmNLx92/lI/U5d+xRA7T4rLNY8CST7WasZ2rW1tRro3PNKqgGAmd6F5eQAAMCsaG9lY7vQiOjIqJiM/MIBEpCe4H9B0aCt7VV2aoD0bdln7W9vHjuR/6z2ksiJstqWnJSYsMT0obEhOZ5tsITiGnyJnI5Zee1qdyddTqo/7ZbFu3l4h8KBPgW9viUtKEKzd8Fb79IpFJ6KxL5DEpe6GAOFm0QS+lAE2tkun/cOqAE/OR9leHi4pe1teFyyiob6HZmb63Rfvy516szpazeurlP4iwSroCjr6OHb0TvYu4k7/hevrAAA5Ec7nTWwiIyM7B8YqMyPMbJDDA6PDfb1mkK8A3rOCok2jVHvHtspp2liYmJ8X/32Hb0Vbv4OAGB2lI/GI+uo2PjY2Pi8oqJRMjAy1N30/Hnz86ZglNOdmzfRkYknOU409L67d4rrqqx6QExs67veLmzS93tFTE1NHz0yvSZ1MTqznETZRM1bFu/m4Z13dousnpHIRWm+s7cELinetnmCqOoTF71gVTmKIYIfdtHBg5gapkf6cSpo2jx10D+TKCZv7l7WA52xMuvsUTSRdvAKxEE0EUThaY8MNygCLVjocdoZnhYLsw2KHvX0Ec5078whMBP2k7xrePos9EmBtkeCR353QO14cOPEOt0hjRMhjZMhjZPrFP4iwQY1jPtVjBgFlFj7BD1vfT05+eUt54B4d0Ldqr9/ICMrOy3O38QOPTQyTuOdmnTtm4mpoWZxPsHn44C6lBAyofJl6wtCRV5iPnZxjC70FmrPeoc9GZuYolDoY04gkBbhdv7qdU11DScvvxOnTybl5Nw5cbWxozUvtyg9K0393s1zskYNRTFbOS7UN7962fo8Jz2lrvXdphqOYvFuNu9QVSNKj1xvWCFgVWNoIuCaWidrjvYs6jgmftk4qfi2sY8GrNC3iooigA6xObeNvZRcUjzLJlE40D+v9a6Zr7xNsEfxJDy7RkzezK2sF178Rskp0qWYfso6jsYsp/gqGWOvu7ZRrtm9mBpQ18nPKCDvtjHsYXg9vIqCIoxrO6FuG/s9CCH6F75U9i8JIILehR33fZKdcnrRNaCOjY9H2aR1aO4dY08tNAGOpSBLu++5PNFwDrF48hI+R51cnHdV+BrH0HSfkoFpdM7xzozOL92MwgM+xf2u0UUV+LpNdWjkQtBhtqe1Z0McRdWsQBB419kV5Getb+4/NDIxMtxnqXtV19jWx9V6344Dz6ZISaHuiqo67u7u+jr3A1NLV9aBBgBgWpi7S0DixNT0VHAABMJ9zO5omnp6epoaqMnelq5qqJc+eaXxTb2WnLS1s7ujtbG6mffb9mYt+WsPzB3dXR31jExLal+u96o4Zil90szi3Wze+ee1XlKz1A0hQPoUvJrsXTISgB8UFzlxXN1NHx0kqaihFYhziEwXk9bXQ8YqmHldfYT0LHh55vr9u25R6g8Mzmm4eWTUCd21dsks5T8trQYv8iqb3nLK70kW7wVlXXjsdQ2DM1ruiOohYZ59J9Sc7rv6iN4wtchq17G1Pq/q9sAvVMYs2Dazjk/8tGs1YB2eseuAsIp/EbK4bo+QvGVo4sl7xjp+MZL3TO/CcOh07Lajp2Wd453zOhBzgLUI79ra2rxicvzKhr90kC0r/f7lQ1YBaW/fdW7ySbxzq+67lronZTVQZ+vrtiZ/eHD/wCCZPPWsrjQmJiansOhxdPx7Knl4qDs7IzE2LjYpPW9obHJlvANB8E1zXW1TG3QsH32QBOztbktKTDS3sExISiwtK3vX01eYmT0wOfmcUBITGxeXkEhsej1Fpna8aUhMjI2Liy+qqhmZmJqbkc9ow+LdbN75Zj2/pGH9ILyB0cBEYKmB+KFjoqcNkjtg5YOqjh7XHaOv37zFLal+Wdv2jKwW3/l7ytZICQ1nWNUIomLAp6zNP6dO8Ny133ftkIPVw7Efev3Q1b3I2nYUfkDloR3bBQ1Y9XsR/oP6yZ3o6ndnpVV0wms1dO79h+3sHZsw9+JeFJGkrK8h7Y618kceFrwoZx9u4uZ50irz8nVJvivqUtpWp67e2iphiC6u3i8g64Ylzbu3zyK8i36S65TSBPlC14Ix74DkPtr9uBMIrqMisB96HtG1YETrbEHRj50GkPgPzpbFnbmOMXVgyAuQthR8DrVXaRP4DAhvYgQL+JW9d/PDrOsGJOtRpalUKpkyPfgAANTBwUEEEjk1OUml7UtDpgIAY6IvzSXdZjXJgHaCZg4BAID42LiWly9JJBKFSju+j3a0KX2wi0IhkymUmZ8Q+k45FJoDZu+bwczi3ZxqXN5zWc1K0T8XjgdQeBBW3Kli5W0UWXb8mKRV5SisbFTN1U/KLvjUecmb9knGoVij4KqH4fgHzujjOm5o7ASKQAmsHUHk1vOdvqLq4vj9Himvmg8nAfqn5X3/889b2cUFLiixX7xP453AQfOisQBc3xUFdf1wgn/1oHVIgfi5c//87agGugKelv4fCR1VI8vLRs5XdTzEj/E9yBs9LXn6gnWKcSj2YVCFQXANKhN7WEgNtgAmFuLdu3ft/vH5XkXvIZS4pdYJifL/498/fPPdj9/88NuRU3LO5WToFaIKdI0KEbzrgaqdATedcWgC8NA31DyhBsZExmkwzYXgLBvmR8iMB+0TSq8aONrnDKEg3s1yw/zIDMS59h/boImA7iPbk+bJAfjp4SNMDSBn6j85sY4bam5M3SaTyb5+vqOjIzOgWcdoyWRyWlpa0/PmDYhr/bLB4t1s3qHwwCNE7HkVI5PgAqvYKj2voBPyuvZZLyREzllVjMDKRlSdfaSsYnTs7I7LOFjGVuujEq/pu1kFpPJfUTeJK32AijpxWcM+CSciZ+pe2Xvf2PC4igd0EiCKABqaG/Lcs3FIrFQwenjwnKJ/db+owF6zghEMtveCrKp+DFFGWfaGbZpdYsUtTRN1RBGynizEuUfwkop1SsPpmzI/cSpg6sm6VvZntd0tH1fpO3mfMUBi8rCHBZfNu9raWo/4Eka3nVtq7WWtB+ZJz4PrwKB6ivr9B+cexnsVdjunNFrFNvhX9LrkvvMrf++W/cb+MdEyttqteBxe+k7yquIdq2CfKhoZ4ZXj7tkdvuWTKALJOqbas2QcWT3pmvPOr3zUPaXZIrraJrHRt2IKUTbgkvXGIabaJbvLK++dY/IL28dE64QXCDwAqxzyyH/rldfhlvXWLh5nnVBHCwQPIipGrePw1vFPXXPfuRfN0BAHIqvJHpmvrGKqrR43wrEURPWUW0aTQ2qzZQzBvXAYhQMR1ZMuaY3WSY3qBo9OW2YFzgyXw6uoaq6I9va3m63qAsu/hoeHExISurq6qFTaccnrdI2PT5SXldXX10PTetYpFijY9YMda3+U+feDQuGm9D3CLqs9uKZjdOm+w4PHbQHECWVjN5fySXjlhHlkhnZQGaqq546a2RWth5fuW2ogq9BE6kPf8AvqD69omeqGPkUUv77n/tinchhF6JHXt3fMew81G+F5DWfu6V7RenjHxPOGTTgMO6hqrOdQMoauHlR3xliltXlnVF9U0JPSMpIyQjtm96IIoJl/wC2zcBh+RNPRT8E9HYml+ha1S+uaXdY0Oq9qZZvTCy98ecc0GL7A2SsL6XcEYo1rTDEz765oPbRKfR72HAh5Bmo8Mj2rB5d75HJSTu+SprdD4mMhRV/r6Oxjt7QuaRpdunfvlBbc/gleUOwY/xV119IxBA70LXgjaw43im5EFlX9+N3P1x0L4dmNNx/6a7gEXZIxuqJpePKOsoJnjntMLv851evKD7WQRepWrjwX1K7pmfOevmnwuNUhsfzqAxd1K2/BCyrXjUwv3NW8aR3rVzGobgU7Jm8spWF5TFpN3rMIPa2+AS6Py68pm1zReCh8UVoRXuZX8u7UlUun1czP3VGVUPSCEynW4ann72lc0bc9durC8UdPPvCumqruG9XSsommhkFV/cWLVgKuank3tio7Iw3u71uQl708j0uOCFtVER0dFRwUWFlWQsAuM3lLjoWe+OpXbW20NvK6NYRZ+t1s/W6mqwhA48cwNSOomUYQEj8BMQtFmELiaU1UFJ6CJo6giNOHAKBwVBRhFE2cQOEAFJ5KdwYgcQCaMIbCT7cNkTgQQxxH14wj8WQUYQJJazKP0TeYBZCEcSQtLtrpYhjiKIoeBT2WKTSBHh1hghEOCk9CE0fpB6rRkoGipY3RP/WRYSHeEYk1bjEf6XfHL18WvKpwXln33L374netLBLr72ga3nZO9qsYdXuSwHvX3TYiTeyWvnlqK4bYxskjbpE3fFPJXAeZB8fRZIjCT6rZI1V8MozcHdmP3zl85aFVdKasBcY0JNUymQir7LinYyAqbWofkbFLSMYTN4SoHFKydDuu7eVT3a+hpcirhrJPLLmgZ6f+yJH9oo5n9bBjfM5xGW2jgHTui8p22Z2++c/Pyd2VdcvFTJMd8EzHm8UU+Vd0yNyV333JHFbafkxKSj0E619E3L2Nx4k4cUNJSc4jF1HZLnVbRsxkU/PuzZs3wfFZqAx8UF5B4HLv/CKv5HSf5LRle1xaRJjsfNf4J4isvICluV9FMoowGVXeqIihIfqGE+ug6bF4txDvPqLGQjTZ/PZL590FRVUN33i7xErrx1UOmT2B2KE7GlbagZX+lYDLDO8u6fm65Q0FNgNCouIPM4Zu3rPQRxTDof47AmgXnHzbMvDMeUGduDf8ouK37aMUHBKNEUHswuJcJ++IXtcWu2tuH57Edf1R4DMqCjuqaIO45ZAExwPWNuZHFdwdkqd5d0IXGYAHXbLqzsgbqDoFCcubIipG/EsHlK1smHnnGJ/JISzGdlb97IWb288/gpW9vagob5o1EFDbzb5jvz1h4uSlq4aPuzFEqraJ9SnLzE2r371+/RqVmO+a2QqrnEATptD45d6TNF8r8bjUiFDrHP50lglT/hVjHjkvjV2CJifXZUMEFu9YvKORndZ/p/HAJPYZEkdFYGkyCcIOz+XdZX0/9/xp3hnReWcYUjY9CQYLIEpaLqvp/bTtTGATVeralSOnlQ2iqo+LiZmktQfVjei7WgvcNrEPT+K5aR7UBPEOecshGeIdp+IH3p3UQ8/wztAkMPOgqDK8cRRe1XX+hhSDd4gqkpK+3h3nxxEvySr35befN53mXTbEu33mZZM3NVXk/cvCXoBS186JGcVvTt6Njo5GpRQ4PmlizAf49I8oFgjE9kkah/uUjzIcBxC6RW7pI5rBS3eULHKpftlNoheucSugAupWVcJRDeCFc2ccSucPBFFQd0jyEXKph8AAZrDQG46PMQu0RRh5QeNHHDzg69GqZfFu/g/JEP2Xbliifuee1XTT2ME84QWK3jhF4sBA7JiioYdhGB5WCbgkpZ3QQdjG5d+ywXgWDgc0AeckL5tlT2iYOR8VPW2Z/R5BP+MNXUtVeGAqqOCAqQWMXDxEZY1cKybULe338Z/gOHaB9+K9q/putuHpYsoOgY1UZPWoulPQPc9MBB40c/cU0w1wSsPefOSr5YiQsgjD4EG3nMYrWlY2WQOaDx8dEDjGIXKc64K6rFvu9PoWLNUCE7WTQ+iIoPhZBcPd580QlR03dfQfZQ9havoFhY/ZlZFdkrFCx44fEjwndErugkk2Y3wWvrT+Oyp58n1//+D09X6edVEAMDE+QiKvZIEqo6326vUbj6hs/8oFeyRml0AsxbfwjbSq/lZBZe+SEcbbAGI7m7C0dzPold8Mr5qSVtE7q+XhUdKHJAB+paNexaPM86Lovii+JcMe+QN0e8CvfMK/YsKraMi7ZAIiL6Ka5FU4hGygChzcZlPMVE3woH/5mFfRMLyagsit3HJEDvZ83LNwGFZFoQ2s40F4xbhHwZBfJQUKB0UAfYqHvItpRzybuvicNowMwIGwignv4tG500Wns1NNtkYldbzrWPN+PBbvmD7kp352GGXrCzIskXdIPAlVM4ScGcGkZxBAEUameyoJkwjCCAo/iSSM0Tox8QAa34eidT5OIQn9jF5Fei/eEJJAq7oo4iSKMEyfnUcJqOnD1A2hCFMowjCKMIEijtLtARRhDHKMJI7SLaeQhBE0YZTWlUmrOSQ0YRBZ/OauTcCjqCzjoNRz8lqaQbUMPQiFo2CI79G1I2jiJJIwgMZT0fghemcoFYHvQRNonaco4jCqZiiAMIgiTDJQvhTeUanAwPNiZwe32JjomOjIyMiIloHZm86TSZOF6ZH1r3tpW5Ys+Zqltjx73mKFSZ8ZhPl0Lwq8fPiBO+rqfYtD1229y2bzzqcVULbyt0htO3NJ5ri8nUPJiG1MgaZLsKJ9uGEo3r9qemoUvHLUMrxY2z1KyRqt5PHEu3LsITpTzj5Awy32lomvQ0YPvHTAGJWi5BSpg3rMfoCJd3jQJ6VB2T5YyS74YTjeL6t8yz5Jw8A4eZvg+4gy30qSR0ajumOAkmOUul+uR1E/qgawi0yXtw5RsQ0yi28xdqXzDjug4x5hGNMA/3jmEKNawaspdmGFdXX1LN4tuVh92uGfer/PWeMVjKK2bMPcyXdr+7NROaRuA7v1KEDOAqXgFOtV/vEWDFgQOW8CmC2ZzfS0LY131BfZmFOyRlWVlRXl5WVlZV3DMyuraIOptOI1OT7qbq2RXNlK592M7UzBm8U1yLogP6+x8emME9r/xucvLNFpHxZlz5Ee88Rv2tfBUhFV494Z5bxyDnN5B3sHip+QMErtkbqtetkA6ZyNFbys/ACTaBGScE7pkXXWOyS9s8Kv8K2KQ5C2X7ZZRM5RIWG9x8/ldUz5r9zXR5fclL8srhdtF5J+WkZfwzdH1dZ+6y9bGfoduga8I3X+rEHEffc4BbcktycFW37nlHOLVbNDid/WN0+sl5LVU/IKtI0tumtkreqd6l/cdFjgpKJ7hpZDqKpHjoGj10Vt2F3th9eMkE6FY4yfrlmljsa78MK6ujoW75iLyirNLN59GJ+dVeA21yN20iO/z6Ogn7ZYeA4OVmDD4B00C2TevxQK0JIbJGPsP/OWtk3z8EC3p4XCxYvnLkldj0qvmhwfdbHWjM6ugLtbX5A8f/HSleC0SgAgFWTGyd66fPbcZTO/x/TVBzNhAICaijIPD4+0tHRYWCi0bcGz560L8Q6BBSy9w47d0rhiiHDI7P+QUyzgnV61EO9ExMUtigBFLVsNWJFLVNjXP+zmOn6G6/jpX7Yf1IyshXiHxo4YeAecuKUqfOnW77v2KAXh7+k53XNLgWEB+wCfIzKuOm6wq/q+3lUUzNMxLib9LqD+/c7vfrYvI8Gryb4Vw7Dssi0Hr8OeU9yf1EqqPDBCR+3cx3H0xBnOY2f2sbOLqThYYwK3njQIqAMQ1ZP+5SPGLt67Dhzdup1NKegpGj8zfX3ON2XxbpVom9c7i3ef4B2aCIY8/bBxy4f6NqeAQq8C6sDAub3jeDCshbZSBYUHgp+CIfUzG73UgMFPl9SZgKml+foodiyAwFHDmoCQRuDj46JpUUQ0A+hFd+6CV1O1YZE5WVkNDU8Xvhuzop1/3bH/BP2SM3Cqr6/PjXQ+e0Epv7Aw2c9ESEq9saFWT1tJz8zW4IFZQUlVeWlBRkFFanqigZ5JSkYxsb7GXEYcHl34dCaWxsZGSUnJr7766v/89a///Oc/t23bdvbs2YCQcFNY0kL6nX9hk0NKoXNWvR9zB9+SeGen4V/oGRf6o6CGV0m7W/Yb55R6v4oxmhgJoFV4zjlVE8OwEt/y12JibDTe6bsre2TAsKB9gP+RO+4GHqirhr7upaSgpveHfvug3wU0UI7+/oNVGcU37/ktEx+r4Jgth2WQL6juT+ouqBg+DHq878hVl6J3Lhmv3bJaXXPfeScmfCegFfqM6pb+9O6jIAU9K1FlD9f4dF4JOS8sAMH3oy9LL1os3s0LrFVa0niHqVnwR2buZ/gSbQJqQIX5zq/4ZHsWgQXtgjIvPfTxq6D3pi3AOJpM6A1GNAE08sIoeEb7ln9YP0ebb1jVdljwulctxTaqklPk5HFtlGfhGBJLtUbHnFJDIRdYBvdB1ATQyNHvhG5gAGMOIxZAVfUpGjvtZOM5JHZLDV7uX0mPsXrsESaeW+zsziN84tphvhUjC3WHw6uo6r7RlRXljQ0NC91PGxpK4zxu6Du9pF/Nzc2NDQ0NdbiCwgw/Fxuhg7v3n75bU0O0MFBBhCVp37r087f/VnjoUlZSGo7yOrLtm39/+91333330y+/PnCFNTY8ZcRy6+bNr7766r/+9rd//vMf33/33bVr18Kj4iwxGQvxDlqkDI2Yf5AJFvDOwAoouHiXf9R/d1T8LuY1eFJS0rKIqqzrrI0qRTdOCooISSjaKZo6c11Ud8x8RwuEAJpHZItcU1dwiL945eLWfbxKQXglI29V72wYFnQIQnHI+Xo8Lhc/LytjEXzyrNiv2/bazoxX0L6yts5+cV0ZHUsxeQuHpMKfBJWRL6geqQ1S903ME+uUtdR+E7ij4R4vfkXxrnsaqn5CTIz/lKrfTUXtM9r++i7+54xj0NWTSiamUjYpmJr5f/BYvFsl2ub3LqtjE1D3B+cdpgZUfWA3ty9pQd6Vj1hEYu1S3iDxoGNg0lkdL8eUp2ZRdT4VJGifPre0VtMIgksRbRQPhQd9CroeheNdCgYxNaCeM0zeLcqvkuyT0WaVRAuBNnCBm7B5jIOXdstoagnLmLiX9SLxABJLtQ2KE5Fzc0p/YZXWBeloiKpxx+Qms6ha73L6FG4sxTOn3Sqh1cDCRUAtNJAwPWcbXt596vwZScs0OKHPJxN7/rrSPc98BI5qDg8UkNJwyHqFwfeo6uqy3fZANyxUnWjrK140N31oZ84xUSjUFzlBNw19AWB6nRaFQimPczh5U7WgvCzS14br+sPJ8VFXK43QtPKaurrnzU0xwc6C7KIRcUn6BvqVjS97e7tKslOfvaYdLca47uto8/HxycnKJicn9fb2USiUp8+aF2rPfgDcnB8bv+IOXWSFf+X0vju03xXcsKpTOqoR1PdN8Kyg2EZWOWS9g2NBBHbACJGk4pXpUtAHTZinBYsl2URh79knWKa3uyTgDGNfWj+us0t/A8eCvjnPdZAENBHwzmvR8Eiwzm43cAn1Kv9QTdAEskVohppXqmtBH6qi965bPqIe8CvtfxRT6Zb/HlMzZRdReM8hziS+FUn/icLgx7S94rVg+d6Vk65pdcbxLSgs6Jf/xhCZP7s3diabLN7ND6xV2uqbWGOYFvMvUry+3Ffw6ikrO5cl8Q4Lwso6lU38bhg4XFIxN4ptdgpKEpFSvGPpLaVheNsu3g9HsQrPu6nncE3f6bIpyi6ryyPz2e2HnrcMrC9qWjoVDNF45x7l+Ljqyl0jNVQ5ijZCCgbg3nGKyXuXN5+QusJ2Vssi9RUCT+t0tw2K2C0qfcvU85SajX7YUyR2TM8r9LqhyxV1/UsGcB884JqCu6Vjc8PQ9YzUTT5NzDTvaAvsUPyKLgH1FAStVQs4R6UISduiayclzwlphL9C0ecPoquHNNzSYfQEzP12jP67RcoPlTrNO8bYKwAAlckRd+6pIxBoRxOtA4IyQ+OjLpZqngFRjo7mjk7Ork7WDx85PW9p9XK2MbW2cff0MtPXKW3sZIQAgiAOh21vfzs1RYKWuy5lvGJu+uk2tNHnOa8gKkF/px3QhzuoSNwHYM34ApA4qD8UckmdCZARMkDzRRvfmNfvtCVt6286pxCM9Ex7mU7exwlgBE7r35hJycedFTiQxbtFSuYKXwEAkJ2dbR6Fm/nMs4W+0Mf4kuzxoK5/ZtEAqSsAACAASURBVA2BMHecax79Dg9YISJE7ji75veZBaQbRREdg5L5JeWNYhqdU8qFLko/iMKdU3yg5pflnPFS9aGjpEGQqqXnFeMg9/wOPTeUQ26XngviipKe+C0DDb9c+Ew1CKxp+33fWa+6XhVbZ8kHYXDavlV03mFC90koWCQ3m/ijd/Cr+9WMPETHWKU2e2SV791+wKqSrGJkctkkzDXj6RU5GV5VNMQ7VC2obml92TUnEFrnhwUQBXVHTmghaseFeQ+a55CYRjOBBduzS5h/BwDAcEdLEe4Zc/GaGB0syEiMfZza0vwsITFvnEKuJ1a0dfa/fVkbHxsZHhX79v04CALv+9+lpySFhsU1v+mZO1Fl1rf45Pjsl1TeZhS0VaaZxTvmUrdm5pGRUVtYJLxqdHb/yBp9tlV+9VV6R2ABr9Jee0/EvKcgzuUdqhZUfmh21SE3AE9F11CCn005ByWf0nTzqxiD4fpO376r6BLNdeIir6SCsJQ6/2mZYyrOF1WMdZG09WRo4lRkM1nPGc7Of3r73oMPM94zuBNY07btwDnvhj5td98rjx5P71CPpdoGxgjLeSBqgCB8x85fuBwJI1o2tmwiZzmOSW75xz/NKqYuSt9SD3uOIQIPrV35tabbsygiaGjrKqERG0gE0ETaiIdfRsnhi0aImokTJ3n1HvdOjz/iQZOgUp/q+cdzl6LfrVkh+1RAq+cdAgvAqigQ3GEVZP9KMiR8uj1N+YJXTa+ZWWWJ+qR3eBXFr5wETT7/pONFHLB496lSs6L3AAA0Nb8wh8fTj+P5Q+l39LbeuD0sdGh4eF7ZzOUdkgA8sPY4rx0VWEt2Sa86ftPAFJl0+r6nX8WYP57GO214svBtfZeC1/7lg4j8egNkhqy6uRoyy7Nk0tTR45h+hKEbTM4l0ik84n9/FoE9nW7mMHinM4t3mFC+6yY+eDKqqPLf2y56lBIFz15zrugLqiLu2PG7SRHprsp9BR9s4FOqup6mgAYM0u8QWACV33jw0AmvZ4BLUu3pyzdEj186qReIxJL0zY3PGiAwtRS/KmpgXvaWXzlc8RQGdplr1x+Kd3jALeelfkiZDxbA1ILaXuG3HZ940rrtQHTxayWvVCRuwiws3zZnYHpXwXX7LUfXg7bx+XetkY7l4/TJ3iuvUCzezVtn18ASAAA8sc4rOss1vdmriLYeAOqG/3L/IvGgR8GAS9pTn/CktlevFpLRPLzDgeiqN8fPXBOV1hU4e+2uR7FLVO7VR0F+lRMw/MBV9QdmGd0a1g4cp26ektfmP3FVM6jO7XGe4Dm5E7fV2YVOmOUMP/SNUPF74o8l39VWvmyTFUSfmxJIbOcQU/Spf/8AFnrHIZOxGswhInkP9yUJKfmjIqekPLGwsrfHTkkIS6nwnFPkYGd/mEV2jMvhFT8rdEmOW/TSMaNYxmowJB5wj0nYySEqfltD4MyNrYdE73hlw/EUn6IuyZsKvJKyJ24oHOCS0I17g5lpUzPDjqbvLKE9u5Dc1tx+lfodCke1Ds24oGnhhQWsPJE/cVwyCcf7Y0FEFeiTnr/jtA66luSYXO9RNMiY3IuCzn6iHwL14ZinWY9Ql1zVhFvh2Edjx/TDoTBE2jbUGCLI2E8MhSMbuKMFpHTvO0Xs2XNEK7aLEd0s4S/lkcW7NS9mHwIEAKCrq8vLH+EbVxJH6E0gftl3HKHXIzwzMCR8YGDgQybnmOblHW32Q+WQY2qrSx5tFBVeNupZ+J7e2Kd45nTRVkQSKJ55bx1SW71KRqBq41/c45j60qtkBE0A/UoGvUuGEFgAXT3knPYOamGh8GTHlHcIPMW35L1n0Yf17bCyYbecLo/ct655/WhaVzdtjM8xtc2nbMQr/51X6SQCR/Ut6XXKavcp7HEvGGKsBqOvWgOQ2BGn1FbnzLduWW0yJmjvamhId9wj541Daqtv5fii3eGbaP+7NeBdWOal+9aepZ0yKmrbTqpZJ7WgiCCiGvTNKNh5VgdWN2WXhHN88tQmoQlWMYkmAmaobN9qknNSrY5PnKZnjH4ADkkE3dKf6/rEaXlF3ffPh0GwwwLwkhYZ2xht32TLhBdIOiX9C5o1PGO0fWK1fWLve0ZZp72Z7gsqab+uYaaBLEHiqXYYBPcdd3QtS7+bU+s2jwUAAO/fv+/o6Oj88q/hBdqwzNJeiHdL+fndbG6Wq0r80fQ7Ou88Cl5J3ZLdKihjEFTLzDt//OBtXUMlp/CLah6u2V2oQgLXCVWHjKcyRnZ3Hrkp2ntfvWtgGEFUMLI6KW8gb+kl/QjpPzNyisJP2kfkyZr6a7hEqNiHGMc890onXtVzu27oft3Q/Zquy4PIJng1bZjVN6v5uq61UWQ9GgugsnL3CGgg61i8Y65wLPNnlcAfiXfL5e8fknfeeMDM0YNbISqIPomXod9BvFMPqLxraGeU9FJdS+ayW6l5SBIbvzDPuVsiV2U5uDlPGSA17dw5xS9KyBqo+2ahamZQhQXQtUAQ9q2Mmt7R0wr3w2r9i56rusczbosn7ZB+55PVfEWLfsoVDgjOK97Dr4aYtSRmOf2GrPbsZ2XDGkXONAkOgGaxzgRMe5wxb9D/zcO74GdAfDsQ8XzB2VjLxdkn3f+ReScXGUin1Ue80zNUQxOcQqKVvAr2/cLrSaQYYxLOadvbZT33KW5FY1uCa98HNY7Cylp0/FIF+Dhk3IloIkADWWmLuNgp9nPKxlFE39J+WBUJltMkZxWmYB+jYB9z1ybSJO4lnL4BAbL47TU9R90gLApLdYsOOSTlGMCA5nJIB307Fu82iALrFg1ABQYtVJVq+2hnYlHGuuGuppomvu+HadO1XjVhfdwdWjrXZUPXhXL0uXiHwtOGDqFijcADDtFZfKJi3/7427ajYlqxT5k76T6JrRU72FS8a2pusQ5IX6S3cfFs0sYraO1Zm2n9TjmKiXeFu87qwPDv5fQM1TCEIFy3ILeQoG4UBg96ptWeui6r4pXqX/5CXExIxiX1lrqBlE2cT1mnmMQJGUQtbYwCCyIqhx2yugNoLdPp0Xb6eQMU+hECtL+MuasoAlXH0euEqpNHXoMQ90GlwNal73A1N4MI2n5QBfUNDbPmKi5UmJdu/2fe/27pUloTl1Rfw8umGCwAgq+eVekp3TwsdOP5224qlZSXEnLfyGVwcmxocHCCAgBU6ujo8OjoKDRvbnRseGxqamhkaGxyauasz6nBoaGJ8dGx8TEmnXF5idxo3mFpC/vh5cN2iQTThFfQGRQo3LiGJfxBGBZJBFzDYjlPa/niqQtNEp5bK1Zss6l419HRCY/N9i4aWFl2UDjAOYmo6hLngwNtUQlSDiUB9CXJiGrQP7/+lA4cUT2q4455mNCGJlDVrdytSmjkQuEB7+xnlxVUjogq60U3o4mgb8GLKxom7CIX5dEVjFHX5SWpakTd3oP71PW7XiUo4iq1dZI5LKavr395ZXoJrlm8W4KQ1sYJUJcZwC9jR6WSyzJjraycHmiqJFQ0T4yNop30jR18glB+/uiI5wOk3ORwf5gfGg1Pza+aJFHSYn2dvP2RKIQ3PLS95z1AHU9AefvBMRhvF0R47Mj4Cg9R3UjeIfAgvLRdxzNG1SVS1txTxrsYqpO0veOrBpHYKQQBsPKPELlizOgpX15NW2aLaVPxbmpyMrOowulxNbzqw2LYZWZ/ZpMY2g6sH4EGeqTvzEqzpxtm+uZoj1TmjWToh0xNb0q8zARMh0kLn0CdlYblBYUFMDWARWRZYnre2lS7j0Nh8e5jeaznE3n4JfsOobcjgwFIJxdkbFESXM81YmS44778DWRQoIK8Wmxq7utnFSfO3XmSmZv1JFxJTr+te8DB8NIdbdvCvBwNaemE0vrnmUF3ZPRy8ot8rQ1vqhv0DKzwJKeN5B0aT1E1UuK6qqEXUu1T/h758bQ4FBFwQMXxiF3Tj2pcVVVZMvU2Fe9AEBwYGEgrKNf1jAt5Sol5Dazsjn4FRL6cfUe1rTC0laVhlb5iXwNI3JCme2RyViG0OeCaV0cW79ZcpIsESNW7chSTXm9qqJ5c0jTRWyN8RvF1VYKctmNRRpSNs//bntGaSKdTmm5UAKCQhx+p3IYHRTuZ3vSJrqFQpjz07yHT8Gjzm0YBGRQq9VluivZD6y+Cdygc4JnVZBacfPGeNv8NQ7u8PsZvProONPZB7eO/Zh7X9GHB+ZLJxQhnWYbNxjsQBMcnJp4+f5FZVJZRULSy2xOBYRcU236Qg/m+JiufVbLyMFeWktX4yimpaGhqXifY/cnP214ETOv1qghlc0fd/f5NtbeDFBAElc5IhjsbOWPyyjMjHdyR7b3jr3IDBe7YkimUqZFO9avS7p4wJ9MbsCgihULyNLgHT8GF28rreaWSSOTanHjNhxYr5h3h4/Nnl8WLlTlG4UFMDcUzE3vKKCoc2oaLCD5ChvJefoBsGAp9Rg5ppC53Jt3KUkLjnc/mOm8bKnAAAK74Hh4ePnzo0Fcz11//+ldDwwcTExMrDvCzeFyvijcTLku/m5HEhvynDtVw7Ntv6hpKAWlbomViLPYdEK15M1pdkOiJCOscmKRSxrRvn7b3CfB1NZdTNUEFhPvbKgQ9eUalkvzNtUNzaiYHn948cw4dEmmgeENSVn3FvHv69KlXfAlijXZIXxZ3oH2iaF4qum5pabMdv8h77ibv2RuSmg4uxaTp+frrqeIhsFRVR7+e7q4Vj/ZsSGH5RCRQ4ikUSkdHx5s3b4hE4tkzZ/5C30z00MGDwcFBExMr7Nv9RMRf8msW7zb465FTogIaXnVDe6KNdzcHxaZMgUDnm2Zc7dPRSQp9N6GOnMy4pIzsxta28IhIXHV2U1sPAFDx5YVPX/V0N+KDQwOjYuIQzvaaJi59gyMry0BfXx8iLtc9t3tZqFpbxygcBVnVD6/uQmC7EdhuJHaAMb9hbSOaFVpADaBh4UMizT5vbGWS3HhfdM0LaG5uLi0rq62tTUxIiI6KJBAICQkJ//W3v92+dau4qIhMJm98wjZ/jCzebfQ3Ymz0CNKPcoEmnUD730JJoU0+plIpFGpfX294eDjjFWRox+UrqdzR1dfR0tSNTqueJNHaxSu5ACArv9Q1iYCont43eBYUNuiRtpMHbWordG9ApGgCYJdQH5+STaXO3ZtuJYLcYD+Dg4OPE5KysrIKCvKzsrNra2uHhoYpFAoAAEODgy4uLh0dnV+03rqu8mTxbl3Fu/LAAQDo6+sLDw+fFQRApbxsrikqKqppaB6dXNVv+NDQkG9IHLJqeAOakBsAsiVFgQfdcjv9ozL7+hfbTGGWzD/vIwSv8bGx+MeJ5ubm5ZUVxJqaV69eMWZoMpIHAMCXq7QycrGuBhbv1lW8Kw98Id6tPMQ5PgEAHBwasnT09C7uxBCpCPrC7yVRYz0719YvAQgsxbuw3QmT0Pb6zebXgOgqG0gikfJzcx4aPQgIDGh+8WJoaJhMJm/+xM8pa5vFgsW7zfIlZqVjA3gHNagnJydDwiLU7AKRle1RLwYimvqXfoc09IY19i3d/edyGd3cH/VsyMA7xsET0dPTs5l5QaFQ3r9/PzAwUFZW7ujgaG9vV19XNzo6xtwNMquosB6XLgEW75Yuq2W4rK2tDQsLMzc3l5eXl5SUPHbsmMTyLxEREXZ29uX7W7YPcXFxYWFhLi7uI2xsR5Z8HTx0aMfOXQcOHFiyj8/okI3j6FEhISFxcfFlS2ejPAgLC/Px8QkICLCzsx85coSPj09UVFRCQkJSUlJeXt7c3DwsLKy2thZkXauQAIt3qxDeHK/t7e1IJPL69etrUkc2jHcrSK2oqOj+/fu3b98uICCwAu8sLwwJiIqKcnNz8/DwcHNzc3Bw8PPzQ5hjOJhluH79OhKJbG9vn1P6WBaflgCLd5+W0VJc9Pf3e3p6ziqaq3zctLwTERHZvn37v//97127domIiKwym39O7yIiIlxcXIcOHeLh4eHl4RUQEFgcc3Ol5Onp2d+/9ivql1Lav1w3LN6twbdLS0uTlJScWyJXabM5ecfDw/PTTz9t2bLlX1u2HDp0aJV5/PN4h5rSYmJiXNxc+/fvh1Q5ISEhMTGxFbeyJSUl09LS1qAE/2mCYPFutZ96zdU6BgI2Ie+OHj36/ffff0O/fvzxR25ubkZqWYaFJCBOv3h5eXft2n3w4AF+/umOuYXcL9fe09NztYX4T+OfxbtVfWpzc/Plls6lu9+EvBMXF2c7cuT777/fsmXLf/7zH0FBwaVn58/mUlRUVEBAQFBQkI3tyOHDh/n4+MTExNZJCObm5qsqx38azyzerfxTryvsJCQkNiHvJCQkeHh4jx49unPnzv3796+4IbZO1X4zBCsiIsLLy8vHx8fNwwNhbrkdcyvLBQt5S6nJLN4tRUrzuFm/ZiyjuG9C3gkJCR09elRcXFxUVFRISIiRVJZBVFSUi4uLg4ODh4eHi4uLj49v40dyWA3beSrqx1Ys3n0sj6U9paWlbUAN32y8ExcX5+SkzWLbgLxvkijExMRERIQXSYyYmBg3N22YlZOTk5eXT1BQUERE5DOqvazhi8VrMIt3i8tnnrf9/f3rMRo7t1JtNt7RZk7w8s5N5x/XRpyHi333vkPz9roJCAjs3Lnz8OHD0Iw5+pjE55eEpKQka5LKPJV2xorFuxlJLPn/BrRkoXqzwbyDhhEX0k2EhIS4uLgYXVELOfv8NX7tUiAmKsLLzbl3z24BYRrx6LqeiJCQ0OHDhw8ePMjLy7s5hcBq1S5SlVm8W0Q487xqb29fZYWSk5Pro1+ysrKLB7WRvBMWEuRgZ+eErqNHhUU+0mnorTZufn5+KMHiokKc3H9wRU9YkO/Qgb27d+/atn3HITbasgdoejA3N/fGd8wtXk7mvmWtvpin6tKtWLxbSDLz2yORyLnF65M2ZmZmmpqaEhISx48fZ5TF169fHz9+XEJCQldX99GjR3MD2UDe0Rpu27b+foSddh3YvX3PQQ7m9EC1naHOiPFz/LbzALODP4aZh5Pt0KGDbBxHhUVED+7+/fed+44cPrx75/Ydu/ZwcfNs8uW3zJ8AiUTOX3z/9LYs3i2vCKxgbWxKSkpPTw+0ZYCLiwtzfI6OjhISEqdOnRodHU1KSmIushs7H4XGuz179onQl9OL8h3+ZetecQkxXu6ju3ft3L59+/adu4VFREWEBQ4f2Lt9x84jB/dv/cPxjpfz8K49ezmOcuzcuXPXnn3bfv3xEAcPPz8/Dyf7vv0HBYW/pGVz169fZy5mLDNDAizeMUTxaUNtbe0sJH3yMSoqCgTB+Ph4yGVjYyNzNHV1dZB9Xh7ttM2QkBDmADdYv/v1p5937KRd//n5ZzYeASEBvr179x7l5jlwYP+Obf/h4OZlO3hg34HDAgL8+3dtXY1+l5aWRiKRQkNDJSQk9PX1Ozo6IDNz3tfBLM52cN/OXbvZOXmgTVLExUX37vj9p59+/nXrdgFBod2/ff/btl1Hjhzh4Ti8fdee/bu27TrIKSEhIcTHs23bLl7+eWZWOzg4jI+Pt7W1rUlq29ra1nDcn7WTCnNFY5hZvGOI4tOGsLCwZZVsSUlJ+s7sFD09Pcjj6OgoczR9fX2QvbGxMZV+nTlzBrKB9mhiY2ODhhGWFe/yHdP0ux3bth/l5OLi4jqyb9e2XbS5xKKiIuzsbLu2//7zTz8eZOPYv2/fUR5aF54o35q1Z5nZt/xkL9UHLyfHTz/+dOAw21H2I9t//+0QB7eYuDjb/h379rMLCgnu2bXjl9+2b//Pj4c5aXu9iIsJ/r5tFx8/3++//LBrz77du3fv2rmTT2h9eRcaGkoikdaQd2FhYcwljWWGJMDi3TJKwnovqGBUX1FRUTY2tt27dm3dunXP3r0cHB/1pjGcrZ2Bxru9M+1ZcTHR7f/5hYOLe8e2rTt27mQ/yrnt918PsR/dv28fBydtUJKf6/Bq9DvmZG8A78SE+X//fRuPoDD0yyEoKMjLyysoKPT7r99v37Wfk5NTSID7P1t38nIe3rp9N70By7FzzwFhEVExEWEuLi5efgExsfl3zVtD/W7NecdabjFvxWbxbl6xzG8pLy/PXFfXzywmJrZ3z55/bdnyzTff/Otf/2JjY5sbFx6PZ6QSj8czHDDPOO3p6dHX14detbW19fT0NDQ0QL6gFiWz46ioqENHaFfLixednV2MBhGJRPL28oxPSGJEFxcb/duO/fr6+j09PcytOSg0SEnB4/Hj4+MQziCPjEQyGMechba2Njwez2jnQmmGAnFwcGDkjpEXKMzx8fGysjJmX8xhQvYC3Ee37z7wsq2tu7u7pqYG8kgikRAw39i4x4xMpaSmsh/at3ff/v0HDiQlJzPsmWUoISEBgQl629zczNyehQTC8AjJAbKcFUhbW9v4+DgjX8xfoaenp6qqCgRBZl0PipQhwFnSmPdRXl6ekRKWgSEBFu8Yovi0YVnTjNXU1ILpl5GREVQiGTaQPfRXRUUFevvw4UNmG3Z29u++++6bb7759ttvhYVnT/Fva2tjVHLmygDVduaaxqhXbW1tIAhCeGLUTEY9xOGwJBIJiUSysbG1tLSCIPiytZXtyGElJaWu7m4QBLu7u/X0dHm5OSsrK0kkEhod8EnegSDICJ85YQze/f/VuMxm5oxAXXuzeMqwZGQKIgVDFLP4CGHlkanxr79ta22lZaqlpeXAgYOyd6Q7u2iZ6uzslJWT27NnT0VlFT2QEBERERwOx8DNLFpB0UHcYcgQEimk6zHyOwv9jBRKSEhALmfBC8o79OHmqo2z8jUv4GZZSkpKfrpA//lcsHi3jG++rG3ZX79+DQXd1NQElcWysrK5kRUXF0Nvm5qaoLetra0SEhICAgK//PLLN998s2PHjllFmbluQK/weHxPT09ERMT4+DhzRWImyCydYpYyxRwm5NLMzAyaXbyQy0/ybqFKzsw4ZvMsuDAniSEBZo5Algz0z+KIAD8/HA4nkUjJSYm///JrS+vL8fFxe3t72lxCtv2lZeUkEikoKJCHh5uXjz84JATqPpvLGoYMZyWPQS6Id7OkJCEhwRD4rIQxZ5mRr1mZZQbcXDkzfC1iOHbs2NzCxrJh8W4ZZWCR4jX3FXSwLAiCNTU10FsCgTA3MhwOB72tq6uD3pJIJFqvubj4zp07t2zZwsXFNSvweSsMo6nF3A5iripQe5bRvJ1VP5nrWxu96aeldR+KdyGXzIFDLplhxFxjGWiAWMycfmbzLHVvVgiMxDCUO4YNBFZoeqCAgMDBgwdfvHjBEHVaWhovx8Gmpufd3d3a2trsbAd//c9v1dU0fZYxLszIPnMWoPAZ2ZyFLYay2dbWBrlhKHcMaTCiYBY+sxlyOffbMdIz9xXDyycNDAmwDAwJsHjHEMWnDcvS71bJOwkJCXZ29h9//HFusZ4FIIaDReoqpG4wV8hZgTBXsJcvX3Z1dX2SjAwQzJuAWbRi1puYGcdsZsbi3MChWBhKEyPS1NRUEokUHBx85MiRiooK6CtCoPkoU60tnZ2d12/c2LP/AL+g0ELZh2Q4tyi0tbVBoTGrz5BUGbyb64vBO0Y250ITyghzUplJKiEhMUuSjIwvbmDpd3M/BwiCLN7NK5b5LZfVf9fZ2QmF0tjYCBXN8vLyueEWFRXx0a9nz55Bb9vb2yEbTk7OXbt2QWbmv1gsTTcJCAhgtuTj4wsICKA135KTGfaamprd3d2tra18fHytra3d3d2amprQ21mBMPzy8vI2NzdDLvn5+YWFhRdCw1wkMQN3Vi1dIu8YXI6Pj593fgYjWNowMf2qrq6m9yeig4ODSSQSM4+YIQJpVXozozcLZYoBprk0mYsqhgQYhrm+IBuG37S0tFn6KeSAOamQDZRTf3//np4e5kwtFMUse1b/3dy6xuLdvDJZ0HJZ47NaWlrB9OvBgwdQWTQyMoJsMBgMHInyhyP9YAglNc39Rzj3H+FUVtfygyH8YIjrt2Uhm/1HOPceYmeYGQYYAkUikeIeJzJs4h4nkkik3PyCsbGxFy2tDHvIZUVl1f4jnC9aWru6uu4qqkJvoR56GAIFPTLC3HeY48WLFsjlATbOI5w8VVVQXz5tejBz82puJWcelGCACfK1dN5BxOno6GDWRqFAJCQkUlNTQRBMTEzk4+Pj5OTk4eF5+fIlpEYx0xZyz5yeWa3IhXjHABMjRoYNlF/mVDFnalZ+5+plUB9rR0cH84g2I5a5vIMCb2hoGB8fZ7S7Ge4/aWCNz85bjVn63bximd9yTebfCQgKHmDjPMgldJhX7DCv+Mrullba+CwiIPQwr7iJpf3Y2HhLa9thXvHKatoklcfJaYd5xRU19Lq6e8bGxv9fe2f7IkVyx/E/QePDPPTM9EzP9PRTVc/09PTDdM9DzxiQBDeQN5I3CQhGEkKCSQjkydUTEQJH4ouD4F7UIIt35kgw0TtI4l04TUTPuwtIIBC4Oy+Heu7qQkBWxdOdpKd2K+3s7M7OzuzDsL+h2e2up67+VteHqvpVV/340FFs1T/48Obdicm93/oeueO16/7kD5ICturHT/rzXUnEYEhk1q6+4zcn6bcfwZoZpAZxp5bNtvofREOwDRVMjdRhgpVms9nWqLFtO5fL7du3b2JiYnp6+siRI/V6nTCOtJhIUpQmbflZIu8Ip+hTBM0OlPU0Y0GTN3lASkNydxqSxg2mHGQWiR4MT24dtHEHw3c9h/l3Hesw8K6jLJ0de/2+ouNLmZUxtmuq3ejzIGgjGb12/X2a2u/+8P8Nqz748CZ1n6PY94kL5R25pLxT7UbHkHShhDZCkTrfbDbpbDtiMFki7yjdKCkIcejIV6lUunr16pMnT06cOFEul2u1Wr1eD970ypUrtIdIGUfyc/r0aTo/bum8I2YT+gYEMxbEVrPZJI1QSlj6LCRu0HBEibXLFwAACSFJREFUh+RoVtsek9ItGIDQvA2CHV+q+Y7wfQUtweAJ8C6oRpfzGz1+P7tr1y7ylRidgkcXRyF3mrx3n+Dmm9/94dOnT589e2bUvkAJtX5OsOVJWKOL382vXQN0ITibnJzcu3evKPnfPyy+YjDpJ1LrygBzMtRJ0eniXd7pDeYNvOutwHtdH+XMmTPNZvPixYuk8rSZLC5fuUagRhplY6fG1w/jgjlBpiephfnTngdIBM/zyuWy67oHDx6cnp4+d+5cpVKZ/xlX2yDd/G7jALM0vEnB+igL1Wrg3ULKdHan3bqlV4YLFy48ePBg586djUbj0KFDwXR/dPCoajdypR337k+d/e3vg4hZV+crx7tarUYW17Mt68CBA9PT0/NH7tqkJlYIKmNbt7Et8Ma8hPXv6OvRdgK8axOky+Xy1jc+fPjw/v37G41GqVT6+JNPyD0+uvnvvPP5/42XffXr3/7OD366rgDXlpmV4J1t25qm6bpuGIZpmq7rrtz2rBuNem3DJl3e6Y3kDbzrubT72b/CNM0vfnn35L37dycmv/SVr+VKPVgtck4rsNPoKRYh12zcpRlJ8m57rgbIO8dxEEIYY9M0HcepVKqAucHiGPavWKRKA+8WEaezVz/7k5mmKeQNMVcIh0KbNm3eGoll9WpbY6rjJdLtBC/LRiXFsUlsyVpJyDsdQ853VLR8hJNVgstuyMvZ5a2fiyjPg7h/3nmep6qqIAi6rtfWdMfCwcJlvaUG+5N1rrRzrsC7OSV6+b/sMSPDMHkZMYmUoJfVUkMpGOFwJFsoq3YdmTVs11W7gc0qsjzfxaggo6wYFWzVW7yT5GIFW74jJ4hJqYBN38uPYnnYrOIAy/xEjHIrzYaiFSIpCfkRafj6XMpei4/+vRQ/vJezy1s2h5DTwFYN+Wn66S+Dd2Q3r0qlbBiGKIqaprnuBtq4dq04SOw5vbzLGyss8G6Z5b28Xq1pWol4jJWLpBWG7YakKEwaq3aF5ZFYLGO7wUtKSi7KBSuVFdmMGE/ynGKgopXgJdmopPlMStaZeDySFDOilEKmatclzeTEHOUdKropXkqksyyvyIanaIVtTDIlyLEUz+ds1a4LKMemhURa5OQCsupywWS5bJzLJiUNW+6WzSHFrmYkzIkaMnwgLp13nuc5jmO1fvl8vlAoOI5DN/pZKwpskPtCT7ZrZQbedZVowQDL+NzCsqxIOJJW57qiVgPpeiQuYKsS40RBd7HdyGSzrKhJmpHNG0rRyQjZEMPJ+izv/P4sMtKinJJ1XLQirIBtj5cR54NvdtxNQGqMk5Wim5FV2agpmradSUlFlxclJqPkLCccZZIizkgoHE1k9XKKS7ByUdbtDCpgs7Rl07akICbSimLMzovuyjvyNSsxPvhLwheLruuszny9DcKyro8JH1QsWFEDHsC7gBi9n/aKPMuy4kw0qbTY1Bojk1QcTcrP8U7weSfn9RibZJI8mxFCTLKddxLiFFMt1eMsm9XLbIqTWg0xgjw+KySlAumoqjbpz/rjdxLORTlRLepbw3FOxJyIk7wkGpVYNJTV/X6ratf9/uymzfG0GE+LqNVZXrx95+8/jZCWz5umv5tXuVwG+0NXNg08AMBuiXUXeLdEoRYM1lPH1jT98btoMqNYHi+KUTYTjUTSOVc1y0xKEHQn5zRYNs4KOMVLaaxjuyopqCPv0shUSw1ZRQwrMylFDVgYBFmOpXHOrXNpLp1z/fE7TqG889t3kbhs1tSSl5EUoVhNJGIctnN2JZEWJM3csikkW+UUL3LIIACd376r1Wr+TrWSpBf8ecie50GndeAUW2KC0I1dsHLO8wDezZOkd4c33nhjiUtFteyzRV5WwtE4w3LbQ+Gt26MZ1R9TS2fFEJNgYgwTS7KSxksozLDReDLMCkw8JWp2Iqv49tlMKolMXlJCsbRUcHN2Zfu27Rye6yC3urTIcBNxNhyNh+O8YnmKpkVbvBNxnknLuVKdF8VQJBZh4tGUiCxPKVqhSCzMJBI8wpa7bUsEOQ0xr8fTglSskPadqBZc161Wq8ViMZvN5vN5x/F384LfGiowMjICBoqe6ivwrie5Fgw8NTW1lIZei3cmtuvYqiiGo5g1ZDg8KrZMDXVkuIpZw1YVmbWWfbYsm9WW6dZfTIVYS5HpIn9hFc83pxoVRS9FmCSy2mfMqZafMvbtvA3Vqimmjy1iciX9Vmy2LL/EIux7VRXDv4tq15Wig32XOvLtv34K2PSyioqQomlaqeRvyQi/NVfg2LFjU1NTC76R4NFJAeBdJ1WW63br1q2xsbFFvrGd412jBRT/L+kwkr/UkbiTSx83cwc5p4GRbnNZKaXM9jqDSbXoNps+iU5j0RMcoORzYebcafZa/Vmt3GkP1jWv9hstA7t37x4bG4MvKJZXR4F3y9OtS6wbN26Mj4+Pjo7u2bNnZGSELgRPedfGpuVdYrMm6/4UluVFX3qs+eN3G40ya/W8O3bsGBkZ2bNnz+jo6Pj4OKx60qXidfMG3nVTaKD+ly5d+smZvx1/d2bsveYQHS9dmX7h5Lnbt2/PzMwMVA9IDBRYVQWAd6sq9+XLl4eTdw9fOHnuzp07wLtVfV3gZoNWAHg3aEUXTW/i7qff+NmpsWFr3x1/5z8vvvzaw4cPF3048AQF1rsCwLtVLaGZmZmXTv3mFxc/fvn95vF3Z9b/MfZe81d/nzny6tt/efuv0Lhb1XcFbrYCCgDvVkDURZP8dGLil69eOHz2+osX7/z8rcl1fhx9/aPDv/7ja+f/9Pjx40UfCzxBgSFQAHi32oX07NmzicnJP1+++sr5i69ceGtdH+ffPPv6m//4578ePXq02jLB/UCBFVAAeLcConZLcmZm5rPPnjwekh90Y7uVJ/gPjQLAu6EpKsgoKAAK9KkA8K5PASE6KAAKDI0CwLuhKSrIKCgACvSpAPCuTwEhOigACgyNAsC7oSkqyCgoAAr0qQDwrk8BITooAAoMjQLAu6EpKsgoKAAK9KkA8K5PASE6KAAKDI0CwLuhKSrIKCgACvSpAPCuTwEhOigACgyNAsC7oSkqyCgoAAr0qQDwrk8BITooAAoMjQLAu6EpKsgoKAAK9KnAfwGuuIhwomwqaAAAAABJRU5ErkJggg==;" vertex="1" parent="1">
          <mxGeometry x="406.42" y="360" width="421" height="307" as="geometry" />
        </mxCell>
        <mxCell id="sBmEp7bvWE8VAt0zwp9F-11" value="Laptop" style="whiteSpace=wrap;html=1;" vertex="1" parent="1">
          <mxGeometry x="90" y="370" width="120" height="60" as="geometry" />
        </mxCell>
        <mxCell id="sBmEp7bvWE8VAt0zwp9F-13" value="Handphone" style="whiteSpace=wrap;html=1;" vertex="1" parent="1">
          <mxGeometry x="230" y="370" width="120" height="60" as="geometry" />
        </mxCell>
        <mxCell id="sBmEp7bvWE8VAt0zwp9F-15" value="Laptop" style="whiteSpace=wrap;html=1;" vertex="1" parent="1">
          <mxGeometry x="-50" y="370" width="120" height="60" as="geometry" />
        </mxCell>
      </root>
    </mxGraphModel>
  </diagram>
</mxfile>
